<svg width="275" height="40" viewBox="0 0 275 40" fill="none" xmlns="http://www.w3.org/2000/svg">
<path d="M6.97926 0L0 39.1599H129.554L136.533 0H6.97926Z" fill="url(#paint0_linear_5169_4036)"/>
<path d="M143.511 0L136.532 39.1599H267.139L274.118 0H143.511Z" fill="url(#paint1_linear_5169_4036)"/>
<path d="M163.53 27.869C163.912 29.3203 164.263 30.0458 164.996 31.0239L164.933 31.4023H158.238C157.792 30.8342 157.569 30.235 157.25 29.0992L156.516 26.1969C156.134 24.6197 155.305 23.9253 153.934 23.9253H152.691L151.352 31.4023H145.009L149.057 8.68799H157.313C162.796 8.68799 166.366 11.3381 166.366 15.3133C166.366 18.594 163.976 20.8023 160.628 21.6545V21.7808C161.617 22.317 162.35 23.3266 162.764 24.9357L163.529 27.8694L163.53 27.869ZM155.847 18.9096C158.589 18.9096 159.896 17.7423 159.896 16.1017C159.896 14.8081 158.748 13.8934 156.58 13.8934H154.413L153.488 18.9096H155.847Z" fill="white"/>
<path d="M177.08 8.68799L173.032 31.4023H166.656L170.705 8.68799H177.08H177.08Z" fill="white"/>
<path d="M188.715 8.68799C196.238 8.68799 201.147 12.8524 201.147 18.9096C201.147 26.4176 194.867 31.4023 185.973 31.4023H176.665L180.713 8.68799H188.714H188.715ZM194.644 19.288C194.644 16.3538 192.54 14.0512 188.077 14.0512H186.133L183.997 26.0392H186.164C191.711 26.0392 194.644 23.2313 194.644 19.288H194.644Z" fill="white"/>
<path d="M222.249 8.68799L221.293 13.9882H211.283L210.71 17.3009H219.444L218.487 22.6011H209.785L209.147 26.103H219.508L218.551 31.4032H201.816L205.864 8.6889H222.249V8.68799Z" fill="white"/>
<path d="M239.62 27.869C240.002 29.3203 240.353 30.0458 241.086 31.0239L241.022 31.4023H234.328C233.882 30.8342 233.659 30.235 233.34 29.0992L232.606 26.1969C232.224 24.6197 231.395 23.9253 230.025 23.9253H228.781L227.443 31.4023H221.099L225.147 8.68799H233.404C238.886 8.68799 242.457 11.3381 242.457 15.3133C242.457 18.594 240.066 20.8023 236.719 21.6545V21.7808C237.707 22.317 238.44 23.3266 238.855 24.9357L239.619 27.8694L239.62 27.869ZM231.938 18.9096C234.679 18.9096 235.986 17.7423 235.986 16.1017C235.986 14.8081 234.838 13.8934 232.671 13.8934H230.503L229.579 18.9096H231.938Z" fill="white"/>
<path d="M263.816 9.91776L261.138 15.0917C258.907 14.3662 255.942 13.7352 253.838 13.7352C251.734 13.7352 250.969 14.1451 250.969 14.9344C250.969 15.7237 251.543 16.3224 254.699 17.3634C259.831 19.0354 262.095 21.2437 262.095 24.3986C262.095 28.4996 258.843 31.7808 251.639 31.7808C248.164 31.7808 244.499 31.1812 241.375 30.1087L244.021 24.9033C246.348 25.6603 249.217 26.3542 251.958 26.3542C254.285 26.3542 255.146 25.7551 255.146 24.9348C255.146 24.1145 254.317 23.5783 251.225 22.6317C246.125 21.0545 244.116 18.8462 244.116 15.6913C244.116 11.464 247.4 8.30908 253.839 8.30908C257.09 8.30908 261.139 9.00307 263.817 9.91821L263.816 9.91776Z" fill="white"/>
<path d="M31.1186 24.7128C31.1186 28.7823 27.4848 31.7165 20.4401 31.7165H10.4941L14.5422 9.0022H23.7229C29.4291 9.0022 32.0429 11.2105 32.0429 14.2705C32.0429 16.8577 30.3216 18.9078 26.9425 19.8858V19.9488C29.6521 20.4535 31.1182 22.5989 31.1182 24.7123L31.1186 24.7128ZM24.9028 24.3972C24.9028 23.2299 24.0104 22.3467 21.5873 22.3467H18.3995L17.5706 27.0159H20.7585C23.9463 27.0159 24.9024 25.8486 24.9024 24.3977L24.9028 24.3972ZM25.5405 15.5956C25.5405 14.4283 24.7752 13.7024 22.225 13.7024H19.9619L19.197 18.0245H21.4284C24.4246 18.0245 25.5405 16.8887 25.5405 15.5956Z" fill="white"/>
<path d="M51.6218 28.1832C52.0047 29.6346 52.3553 30.36 53.0879 31.3381L53.0243 31.7165H46.3298C45.8833 31.1484 45.6603 30.5492 45.3415 29.4134L44.6085 26.5111C44.2256 24.9339 43.3967 24.2395 42.0265 24.2395H40.7834L39.4445 31.7165H33.1006L37.1491 9.0022H45.4051C50.8879 9.0022 54.4581 11.6523 54.4581 15.6275C54.4581 18.9082 52.0673 21.1165 48.7201 21.9687V22.095C49.7084 22.6313 50.4414 23.6408 50.8561 25.2499L51.6209 28.1836L51.6218 28.1832ZM43.9395 19.2238C46.6809 19.2238 47.988 18.0565 47.988 16.4159C47.988 15.1223 46.8403 14.2076 44.673 14.2076H42.5052L41.5809 19.2238H43.9399H43.9395Z" fill="white"/>
<path d="M70.962 8.94458H65.9892L53.2383 31.7218H60.0282L61.6541 28.4726H66.6425L63.774 23.7715L66.8176 17.9355L67.8064 23.7715L68.89 31.7218H75.6477L70.962 8.94458Z" fill="white"/>
<path d="M102.936 9.00705L98.888 31.7528H93.6922L88.0182 23.2982L85.9145 20.2381L85.4044 23.4245L83.9384 31.7218H77.7861L81.8346 8.94458H86.648L92.8002 18.4407L94.6174 21.3744L95.1274 18.3458L96.7851 9.00796H102.937L102.936 9.00705Z" fill="white"/>
<path d="M115.052 9.00928C122.575 9.00928 127.484 13.1737 127.484 19.2308C127.484 26.7389 121.204 31.7236 112.31 31.7236H103.002L107.05 9.00928H115.052ZM120.981 19.6093C120.981 16.6751 118.877 14.3724 114.414 14.3724H112.47L110.334 26.3604H112.501C118.048 26.3604 120.981 23.5526 120.981 19.6093Z" fill="white"/>
<defs>
<linearGradient id="paint0_linear_5169_4036" x1="0" y1="19.58" x2="136.533" y2="19.58" gradientUnits="userSpaceOnUse">
<stop stop-color="#C30026"/>
<stop offset="1" stop-color="#D81E1F"/>
</linearGradient>
<linearGradient id="paint1_linear_5169_4036" x1="136.532" y1="19.58" x2="274.118" y2="19.58" gradientUnits="userSpaceOnUse">
<stop stop-color="#D81E1F"/>
<stop offset="1" stop-color="#EC3B18"/>
</linearGradient>
</defs>
</svg>
