<svg width="183" height="36" viewBox="0 0 183 36" fill="none" xmlns="http://www.w3.org/2000/svg">
<g clip-path="url(#clip0_5172_4137)">
<path d="M6.19248 0L0 35.117H54.7316L60.9241 0H6.19248Z" fill="url(#paint0_linear_5172_4137)"/>
<path d="M67.1144 0L60.9219 35.117H176.805L182.998 0H67.1144Z" fill="url(#paint1_linear_5172_4137)"/>
<path d="M84.8815 24.9912C85.2209 26.2928 85.5319 26.9433 86.1823 27.8204L86.1259 28.1598H80.1861C79.7904 27.6503 79.5921 27.113 79.3092 26.0944L78.6584 23.4918C78.3191 22.0774 77.5837 21.4547 76.3675 21.4547H75.2646L74.0766 28.1598H68.4482L72.0399 7.79053H79.3656C84.2303 7.79053 87.3981 10.167 87.3981 13.7318C87.3981 16.6738 85.2769 18.6541 82.3069 19.4184V19.5316C83.1838 20.0125 83.8342 20.9178 84.2017 22.3608L84.8807 24.9916L84.8815 24.9912ZM78.0648 16.9568C80.4972 16.9568 81.6569 15.91 81.6569 14.4388C81.6569 13.2788 80.6386 12.4585 78.7152 12.4585H76.7922L75.9718 16.9568H78.0648Z" fill="white"/>
<path d="M96.9014 7.79053L93.3093 28.1598H87.6523L91.2445 7.79053H96.901H96.9014Z" fill="white"/>
<path d="M107.224 7.79053C113.898 7.79053 118.254 11.525 118.254 16.9568C118.254 23.6897 112.682 28.1598 104.791 28.1598H96.5322L100.124 7.79053H107.223H107.224ZM112.484 17.2962C112.484 14.6649 110.618 12.6 106.658 12.6H104.933L103.037 23.3503H104.96C109.882 23.3503 112.484 20.8323 112.484 17.2962H112.484Z" fill="white"/>
<path d="M136.979 7.79053L136.13 12.5436H127.249L126.74 15.5142H134.49L133.641 20.2672H125.92L125.354 23.4076H134.546L133.698 28.1606H118.849L122.441 7.79134H136.979V7.79053Z" fill="white"/>
<path d="M152.39 24.9912C152.729 26.2928 153.04 26.9433 153.691 27.8204L153.634 28.1598H147.695C147.299 27.6503 147.101 27.113 146.818 26.0944L146.167 23.4918C145.828 22.0774 145.093 21.4547 143.876 21.4547H142.774L141.586 28.1598H135.957L139.549 7.79053H146.875C151.739 7.79053 154.907 10.167 154.907 13.7318C154.907 16.6738 152.786 18.6541 149.816 19.4184V19.5316C150.693 20.0125 151.343 20.9178 151.711 22.3608L152.39 24.9916L152.39 24.9912ZM145.574 16.9568C148.006 16.9568 149.165 15.91 149.165 14.4388C149.165 13.2788 148.148 12.4585 146.224 12.4585H144.301L143.481 16.9568H145.574Z" fill="white"/>
<path d="M173.859 8.89376L171.483 13.5335C169.504 12.883 166.873 12.3171 165.006 12.3171C163.14 12.3171 162.461 12.6847 162.461 13.3925C162.461 14.1003 162.97 14.6371 165.771 15.5707C170.324 17.0701 172.333 19.0504 172.333 21.8795C172.333 25.5572 169.448 28.4996 163.056 28.4996C159.973 28.4996 156.72 27.9619 153.948 27.0002L156.296 22.3322C158.361 23.011 160.906 23.6333 163.339 23.6333C165.403 23.6333 166.167 23.096 166.167 22.3604C166.167 21.6248 165.432 21.1439 162.688 20.2951C158.163 18.8807 156.381 16.9004 156.381 14.0712C156.381 10.2803 159.294 7.45117 165.007 7.45117C167.892 7.45117 171.484 8.07351 173.86 8.89417L173.859 8.89376Z" fill="white"/>
<path d="M30.3815 16.6855C30.3815 23.7013 25.2057 28.4826 18.474 28.4826C12.9871 28.4826 9.05566 24.8332 9.05566 19.2317C9.05566 12.2158 14.2315 7.43457 20.9632 7.43457C26.4501 7.43457 30.3815 11.3952 30.3815 16.6855ZM18.8133 23.4188C22.0943 23.4188 24.6113 20.7029 24.6113 16.8838C24.6113 14.3094 23.0558 12.4988 20.6234 12.4988C17.3424 12.4988 14.8255 15.2147 14.8255 19.0338C14.8255 21.6082 16.3809 23.4188 18.8133 23.4188Z" fill="white"/>
<path d="M44.1253 17.1668L50.0365 28.1437H43.7573L39.5994 20.6465L37.9307 22.2874L36.9124 28.1437H31.2559L34.848 7.77441H40.5045L39.1187 15.5827L46.6704 7.77441H53.1757L44.1248 17.1668H44.1253Z" fill="white"/>
</g>
<defs>
<linearGradient id="paint0_linear_5172_4137" x1="0" y1="17.5585" x2="60.9241" y2="17.5585" gradientUnits="userSpaceOnUse">
<stop stop-color="#C32029"/>
<stop offset="1" stop-color="#D82027"/>
</linearGradient>
<linearGradient id="paint1_linear_5172_4137" x1="60.9219" y1="17.5585" x2="182.998" y2="17.5585" gradientUnits="userSpaceOnUse">
<stop stop-color="#D82027"/>
<stop offset="1" stop-color="#EB3E24"/>
</linearGradient>
<clipPath id="clip0_5172_4137">
<rect width="183" height="35.117" fill="white"/>
</clipPath>
</defs>
</svg>
