<svg width="30" height="30" viewBox="0 0 30 30" fill="none" xmlns="http://www.w3.org/2000/svg">
<path d="M22.5567 5.08776C22.2077 5.08776 21.8666 5.19125 21.5764 5.38514C21.2862 5.57903 21.0601 5.85461 20.9265 6.17704C20.7929 6.49947 20.758 6.85426 20.8261 7.19655C20.8942 7.53884 21.0622 7.85325 21.309 8.10002C21.5558 8.3468 21.8702 8.51485 22.2125 8.58294C22.5548 8.65102 22.9096 8.61608 23.232 8.48253C23.5544 8.34897 23.83 8.12281 24.0239 7.83263C24.2178 7.54245 24.3213 7.2013 24.3213 6.8523C24.3213 6.38432 24.1354 5.9355 23.8044 5.60458C23.4735 5.27367 23.0247 5.08776 22.5567 5.08776ZM29.3208 8.64625C29.2922 7.42622 29.0637 6.21913 28.6444 5.07306C28.2705 4.09246 27.6886 3.20452 26.9387 2.47036C26.2105 1.71664 25.3205 1.13839 24.336 0.779339C23.1929 0.347263 21.9845 0.113534 20.7628 0.088227C19.2041 -8.21679e-08 18.7041 0 14.7045 0C10.7049 0 10.2049 -8.21679e-08 8.64625 0.088227C7.42453 0.113534 6.2161 0.347263 5.07306 0.779339C4.09032 1.14202 3.20108 1.71978 2.47036 2.47036C1.71664 3.19849 1.13839 4.0885 0.779339 5.07306C0.347263 6.2161 0.113534 7.42453 0.088227 8.64625C-8.21679e-08 10.2049 0 10.7049 0 14.7045C0 18.7041 -8.21679e-08 19.2041 0.088227 20.7628C0.113534 21.9845 0.347263 23.1929 0.779339 24.336C1.13839 25.3205 1.71664 26.2105 2.47036 26.9387C3.20108 27.6892 4.09032 28.267 5.07306 28.6297C6.2161 29.0618 7.42453 29.2955 8.64625 29.3208C10.2049 29.409 10.7049 29.409 14.7045 29.409C18.7041 29.409 19.2041 29.409 20.7628 29.3208C21.9845 29.2955 23.1929 29.0618 24.336 28.6297C25.3205 28.2706 26.2105 27.6924 26.9387 26.9387C27.6919 26.2072 28.2743 25.3185 28.6444 24.336C29.0637 23.1899 29.2922 21.9828 29.3208 20.7628C29.3208 19.2041 29.409 18.7041 29.409 14.7045C29.409 10.7049 29.409 10.2049 29.3208 8.64625ZM26.674 20.5863C26.6633 21.5197 26.4942 22.4445 26.174 23.3214C25.9393 23.9613 25.5621 24.5395 25.0712 25.0124C24.5942 25.4984 24.0172 25.8747 23.3802 26.1152C22.5033 26.4354 21.5785 26.6045 20.6451 26.6152C19.1747 26.6887 18.6306 26.7034 14.7633 26.7034C10.896 26.7034 10.352 26.7034 8.88153 26.6152C7.91234 26.6333 6.94729 26.4841 6.02885 26.174C5.41976 25.9212 4.86919 25.5458 4.41135 25.0712C3.92329 24.5988 3.55091 24.0201 3.32322 23.3802C2.96422 22.4908 2.7651 21.545 2.73504 20.5863C2.73504 19.1159 2.64681 18.5718 2.64681 14.7045C2.64681 10.8372 2.64681 10.2932 2.73504 8.82271C2.74163 7.86847 2.91583 6.9228 3.2497 6.02885C3.50857 5.40819 3.90591 4.85493 4.41135 4.41135C4.8581 3.90577 5.41021 3.50423 6.02885 3.23499C6.92517 2.91156 7.86985 2.74251 8.82271 2.73504C10.2932 2.73504 10.8372 2.64681 14.7045 2.64681C18.5718 2.64681 19.1159 2.64681 20.5863 2.73504C21.5197 2.74575 22.4445 2.9148 23.3214 3.23499C23.9896 3.48299 24.5893 3.88618 25.0712 4.41135C25.5531 4.86304 25.9296 5.41528 26.174 6.02885C26.5008 6.92426 26.67 7.86953 26.674 8.82271C26.7475 10.2932 26.7622 10.8372 26.7622 14.7045C26.7622 18.5718 26.7475 19.1159 26.674 20.5863ZM14.7045 7.1611C13.2132 7.164 11.7562 7.60889 10.5176 8.43954C9.27906 9.27018 8.31449 10.4493 7.7458 11.8279C7.17711 13.2066 7.02982 14.7228 7.32255 16.1852C7.61527 17.6475 8.33487 18.9902 9.39041 20.0437C10.446 21.0972 11.7901 21.8142 13.253 22.104C14.7158 22.3939 16.2318 22.2437 17.6093 21.6723C18.9869 21.1009 20.1641 20.1341 20.9924 18.8939C21.8206 17.6537 22.2626 16.1958 22.2626 14.7045C22.2646 13.7121 22.0703 12.7291 21.691 11.8121C21.3117 10.895 20.7548 10.062 20.0524 9.36097C19.3499 8.65992 18.5158 8.10465 17.5981 7.72712C16.6803 7.34958 15.6969 7.15722 14.7045 7.1611ZM14.7045 19.6011C13.7361 19.6011 12.7893 19.3139 11.9841 18.7759C11.1789 18.2378 10.5513 17.4731 10.1806 16.5784C9.81003 15.6836 9.71306 14.6991 9.902 13.7492C10.0909 12.7994 10.5573 11.9269 11.2421 11.2421C11.9269 10.5573 12.7994 10.0909 13.7492 9.902C14.6991 9.71306 15.6836 9.81003 16.5784 10.1806C17.4731 10.5513 18.2378 11.1789 18.7759 11.9841C19.3139 12.7893 19.6011 13.7361 19.6011 14.7045C19.6011 15.3475 19.4745 15.9843 19.2284 16.5784C18.9823 17.1724 18.6216 17.7122 18.1669 18.1669C17.7122 18.6216 17.1724 18.9823 16.5784 19.2284C15.9843 19.4745 15.3475 19.6011 14.7045 19.6011Z" fill="#FAFAFA"/>
</svg>
