<svg width="30" height="30" viewBox="0 0 30 30" fill="none" xmlns="http://www.w3.org/2000/svg">
<path d="M25.052 25.0621H20.7024V18.2367C20.7024 16.6091 20.6684 14.5175 18.4279 14.5175C16.1598 14.5175 15.8142 16.2829 15.8142 18.1163V25.0612H11.4591V11.0271H15.6424V12.9414H15.6984C16.2829 11.8358 17.7046 10.6733 19.8257 10.6733C24.2378 10.6733 25.0566 13.5783 25.0566 17.3554V25.0612L25.052 25.0621ZM6.53871 9.10916C5.13539 9.10916 4.01053 7.97419 4.01053 6.57639C4.01053 5.18318 5.13999 4.05005 6.53871 4.05005C7.93743 4.05005 9.07056 5.18318 9.07056 6.57639C9.07056 7.97419 7.93743 9.10916 6.53871 9.10916ZM8.72042 25.0621H4.35608V11.028H8.72042V25.0621ZM27.2356 0H2.16885C0.971387 0 0 0.947492 0 2.12014V27.2889C0 28.4615 0.971387 29.409 2.16885 29.409H27.231C28.4266 29.409 29.4081 28.4615 29.4081 27.2889V2.12014C29.4081 0.947492 28.4266 0 27.231 0L27.2356 0Z" fill="#FAFAFA"/>
</svg>
