<svg width="171" height="28" viewBox="0 0 171 28" fill="none" xmlns="http://www.w3.org/2000/svg">
<g clip-path="url(#clip0_5172_4061)">
<path d="M4.88615 0L0 27.7029H90.7037L95.5898 0H4.88615ZM21.7872 17.4832C21.7872 20.3621 19.243 22.4379 14.3105 22.4379H7.34746L10.1822 6.36868H16.6094C20.604 6.36868 22.4345 7.93075 22.4345 10.096C22.4345 11.9265 21.2293 13.377 18.8641 14.0685V14.1127C20.7609 14.4696 21.7872 15.9874 21.7872 17.4832ZM37.1195 22.4379H32.4322C32.1196 22.0357 31.9638 21.6126 31.7407 20.8084L31.227 18.7547C30.9585 17.639 30.3785 17.1474 29.4197 17.1474H28.5491L27.6112 22.4368H23.1703L26.005 6.36758H31.7848C35.6237 6.36758 38.1237 8.24228 38.1237 11.0549C38.1237 13.3759 36.4501 14.938 34.107 15.5411V15.6306C34.7985 16.0095 35.3122 16.7243 35.6027 17.8621L36.1385 19.9379C36.407 20.9642 36.6522 21.4779 37.1648 22.1694L37.1206 22.4368L37.1195 22.4379ZM48.2329 22.4379L47.474 16.8138L46.7825 12.6854L44.6515 16.8138L46.6598 20.139H43.1667L42.0289 22.4379H37.2753L46.2025 6.32449H49.6834L52.9644 22.4379H48.2329ZM69.2336 22.46H65.5957L61.6232 16.479L60.1506 14.3138L59.7938 16.5674L58.7675 22.4368H54.4602L57.2949 6.32339H60.6654L64.9727 13.0412L66.2453 15.1169L66.6021 12.9749L67.7632 6.36868H72.0705L69.2358 22.46H69.2336ZM78.6292 22.4379H72.1125L74.9472 6.36868H80.5492C85.8164 6.36868 89.2532 9.31496 89.2532 13.6001C89.2532 18.9116 84.8564 22.4379 78.6303 22.4379H78.6292Z" fill="#FAFAFA"/>
<path d="M31.2736 10.0513H29.7558L29.1084 13.5996H30.7599C32.6799 13.5996 33.5946 12.7744 33.5946 11.6133C33.5946 10.6986 32.7915 10.0513 31.2736 10.0513Z" fill="#FAFAFA"/>
<path d="M80.1039 10.1641H78.7429L77.2471 18.645H78.7649C82.648 18.645 84.7017 16.6587 84.7017 13.8693C84.7017 11.7935 83.2291 10.1641 80.1039 10.1641Z" fill="#FAFAFA"/>
<path d="M15.5594 9.69434H13.9752L13.4395 12.7522H15.0015C17.0994 12.7522 17.8804 11.9491 17.8804 11.0333C17.8804 10.208 17.3446 9.69434 15.5594 9.69434Z" fill="#FAFAFA"/>
<path d="M15.1133 15.8091H12.8817L12.3018 19.1122H14.5333C16.7648 19.1122 17.4343 18.287 17.4343 17.2596C17.4343 16.4344 16.809 15.8091 15.1133 15.8091Z" fill="#FAFAFA"/>
<path d="M140.727 10.0474H139.208L138.561 13.5979H140.213C142.133 13.5979 143.049 12.7716 143.049 11.6105C143.049 10.6947 142.245 10.0474 140.727 10.0474Z" fill="#FAFAFA"/>
<path d="M100.476 0L95.5901 27.7029H165.398L170.284 0H100.476ZM110.505 22.7096C106.061 22.7096 102.912 19.6507 102.912 15.318C102.912 10.0927 106.62 6.09471 112.426 6.09471C114.324 6.09471 116.468 6.6084 117.852 7.30106L115.932 10.9632C114.994 10.5169 113.722 10.1148 112.426 10.1148C109.545 10.1148 107.468 12.0801 107.468 15.0506C107.468 17.2391 109.053 18.6907 111.287 18.6907C112.404 18.6907 113.342 18.4896 114.481 18.0212L115.351 21.6833C113.944 22.3528 112.269 22.7107 110.505 22.7107V22.7096ZM126.84 22.4412L126.081 16.8171L125.39 12.6888L123.259 16.8171L125.267 20.1423H121.774L120.636 22.4412H115.883L124.81 6.32781H128.291L131.572 22.4412H126.84ZM146.578 22.4412H141.889C141.576 22.0391 141.42 21.6149 141.196 20.8106L140.682 18.7558C140.414 17.639 139.834 17.1485 138.874 17.1485H138.003L137.066 22.4412H132.621L135.457 6.36205H141.241C145.082 6.36205 147.583 8.23786 147.583 11.0516C147.583 13.3737 145.909 14.9368 143.563 15.54V15.6295C144.256 16.0095 144.77 16.7243 145.059 17.8621L145.595 19.939C145.863 20.9664 146.109 21.4801 146.622 22.1716L146.578 22.4401V22.4412ZM156.575 12.5043C160.171 13.6874 161.756 15.2506 161.756 17.4843C161.756 20.3875 159.478 22.7096 154.432 22.7096C151.998 22.7096 149.429 22.2854 147.241 21.5265L149.095 17.8422C150.725 18.378 152.735 18.8696 154.655 18.8696C156.285 18.8696 156.887 18.4454 156.887 17.8643C156.887 17.2833 156.306 16.9043 154.141 16.2338C150.568 15.1169 149.161 13.5537 149.161 11.3211C149.161 8.32845 151.461 6.09582 155.973 6.09582C158.251 6.09582 161.086 6.58741 162.962 7.23478L161.086 10.8969C159.523 10.3832 157.446 9.93691 155.973 9.93691C154.499 9.93691 153.963 10.2275 153.963 10.7853C153.963 11.3432 154.365 11.7674 156.576 12.5054L156.575 12.5043Z" fill="#FAFAFA"/>
</g>
<defs>
<clipPath id="clip0_5172_4061">
<rect width="170.284" height="27.7029" fill="white"/>
</clipPath>
</defs>
</svg>
