<svg width="191" height="28" viewBox="0 0 191 28" fill="none" xmlns="http://www.w3.org/2000/svg">
<path d="M79.7218 10.0093H78.367L76.8787 18.3624H78.3891C82.2538 18.3624 84.2975 16.4059 84.2975 13.6583C84.2975 11.6138 82.8317 10.0093 79.7218 10.0093Z" fill="white"/>
<path d="M4.86309 0L0 27.2863H90.2721L95.1352 0H4.86309ZM21.6836 17.22C21.6836 20.0556 19.1515 22.1002 14.2429 22.1002H7.31261L10.1333 6.27303H16.5303C20.5063 6.27303 22.3276 7.81174 22.3276 9.94394C22.3276 11.7467 21.1282 13.1751 18.7737 13.8566V13.9005C20.6617 14.2522 21.6832 15.7471 21.6832 17.2197L21.6836 17.22ZM36.9428 22.1002H32.2781C31.9671 21.7043 31.8117 21.2868 31.5895 20.4954L31.0787 18.4731C30.812 17.3741 30.2344 16.8902 29.2796 16.8902H28.4135L27.4806 22.1002H23.0602L25.8811 6.27303H31.6338C35.4542 6.27303 37.9419 8.11961 37.9419 10.8895C37.9419 13.1755 36.276 14.7142 33.9437 15.3077V15.3957C34.6323 15.7693 35.1431 16.4727 35.432 17.594L35.965 19.6382C36.2317 20.6495 36.476 21.1549 36.9865 21.8365L36.9422 22.1002H36.9428ZM48.0039 22.1002L47.2488 16.5607L46.5602 12.4943L44.4391 16.5607L46.4382 19.8361H42.962L41.829 22.1002H37.0979L45.9826 6.22918H49.4476L52.7129 22.1002H48.0039ZM68.9044 22.1221H65.2841L61.3305 16.231L59.8646 14.0987L59.5093 16.319L58.4877 22.1005H54.2009L57.0218 6.2295H60.3757L64.6626 12.8463L65.9287 14.8905L66.2841 12.7802L67.4392 6.27366H71.726L68.9051 22.1227L68.9044 22.1221ZM78.2553 22.1002H71.7694L74.5903 6.27303H80.1655C85.4074 6.27303 88.8281 9.17475 88.8281 13.3953C88.8281 18.6269 84.4523 22.1002 78.2553 22.1002Z" fill="white"/>
<path d="M31.1271 9.89941H29.6167L28.9727 13.3946H30.6164C32.5265 13.3946 33.4373 12.5813 33.4373 11.4381C33.4373 10.5368 32.6376 9.89941 31.1275 9.89941H31.1271Z" fill="white"/>
<path d="M15.041 15.5698H12.8197L12.2422 18.8233H14.4635C16.6847 18.8233 17.3509 18.0099 17.3509 16.9989C17.3509 16.1856 16.729 15.5701 15.0407 15.5701L15.041 15.5698Z" fill="white"/>
<path d="M15.4851 9.54834H13.9082L13.3752 12.56H14.93C17.0177 12.56 17.7953 11.7686 17.7953 10.8675C17.7953 10.0541 17.2621 9.54834 15.4851 9.54834Z" fill="white"/>
<path d="M99.9939 0L95.1309 27.2863H186.137L191 0H99.9939ZM113.411 17.3741L113.944 19.4183C114.211 20.4296 114.455 20.9351 114.966 21.6166L114.922 21.8803H110.257C109.946 21.4844 109.79 21.0669 109.568 20.2755L109.057 18.2532C108.791 17.1542 108.213 16.6704 107.258 16.6704H106.392L105.459 21.8803H101.039L103.86 6.05317H109.613C113.433 6.05317 115.921 7.89975 115.921 10.6696C115.921 12.9556 114.255 14.4943 111.922 15.0881V15.1761C112.611 15.5498 113.122 16.2532 113.41 17.3744L113.411 17.3741ZM116.12 21.8803L118.941 6.05317H123.383L120.563 21.8803H116.12H116.12ZM129.58 21.8803H123.095L125.915 6.05317H131.49C136.732 6.05317 140.153 8.95489 140.153 13.1755C140.153 18.407 135.777 21.8803 129.58 21.8803H129.58ZM152.28 21.8803H140.619L143.44 6.05317H154.857L154.191 9.74632H147.216L146.817 12.0545H152.903L152.236 15.7477H146.172L145.728 18.1878H152.947L152.28 21.8809V21.8803ZM167.939 21.8803H163.274C162.964 21.4844 162.808 21.0669 162.586 20.2755L162.075 18.2532C161.809 17.1542 161.231 16.6704 160.276 16.6704H159.41L158.477 21.8803H154.056L156.877 6.05317H162.63C166.451 6.05317 168.938 7.89975 168.938 10.6696C168.938 12.9556 167.273 14.4943 164.94 15.0881V15.1761C165.629 15.5498 166.14 16.2532 166.429 17.3744L166.962 19.4186C167.228 20.4299 167.472 20.9354 167.983 21.6169L167.939 21.8806L167.939 21.8803ZM177.468 12.0984C181.044 13.2635 182.621 14.8022 182.621 17.0005C182.621 19.858 180.356 22.1443 175.336 22.1443C172.915 22.1443 170.36 21.7265 168.184 20.9792L170.027 17.3522C171.649 17.8796 173.648 18.3632 175.558 18.3632C177.18 18.3632 177.779 17.9457 177.779 17.3741C177.779 16.8025 177.202 16.4289 175.047 15.7693C171.493 14.6703 170.094 13.1316 170.094 10.9333C170.094 7.98775 172.382 5.78946 176.868 5.78946C179.134 5.78946 181.955 6.27303 183.821 6.91069L181.955 10.5158C180.4 10.0103 178.334 9.57063 176.868 9.57063C175.403 9.57063 174.87 9.85625 174.87 10.4062C174.87 10.9562 175.269 11.3734 177.468 12.0987L177.468 12.0984Z" fill="white"/>
<path d="M109.106 9.68115H107.596L106.952 13.1764H108.596C110.506 13.1764 111.417 12.363 111.417 11.2199C111.417 10.3185 110.617 9.68115 109.106 9.68115Z" fill="white"/>
<path d="M162.124 9.68115H160.613L159.969 13.1764H161.613C163.523 13.1764 164.434 12.363 164.434 11.2199C164.434 10.3185 163.634 9.68115 162.124 9.68115Z" fill="white"/>
<path d="M131.048 9.78906H129.693L128.205 18.1422H129.715C133.58 18.1422 135.624 16.1857 135.624 13.4381C135.624 11.3935 134.158 9.78906 131.048 9.78906H131.048Z" fill="white"/>
</svg>
