<svg width="160" height="162" viewBox="0 0 160 162" fill="none" xmlns="http://www.w3.org/2000/svg">
<rect width="160" height="161.916" rx="20" fill="#F2F2F2"/>
<path d="M30.0586 20.5994C30.0586 26.3718 25.3792 31.1383 19.6068 31.1383C13.8344 31.1383 9.15497 26.3718 9.15497 20.5994C9.15497 14.827 13.8344 10.0605 19.6068 10.0605C25.3792 10.0605 30.0586 14.827 30.0586 20.5994Z" fill="url(#paint0_linear_5168_6618)"/>
<mask id="mask0_5168_6618" style="mask-type:alpha" maskUnits="userSpaceOnUse" x="14" y="15" width="11" height="12">
<rect x="14.3381" y="15.797" width="10.5389" height="10.5389" fill="#D9D9D9"/>
</mask>
<g mask="url(#mask0_5168_6618)">
<path d="M16.097 21.9447V20.5066C15.9506 20.5359 15.8042 20.567 15.6579 20.5999C15.5115 20.6328 15.3651 20.6676 15.2188 20.7042V19.793C15.9433 19.6174 16.6697 19.493 17.3979 19.4198C18.1261 19.3466 18.8635 19.31 19.61 19.31C20.3565 19.31 21.0938 19.3466 21.822 19.4198C22.5502 19.493 23.2766 19.6174 24.0012 19.793V20.7042C23.8548 20.6676 23.7084 20.6347 23.5621 20.6054L23.1229 20.5176V21.9447H22.2447V20.3639C21.8056 20.3053 21.3664 20.2614 20.9273 20.2321C20.4882 20.2029 20.0491 20.1882 19.61 20.1882C19.1708 20.1882 18.7317 20.201 18.2926 20.2267C17.8535 20.2523 17.4144 20.2944 16.9752 20.3529V21.9447H16.097ZM18.0621 18.4866L18.2926 17.1144H20.9273L21.1579 18.4866C20.9017 18.472 20.6437 18.4574 20.3839 18.4427C20.1241 18.4281 19.8661 18.4208 19.61 18.4208C19.3538 18.4208 19.0958 18.4263 18.836 18.4372C18.5762 18.4482 18.3182 18.4647 18.0621 18.4866ZM16.9752 25.0186L17.612 21.1653C17.8681 21.136 18.1279 21.1122 18.3914 21.0939C18.6549 21.0756 18.9147 21.0592 19.1708 21.0445V22.3838H20.0491V21.0445C20.3052 21.0592 20.5651 21.0775 20.8285 21.0994C21.092 21.1214 21.3518 21.147 21.608 21.1763L22.2447 25.0186H20.0491V23.2621H19.1708V25.0186H16.9752Z" fill="#1C1B1F"/>
</g>
<rect x="8.94312" y="73.7715" width="38.3233" height="11.976" rx="5.98802" fill="#0FC26C"/>
<rect x="8.94312" y="137.484" width="45.988" height="11.976" rx="5.98802" fill="#C40127"/>
<rect x="82.8735" y="130.301" width="43.1137" height="19.1617" rx="8" fill="white"/>
<rect x="82.8738" y="66.587" width="43.1137" height="19.1617" rx="8" fill="white"/>
<rect x="130.777" y="66.587" width="19.1617" height="19.1617" rx="8" fill="white"/>
<path d="M138.272 79.94C138.039 79.94 137.84 79.8573 137.675 79.6918C137.509 79.5263 137.427 79.3274 137.427 79.095V73.6027H137.004V72.7577H139.117V72.3352H141.652V72.7577H143.764V73.6027H143.341V79.095C143.341 79.3274 143.259 79.5263 143.093 79.6918C142.928 79.8573 142.729 79.94 142.496 79.94H138.272ZM139.117 78.25H139.962V74.4476H139.117V78.25ZM140.807 78.25H141.652V74.4476H140.807V78.25Z" fill="#C40127"/>
<rect x="130.781" y="130.301" width="19.1617" height="19.1617" rx="8" fill="white"/>
<path d="M138.275 143.654C138.043 143.654 137.844 143.571 137.678 143.406C137.513 143.241 137.43 143.042 137.43 142.809V137.317H137.008V136.472H139.12V136.049H141.655V136.472H143.767V137.317H143.345V142.809C143.345 143.042 143.262 143.241 143.097 143.406C142.931 143.571 142.732 143.654 142.5 143.654H138.275ZM139.12 141.964H139.965V138.162H139.12V141.964ZM140.81 141.964H141.655V138.162H140.81V141.964Z" fill="#C40127"/>
<path d="M37.6233 17.1113H40.509C43.2223 17.1113 44.9929 18.6289 44.9929 20.8363C44.9929 23.5726 42.728 25.3891 39.5203 25.3891H36.1632L37.6233 17.1113ZM39.5893 23.4347C41.5898 23.4347 42.6475 22.4114 42.6475 20.9743C42.6475 19.9051 41.8887 19.0658 40.2791 19.0658H39.5778L38.8075 23.4347H39.5893Z" fill="#1E1E1E"/>
<path d="M52.2009 15.6282L49.5336 16.7434L48.9012 15.4787L51.5685 14.3635L52.2009 15.6282ZM50.2234 25.3891L50.0509 24.205H47.6136L47.0272 25.3891H44.5784L49.1772 17.0883H50.9707L52.6607 25.3891H50.2234ZM49.4761 20.365L48.4184 22.4919H49.8325L49.4761 20.365Z" fill="#1E1E1E"/>
<path d="M54.8351 17.1113H57.1345L56.0193 23.4347H59.6179L59.273 25.3891H53.375L54.8351 17.1113Z" fill="#1E1E1E"/>
<path d="M67.1546 17.1113H69.3735L67.9134 25.4006H66.0394L63.9929 22.3194L63.2341 21.2042L63.0502 22.3654L62.5213 25.3891H60.3024L61.7625 17.0883H63.4986L65.7175 20.5489L66.3728 21.6181L66.5568 20.5144L67.1546 17.1113Z" fill="#1E1E1E"/>
<path d="M70.8007 17.1113H73.1001L71.64 25.3891H69.3405L70.8007 17.1113Z" fill="#1E1E1E"/>
<path d="M77.7244 14.3865L78.7476 15.5017L80.1617 14.3865L80.9435 15.3868L79.3684 16.5824H77.7589L76.6207 15.2488L77.7244 14.3865ZM78.3567 16.9733C79.334 16.9733 80.4377 17.2378 81.1505 17.5942L80.1617 19.4797C79.6789 19.2497 79.0235 19.0428 78.3567 19.0428C76.8736 19.0428 75.8044 20.0545 75.8044 21.5836C75.8044 22.7103 76.6207 23.4577 77.7704 23.4577C78.3452 23.4577 78.8281 23.3542 79.4144 23.1127L79.8628 24.9982C79.1385 25.3432 78.2762 25.5271 77.368 25.5271C75.0801 25.5271 73.459 23.952 73.459 21.7216C73.459 19.0313 75.3675 16.9733 78.3567 16.9733Z" fill="#1E1E1E"/>
<path d="M87.7122 17.1113H89.9311L88.471 25.4006H86.597L84.5505 22.3194L83.7917 21.2042L83.6078 22.3654L83.0789 25.3891H80.86L82.3201 17.0883H84.0562L86.2751 20.5489L86.9304 21.6181L87.1144 20.5144L87.7122 17.1113Z" fill="#1E1E1E"/>
<path d="M91.3008 15.4787L93.9681 14.3635L94.6004 15.6282L91.9331 16.7434L91.3008 15.4787ZM91.3583 17.1113H93.6577L92.1976 25.3891H89.8982L91.3583 17.1113Z" fill="#1E1E1E"/>
<path d="M96.0524 25.3891L96.3628 23.6186L100.996 19.0658H97.4205L97.7654 17.1113H104.158L103.847 18.8818L99.2141 23.4347H103.169L102.824 25.3891H96.0524Z" fill="#1E1E1E"/>
<path d="M110.717 17.1113H112.936L111.476 25.4006H109.602L107.556 22.3194L106.797 21.2042L106.613 22.3654L106.084 25.3891H103.865L105.325 17.0883H107.061L109.28 20.5489L109.936 21.6181L110.12 20.5144L110.717 17.1113Z" fill="#1E1E1E"/>
<path d="M119.813 15.6282L117.146 16.7434L116.513 15.4787L119.181 14.3635L119.813 15.6282ZM117.836 25.3891L117.663 24.205H115.226L114.639 25.3891H112.191L116.789 17.0883H118.583L120.273 25.3891H117.836ZM117.088 20.365L116.031 22.4919H117.445L117.088 20.365Z" fill="#1E1E1E"/>
<path d="M129.541 17.1113H131.921L130.461 25.3891H128.414L128.989 22.101L129.208 20.9283L128.552 22.055L126.552 25.3891H124.919L124.068 22.055L123.804 20.8938L123.609 22.1125L123.034 25.3891H120.987L122.447 17.1113H124.827L125.919 21.1238L126.218 22.3194L126.931 21.1238L129.541 17.1113Z" fill="#1E1E1E"/>
<path d="M140.799 17.1113L137.12 20.9283L139.523 25.3891H136.971L135.281 22.3424L134.602 23.0093L134.189 25.3891H131.889L133.349 17.1113H135.649L135.085 20.2845L138.155 17.1113H140.799Z" fill="#1E1E1E"/>
<path d="M146.703 17.1113H149.175L145.324 22.3309L144.783 25.3891H142.484L143.024 22.3309L141.001 17.1113H143.438L144.209 19.2038L144.554 20.25L145.232 19.2038L146.703 17.1113Z" fill="#1E1E1E"/>
<path d="M20.8173 77.9879C21.6461 77.9879 22.2161 78.4047 22.2161 79.0658C22.2161 79.8274 21.579 80.3544 20.5347 80.3544H20.1562L19.9646 81.437H19.0113L19.6197 77.9879H20.8173ZM20.5778 79.564C21.0377 79.564 21.2437 79.4059 21.2437 79.1376C21.2437 78.9316 21.0856 78.7783 20.7119 78.7783H20.4245L20.2808 79.564H20.5778Z" fill="white"/>
<path d="M22.8008 77.9879H23.7589L23.2943 80.6226H24.7937L24.6499 81.437H22.1925L22.8008 77.9879Z" fill="white"/>
<path d="M27.134 81.437L27.0621 80.9436H26.0465L25.8022 81.437H24.7819L26.698 77.9783H27.4453L28.1495 81.437H27.134ZM26.8226 79.3436L26.3819 80.2298H26.9711L26.8226 79.3436Z" fill="white"/>
<path d="M29.2611 78.8023H28.2408L28.3845 77.9879H31.3833L31.2396 78.8023H30.2192L29.7545 81.437H28.7965L29.2611 78.8023Z" fill="white"/>
<path d="M33.936 77.9879H34.8606L34.2522 81.4418H33.4713L32.6187 80.158L32.3025 79.6933L32.2258 80.1771L32.0055 81.437H31.0809L31.6893 77.9783H32.4127L33.3372 79.4202L33.6103 79.8658L33.6869 79.4059L33.936 77.9879Z" fill="white"/>
<path d="M36.2456 77.3077L37.357 76.843L37.6205 77.3699L36.5091 77.8346L36.2456 77.3077ZM35.4552 77.9879H37.9175L37.7738 78.7927H36.2696L36.1834 79.2957H37.4959L37.3522 80.1005H36.0444L35.9486 80.6322H37.5055L37.3618 81.437H34.8468L35.4552 77.9879Z" fill="white"/>
<path d="M22.3426 141.7H23.2671L22.6587 145.154H21.8779L21.0252 143.87L20.709 143.406L20.6324 143.89L20.412 145.15H19.4875L20.0958 141.691H20.8192L21.7438 143.133L22.0168 143.578L22.0935 143.118L22.3426 141.7Z" fill="white"/>
<path d="M23.8618 141.7H26.324L26.1803 142.505H24.6761L24.5899 143.008H25.9025L25.7588 143.813H24.451L24.3552 144.345H25.9121L25.7683 145.15H23.2534L23.8618 141.7Z" fill="white"/>
<path d="M28.0066 141.7C28.8353 141.7 29.4054 142.117 29.4054 142.778C29.4054 143.54 28.7683 144.067 27.724 144.067H27.3455L27.1539 145.15H26.2006L26.809 141.7H28.0066ZM27.7671 143.276C28.2269 143.276 28.4329 143.118 28.4329 142.85C28.4329 142.644 28.2748 142.491 27.9012 142.491H27.6138L27.4701 143.276H27.7671Z" fill="white"/>
<path d="M29.9901 141.7H30.9482L30.4835 144.335H31.9829L31.8392 145.15H29.3817L29.9901 141.7Z" fill="white"/>
<path d="M34.3232 145.15L34.2514 144.656H33.2358L32.9915 145.15H31.9711L33.8873 141.691H34.6346L35.3388 145.15H34.3232ZM34.0119 143.056L33.5711 143.942H34.1604L34.0119 143.056Z" fill="white"/>
<path d="M36.4504 142.515H35.43L35.5738 141.7H38.5726L38.4288 142.515H37.4085L36.9438 145.15H35.9857L36.4504 142.515Z" fill="white"/>
<path d="M41.1253 141.7H42.0498L41.4415 145.154H40.6606L39.8079 143.87L39.4918 143.406L39.4151 143.89L39.1948 145.15H38.2702L38.8786 141.691H39.6019L40.5265 143.133L40.7995 143.578L40.8762 143.118L41.1253 141.7Z" fill="white"/>
<path d="M43.4349 141.02L44.5463 140.556L44.8098 141.082L43.6984 141.547L43.4349 141.02ZM42.6445 141.7H45.1068L44.963 142.505H43.4589L43.3726 143.008H44.6852L44.5415 143.813H43.2337L43.1379 144.345H44.6948L44.5511 145.15H42.0361L42.6445 141.7Z" fill="white"/>
<path d="M96.9978 137.145V140.465C96.9978 140.819 96.9212 141.14 96.7679 141.427C96.6194 141.71 96.3918 141.935 96.0852 142.103C95.7787 142.266 95.3906 142.347 94.9212 142.347C94.2553 142.347 93.7499 142.175 93.405 141.83C93.0601 141.48 92.8876 141.02 92.8876 140.45V137.145H93.8074V140.357C93.8074 140.778 93.9008 141.085 94.0876 141.276C94.2793 141.468 94.5667 141.564 94.9499 141.564C95.3475 141.564 95.6349 141.461 95.8122 141.255C95.9942 141.044 96.0852 140.742 96.0852 140.35V137.145H96.9978Z" fill="#1E1E1E"/>
<path d="M100.055 138.309C100.51 138.309 100.876 138.479 101.154 138.819C101.432 139.154 101.571 139.655 101.571 140.321C101.571 140.987 101.427 141.492 101.14 141.837C100.857 142.177 100.488 142.347 100.033 142.347C99.7456 142.347 99.5133 142.294 99.336 142.189C99.1588 142.084 99.0175 141.962 98.9121 141.823H98.8546C98.869 141.914 98.881 142.012 98.8905 142.117C98.9049 142.223 98.9121 142.323 98.9121 142.419V144H98.0067V138.381H98.7396L98.869 138.898H98.9121C99.0223 138.735 99.166 138.596 99.3432 138.481C99.5205 138.366 99.7576 138.309 100.055 138.309ZM99.7959 139.042C99.475 139.042 99.2474 139.138 99.1133 139.329C98.9839 139.521 98.9169 139.811 98.9121 140.199V140.314C98.9121 140.73 98.9744 141.051 99.0989 141.276C99.2283 141.497 99.4654 141.607 99.8103 141.607C100.093 141.607 100.301 141.492 100.435 141.262C100.574 141.027 100.644 140.709 100.644 140.306C100.644 139.904 100.574 139.593 100.435 139.372C100.301 139.152 100.088 139.042 99.7959 139.042Z" fill="#1E1E1E"/>
<path d="M104.339 138.309C104.402 138.309 104.471 138.314 104.548 138.323C104.624 138.328 104.687 138.335 104.735 138.345L104.656 139.185C104.608 139.176 104.548 139.169 104.476 139.164C104.409 139.154 104.351 139.15 104.304 139.15C104.112 139.15 103.932 139.19 103.765 139.272C103.597 139.348 103.46 139.468 103.355 139.631C103.254 139.794 103.204 140.002 103.204 140.256V142.275H102.299V138.381H102.996L103.125 139.056H103.168C103.283 138.85 103.441 138.675 103.642 138.532C103.844 138.383 104.076 138.309 104.339 138.309Z" fill="#1E1E1E"/>
<path d="M106.662 138.309C107.165 138.309 107.546 138.419 107.805 138.639C108.068 138.86 108.2 139.2 108.2 139.66V142.275H107.56L107.381 141.736H107.352C107.184 141.947 107.007 142.103 106.82 142.203C106.634 142.299 106.38 142.347 106.059 142.347C105.709 142.347 105.419 142.249 105.189 142.053C104.959 141.856 104.844 141.552 104.844 141.14C104.844 140.738 104.99 140.436 105.283 140.235C105.58 140.033 106.028 139.921 106.626 139.897L107.302 139.875V139.681C107.302 139.432 107.242 139.255 107.122 139.15C107.002 139.044 106.835 138.991 106.619 138.991C106.423 138.991 106.234 139.02 106.051 139.078C105.874 139.13 105.697 139.197 105.52 139.279L105.232 138.647C105.424 138.546 105.642 138.465 105.886 138.402C106.135 138.34 106.394 138.309 106.662 138.309ZM107.302 140.436L106.828 140.45C106.43 140.465 106.154 140.534 106.001 140.659C105.848 140.778 105.771 140.941 105.771 141.147C105.771 141.334 105.824 141.468 105.929 141.55C106.039 141.626 106.183 141.665 106.36 141.665C106.624 141.665 106.847 141.59 107.029 141.442C107.211 141.288 107.302 141.063 107.302 140.766V140.436Z" fill="#1E1E1E"/>
<path d="M110.027 142.275L108.547 138.381H109.502L110.278 140.63C110.331 140.769 110.376 140.922 110.415 141.09C110.453 141.257 110.477 141.399 110.487 141.514H110.515C110.53 141.389 110.558 141.245 110.602 141.082C110.645 140.92 110.69 140.769 110.738 140.63L111.514 138.381H112.47L110.99 142.275H110.027Z" fill="#1E1E1E"/>
<path d="M113.298 136.879C113.432 136.879 113.549 136.915 113.65 136.987C113.751 137.054 113.801 137.176 113.801 137.353C113.801 137.53 113.751 137.655 113.65 137.727C113.549 137.799 113.432 137.835 113.298 137.835C113.159 137.835 113.039 137.799 112.939 137.727C112.843 137.655 112.795 137.53 112.795 137.353C112.795 137.176 112.843 137.054 112.939 136.987C113.039 136.915 113.159 136.879 113.298 136.879ZM113.751 138.381V142.275H112.845V138.381H113.751Z" fill="#1E1E1E"/>
<path d="M116.211 141.621C116.321 141.621 116.429 141.612 116.535 141.593C116.645 141.569 116.745 141.542 116.836 141.514V142.189C116.741 142.237 116.616 142.275 116.463 142.304C116.309 142.333 116.149 142.347 115.981 142.347C115.756 142.347 115.553 142.311 115.371 142.239C115.193 142.168 115.052 142.041 114.947 141.859C114.841 141.676 114.788 141.42 114.788 141.09V139.063H114.264V138.668L114.839 138.352L115.126 137.526H115.694V138.381H116.8V139.063H115.694V141.082C115.694 141.265 115.742 141.401 115.838 141.492C115.938 141.578 116.063 141.621 116.211 141.621Z" fill="#1E1E1E"/>
<path d="M96.9978 73.4322V76.752C96.9978 77.1065 96.9212 77.4274 96.7679 77.7149C96.6194 77.9975 96.3918 78.2226 96.0852 78.3903C95.7787 78.5532 95.3906 78.6346 94.9212 78.6346C94.2553 78.6346 93.7499 78.4622 93.405 78.1173C93.0601 77.7676 92.8876 77.3077 92.8876 76.7376V73.4322H93.8074V76.6442C93.8074 77.0658 93.9008 77.3723 94.0876 77.564C94.2793 77.7556 94.5667 77.8514 94.9499 77.8514C95.3475 77.8514 95.6349 77.7484 95.8122 77.5424C95.9942 77.3316 96.0852 77.0298 96.0852 76.637V73.4322H96.9978Z" fill="#1E1E1E"/>
<path d="M100.055 74.5963C100.51 74.5963 100.876 74.7664 101.154 75.1065C101.432 75.4418 101.571 75.9424 101.571 76.6083C101.571 77.2741 101.427 77.7795 101.14 78.1244C100.857 78.4646 100.488 78.6346 100.033 78.6346C99.7456 78.6346 99.5133 78.5819 99.336 78.4765C99.1588 78.3711 99.0175 78.249 98.9121 78.1101H98.8546C98.869 78.2011 98.881 78.2993 98.8905 78.4047C98.9049 78.5101 98.9121 78.6107 98.9121 78.7065V80.2873H98.0067V74.6682H98.7396L98.869 75.1855H98.9121C99.0223 75.0226 99.166 74.8837 99.3432 74.7688C99.5205 74.6538 99.7576 74.5963 100.055 74.5963ZM99.7959 75.3292C99.475 75.3292 99.2474 75.425 99.1133 75.6167C98.9839 75.8083 98.9169 76.0981 98.9121 76.4861V76.6011C98.9121 77.0179 98.9744 77.3388 99.0989 77.564C99.2283 77.7843 99.4654 77.8945 99.8103 77.8945C100.093 77.8945 100.301 77.7795 100.435 77.5496C100.574 77.3149 100.644 76.9963 100.644 76.5939C100.644 76.1915 100.574 75.8801 100.435 75.6598C100.301 75.4394 100.088 75.3292 99.7959 75.3292Z" fill="#1E1E1E"/>
<path d="M104.339 74.5963C104.402 74.5963 104.471 74.6011 104.548 74.6107C104.624 74.6155 104.687 74.6226 104.735 74.6322L104.656 75.4729C104.608 75.4634 104.548 75.4562 104.476 75.4514C104.409 75.4418 104.351 75.437 104.304 75.437C104.112 75.437 103.932 75.4777 103.765 75.5592C103.597 75.6358 103.46 75.7556 103.355 75.9185C103.254 76.0813 103.204 76.2897 103.204 76.5436V78.5628H102.299V74.6682H102.996L103.125 75.3436H103.168C103.283 75.1376 103.441 74.9628 103.642 74.8191C103.844 74.6706 104.076 74.5963 104.339 74.5963Z" fill="#1E1E1E"/>
<path d="M106.662 74.5963C107.165 74.5963 107.546 74.7065 107.805 74.9268C108.068 75.1472 108.2 75.4873 108.2 75.9472V78.5628H107.56L107.381 78.0238H107.352C107.184 78.2346 107.007 78.3903 106.82 78.4909C106.634 78.5867 106.38 78.6346 106.059 78.6346C105.709 78.6346 105.419 78.5364 105.189 78.34C104.959 78.1436 104.844 77.8394 104.844 77.4274C104.844 77.025 104.99 76.7232 105.283 76.522C105.58 76.3208 106.028 76.2083 106.626 76.1843L107.302 76.1628V75.9688C107.302 75.7197 107.242 75.5424 107.122 75.437C107.002 75.3316 106.835 75.2789 106.619 75.2789C106.423 75.2789 106.234 75.3077 106.051 75.3652C105.874 75.4179 105.697 75.4849 105.52 75.5664L105.232 74.934C105.424 74.8334 105.642 74.752 105.886 74.6897C106.135 74.6274 106.394 74.5963 106.662 74.5963ZM107.302 76.7232L106.828 76.7376C106.43 76.752 106.154 76.8214 106.001 76.946C105.848 77.0658 105.771 77.2286 105.771 77.4346C105.771 77.6214 105.824 77.7556 105.929 77.837C106.039 77.9137 106.183 77.952 106.36 77.952C106.624 77.952 106.847 77.8777 107.029 77.7292C107.211 77.5759 107.302 77.3508 107.302 77.0538V76.7232Z" fill="#1E1E1E"/>
<path d="M110.027 78.5628L108.547 74.6682H109.502L110.278 76.9173C110.331 77.0562 110.376 77.2095 110.415 77.3771C110.453 77.5448 110.477 77.6861 110.487 77.8011H110.515C110.53 77.6765 110.558 77.5328 110.602 77.3699C110.645 77.2071 110.69 77.0562 110.738 76.9173L111.514 74.6682H112.47L110.99 78.5628H110.027Z" fill="#1E1E1E"/>
<path d="M113.298 73.1664C113.432 73.1664 113.549 73.2023 113.65 73.2741C113.751 73.3412 113.801 73.4634 113.801 73.6406C113.801 73.8179 113.751 73.9424 113.65 74.0143C113.549 74.0861 113.432 74.122 113.298 74.122C113.159 74.122 113.039 74.0861 112.939 74.0143C112.843 73.9424 112.795 73.8179 112.795 73.6406C112.795 73.4634 112.843 73.3412 112.939 73.2741C113.039 73.2023 113.159 73.1664 113.298 73.1664ZM113.751 74.6682V78.5628H112.845V74.6682H113.751Z" fill="#1E1E1E"/>
<path d="M116.211 77.9089C116.321 77.9089 116.429 77.8993 116.535 77.8801C116.645 77.8562 116.745 77.8298 116.836 77.8011V78.4765C116.741 78.5244 116.616 78.5628 116.463 78.5915C116.309 78.6202 116.149 78.6346 115.981 78.6346C115.756 78.6346 115.553 78.5987 115.371 78.5268C115.193 78.455 115.052 78.328 114.947 78.146C114.841 77.964 114.788 77.7077 114.788 77.3771V75.3508H114.264V74.9556L114.839 74.6394L115.126 73.8131H115.694V74.6682H116.8V75.3508H115.694V77.3699C115.694 77.552 115.742 77.6885 115.838 77.7795C115.938 77.8658 116.063 77.9089 116.211 77.9089Z" fill="#1E1E1E"/>
<path d="M56.6278 49.3412V48.673L57.9356 47.3508C58.1943 47.0873 58.4051 46.8622 58.5679 46.6754C58.7356 46.4885 58.8578 46.3137 58.9344 46.1508C59.0158 45.9831 59.0566 45.8035 59.0566 45.6119C59.0566 45.3772 58.9895 45.2023 58.8554 45.0873C58.7212 44.9676 58.544 44.9077 58.3236 44.9077C58.1081 44.9077 57.9069 44.9532 57.72 45.0442C57.5332 45.1304 57.3392 45.255 57.138 45.4179L56.6422 44.8215C56.853 44.6394 57.0925 44.4813 57.3608 44.3472C57.629 44.2083 57.9667 44.1388 58.3739 44.1388C58.7045 44.1388 58.9895 44.1987 59.229 44.3185C59.4685 44.4334 59.653 44.5963 59.7823 44.8071C59.9117 45.0131 59.9763 45.2502 59.9763 45.5185C59.9763 45.7963 59.9212 46.0526 59.8111 46.2873C59.7009 46.5173 59.5404 46.7496 59.3296 46.9843C59.1236 47.2143 58.8769 47.4634 58.5895 47.7316L57.7703 48.5149V48.558H60.1416V49.3412H56.6278Z" fill="#1E1E1E"/>
<path d="M64.1606 46.776C64.1606 47.3269 64.1031 47.7987 63.9881 48.1915C63.8731 48.5843 63.6863 48.8861 63.4276 49.0969C63.1689 49.3077 62.8264 49.4131 62.4001 49.4131C61.7965 49.4131 61.3534 49.1807 61.0707 48.7161C60.7881 48.2514 60.6468 47.6047 60.6468 46.776C60.6468 46.2251 60.7019 45.7532 60.8121 45.3604C60.927 44.9628 61.1115 44.6586 61.3654 44.4478C61.624 44.237 61.9689 44.1316 62.4001 44.1316C62.9989 44.1316 63.442 44.364 63.7294 44.8287C64.0168 45.2933 64.1606 45.9424 64.1606 46.776ZM61.5522 46.776C61.5522 47.4035 61.6145 47.8754 61.739 48.1915C61.8636 48.5077 62.0839 48.6658 62.4001 48.6658C62.7115 48.6658 62.9294 48.5101 63.054 48.1987C63.1833 47.8825 63.248 47.4083 63.248 46.776C63.248 46.1484 63.1833 45.6766 63.054 45.3604C62.9294 45.0394 62.7115 44.879 62.4001 44.879C62.0839 44.879 61.8636 45.0394 61.739 45.3604C61.6145 45.6766 61.5522 46.1484 61.5522 46.776Z" fill="#1E1E1E"/>
<path d="M64.8888 48.8813C64.8888 48.6801 64.9415 48.5388 65.0469 48.4574C65.1571 48.3712 65.2864 48.3281 65.4349 48.3281C65.5834 48.3281 65.7128 48.3712 65.8229 48.4574C65.9331 48.5388 65.9882 48.6801 65.9882 48.8813C65.9882 49.0778 65.9331 49.2191 65.8229 49.3053C65.7128 49.3915 65.5834 49.4346 65.4349 49.4346C65.2864 49.4346 65.1571 49.3915 65.0469 49.3053C64.9415 49.2191 64.8888 49.0778 64.8888 48.8813Z" fill="#1E1E1E"/>
<path d="M69.6054 49.3412V46.1436C69.6054 45.9903 69.6078 45.8275 69.6126 45.655C69.6222 45.4825 69.6294 45.3221 69.6342 45.1736C69.591 45.2215 69.5336 45.279 69.4617 45.346C69.3898 45.4131 69.3132 45.4778 69.2318 45.54L68.6641 45.9999L68.2114 45.4394L69.7635 44.2107H70.518V49.3412H69.6054Z" fill="#1E1E1E"/>
<path d="M73.0038 49.3412V46.1436C73.0038 45.9903 73.0062 45.8275 73.011 45.655C73.0206 45.4825 73.0278 45.3221 73.0326 45.1736C72.9895 45.2215 72.932 45.279 72.8601 45.346C72.7883 45.4131 72.7116 45.4778 72.6302 45.54L72.0625 45.9999L71.6098 45.4394L73.1619 44.2107H73.9164V49.3412H73.0038Z" fill="#1E1E1E"/>
<path d="M75.3388 48.8813C75.3388 48.6801 75.3915 48.5388 75.4969 48.4574C75.6071 48.3712 75.7364 48.3281 75.8849 48.3281C76.0334 48.3281 76.1627 48.3712 76.2729 48.4574C76.3831 48.5388 76.4382 48.6801 76.4382 48.8813C76.4382 49.0778 76.3831 49.2191 76.2729 49.3053C76.1627 49.3915 76.0334 49.4346 75.8849 49.4346C75.7364 49.4346 75.6071 49.3915 75.4969 49.3053C75.3915 49.2191 75.3388 49.0778 75.3388 48.8813Z" fill="#1E1E1E"/>
<path d="M78.7979 49.3412V48.673L80.1057 47.3508C80.3644 47.0873 80.5752 46.8622 80.738 46.6754C80.9057 46.4885 81.0279 46.3137 81.1045 46.1508C81.1859 45.9831 81.2267 45.8035 81.2267 45.6119C81.2267 45.3772 81.1596 45.2023 81.0255 45.0873C80.8913 44.9676 80.7141 44.9077 80.4937 44.9077C80.2782 44.9077 80.077 44.9532 79.8901 45.0442C79.7033 45.1304 79.5093 45.255 79.3081 45.4179L78.8123 44.8215C79.0231 44.6394 79.2626 44.4813 79.5309 44.3472C79.7991 44.2083 80.1368 44.1388 80.544 44.1388C80.8746 44.1388 81.1596 44.1987 81.3991 44.3185C81.6386 44.4334 81.8231 44.5963 81.9524 44.8071C82.0818 45.0131 82.1464 45.2502 82.1464 45.5185C82.1464 45.7963 82.0913 46.0526 81.9812 46.2873C81.871 46.5173 81.7105 46.7496 81.4997 46.9843C81.2937 47.2143 81.047 47.4634 80.7596 47.7316L79.9404 48.5149V48.558H82.3117V49.3412H78.7979Z" fill="#1E1E1E"/>
<path d="M86.3307 46.776C86.3307 47.3269 86.2732 47.7987 86.1582 48.1915C86.0432 48.5843 85.8564 48.8861 85.5977 49.0969C85.339 49.3077 84.9965 49.4131 84.5702 49.4131C83.9666 49.4131 83.5235 49.1807 83.2408 48.7161C82.9582 48.2514 82.8169 47.6047 82.8169 46.776C82.8169 46.2251 82.872 45.7532 82.9822 45.3604C83.0971 44.9628 83.2816 44.6586 83.5355 44.4478C83.7941 44.237 84.1391 44.1316 84.5702 44.1316C85.169 44.1316 85.6121 44.364 85.8995 44.8287C86.187 45.2933 86.3307 45.9424 86.3307 46.776ZM83.7223 46.776C83.7223 47.4035 83.7846 47.8754 83.9091 48.1915C84.0337 48.5077 84.254 48.6658 84.5702 48.6658C84.8816 48.6658 85.0995 48.5101 85.2241 48.1987C85.3534 47.8825 85.4181 47.4083 85.4181 46.776C85.4181 46.1484 85.3534 45.6766 85.2241 45.3604C85.0995 45.0394 84.8816 44.879 84.5702 44.879C84.254 44.879 84.0337 45.0394 83.9091 45.3604C83.7846 45.6766 83.7223 46.1484 83.7223 46.776Z" fill="#1E1E1E"/>
<path d="M86.8649 49.3412V48.673L88.1727 47.3508C88.4314 47.0873 88.6421 46.8622 88.805 46.6754C88.9727 46.4885 89.0948 46.3137 89.1715 46.1508C89.2529 45.9831 89.2936 45.8035 89.2936 45.6119C89.2936 45.3772 89.2266 45.2023 89.0924 45.0873C88.9583 44.9676 88.7811 44.9077 88.5607 44.9077C88.3451 44.9077 88.1439 44.9532 87.9571 45.0442C87.7703 45.1304 87.5763 45.255 87.3751 45.4179L86.8793 44.8215C87.09 44.6394 87.3296 44.4813 87.5978 44.3472C87.8661 44.2083 88.2038 44.1388 88.611 44.1388C88.9415 44.1388 89.2266 44.1987 89.4661 44.3185C89.7056 44.4334 89.89 44.5963 90.0194 44.8071C90.1487 45.0131 90.2134 45.2502 90.2134 45.5185C90.2134 45.7963 90.1583 46.0526 90.0481 46.2873C89.9379 46.5173 89.7775 46.7496 89.5667 46.9843C89.3607 47.2143 89.114 47.4634 88.8266 47.7316L88.0074 48.5149V48.558H90.3787V49.3412H86.8649Z" fill="#1E1E1E"/>
<path d="M92.5869 46.1149C92.9126 46.1149 93.2 46.1748 93.4491 46.2945C93.6982 46.4143 93.8922 46.5891 94.0312 46.8191C94.1749 47.0442 94.2467 47.3221 94.2467 47.6526C94.2467 48.2035 94.0767 48.6346 93.7365 48.946C93.3964 49.2574 92.9006 49.4131 92.2491 49.4131C91.9809 49.4131 91.7294 49.3891 91.4946 49.3412C91.2599 49.2933 91.0587 49.2239 90.891 49.1328V48.3281C91.0683 48.4239 91.2815 48.5029 91.5306 48.5652C91.7797 48.6275 92.0144 48.6586 92.2348 48.6586C92.5749 48.6586 92.8407 48.5843 93.0324 48.4358C93.2288 48.2873 93.327 48.055 93.327 47.7388C93.327 47.4562 93.2336 47.2406 93.0467 47.0921C92.8647 46.9388 92.5821 46.8622 92.1988 46.8622C92.0647 46.8622 91.921 46.8742 91.7677 46.8981C91.6144 46.9221 91.4874 46.946 91.3869 46.97L90.9988 46.7544L91.1928 44.2107H93.8946V45.0011H91.9904L91.8827 46.1867C91.9641 46.1724 92.0599 46.158 92.1701 46.1436C92.2803 46.1245 92.4192 46.1149 92.5869 46.1149Z" fill="#1E1E1E"/>
<path d="M56.6278 113.054V112.385L57.9356 111.063C58.1943 110.8 58.4051 110.575 58.5679 110.388C58.7356 110.201 58.8578 110.026 58.9344 109.863C59.0158 109.696 59.0566 109.516 59.0566 109.324C59.0566 109.09 58.9895 108.915 58.8554 108.8C58.7212 108.68 58.544 108.62 58.3236 108.62C58.1081 108.62 57.9069 108.666 57.72 108.757C57.5332 108.843 57.3392 108.968 57.138 109.13L56.6422 108.534C56.853 108.352 57.0925 108.194 57.3608 108.06C57.629 107.921 57.9667 107.851 58.3739 107.851C58.7045 107.851 58.9895 107.911 59.229 108.031C59.4685 108.146 59.653 108.309 59.7823 108.52C59.9117 108.726 59.9763 108.963 59.9763 109.231C59.9763 109.509 59.9212 109.765 59.8111 110C59.7009 110.23 59.5404 110.462 59.3296 110.697C59.1236 110.927 58.8769 111.176 58.5895 111.444L57.7703 112.227V112.271H60.1416V113.054H56.6278Z" fill="#C40127"/>
<path d="M64.1606 110.488C64.1606 111.039 64.1031 111.511 63.9881 111.904C63.8731 112.297 63.6863 112.599 63.4276 112.809C63.1689 113.02 62.8264 113.126 62.4001 113.126C61.7965 113.126 61.3534 112.893 61.0707 112.429C60.7881 111.964 60.6468 111.317 60.6468 110.488C60.6468 109.938 60.7019 109.466 60.8121 109.073C60.927 108.675 61.1115 108.371 61.3654 108.16C61.624 107.95 61.9689 107.844 62.4001 107.844C62.9989 107.844 63.442 108.077 63.7294 108.541C64.0168 109.006 64.1606 109.655 64.1606 110.488ZM61.5522 110.488C61.5522 111.116 61.6145 111.588 61.739 111.904C61.8636 112.22 62.0839 112.378 62.4001 112.378C62.7115 112.378 62.9294 112.223 63.054 111.911C63.1833 111.595 63.248 111.121 63.248 110.488C63.248 109.861 63.1833 109.389 63.054 109.073C62.9294 108.752 62.7115 108.591 62.4001 108.591C62.0839 108.591 61.8636 108.752 61.739 109.073C61.6145 109.389 61.5522 109.861 61.5522 110.488Z" fill="#C40127"/>
<path d="M64.8888 112.594C64.8888 112.393 64.9415 112.251 65.0469 112.17C65.1571 112.084 65.2864 112.041 65.4349 112.041C65.5834 112.041 65.7128 112.084 65.8229 112.17C65.9331 112.251 65.9882 112.393 65.9882 112.594C65.9882 112.79 65.9331 112.932 65.8229 113.018C65.7128 113.104 65.5834 113.147 65.4349 113.147C65.2864 113.147 65.1571 113.104 65.0469 113.018C64.9415 112.932 64.8888 112.79 64.8888 112.594Z" fill="#C40127"/>
<path d="M69.6054 113.054V109.856C69.6054 109.703 69.6078 109.54 69.6126 109.368C69.6222 109.195 69.6294 109.035 69.6342 108.886C69.591 108.934 69.5336 108.991 69.4617 109.059C69.3898 109.126 69.3132 109.19 69.2318 109.253L68.6641 109.712L68.2114 109.152L69.7635 107.923H70.518V113.054H69.6054Z" fill="#C40127"/>
<path d="M71.7464 113.054V112.385L73.0541 111.063C73.3128 110.8 73.5236 110.575 73.6865 110.388C73.8541 110.201 73.9763 110.026 74.0529 109.863C74.1344 109.696 74.1751 109.516 74.1751 109.324C74.1751 109.09 74.108 108.915 73.9739 108.8C73.8398 108.68 73.6625 108.62 73.4422 108.62C73.2266 108.62 73.0254 108.666 72.8386 108.757C72.6517 108.843 72.4577 108.968 72.2565 109.13L71.7607 108.534C71.9715 108.352 72.211 108.194 72.4793 108.06C72.7476 107.921 73.0853 107.851 73.4925 107.851C73.823 107.851 74.108 107.911 74.3476 108.031C74.5871 108.146 74.7715 108.309 74.9008 108.52C75.0302 108.726 75.0949 108.963 75.0949 109.231C75.0949 109.509 75.0398 109.765 74.9296 110C74.8194 110.23 74.6589 110.462 74.4482 110.697C74.2422 110.927 73.9955 111.176 73.708 111.444L72.8889 112.227V112.271H75.2601V113.054H71.7464Z" fill="#C40127"/>
<path d="M75.83 112.594C75.83 112.393 75.8827 112.251 75.9881 112.17C76.0983 112.084 76.2276 112.041 76.3761 112.041C76.5246 112.041 76.6539 112.084 76.7641 112.17C76.8743 112.251 76.9294 112.393 76.9294 112.594C76.9294 112.79 76.8743 112.932 76.7641 113.018C76.6539 113.104 76.5246 113.147 76.3761 113.147C76.2276 113.147 76.0983 113.104 75.9881 113.018C75.8827 112.932 75.83 112.79 75.83 112.594Z" fill="#C40127"/>
<path d="M79.2891 113.054V112.385L80.5969 111.063C80.8556 110.8 81.0664 110.575 81.2292 110.388C81.3969 110.201 81.5191 110.026 81.5957 109.863C81.6771 109.696 81.7179 109.516 81.7179 109.324C81.7179 109.09 81.6508 108.915 81.5167 108.8C81.3825 108.68 81.2053 108.62 80.9849 108.62C80.7694 108.62 80.5682 108.666 80.3813 108.757C80.1945 108.843 80.0005 108.968 79.7993 109.13L79.3035 108.534C79.5143 108.352 79.7538 108.194 80.0221 108.06C80.2903 107.921 80.628 107.851 81.0352 107.851C81.3658 107.851 81.6508 107.911 81.8903 108.031C82.1298 108.146 82.3143 108.309 82.4436 108.52C82.573 108.726 82.6376 108.963 82.6376 109.231C82.6376 109.509 82.5825 109.765 82.4724 110C82.3622 110.23 82.2017 110.462 81.9909 110.697C81.7849 110.927 81.5382 111.176 81.2508 111.444L80.4316 112.227V112.271H82.8029V113.054H79.2891Z" fill="#C40127"/>
<path d="M86.8219 110.488C86.8219 111.039 86.7644 111.511 86.6494 111.904C86.5344 112.297 86.3476 112.599 86.0889 112.809C85.8303 113.02 85.4877 113.126 85.0614 113.126C84.4578 113.126 84.0147 112.893 83.732 112.429C83.4494 111.964 83.3081 111.317 83.3081 110.488C83.3081 109.938 83.3632 109.466 83.4734 109.073C83.5883 108.675 83.7728 108.371 84.0267 108.16C84.2853 107.95 84.6303 107.844 85.0614 107.844C85.6602 107.844 86.1033 108.077 86.3907 108.541C86.6782 109.006 86.8219 109.655 86.8219 110.488ZM84.2135 110.488C84.2135 111.116 84.2758 111.588 84.4003 111.904C84.5249 112.22 84.7452 112.378 85.0614 112.378C85.3728 112.378 85.5907 112.223 85.7153 111.911C85.8446 111.595 85.9093 111.121 85.9093 110.488C85.9093 109.861 85.8446 109.389 85.7153 109.073C85.5907 108.752 85.3728 108.591 85.0614 108.591C84.7452 108.591 84.5249 108.752 84.4003 109.073C84.2758 109.389 84.2135 109.861 84.2135 110.488Z" fill="#C40127"/>
<path d="M87.3561 113.054V112.385L88.6639 111.063C88.9226 110.8 89.1333 110.575 89.2962 110.388C89.4639 110.201 89.586 110.026 89.6627 109.863C89.7441 109.696 89.7848 109.516 89.7848 109.324C89.7848 109.09 89.7178 108.915 89.5836 108.8C89.4495 108.68 89.2723 108.62 89.0519 108.62C88.8363 108.62 88.6351 108.666 88.4483 108.757C88.2615 108.843 88.0675 108.968 87.8663 109.13L87.3705 108.534C87.5812 108.352 87.8208 108.194 88.089 108.06C88.3573 107.921 88.695 107.851 89.1022 107.851C89.4327 107.851 89.7178 107.911 89.9573 108.031C90.1968 108.146 90.3812 108.309 90.5106 108.52C90.6399 108.726 90.7046 108.963 90.7046 109.231C90.7046 109.509 90.6495 109.765 90.5393 110C90.4291 110.23 90.2687 110.462 90.0579 110.697C89.8519 110.927 89.6052 111.176 89.3178 111.444L88.4986 112.227V112.271H90.8699V113.054H87.3561Z" fill="#C40127"/>
<path d="M93.0781 109.827C93.4038 109.827 93.6912 109.887 93.9403 110.007C94.1894 110.127 94.3834 110.302 94.5224 110.532C94.6661 110.757 94.7379 111.035 94.7379 111.365C94.7379 111.916 94.5679 112.347 94.2278 112.659C93.8876 112.97 93.3918 113.126 92.7403 113.126C92.4721 113.126 92.2206 113.102 91.9858 113.054C91.7511 113.006 91.5499 112.936 91.3822 112.845V112.041C91.5595 112.136 91.7727 112.215 92.0218 112.278C92.2709 112.34 92.5056 112.371 92.726 112.371C93.0661 112.371 93.3319 112.297 93.5236 112.148C93.72 112 93.8182 111.768 93.8182 111.451C93.8182 111.169 93.7248 110.953 93.5379 110.805C93.3559 110.651 93.0733 110.575 92.69 110.575C92.5559 110.575 92.4122 110.587 92.2589 110.611C92.1056 110.635 91.9787 110.659 91.8781 110.682L91.49 110.467L91.684 107.923H94.3858V108.714H92.4817L92.3739 109.899C92.4553 109.885 92.5511 109.871 92.6613 109.856C92.7715 109.837 92.9104 109.827 93.0781 109.827Z" fill="#C40127"/>
<path d="M13.1404 49.2706H12.5311L11.0767 47.3103L10.6571 47.6783V49.2706H10.1397V45.1662H10.6571V47.1896C10.7721 47.0593 10.8889 46.929 11.0077 46.7987C11.1266 46.6684 11.2454 46.5381 11.3642 46.4078L12.4736 45.1662H13.0772L11.4504 46.9539L13.1404 49.2706Z" fill="#1E1E1E"/>
<path d="M16.2454 47.7242C16.2454 48.2339 16.1151 48.6287 15.8545 48.9084C15.5978 49.1882 15.249 49.3281 14.8083 49.3281C14.5362 49.3281 14.2929 49.2668 14.0783 49.1441C13.8675 49.0177 13.7008 48.8356 13.5781 48.598C13.4555 48.3566 13.3942 48.0653 13.3942 47.7242C13.3942 47.2145 13.5207 46.8217 13.7736 46.5458C14.0304 46.2699 14.381 46.1319 14.8256 46.1319C15.1015 46.1319 15.3468 46.1951 15.5614 46.3216C15.776 46.4442 15.9427 46.6244 16.0615 46.862C16.1841 47.0957 16.2454 47.3832 16.2454 47.7242ZM13.9173 47.7242C13.9173 48.0883 13.9882 48.3777 14.13 48.5923C14.2756 48.803 14.5056 48.9084 14.8198 48.9084C15.1302 48.9084 15.3583 48.803 15.5039 48.5923C15.6495 48.3777 15.7223 48.0883 15.7223 47.7242C15.7223 47.3602 15.6495 47.0747 15.5039 46.8677C15.3583 46.6608 15.1283 46.5573 14.8141 46.5573C14.4998 46.5573 14.2718 46.6608 14.13 46.8677C13.9882 47.0747 13.9173 47.3602 13.9173 47.7242Z" fill="#1E1E1E"/>
<path d="M18.4671 46.1319C18.835 46.1319 19.1128 46.222 19.3006 46.4021C19.4884 46.5822 19.5823 46.8696 19.5823 47.2644V49.2706H19.0821V47.2989C19.0821 46.8045 18.8522 46.5573 18.3923 46.5573C18.0512 46.5573 17.8156 46.6531 17.6853 46.8447C17.555 47.0363 17.4898 47.3123 17.4898 47.6725V49.2706H16.9839V46.1894H17.3921L17.4668 46.609H17.4956C17.5952 46.4481 17.7332 46.3293 17.9095 46.2526C18.0857 46.1721 18.2716 46.1319 18.4671 46.1319Z" fill="#1E1E1E"/>
<path d="M21.6642 46.1319C21.9248 46.1319 22.1509 46.1894 22.3425 46.3044C22.5341 46.4193 22.6797 46.5822 22.7794 46.793C22.8828 46.9999 22.9346 47.2433 22.9346 47.523V47.8277H20.8249C20.8325 48.1765 20.9207 48.4428 21.0893 48.6268C21.2618 48.8069 21.5013 48.8969 21.8079 48.8969C22.0033 48.8969 22.1758 48.8797 22.3252 48.8452C22.4785 48.8069 22.6357 48.7532 22.7966 48.6842V49.1269C22.6395 49.1959 22.4843 49.2457 22.331 49.2763C22.1777 49.3108 21.9957 49.3281 21.7849 49.3281C21.4898 49.3281 21.2311 49.2687 21.0088 49.1499C20.7866 49.0311 20.6122 48.8548 20.4857 48.621C20.3631 48.3872 20.3018 48.0979 20.3018 47.753C20.3018 47.4157 20.3573 47.1264 20.4685 46.885C20.5834 46.6435 20.7425 46.4577 20.9456 46.3274C21.1525 46.1971 21.3921 46.1319 21.6642 46.1319ZM21.6584 46.5458C21.417 46.5458 21.2254 46.6244 21.0836 46.7815C20.9456 46.9348 20.8632 47.1494 20.8364 47.4253H22.4057C22.4019 47.1647 22.3406 46.9539 22.2218 46.793C22.103 46.6282 21.9152 46.5458 21.6584 46.5458Z" fill="#1E1E1E"/>
<path d="M24.8917 49.3281C24.6157 49.3281 24.3724 49.2725 24.1616 49.1614C23.9508 49.0502 23.7841 48.8778 23.6615 48.644C23.5427 48.4102 23.4833 48.1113 23.4833 47.7472C23.4833 47.3678 23.5446 47.0593 23.6672 46.8217C23.7937 46.5841 23.9662 46.4098 24.1846 46.2986C24.4031 46.1875 24.6502 46.1319 24.9262 46.1319C25.0795 46.1319 25.2289 46.1491 25.3746 46.1836C25.524 46.2143 25.6447 46.2526 25.7367 46.2986L25.5815 46.7183C25.4895 46.6838 25.3822 46.6512 25.2596 46.6205C25.1369 46.5899 25.022 46.5745 24.9147 46.5745C24.3092 46.5745 24.0064 46.9635 24.0064 47.7415C24.0064 48.1132 24.0792 48.3987 24.2249 48.598C24.3743 48.7935 24.5947 48.8912 24.8859 48.8912C25.0507 48.8912 25.1983 48.8739 25.3286 48.8395C25.4589 48.805 25.5777 48.7628 25.685 48.713V49.1614C25.5815 49.215 25.4665 49.2553 25.3401 49.2821C25.2174 49.3127 25.068 49.3281 24.8917 49.3281Z" fill="#1E1E1E"/>
<path d="M29.2504 46.1319C29.6298 46.1319 29.9345 46.2641 30.1644 46.5286C30.3982 46.793 30.5151 47.1915 30.5151 47.7242C30.5151 48.2493 30.3982 48.6478 30.1644 48.9199C29.9345 49.192 29.6279 49.3281 29.2446 49.3281C29.007 49.3281 28.8097 49.284 28.6525 49.1959C28.4992 49.1077 28.3785 49.0023 28.2904 48.8797H28.2559C28.2597 48.9448 28.2655 49.0272 28.2731 49.1269C28.2846 49.2265 28.2904 49.3127 28.2904 49.3856V50.6502H27.7845V46.1894H28.1984L28.2674 46.609H28.2904C28.3824 46.4749 28.5031 46.3618 28.6525 46.2699C28.802 46.1779 29.0013 46.1319 29.2504 46.1319ZM29.1584 46.5573C28.8442 46.5573 28.6219 46.6454 28.4916 46.8217C28.3613 46.998 28.2942 47.2663 28.2904 47.6265V47.7242C28.2904 48.1036 28.3517 48.3968 28.4743 48.6038C28.6008 48.8069 28.8327 48.9084 29.1699 48.9084C29.3539 48.9084 29.5072 48.8586 29.6298 48.759C29.7524 48.6555 29.8425 48.5137 29.9 48.3336C29.9613 48.1535 29.9919 47.9484 29.9919 47.7185C29.9919 47.3659 29.923 47.0842 29.785 46.8735C29.6509 46.6627 29.442 46.5573 29.1584 46.5573Z" fill="#1E1E1E"/>
<path d="M31.7638 49.2706H31.258V44.9017H31.7638V49.2706Z" fill="#1E1E1E"/>
<path d="M33.8437 46.1377C34.2193 46.1377 34.4971 46.2201 34.6772 46.3848C34.8574 46.5496 34.9474 46.8121 34.9474 47.1724V49.2706H34.5795L34.4818 48.8337H34.4588C34.3247 49.0023 34.1829 49.1269 34.0334 49.2074C33.8839 49.2878 33.6808 49.3281 33.4241 49.3281C33.1443 49.3281 32.9124 49.2553 32.7285 49.1096C32.5445 48.9602 32.4526 48.7283 32.4526 48.4141C32.4526 48.1075 32.5733 47.8718 32.8147 47.707C33.0562 47.5384 33.4279 47.4464 33.9299 47.4311L34.453 47.4138V47.2299C34.453 46.9731 34.3975 46.7949 34.2863 46.6953C34.1752 46.5956 34.0181 46.5458 33.815 46.5458C33.654 46.5458 33.5007 46.5707 33.3551 46.6205C33.2095 46.6665 33.0734 46.7202 32.9469 46.7815L32.7917 46.4021C32.9259 46.3293 33.0849 46.268 33.2689 46.2181C33.4528 46.1645 33.6444 46.1377 33.8437 46.1377ZM34.4473 47.7645L33.9932 47.7817C33.6099 47.7971 33.3436 47.8584 33.1941 47.9657C33.0485 48.073 32.9757 48.2244 32.9757 48.4198C32.9757 48.5923 33.0274 48.7187 33.1309 48.7992C33.2382 48.8797 33.3742 48.9199 33.539 48.9199C33.7958 48.9199 34.0104 48.849 34.1829 48.7072C34.3592 48.5616 34.4473 48.3393 34.4473 48.0404V47.7645Z" fill="#1E1E1E"/>
<path d="M36.8648 48.9142C36.9415 48.9142 37.02 48.9084 37.1005 48.8969C37.181 48.8854 37.2461 48.8701 37.2959 48.8509V49.2361C37.2423 49.2629 37.1656 49.284 37.066 49.2993C36.9664 49.3185 36.8706 49.3281 36.7786 49.3281C36.6176 49.3281 36.4682 49.3012 36.3302 49.2476C36.1961 49.1901 36.0868 49.0924 36.0025 48.9544C35.9182 48.8165 35.8761 48.6229 35.8761 48.3738V46.5803H35.4392V46.3389L35.8818 46.1377L36.083 45.4823H36.3819V46.1894H37.273V46.5803H36.3819V48.3623C36.3819 48.5501 36.426 48.69 36.5142 48.782C36.6061 48.8701 36.723 48.9142 36.8648 48.9142Z" fill="#1E1E1E"/>
<path d="M39.3328 46.1319C39.7007 46.1319 39.9786 46.222 40.1663 46.4021C40.3541 46.5822 40.448 46.8696 40.448 47.2644V49.2706H39.9479V47.2989C39.9479 46.8045 39.718 46.5573 39.2581 46.5573C38.917 46.5573 38.6813 46.6531 38.551 46.8447C38.4207 47.0363 38.3556 47.3123 38.3556 47.6725V49.2706H37.8497V46.1894H38.2578L38.3326 46.609H38.3613C38.4609 46.4481 38.5989 46.3293 38.7752 46.2526C38.9515 46.1721 39.1374 46.1319 39.3328 46.1319Z" fill="#1E1E1E"/>
<path d="M44.0188 47.7242C44.0188 48.2339 43.8885 48.6287 43.6279 48.9084C43.3711 49.1882 43.0224 49.3281 42.5816 49.3281C42.3096 49.3281 42.0662 49.2668 41.8516 49.1441C41.6408 49.0177 41.4741 48.8356 41.3515 48.598C41.2288 48.3566 41.1675 48.0653 41.1675 47.7242C41.1675 47.2145 41.294 46.8217 41.5469 46.5458C41.8037 46.2699 42.1543 46.1319 42.5989 46.1319C42.8748 46.1319 43.1201 46.1951 43.3347 46.3216C43.5493 46.4442 43.716 46.6244 43.8348 46.862C43.9575 47.0957 44.0188 47.3832 44.0188 47.7242ZM41.6906 47.7242C41.6906 48.0883 41.7615 48.3777 41.9033 48.5923C42.049 48.803 42.2789 48.9084 42.5931 48.9084C42.9036 48.9084 43.1316 48.803 43.2772 48.5923C43.4228 48.3777 43.4957 48.0883 43.4957 47.7242C43.4957 47.3602 43.4228 47.0747 43.2772 46.8677C43.1316 46.6608 42.9016 46.5573 42.5874 46.5573C42.2731 46.5573 42.0451 46.6608 41.9033 46.8677C41.7615 47.0747 41.6906 47.3602 41.6906 47.7242Z" fill="#1E1E1E"/>
<path d="M46.7635 48.4198C46.7635 48.7187 46.6524 48.9448 46.4301 49.0981C46.2078 49.2514 45.9089 49.3281 45.5333 49.3281C45.3187 49.3281 45.1328 49.3108 44.9757 49.2763C44.8224 49.2418 44.6864 49.1939 44.5676 49.1326V48.6727C44.6902 48.7341 44.8378 48.7915 45.0102 48.8452C45.1865 48.895 45.3647 48.9199 45.5448 48.9199C45.8016 48.9199 45.9875 48.8797 46.1024 48.7992C46.2174 48.7149 46.2749 48.6038 46.2749 48.4658C46.2749 48.3891 46.2538 48.3202 46.2116 48.2589C46.1695 48.1975 46.0928 48.1362 45.9817 48.0749C45.8744 48.0136 45.7192 47.9446 45.5161 47.868C45.3168 47.7913 45.1463 47.7147 45.0045 47.638C44.8627 47.5614 44.7534 47.4694 44.6768 47.3621C44.6002 47.2548 44.5618 47.1168 44.5618 46.9482C44.5618 46.6876 44.6672 46.4864 44.878 46.3446C45.0926 46.2028 45.3724 46.1319 45.7173 46.1319C45.9051 46.1319 46.0794 46.1511 46.2404 46.1894C46.4052 46.2277 46.5585 46.2775 46.7003 46.3389L46.5278 46.7412C46.3975 46.6876 46.2615 46.6416 46.1197 46.6033C45.9779 46.565 45.8322 46.5458 45.6828 46.5458C45.4758 46.5458 45.3168 46.5803 45.2057 46.6493C45.0984 46.7144 45.0447 46.8045 45.0447 46.9194C45.0447 47.0076 45.0696 47.0804 45.1194 47.1379C45.1693 47.1954 45.2516 47.2529 45.3666 47.3103C45.4854 47.3678 45.6425 47.433 45.838 47.5058C46.0334 47.5786 46.2001 47.6533 46.3381 47.73C46.4761 47.8066 46.5815 47.9005 46.6543 48.0117C46.7271 48.119 46.7635 48.255 46.7635 48.4198Z" fill="#1E1E1E"/>
<path d="M48.4738 48.9142C48.5504 48.9142 48.629 48.9084 48.7095 48.8969C48.7899 48.8854 48.8551 48.8701 48.9049 48.8509V49.2361C48.8513 49.2629 48.7746 49.284 48.675 49.2993C48.5753 49.3185 48.4795 49.3281 48.3875 49.3281C48.2266 49.3281 48.0771 49.3012 47.9392 49.2476C47.805 49.1901 47.6958 49.0924 47.6115 48.9544C47.5272 48.8165 47.485 48.6229 47.485 48.3738V46.5803H47.0481V46.3389L47.4908 46.1377L47.692 45.4823H47.9909V46.1894H48.8819V46.5803H47.9909V48.3623C47.9909 48.5501 48.035 48.69 48.1231 48.782C48.2151 48.8701 48.332 48.9142 48.4738 48.9142Z" fill="#1E1E1E"/>
<path d="M49.7173 45.0339C49.794 45.0339 49.861 45.0608 49.9185 45.1144C49.9798 45.1642 50.0105 45.2447 50.0105 45.3559C50.0105 45.467 49.9798 45.5494 49.9185 45.603C49.861 45.6529 49.794 45.6778 49.7173 45.6778C49.633 45.6778 49.5621 45.6529 49.5046 45.603C49.4472 45.5494 49.4184 45.467 49.4184 45.3559C49.4184 45.2447 49.4472 45.1642 49.5046 45.1144C49.5621 45.0608 49.633 45.0339 49.7173 45.0339ZM49.9645 46.1894V49.2706H49.4587V46.1894H49.9645Z" fill="#1E1E1E"/>
<path d="M50.8027 46.4998C50.8027 46.3542 50.8372 46.2526 50.9062 46.1951C50.9752 46.1377 51.0576 46.1089 51.1534 46.1089C51.2492 46.1089 51.3335 46.1377 51.4063 46.1951C51.4791 46.2526 51.5155 46.3542 51.5155 46.4998C51.5155 46.6378 51.4791 46.7374 51.4063 46.7987C51.3335 46.8601 51.2492 46.8907 51.1534 46.8907C51.0576 46.8907 50.9752 46.8601 50.9062 46.7987C50.8372 46.7374 50.8027 46.6378 50.8027 46.4998ZM50.8027 48.9602C50.8027 48.8184 50.8372 48.7187 50.9062 48.6612C50.9752 48.6038 51.0576 48.575 51.1534 48.575C51.2492 48.575 51.3335 48.6038 51.4063 48.6612C51.4791 48.7187 51.5155 48.8184 51.5155 48.9602C51.5155 49.0981 51.4791 49.1978 51.4063 49.2591C51.3335 49.3204 51.2492 49.3511 51.1534 49.3511C51.0576 49.3511 50.9752 49.3204 50.9062 49.2591C50.8372 49.1978 50.8027 49.0981 50.8027 48.9602Z" fill="#1E1E1E"/>
<path d="M13.1404 112.983H12.5311L11.0767 111.023L10.6571 111.391V112.983H10.1397V108.879H10.6571V110.902C10.7721 110.772 10.8889 110.642 11.0077 110.511C11.1266 110.381 11.2454 110.251 11.3642 110.12L12.4736 108.879H13.0772L11.4504 110.666L13.1404 112.983Z" fill="#1E1E1E"/>
<path d="M16.2454 111.437C16.2454 111.946 16.1151 112.341 15.8545 112.621C15.5978 112.901 15.249 113.041 14.8083 113.041C14.5362 113.041 14.2929 112.979 14.0783 112.857C13.8675 112.73 13.7008 112.548 13.5781 112.311C13.4555 112.069 13.3942 111.778 13.3942 111.437C13.3942 110.927 13.5207 110.534 13.7736 110.258C14.0304 109.982 14.381 109.844 14.8256 109.844C15.1015 109.844 15.3468 109.908 15.5614 110.034C15.776 110.157 15.9427 110.337 16.0615 110.574C16.1841 110.808 16.2454 111.096 16.2454 111.437ZM13.9173 111.437C13.9173 111.801 13.9882 112.09 14.13 112.305C14.2756 112.516 14.5056 112.621 14.8198 112.621C15.1302 112.621 15.3583 112.516 15.5039 112.305C15.6495 112.09 15.7223 111.801 15.7223 111.437C15.7223 111.073 15.6495 110.787 15.5039 110.58C15.3583 110.373 15.1283 110.27 14.8141 110.27C14.4998 110.27 14.2718 110.373 14.13 110.58C13.9882 110.787 13.9173 111.073 13.9173 111.437Z" fill="#1E1E1E"/>
<path d="M18.4671 109.844C18.835 109.844 19.1128 109.934 19.3006 110.115C19.4884 110.295 19.5823 110.582 19.5823 110.977V112.983H19.0821V111.011C19.0821 110.517 18.8522 110.27 18.3923 110.27C18.0512 110.27 17.8156 110.366 17.6853 110.557C17.555 110.749 17.4898 111.025 17.4898 111.385V112.983H16.9839V109.902H17.3921L17.4668 110.322H17.4956C17.5952 110.161 17.7332 110.042 17.9095 109.965C18.0857 109.885 18.2716 109.844 18.4671 109.844Z" fill="#1E1E1E"/>
<path d="M21.6642 109.844C21.9248 109.844 22.1509 109.902 22.3425 110.017C22.5341 110.132 22.6797 110.295 22.7794 110.506C22.8828 110.712 22.9346 110.956 22.9346 111.236V111.54H20.8249C20.8325 111.889 20.9207 112.155 21.0893 112.339C21.2618 112.519 21.5013 112.609 21.8079 112.609C22.0033 112.609 22.1758 112.592 22.3252 112.558C22.4785 112.519 22.6357 112.466 22.7966 112.397V112.839C22.6395 112.908 22.4843 112.958 22.331 112.989C22.1777 113.023 21.9957 113.041 21.7849 113.041C21.4898 113.041 21.2311 112.981 21.0088 112.862C20.7866 112.744 20.6122 112.567 20.4857 112.334C20.3631 112.1 20.3018 111.81 20.3018 111.466C20.3018 111.128 20.3573 110.839 20.4685 110.597C20.5834 110.356 20.7425 110.17 20.9456 110.04C21.1525 109.91 21.3921 109.844 21.6642 109.844ZM21.6584 110.258C21.417 110.258 21.2254 110.337 21.0836 110.494C20.9456 110.647 20.8632 110.862 20.8364 111.138H22.4057C22.4019 110.877 22.3406 110.666 22.2218 110.506C22.103 110.341 21.9152 110.258 21.6584 110.258Z" fill="#1E1E1E"/>
<path d="M24.8917 113.041C24.6157 113.041 24.3724 112.985 24.1616 112.874C23.9508 112.763 23.7841 112.59 23.6615 112.357C23.5427 112.123 23.4833 111.824 23.4833 111.46C23.4833 111.08 23.5446 110.772 23.6672 110.534C23.7937 110.297 23.9662 110.122 24.1846 110.011C24.4031 109.9 24.6502 109.844 24.9262 109.844C25.0795 109.844 25.2289 109.862 25.3746 109.896C25.524 109.927 25.6447 109.965 25.7367 110.011L25.5815 110.431C25.4895 110.396 25.3822 110.364 25.2596 110.333C25.1369 110.302 25.022 110.287 24.9147 110.287C24.3092 110.287 24.0064 110.676 24.0064 111.454C24.0064 111.826 24.0792 112.111 24.2249 112.311C24.3743 112.506 24.5947 112.604 24.8859 112.604C25.0507 112.604 25.1983 112.586 25.3286 112.552C25.4589 112.517 25.5777 112.475 25.685 112.426V112.874C25.5815 112.928 25.4665 112.968 25.3401 112.995C25.2174 113.025 25.068 113.041 24.8917 113.041Z" fill="#1E1E1E"/>
<path d="M29.2504 109.844C29.6298 109.844 29.9345 109.977 30.1644 110.241C30.3982 110.506 30.5151 110.904 30.5151 111.437C30.5151 111.962 30.3982 112.36 30.1644 112.632C29.9345 112.905 29.6279 113.041 29.2446 113.041C29.007 113.041 28.8097 112.997 28.6525 112.908C28.4992 112.82 28.3785 112.715 28.2904 112.592H28.2559C28.2597 112.657 28.2655 112.74 28.2731 112.839C28.2846 112.939 28.2904 113.025 28.2904 113.098V114.363H27.7845V109.902H28.1984L28.2674 110.322H28.2904C28.3824 110.187 28.5031 110.074 28.6525 109.982C28.802 109.89 29.0013 109.844 29.2504 109.844ZM29.1584 110.27C28.8442 110.27 28.6219 110.358 28.4916 110.534C28.3613 110.711 28.2942 110.979 28.2904 111.339V111.437C28.2904 111.816 28.3517 112.109 28.4743 112.316C28.6008 112.519 28.8327 112.621 29.1699 112.621C29.3539 112.621 29.5072 112.571 29.6298 112.471C29.7524 112.368 29.8425 112.226 29.9 112.046C29.9613 111.866 29.9919 111.661 29.9919 111.431C29.9919 111.078 29.923 110.797 29.785 110.586C29.6509 110.375 29.442 110.27 29.1584 110.27Z" fill="#1E1E1E"/>
<path d="M31.7638 112.983H31.258V108.614H31.7638V112.983Z" fill="#1E1E1E"/>
<path d="M33.8437 109.85C34.2193 109.85 34.4971 109.933 34.6772 110.097C34.8574 110.262 34.9474 110.525 34.9474 110.885V112.983H34.5795L34.4818 112.546H34.4588C34.3247 112.715 34.1829 112.839 34.0334 112.92C33.8839 113 33.6808 113.041 33.4241 113.041C33.1443 113.041 32.9124 112.968 32.7285 112.822C32.5445 112.673 32.4526 112.441 32.4526 112.127C32.4526 111.82 32.5733 111.584 32.8147 111.42C33.0562 111.251 33.4279 111.159 33.9299 111.144L34.453 111.126V110.942C34.453 110.686 34.3975 110.507 34.2863 110.408C34.1752 110.308 34.0181 110.258 33.815 110.258C33.654 110.258 33.5007 110.283 33.3551 110.333C33.2095 110.379 33.0734 110.433 32.9469 110.494L32.7917 110.115C32.9259 110.042 33.0849 109.98 33.2689 109.931C33.4528 109.877 33.6444 109.85 33.8437 109.85ZM34.4473 111.477L33.9932 111.494C33.6099 111.51 33.3436 111.571 33.1941 111.678C33.0485 111.786 32.9757 111.937 32.9757 112.132C32.9757 112.305 33.0274 112.431 33.1309 112.512C33.2382 112.592 33.3742 112.632 33.539 112.632C33.7958 112.632 34.0104 112.562 34.1829 112.42C34.3592 112.274 34.4473 112.052 34.4473 111.753V111.477Z" fill="#1E1E1E"/>
<path d="M36.8648 112.627C36.9415 112.627 37.02 112.621 37.1005 112.609C37.181 112.598 37.2461 112.583 37.2959 112.563V112.949C37.2423 112.975 37.1656 112.997 37.066 113.012C36.9664 113.031 36.8706 113.041 36.7786 113.041C36.6176 113.041 36.4682 113.014 36.3302 112.96C36.1961 112.903 36.0868 112.805 36.0025 112.667C35.9182 112.529 35.8761 112.335 35.8761 112.086V110.293H35.4392V110.051L35.8818 109.85L36.083 109.195H36.3819V109.902H37.273V110.293H36.3819V112.075C36.3819 112.263 36.426 112.403 36.5142 112.494C36.6061 112.583 36.723 112.627 36.8648 112.627Z" fill="#1E1E1E"/>
<path d="M39.3328 109.844C39.7007 109.844 39.9786 109.934 40.1663 110.115C40.3541 110.295 40.448 110.582 40.448 110.977V112.983H39.9479V111.011C39.9479 110.517 39.718 110.27 39.2581 110.27C38.917 110.27 38.6813 110.366 38.551 110.557C38.4207 110.749 38.3556 111.025 38.3556 111.385V112.983H37.8497V109.902H38.2578L38.3326 110.322H38.3613C38.4609 110.161 38.5989 110.042 38.7752 109.965C38.9515 109.885 39.1374 109.844 39.3328 109.844Z" fill="#1E1E1E"/>
<path d="M44.0188 111.437C44.0188 111.946 43.8885 112.341 43.6279 112.621C43.3711 112.901 43.0224 113.041 42.5816 113.041C42.3096 113.041 42.0662 112.979 41.8516 112.857C41.6408 112.73 41.4741 112.548 41.3515 112.311C41.2288 112.069 41.1675 111.778 41.1675 111.437C41.1675 110.927 41.294 110.534 41.5469 110.258C41.8037 109.982 42.1543 109.844 42.5989 109.844C42.8748 109.844 43.1201 109.908 43.3347 110.034C43.5493 110.157 43.716 110.337 43.8348 110.574C43.9575 110.808 44.0188 111.096 44.0188 111.437ZM41.6906 111.437C41.6906 111.801 41.7615 112.09 41.9033 112.305C42.049 112.516 42.2789 112.621 42.5931 112.621C42.9036 112.621 43.1316 112.516 43.2772 112.305C43.4228 112.09 43.4957 111.801 43.4957 111.437C43.4957 111.073 43.4228 110.787 43.2772 110.58C43.1316 110.373 42.9016 110.27 42.5874 110.27C42.2731 110.27 42.0451 110.373 41.9033 110.58C41.7615 110.787 41.6906 111.073 41.6906 111.437Z" fill="#1E1E1E"/>
<path d="M46.7635 112.132C46.7635 112.431 46.6524 112.657 46.4301 112.811C46.2078 112.964 45.9089 113.041 45.5333 113.041C45.3187 113.041 45.1328 113.023 44.9757 112.989C44.8224 112.954 44.6864 112.906 44.5676 112.845V112.385C44.6902 112.447 44.8378 112.504 45.0102 112.558C45.1865 112.608 45.3647 112.632 45.5448 112.632C45.8016 112.632 45.9875 112.592 46.1024 112.512C46.2174 112.427 46.2749 112.316 46.2749 112.178C46.2749 112.102 46.2538 112.033 46.2116 111.971C46.1695 111.91 46.0928 111.849 45.9817 111.787C45.8744 111.726 45.7192 111.657 45.5161 111.58C45.3168 111.504 45.1463 111.427 45.0045 111.351C44.8627 111.274 44.7534 111.182 44.6768 111.075C44.6002 110.967 44.5618 110.829 44.5618 110.661C44.5618 110.4 44.6672 110.199 44.878 110.057C45.0926 109.915 45.3724 109.844 45.7173 109.844C45.9051 109.844 46.0794 109.864 46.2404 109.902C46.4052 109.94 46.5585 109.99 46.7003 110.051L46.5278 110.454C46.3975 110.4 46.2615 110.354 46.1197 110.316C45.9779 110.277 45.8322 110.258 45.6828 110.258C45.4758 110.258 45.3168 110.293 45.2057 110.362C45.0984 110.427 45.0447 110.517 45.0447 110.632C45.0447 110.72 45.0696 110.793 45.1194 110.85C45.1693 110.908 45.2516 110.965 45.3666 111.023C45.4854 111.08 45.6425 111.146 45.838 111.218C46.0334 111.291 46.2001 111.366 46.3381 111.443C46.4761 111.519 46.5815 111.613 46.6543 111.724C46.7271 111.831 46.7635 111.968 46.7635 112.132Z" fill="#1E1E1E"/>
<path d="M48.4738 112.627C48.5504 112.627 48.629 112.621 48.7095 112.609C48.7899 112.598 48.8551 112.583 48.9049 112.563V112.949C48.8513 112.975 48.7746 112.997 48.675 113.012C48.5753 113.031 48.4795 113.041 48.3875 113.041C48.2266 113.041 48.0771 113.014 47.9392 112.96C47.805 112.903 47.6958 112.805 47.6115 112.667C47.5272 112.529 47.485 112.335 47.485 112.086V110.293H47.0481V110.051L47.4908 109.85L47.692 109.195H47.9909V109.902H48.8819V110.293H47.9909V112.075C47.9909 112.263 48.035 112.403 48.1231 112.494C48.2151 112.583 48.332 112.627 48.4738 112.627Z" fill="#1E1E1E"/>
<path d="M49.7173 108.746C49.794 108.746 49.861 108.773 49.9185 108.827C49.9798 108.877 50.0105 108.957 50.0105 109.068C50.0105 109.18 49.9798 109.262 49.9185 109.316C49.861 109.365 49.794 109.39 49.7173 109.39C49.633 109.39 49.5621 109.365 49.5046 109.316C49.4472 109.262 49.4184 109.18 49.4184 109.068C49.4184 108.957 49.4472 108.877 49.5046 108.827C49.5621 108.773 49.633 108.746 49.7173 108.746ZM49.9645 109.902V112.983H49.4587V109.902H49.9645Z" fill="#1E1E1E"/>
<path d="M50.8027 110.212C50.8027 110.067 50.8372 109.965 50.9062 109.908C50.9752 109.85 51.0576 109.821 51.1534 109.821C51.2492 109.821 51.3335 109.85 51.4063 109.908C51.4791 109.965 51.5155 110.067 51.5155 110.212C51.5155 110.35 51.4791 110.45 51.4063 110.511C51.3335 110.573 51.2492 110.603 51.1534 110.603C51.0576 110.603 50.9752 110.573 50.9062 110.511C50.8372 110.45 50.8027 110.35 50.8027 110.212ZM50.8027 112.673C50.8027 112.531 50.8372 112.431 50.9062 112.374C50.9752 112.316 51.0576 112.288 51.1534 112.288C51.2492 112.288 51.3335 112.316 51.4063 112.374C51.4791 112.431 51.5155 112.531 51.5155 112.673C51.5155 112.811 51.4791 112.91 51.4063 112.972C51.3335 113.033 51.2492 113.064 51.1534 113.064C51.0576 113.064 50.9752 113.033 50.9062 112.972C50.8372 112.91 50.8027 112.811 50.8027 112.673Z" fill="#1E1E1E"/>
<path d="M13.1021 57.6919V60.3477C13.1021 60.6313 13.0446 60.888 12.9296 61.118C12.8147 61.3441 12.6384 61.5242 12.4008 61.6583C12.1632 61.7886 11.8643 61.8538 11.504 61.8538C10.9905 61.8538 10.6015 61.7158 10.3371 61.4399C10.0726 61.1601 9.94043 60.7922 9.94043 60.3362V57.6919H10.4578V60.3534C10.4578 60.6868 10.5459 60.9455 10.7222 61.1295C10.9023 61.3134 11.1725 61.4054 11.5328 61.4054C11.9045 61.4054 12.1728 61.3077 12.3376 61.1122C12.5062 60.913 12.5905 60.6581 12.5905 60.3477V57.6919H13.1021ZM12.3376 56.3697V56.4272C12.2877 56.4962 12.2149 56.5863 12.1191 56.6974C12.0271 56.8047 11.9256 56.9139 11.8144 57.0251C11.7071 57.1324 11.6075 57.2205 11.5155 57.2895H11.1821V57.2205C11.2358 57.1515 11.2971 57.0672 11.3661 56.9676C11.435 56.8641 11.5021 56.7606 11.5673 56.6572C11.6324 56.5498 11.6861 56.454 11.7282 56.3697H12.3376Z" fill="#1E1E1E"/>
<path d="M16.0421 61.7963H13.7887V61.4629L15.4443 59.106H13.8865V58.7151H16.0019V59.0945L14.3693 61.4054H16.0421V61.7963Z" fill="#1E1E1E"/>
<path d="M17.8801 58.6576C18.1407 58.6576 18.3668 58.7151 18.5584 58.8301C18.75 58.945 18.8957 59.1079 18.9953 59.3187C19.0988 59.5257 19.1505 59.769 19.1505 60.0488V60.3534H17.0408C17.0485 60.7022 17.1366 60.9685 17.3052 61.1525C17.4777 61.3326 17.7172 61.4227 18.0238 61.4227C18.2193 61.4227 18.3917 61.4054 18.5412 61.3709C18.6945 61.3326 18.8516 61.2789 19.0125 61.21V61.6526C18.8554 61.7216 18.7002 61.7714 18.5469 61.8021C18.3936 61.8365 18.2116 61.8538 18.0008 61.8538C17.7057 61.8538 17.447 61.7944 17.2248 61.6756C17.0025 61.5568 16.8281 61.3805 16.7017 61.1467C16.579 60.913 16.5177 60.6236 16.5177 60.2787C16.5177 59.9415 16.5733 59.6521 16.6844 59.4107C16.7994 59.1692 16.9584 58.9834 17.1615 58.8531C17.3685 58.7228 17.608 58.6576 17.8801 58.6576ZM17.8743 59.0715C17.6329 59.0715 17.4413 59.1501 17.2995 59.3072C17.1615 59.4605 17.0791 59.6751 17.0523 59.951H18.6217C18.6178 59.6904 18.5565 59.4797 18.4377 59.3187C18.3189 59.1539 18.1311 59.0715 17.8743 59.0715Z" fill="#1E1E1E"/>
<path d="M23.2518 58.6576C23.6005 58.6576 23.8611 58.7477 24.0336 58.9278C24.206 59.1079 24.2923 59.3954 24.2923 59.7901V61.7963H23.7922V59.8131C23.7922 59.3264 23.5833 59.083 23.1656 59.083C22.8666 59.083 22.652 59.1692 22.5217 59.3417C22.3953 59.5142 22.332 59.7652 22.332 60.0948V61.7963H21.8319V59.8131C21.8319 59.3264 21.6211 59.083 21.1996 59.083C20.8892 59.083 20.6746 59.1788 20.5558 59.3704C20.4369 59.5621 20.3775 59.838 20.3775 60.1982V61.7963H19.8717V58.7151H20.2798L20.3546 59.1348H20.3833C20.4791 58.9738 20.6075 58.855 20.7684 58.7783C20.9332 58.6979 21.1076 58.6576 21.2916 58.6576C21.7744 58.6576 22.0887 58.8301 22.2343 59.175H22.2631C22.3665 58.9987 22.5064 58.8684 22.6827 58.7841C22.859 58.6998 23.0487 58.6576 23.2518 58.6576Z" fill="#1E1E1E"/>
<path d="M25.6867 61.7963H25.1808V58.7151H25.6867V61.7963ZM26.2443 57.393V57.4504C26.1945 57.5194 26.1217 57.6095 26.0259 57.7206C25.9339 57.8279 25.8323 57.9371 25.7212 58.0483C25.6139 58.1556 25.5142 58.2437 25.4223 58.3127H25.0888V58.2437C25.1425 58.1748 25.2038 58.0904 25.2728 57.9908C25.3418 57.8873 25.4088 57.7839 25.474 57.6804C25.5391 57.5731 25.5928 57.4773 25.635 57.393H26.2443Z" fill="#1E1E1E"/>
<path d="M26.5249 59.0255C26.5249 58.8799 26.5594 58.7783 26.6284 58.7209C26.6973 58.6634 26.7797 58.6346 26.8756 58.6346C26.9714 58.6346 27.0557 58.6634 27.1285 58.7209C27.2013 58.7783 27.2377 58.8799 27.2377 59.0255C27.2377 59.1635 27.2013 59.2631 27.1285 59.3245C27.0557 59.3858 26.9714 59.4164 26.8756 59.4164C26.7797 59.4164 26.6973 59.3858 26.6284 59.3245C26.5594 59.2631 26.5249 59.1635 26.5249 59.0255ZM26.5249 61.4859C26.5249 61.3441 26.5594 61.2445 26.6284 61.187C26.6973 61.1295 26.7797 61.1007 26.8756 61.1007C26.9714 61.1007 27.0557 61.1295 27.1285 61.187C27.2013 61.2445 27.2377 61.3441 27.2377 61.4859C27.2377 61.6239 27.2013 61.7235 27.1285 61.7848C27.0557 61.8461 26.9714 61.8768 26.8756 61.8768C26.7797 61.8768 26.6973 61.8461 26.6284 61.7848C26.5594 61.7235 26.5249 61.6239 26.5249 61.4859Z" fill="#1E1E1E"/>
<path d="M13.1021 121.404V124.06C13.1021 124.344 13.0446 124.601 12.9296 124.831C12.8147 125.057 12.6384 125.237 12.4008 125.371C12.1632 125.501 11.8643 125.566 11.504 125.566C10.9905 125.566 10.6015 125.428 10.3371 125.152C10.0726 124.873 9.94043 124.505 9.94043 124.049V121.404H10.4578V124.066C10.4578 124.399 10.5459 124.658 10.7222 124.842C10.9023 125.026 11.1725 125.118 11.5328 125.118C11.9045 125.118 12.1728 125.02 12.3376 124.825C12.5062 124.625 12.5905 124.371 12.5905 124.06V121.404H13.1021ZM12.3376 120.082V120.14C12.2877 120.209 12.2149 120.299 12.1191 120.41C12.0271 120.517 11.9256 120.626 11.8144 120.738C11.7071 120.845 11.6075 120.933 11.5155 121.002H11.1821V120.933C11.2358 120.864 11.2971 120.78 11.3661 120.68C11.435 120.577 11.5021 120.473 11.5673 120.37C11.6324 120.262 11.6861 120.167 11.7282 120.082H12.3376Z" fill="#1E1E1E"/>
<path d="M16.0421 125.509H13.7887V125.175L15.4443 122.819H13.8865V122.428H16.0019V122.807L14.3693 125.118H16.0421V125.509Z" fill="#1E1E1E"/>
<path d="M17.8801 122.37C18.1407 122.37 18.3668 122.428 18.5584 122.543C18.75 122.658 18.8957 122.82 18.9953 123.031C19.0988 123.238 19.1505 123.482 19.1505 123.761V124.066H17.0408C17.0485 124.415 17.1366 124.681 17.3052 124.865C17.4777 125.045 17.7172 125.135 18.0238 125.135C18.2193 125.135 18.3917 125.118 18.5412 125.083C18.6945 125.045 18.8516 124.991 19.0125 124.922V125.365C18.8554 125.434 18.7002 125.484 18.5469 125.515C18.3936 125.549 18.2116 125.566 18.0008 125.566C17.7057 125.566 17.447 125.507 17.2248 125.388C17.0025 125.269 16.8281 125.093 16.7017 124.859C16.579 124.625 16.5177 124.336 16.5177 123.991C16.5177 123.654 16.5733 123.365 16.6844 123.123C16.7994 122.882 16.9584 122.696 17.1615 122.566C17.3685 122.435 17.608 122.37 17.8801 122.37ZM17.8743 122.784C17.6329 122.784 17.4413 122.863 17.2995 123.02C17.1615 123.173 17.0791 123.388 17.0523 123.664H18.6217C18.6178 123.403 18.5565 123.192 18.4377 123.031C18.3189 122.866 18.1311 122.784 17.8743 122.784Z" fill="#1E1E1E"/>
<path d="M23.2518 122.37C23.6005 122.37 23.8611 122.46 24.0336 122.64C24.206 122.82 24.2923 123.108 24.2923 123.503V125.509H23.7922V123.526C23.7922 123.039 23.5833 122.796 23.1656 122.796C22.8666 122.796 22.652 122.882 22.5217 123.054C22.3953 123.227 22.332 123.478 22.332 123.807V125.509H21.8319V123.526C21.8319 123.039 21.6211 122.796 21.1996 122.796C20.8892 122.796 20.6746 122.891 20.5558 123.083C20.4369 123.275 20.3775 123.551 20.3775 123.911V125.509H19.8717V122.428H20.2798L20.3546 122.847H20.3833C20.4791 122.686 20.6075 122.568 20.7684 122.491C20.9332 122.41 21.1076 122.37 21.2916 122.37C21.7744 122.37 22.0887 122.543 22.2343 122.888H22.2631C22.3665 122.711 22.5064 122.581 22.6827 122.497C22.859 122.412 23.0487 122.37 23.2518 122.37Z" fill="#1E1E1E"/>
<path d="M25.6867 125.509H25.1808V122.428H25.6867V125.509ZM26.2443 121.105V121.163C26.1945 121.232 26.1217 121.322 26.0259 121.433C25.9339 121.54 25.8323 121.65 25.7212 121.761C25.6139 121.868 25.5142 121.956 25.4223 122.025H25.0888V121.956C25.1425 121.887 25.2038 121.803 25.2728 121.703C25.3418 121.6 25.4088 121.496 25.474 121.393C25.5391 121.286 25.5928 121.19 25.635 121.105H26.2443Z" fill="#1E1E1E"/>
<path d="M26.5249 122.738C26.5249 122.592 26.5594 122.491 26.6284 122.433C26.6973 122.376 26.7797 122.347 26.8756 122.347C26.9714 122.347 27.0557 122.376 27.1285 122.433C27.2013 122.491 27.2377 122.592 27.2377 122.738C27.2377 122.876 27.2013 122.976 27.1285 123.037C27.0557 123.098 26.9714 123.129 26.8756 123.129C26.7797 123.129 26.6973 123.098 26.6284 123.037C26.5594 122.976 26.5249 122.876 26.5249 122.738ZM26.5249 125.198C26.5249 125.057 26.5594 124.957 26.6284 124.899C26.6973 124.842 26.7797 124.813 26.8756 124.813C26.9714 124.813 27.0557 124.842 27.1285 124.899C27.2013 124.957 27.2377 125.057 27.2377 125.198C27.2377 125.336 27.2013 125.436 27.1285 125.497C27.0557 125.559 26.9714 125.589 26.8756 125.589C26.7797 125.589 26.6973 125.559 26.6284 125.497C26.5594 125.436 26.5249 125.336 26.5249 125.198Z" fill="#1E1E1E"/>
<g clip-path="url(#clip0_5168_6618)">
<path d="M31.4573 56.0479H41.4846V59.8081H31.4573V56.0479Z" fill="white"/>
<path d="M31.4573 59.8093H41.4846V63.5696H31.4573V59.8093Z" fill="#D7141A"/>
<path d="M37.0976 59.8081L31.4573 56.0479V63.5683L37.0976 59.8081Z" fill="#11457E"/>
</g>
<g clip-path="url(#clip1_5168_6618)">
<path d="M31.4573 122.255H41.5171V124.77H31.4573V122.255Z" fill="white"/>
<path d="M31.4573 119.74H41.5171V122.255H31.4573V119.74ZM31.4573 124.77H41.5171V127.285H31.4573V124.77Z" fill="#C8102E"/>
</g>
<line x1="8.625" y1="95.7872" x2="151.379" y2="95.7872" stroke="#DDDDDD"/>
<mask id="mask1_5168_6618" style="mask-type:alpha" maskUnits="userSpaceOnUse" x="98" y="106" width="10" height="10">
<rect x="98.5234" y="106.826" width="8.62275" height="8.62275" fill="#D9D9D9"/>
</mask>
<g mask="url(#mask1_5168_6618)">
<path d="M99.4812 114.371L103.433 107.544L107.385 114.371H99.4812ZM103.433 113.293C103.535 113.293 103.62 113.258 103.689 113.189C103.758 113.121 103.793 113.035 103.793 112.933C103.793 112.832 103.758 112.746 103.689 112.677C103.62 112.609 103.535 112.574 103.433 112.574C103.331 112.574 103.246 112.609 103.177 112.677C103.108 112.746 103.074 112.832 103.074 112.933C103.074 113.035 103.108 113.121 103.177 113.189C103.246 113.258 103.331 113.293 103.433 113.293ZM103.074 112.215H103.793V110.418H103.074V112.215Z" fill="#C40127"/>
</g>
<defs>
<linearGradient id="paint0_linear_5168_6618" x1="30.0586" y1="24.2437" x2="10.1149" y2="14.3337" gradientUnits="userSpaceOnUse">
<stop stop-color="#FFB38B"/>
<stop offset="1" stop-color="#FFD19A"/>
</linearGradient>
<clipPath id="clip0_5168_6618">
<rect width="10.0273" height="7.52047" fill="white" transform="translate(31.4573 56.0479)"/>
</clipPath>
<clipPath id="clip1_5168_6618">
<rect width="10.0599" height="7.54491" fill="white" transform="translate(31.4573 119.74)"/>
</clipPath>
</defs>
</svg>
