<svg width="159" height="127" viewBox="0 0 159 127" fill="none" xmlns="http://www.w3.org/2000/svg">
<path d="M158.532 103.756C158.532 111.596 158.532 115.517 157.006 118.512C155.664 121.146 153.522 123.288 150.888 124.63C147.893 126.156 143.973 126.156 136.132 126.156L22.4003 126.156C14.5595 126.156 10.6392 126.156 7.64439 124.63C5.01012 123.288 2.86839 121.146 1.52617 118.512C0.000260143 115.517 0.000260418 111.596 0.000260966 103.756L0.000266656 22.4C0.000267204 14.5592 0.000267478 10.6389 1.52618 7.64412C2.8684 5.00985 5.01013 2.86812 7.6444 1.52589C10.6392 -1.61615e-05 14.5595 -1.57331e-05 22.4003 -1.48763e-05L136.132 -2.44784e-06C143.973 -1.59102e-06 147.893 -1.1626e-06 150.888 1.52591C153.522 2.86813 155.664 5.00986 157.006 7.64413C158.532 10.6389 158.532 14.5593 158.532 22.4L158.532 103.756Z" fill="white"/>
<path d="M21.3766 26.4163L26.5016 21.6854L25.209 20.4922L21.3766 24.0299L19.4717 22.2715L18.1791 23.4647L21.3766 26.4163ZM22.329 31.817C20.2276 31.3285 18.4928 30.2156 17.1246 28.4782C15.7564 26.7407 15.0723 24.8114 15.0723 22.6902V17.5826L22.329 15.0706L29.5858 17.5826V22.6902C29.5858 24.8114 28.9017 26.7407 27.5335 28.4782C26.1653 30.2156 24.4304 31.3285 22.329 31.817Z" fill="#1AC660"/>
<path d="M20.2032 105.68C20.2032 106.528 19.895 107.198 19.2788 107.69C18.6625 108.181 17.8096 108.426 16.7199 108.426C15.666 108.426 14.7729 108.248 14.0405 107.89V106.283C14.4424 106.461 14.8845 106.627 15.3668 106.779C15.8581 106.921 16.3493 106.993 16.8405 106.993C17.421 106.993 17.8408 106.881 18.0998 106.658C18.3678 106.426 18.5017 106.131 18.5017 105.774C18.5017 105.381 18.332 105.068 17.9927 104.836C17.6533 104.595 17.1576 104.336 16.5056 104.059C16.1126 103.898 15.733 103.702 15.3668 103.469C15.0096 103.228 14.7148 102.929 14.4826 102.572C14.2593 102.206 14.1477 101.75 14.1477 101.205C14.1477 100.393 14.4335 99.754 15.0051 99.2896C15.5856 98.8251 16.3582 98.5929 17.3228 98.5929C17.823 98.5929 18.2963 98.6465 18.7429 98.7537C19.1984 98.8609 19.645 99.0127 20.0826 99.2092L19.5333 100.589C19.1314 100.419 18.7474 100.285 18.3812 100.187C18.0239 100.089 17.6533 100.04 17.2692 100.04C16.8048 100.04 16.452 100.143 16.2108 100.348C15.9697 100.553 15.8491 100.826 15.8491 101.165C15.8491 101.424 15.9161 101.647 16.0501 101.835C16.1841 102.014 16.3895 102.179 16.6663 102.331C16.9521 102.483 17.3183 102.657 17.7649 102.853C18.2829 103.076 18.7206 103.313 19.0778 103.563C19.444 103.804 19.7209 104.095 19.9084 104.434C20.1049 104.764 20.2032 105.18 20.2032 105.68Z" fill="#5F5F5F"/>
<path d="M21.4978 99.1154C21.4978 98.7849 21.5872 98.5572 21.7658 98.4322C21.9533 98.2982 22.1766 98.2312 22.4356 98.2312C22.6857 98.2312 22.9045 98.2982 23.0921 98.4322C23.2796 98.5572 23.3734 98.7849 23.3734 99.1154C23.3734 99.4459 23.2796 99.6781 23.0921 99.812C22.9045 99.946 22.6857 100.013 22.4356 100.013C22.1766 100.013 21.9533 99.946 21.7658 99.812C21.5872 99.6781 21.4978 99.4459 21.4978 99.1154ZM20.895 111.508C20.6717 111.508 20.4529 111.49 20.2385 111.454C20.0242 111.427 19.8411 111.392 19.6892 111.347V110.007C19.8411 110.043 19.9884 110.074 20.1313 110.101C20.2742 110.128 20.435 110.141 20.6136 110.141C20.8905 110.141 21.1227 110.065 21.3103 109.913C21.4978 109.762 21.5916 109.462 21.5916 109.016V101.031H23.2796V109.19C23.2796 109.86 23.0921 110.414 22.717 110.851C22.3508 111.289 21.7435 111.508 20.895 111.508Z" fill="#5F5F5F"/>
<path d="M28.1018 100.897C29.0753 100.897 29.8434 101.187 30.4061 101.768C30.9777 102.349 31.2635 103.157 31.2635 104.193V105.05H26.4674C26.4852 105.711 26.6683 106.225 27.0167 106.591C27.365 106.948 27.8473 107.127 28.4635 107.127C28.928 107.127 29.3478 107.082 29.7229 106.993C30.098 106.895 30.482 106.756 30.875 106.578V107.931C30.5178 108.1 30.1471 108.225 29.7631 108.306C29.379 108.386 28.919 108.426 28.3832 108.426C27.6687 108.426 27.039 108.292 26.4942 108.024C25.9494 107.748 25.5207 107.337 25.2081 106.792C24.9044 106.238 24.7526 105.546 24.7526 104.715C24.7526 103.474 25.0562 102.527 25.6636 101.875C26.2798 101.223 27.0926 100.897 28.1018 100.897ZM28.1018 102.143C27.6463 102.143 27.2757 102.291 26.9899 102.585C26.713 102.871 26.5522 103.3 26.5076 103.871H29.6291C29.6202 103.371 29.4907 102.96 29.2406 102.639C28.9994 102.308 28.6198 102.143 28.1018 102.143Z" fill="#5F5F5F"/>
<path d="M35.107 108.426C34.2674 108.426 33.5842 108.114 33.0572 107.489C32.5392 106.854 32.2802 105.917 32.2802 104.675C32.2802 103.425 32.5437 102.483 33.0706 101.848C33.5976 101.214 34.2898 100.897 35.1472 100.897C35.6831 100.897 36.1207 101 36.4601 101.205C36.8084 101.411 37.0853 101.661 37.2907 101.956H37.3711C37.3443 101.831 37.3175 101.643 37.2907 101.393C37.2639 101.134 37.2505 100.888 37.2505 100.656V98.1106H38.9386V108.292H37.6256L37.3175 107.341H37.2505C37.0451 107.645 36.7727 107.904 36.4333 108.118C36.0939 108.324 35.6518 108.426 35.107 108.426ZM35.6161 107.06C36.2413 107.06 36.6789 106.881 36.929 106.524C37.188 106.167 37.322 105.626 37.3309 104.903V104.689C37.3309 103.912 37.2059 103.318 36.9558 102.907C36.7146 102.487 36.2591 102.277 35.5893 102.277C35.0713 102.277 34.6738 102.491 34.3969 102.92C34.129 103.34 33.995 103.934 33.995 104.702C33.995 105.47 34.1335 106.055 34.4103 106.457C34.6872 106.859 35.0891 107.06 35.6161 107.06Z" fill="#5F5F5F"/>
<path d="M44.7235 100.897C45.5363 100.897 46.1704 101.107 46.6259 101.527C47.0904 101.947 47.3226 102.625 47.3226 103.563V108.292H45.6345V103.898C45.6345 103.353 45.5274 102.947 45.313 102.679C45.0987 102.402 44.7593 102.264 44.2948 102.264C43.616 102.264 43.1516 102.478 42.9015 102.907C42.6515 103.335 42.5264 103.947 42.5264 104.742V108.292H40.8384V101.031H42.1379L42.379 101.982H42.4728C42.705 101.607 43.0221 101.335 43.424 101.165C43.8349 100.987 44.268 100.897 44.7235 100.897Z" fill="#5F5F5F"/>
<path d="M52.071 100.897C53.0088 100.897 53.7188 101.103 54.2011 101.513C54.6923 101.924 54.9379 102.558 54.9379 103.416V108.292H53.7456L53.4107 107.288H53.3571C53.0445 107.681 52.714 107.971 52.3657 108.158C52.0174 108.337 51.544 108.426 50.9456 108.426C50.2936 108.426 49.7533 108.243 49.3246 107.877C48.8959 107.511 48.6815 106.944 48.6815 106.176C48.6815 105.425 48.9539 104.863 49.4987 104.488C50.0525 104.113 50.8876 103.903 52.004 103.858L53.2633 103.818V103.456C53.2633 102.992 53.1517 102.661 52.9284 102.465C52.7051 102.268 52.3925 102.17 51.9906 102.17C51.6244 102.17 51.2716 102.224 50.9322 102.331C50.6017 102.429 50.2713 102.554 49.9408 102.706L49.4049 101.527C49.7622 101.339 50.1686 101.187 50.6241 101.071C51.0885 100.955 51.5708 100.897 52.071 100.897ZM53.2633 104.863L52.3791 104.89C51.6378 104.916 51.1242 105.046 50.8384 105.278C50.5526 105.501 50.4097 105.805 50.4097 106.189C50.4097 106.537 50.508 106.787 50.7045 106.939C50.9099 107.082 51.1778 107.154 51.5083 107.154C51.9995 107.154 52.4148 107.015 52.7542 106.738C53.0936 106.453 53.2633 106.033 53.2633 105.479V104.863Z" fill="#5F5F5F"/>
<path d="M59.6098 107.073C59.8152 107.073 60.0162 107.055 60.2127 107.02C60.4181 106.975 60.6057 106.926 60.7754 106.872V108.132C60.5967 108.221 60.3645 108.292 60.0787 108.346C59.7929 108.4 59.4937 108.426 59.1811 108.426C58.7613 108.426 58.3817 108.359 58.0424 108.225C57.7119 108.091 57.4484 107.855 57.2519 107.515C57.0554 107.176 56.9572 106.698 56.9572 106.082V102.304H55.9792V101.567L57.051 100.978L57.5868 99.4369H58.6452V101.031H60.7084V102.304H58.6452V106.068C58.6452 106.408 58.7345 106.662 58.9132 106.832C59.1007 106.993 59.3329 107.073 59.6098 107.073Z" fill="#5F5F5F"/>
<path d="M69.0237 100.897C69.8722 100.897 70.5554 101.214 71.0734 101.848C71.5915 102.474 71.8505 103.407 71.8505 104.648C71.8505 105.89 71.5825 106.832 71.0466 107.475C70.5197 108.109 69.832 108.426 68.9835 108.426C68.4476 108.426 68.0144 108.328 67.684 108.132C67.3535 107.935 67.09 107.707 66.8936 107.448H66.7864C66.8132 107.618 66.8355 107.801 66.8534 107.998C66.8802 108.194 66.8936 108.382 66.8936 108.56V111.508H65.2055V101.031H66.572L66.8132 101.996H66.8936C67.099 101.692 67.3669 101.433 67.6974 101.219C68.0278 101.004 68.4699 100.897 69.0237 100.897ZM68.5414 102.264C67.943 102.264 67.5188 102.442 67.2687 102.8C67.0275 103.157 66.9025 103.697 66.8936 104.421V104.635C66.8936 105.412 67.0097 106.01 67.2419 106.43C67.483 106.841 67.9251 107.046 68.5682 107.046C69.0951 107.046 69.4837 106.832 69.7337 106.403C69.9927 105.966 70.1222 105.372 70.1222 104.622C70.1222 103.871 69.9927 103.291 69.7337 102.88C69.4837 102.469 69.0862 102.264 68.5414 102.264Z" fill="#5F5F5F"/>
<path d="M79.8192 104.648C79.8192 105.854 79.5066 106.787 78.8814 107.448C78.2562 108.1 77.4077 108.426 76.3359 108.426C75.675 108.426 75.0855 108.279 74.5675 107.984C74.0495 107.69 73.6431 107.261 73.3484 106.698C73.0537 106.135 72.9063 105.452 72.9063 104.648C72.9063 103.443 73.2144 102.518 73.8307 101.875C74.4559 101.223 75.3044 100.897 76.3761 100.897C77.046 100.897 77.6399 101.045 78.1579 101.339C78.676 101.625 79.0823 102.049 79.3771 102.612C79.6718 103.166 79.8192 103.845 79.8192 104.648ZM74.6345 104.648C74.6345 105.416 74.7685 106.01 75.0364 106.43C75.3133 106.85 75.7554 107.06 76.3627 107.06C76.9611 107.06 77.3988 106.85 77.6757 106.43C77.9525 106.01 78.091 105.416 78.091 104.648C78.091 103.88 77.9525 103.291 77.6757 102.88C77.3988 102.469 76.9567 102.264 76.3493 102.264C75.742 102.264 75.3044 102.469 75.0364 102.88C74.7685 103.291 74.6345 103.88 74.6345 104.648Z" fill="#5F5F5F"/>
<path d="M81.2137 99.1154C81.2137 98.7849 81.303 98.5572 81.4816 98.4322C81.6692 98.2982 81.8925 98.2312 82.1515 98.2312C82.4016 98.2312 82.6204 98.2982 82.808 98.4322C82.9955 98.5572 83.0893 98.7849 83.0893 99.1154C83.0893 99.4459 82.9955 99.6781 82.808 99.812C82.6204 99.946 82.4016 100.013 82.1515 100.013C81.8925 100.013 81.6692 99.946 81.4816 99.812C81.303 99.6781 81.2137 99.4459 81.2137 99.1154ZM80.6108 111.508C80.3875 111.508 80.1687 111.49 79.9544 111.454C79.74 111.427 79.5569 111.392 79.4051 111.347V110.007C79.5569 110.043 79.7043 110.074 79.8472 110.101C79.9901 110.128 80.1509 110.141 80.3295 110.141C80.6064 110.141 80.8386 110.065 81.0261 109.913C81.2137 109.762 81.3075 109.462 81.3075 109.016V101.031H82.9955V109.19C82.9955 109.86 82.8079 110.414 82.4328 110.851C82.0666 111.289 81.4593 111.508 80.6108 111.508Z" fill="#5F5F5F"/>
<path d="M85.7411 98.2312C85.9912 98.2312 86.21 98.2982 86.3976 98.4322C86.5852 98.5572 86.6789 98.7849 86.6789 99.1154C86.6789 99.4459 86.5852 99.6781 86.3976 99.812C86.21 99.946 85.9912 100.013 85.7411 100.013C85.4821 100.013 85.2588 99.946 85.0713 99.812C84.8927 99.6781 84.8033 99.4459 84.8033 99.1154C84.8033 98.7849 84.8927 98.5572 85.0713 98.4322C85.2588 98.2982 85.4821 98.2312 85.7411 98.2312ZM86.5852 101.031V108.292H84.8971V101.031H86.5852Z" fill="#5F5F5F"/>
<path d="M93.4303 106.189C93.4303 106.921 93.1668 107.48 92.6399 107.864C92.1218 108.239 91.3761 108.426 90.4025 108.426C89.8935 108.426 89.4558 108.391 89.0896 108.319C88.7324 108.248 88.384 108.136 88.0447 107.984V106.551C88.4019 106.72 88.7949 106.863 89.2236 106.979C89.6612 107.096 90.0721 107.154 90.4561 107.154C90.9206 107.154 91.2555 107.082 91.4609 106.939C91.6663 106.796 91.7691 106.604 91.7691 106.363C91.7691 106.22 91.7289 106.095 91.6485 105.988C91.5681 105.872 91.4118 105.747 91.1796 105.613C90.9474 105.479 90.5946 105.314 90.1212 105.117C89.6568 104.93 89.2683 104.742 88.9557 104.555C88.652 104.367 88.4198 104.144 88.259 103.885C88.1072 103.626 88.0313 103.291 88.0313 102.88C88.0313 102.228 88.2903 101.737 88.8083 101.406C89.3263 101.067 90.0096 100.897 90.858 100.897C91.3046 100.897 91.7244 100.942 92.1174 101.031C92.5193 101.12 92.9212 101.254 93.3231 101.433L92.7872 102.679C92.4478 102.536 92.1174 102.416 91.7958 102.317C91.4743 102.219 91.1438 102.17 90.8045 102.17C90.0631 102.17 89.6925 102.38 89.6925 102.8C89.6925 102.951 89.7372 103.081 89.8265 103.188C89.9247 103.295 90.0899 103.411 90.3222 103.536C90.5633 103.653 90.9027 103.795 91.3403 103.965C91.7691 104.135 92.1397 104.313 92.4523 104.501C92.7649 104.68 93.006 104.903 93.1757 105.171C93.3454 105.43 93.4303 105.769 93.4303 106.189ZM89.7461 100.174C89.621 99.9773 89.4603 99.7585 89.2638 99.5173C89.0673 99.2672 88.8619 99.0306 88.6475 98.8073C88.4332 98.5751 88.2456 98.3741 88.0849 98.2044V98.0302H89.2102C89.4424 98.1731 89.688 98.3473 89.947 98.5527C90.2061 98.7492 90.4517 98.968 90.6839 99.2092C90.9161 98.968 91.1662 98.7492 91.4341 98.5527C91.711 98.3473 91.9655 98.1731 92.1978 98.0302H93.3365V98.2044C93.1757 98.3741 92.9837 98.5751 92.7604 98.8073C92.5461 99.0306 92.3362 99.2672 92.1308 99.5173C91.9343 99.7585 91.778 99.9773 91.6619 100.174H89.7461Z" fill="#5F5F5F"/>
<path d="M97.6111 107.073C97.8165 107.073 98.0175 107.055 98.2139 107.02C98.4194 106.975 98.6069 106.926 98.7766 106.872V108.132C98.598 108.221 98.3658 108.292 98.08 108.346C97.7942 108.4 97.495 108.426 97.1824 108.426C96.7626 108.426 96.383 108.359 96.0436 108.225C95.7132 108.091 95.4497 107.855 95.2532 107.515C95.0567 107.176 94.9585 106.698 94.9585 106.082V102.304H93.9805V101.567L95.0522 100.978L95.5881 99.4369H96.6465V101.031H98.7096V102.304H96.6465V106.068C96.6465 106.408 96.7358 106.662 96.9144 106.832C97.102 106.993 97.3342 107.073 97.6111 107.073Z" fill="#5F5F5F"/>
<path d="M102.904 100.897C103.878 100.897 104.646 101.187 105.208 101.768C105.78 102.349 106.066 103.157 106.066 104.193V105.05H101.27C101.287 105.711 101.471 106.225 101.819 106.591C102.167 106.948 102.649 107.127 103.266 107.127C103.73 107.127 104.15 107.082 104.525 106.993C104.9 106.895 105.284 106.756 105.677 106.578V107.931C105.32 108.1 104.949 108.225 104.565 108.306C104.181 108.386 103.721 108.426 103.185 108.426C102.471 108.426 101.841 108.292 101.296 108.024C100.752 107.748 100.323 107.337 100.01 106.792C99.7066 106.238 99.5548 105.546 99.5548 104.715C99.5548 103.474 99.8584 102.527 100.466 101.875C101.082 101.223 101.895 100.897 102.904 100.897ZM102.904 102.143C102.449 102.143 102.078 102.291 101.792 102.585C101.515 102.871 101.354 103.3 101.31 103.871H104.431C104.422 103.371 104.293 102.96 104.043 102.639C103.802 102.308 103.422 102.143 102.904 102.143ZM101.859 100.174C101.734 99.9773 101.573 99.7585 101.377 99.5173C101.18 99.2672 100.975 99.0306 100.761 98.8073C100.546 98.5751 100.359 98.3741 100.198 98.2044V98.0302H101.323C101.555 98.1731 101.801 98.3473 102.06 98.5527C102.319 98.7492 102.565 98.968 102.797 99.2092C103.029 98.968 103.279 98.7492 103.547 98.5527C103.824 98.3473 104.079 98.1731 104.311 98.0302H105.449V98.2044C105.289 98.3741 105.097 98.5751 104.873 98.8073C104.659 99.0306 104.449 99.2672 104.244 99.5173C104.047 99.7585 103.891 99.9773 103.775 100.174H101.859Z" fill="#5F5F5F"/>
<path d="M111.396 100.897C112.209 100.897 112.843 101.107 113.299 101.527C113.763 101.947 113.995 102.625 113.995 103.563V108.292H112.307V103.898C112.307 103.353 112.2 102.947 111.986 102.679C111.771 102.402 111.432 102.264 110.968 102.264C110.289 102.264 109.824 102.478 109.574 102.907C109.324 103.335 109.199 103.947 109.199 104.742V108.292H107.511V101.031H108.811L109.052 101.982H109.146C109.378 101.607 109.695 101.335 110.097 101.165C110.508 100.987 110.941 100.897 111.396 100.897Z" fill="#5F5F5F"/>
<path d="M117.538 108.292H115.85V101.031H117.538V108.292ZM118.998 98.0302V98.1642C118.846 98.325 118.637 98.5349 118.369 98.7939C118.101 99.0529 117.819 99.3074 117.525 99.5575C117.23 99.8076 116.975 100.013 116.761 100.174H115.636V99.9996C115.778 99.8299 115.939 99.6334 116.118 99.4101C116.296 99.1779 116.471 98.9412 116.64 98.7001C116.81 98.45 116.953 98.2267 117.069 98.0302H118.998Z" fill="#5F5F5F"/>
<path d="M13.3975 109.967H118.61V110.637H13.3975V109.967Z" fill="#5F5F5F"/>
<path d="M47.5488 17.0695C49.1006 17.0695 50.2282 17.3933 50.9316 18.0408C51.6461 18.6772 52.0033 19.5703 52.0033 20.7202C52.0033 21.4013 51.8582 22.0376 51.5679 22.6293C51.2777 23.221 50.7864 23.7011 50.0943 24.0695C49.4132 24.4379 48.4866 24.6221 47.3144 24.6221H46.1254V29.0264H43.9818V17.0695H47.5488ZM47.4148 18.8447H46.1254V22.847H47.0967C47.9675 22.847 48.6373 22.6907 49.1062 22.3781C49.5863 22.0544 49.8263 21.5296 49.8263 20.804C49.8263 20.1453 49.6309 19.6541 49.2402 19.3303C48.8494 19.0065 48.241 18.8447 47.4148 18.8447Z" fill="#1E1E1E"/>
<path d="M61.9977 24.4714C61.9977 25.9786 61.6069 27.1453 60.8254 27.9714C60.0439 28.7864 58.9833 29.1939 57.6436 29.1939C56.8175 29.1939 56.0806 29.0097 55.4331 28.6413C54.7856 28.2728 54.2776 27.737 53.9092 27.0336C53.5408 26.3303 53.3566 25.4762 53.3566 24.4714C53.3566 22.9642 53.7417 21.8088 54.5121 21.0049C55.2936 20.1899 56.3542 19.7824 57.6939 19.7824C58.5312 19.7824 59.2736 19.9667 59.9211 20.3351C60.5687 20.6923 61.0766 21.2226 61.445 21.926C61.8135 22.6182 61.9977 23.4666 61.9977 24.4714ZM55.5168 24.4714C55.5168 25.4315 55.6843 26.174 56.0192 26.6987C56.3653 27.2234 56.918 27.4858 57.6771 27.4858C58.4251 27.4858 58.9722 27.2234 59.3183 26.6987C59.6644 26.174 59.8374 25.4315 59.8374 24.4714C59.8374 23.5113 59.6644 22.7745 59.3183 22.2609C58.9722 21.7473 58.4195 21.4906 57.6604 21.4906C56.9012 21.4906 56.3542 21.7473 56.0192 22.2609C55.6843 22.7745 55.5168 23.5113 55.5168 24.4714Z" fill="#1E1E1E"/>
<path d="M63.805 17.5552C63.805 17.1421 63.9167 16.8574 64.1399 16.7011C64.3744 16.5337 64.6535 16.4499 64.9773 16.4499C65.2899 16.4499 65.5634 16.5337 65.7978 16.7011C66.0323 16.8574 66.1495 17.1421 66.1495 17.5552C66.1495 17.9683 66.0323 18.2585 65.7978 18.426C65.5634 18.5935 65.2899 18.6772 64.9773 18.6772C64.6535 18.6772 64.3744 18.5935 64.1399 18.426C63.9167 18.2585 63.805 17.9683 63.805 17.5552ZM63.0514 33.0455C62.7723 33.0455 62.4988 33.0232 62.2309 32.9786C61.9629 32.9451 61.7341 32.9004 61.5443 32.8446V31.17C61.7341 31.2146 61.9183 31.2537 62.0969 31.2872C62.2755 31.3207 62.4765 31.3374 62.6998 31.3374C63.0458 31.3374 63.3361 31.2425 63.5706 31.0527C63.805 30.8629 63.9222 30.4889 63.9222 29.9307V19.9499H66.0323V30.1484C66.0323 30.9857 65.7978 31.6779 65.3289 32.225C64.8712 32.772 64.112 33.0455 63.0514 33.0455Z" fill="#1E1E1E"/>
<path d="M69.5285 16.4499C69.8411 16.4499 70.1146 16.5337 70.3491 16.7011C70.5835 16.8574 70.7008 17.1421 70.7008 17.5552C70.7008 17.9683 70.5835 18.2585 70.3491 18.426C70.1146 18.5935 69.8411 18.6772 69.5285 18.6772C69.2048 18.6772 68.9256 18.5935 68.6912 18.426C68.4679 18.2585 68.3563 17.9683 68.3563 17.5552C68.3563 17.1421 68.4679 16.8574 68.6912 16.7011C68.9256 16.5337 69.2048 16.4499 69.5285 16.4499ZM70.5835 19.9499V29.0264H68.4735V19.9499H70.5835Z" fill="#1E1E1E"/>
<path d="M79.2041 26.3972C79.2041 27.3127 78.8748 28.0105 78.2161 28.4905C77.5686 28.9594 76.6364 29.1939 75.4195 29.1939C74.7831 29.1939 74.2361 29.1492 73.7783 29.0599C73.3318 28.9706 72.8964 28.831 72.4721 28.6413V26.8494C72.9187 27.0615 73.4099 27.2401 73.9458 27.3853C74.4928 27.5304 75.0064 27.603 75.4865 27.603C76.067 27.603 76.4857 27.5137 76.7424 27.335C76.9992 27.1564 77.1276 26.9164 77.1276 26.6149C77.1276 26.4363 77.0774 26.28 76.9769 26.1461C76.8764 26.0009 76.681 25.8446 76.3908 25.6772C76.1005 25.5097 75.6595 25.3032 75.0678 25.0575C74.4873 24.8231 74.0016 24.5886 73.6109 24.3542C73.2313 24.1197 72.941 23.8406 72.7401 23.5169C72.5503 23.1931 72.4554 22.7745 72.4554 22.2609C72.4554 21.4459 72.7791 20.8319 73.4267 20.4188C74.0742 19.9946 74.9282 19.7824 75.9888 19.7824C76.5471 19.7824 77.0718 19.8383 77.563 19.9499C78.0654 20.0616 78.5678 20.229 79.0702 20.4523L78.4003 22.0097C77.9761 21.8311 77.563 21.6804 77.1611 21.5576C76.7592 21.4348 76.3461 21.3733 75.9219 21.3733C74.9952 21.3733 74.5319 21.6357 74.5319 22.1604C74.5319 22.3502 74.5877 22.5121 74.6994 22.6461C74.8222 22.78 75.0287 22.9252 75.319 23.0815C75.6204 23.2266 76.0447 23.4052 76.5917 23.6174C77.1276 23.8295 77.5909 24.0528 77.9817 24.2872C78.3724 24.5105 78.6738 24.7896 78.886 25.1245C79.0981 25.4483 79.2041 25.8725 79.2041 26.3972ZM74.5989 18.8781C74.4426 18.6325 74.2416 18.359 73.996 18.0576C73.7504 17.745 73.4936 17.4491 73.2257 17.17C72.9578 16.8797 72.7233 16.6286 72.5224 16.4164V16.1987H73.9291C74.2193 16.3774 74.5263 16.5951 74.8501 16.8518C75.1739 17.0975 75.4809 17.371 75.7711 17.6724C76.0614 17.371 76.374 17.0975 76.7089 16.8518C77.055 16.5951 77.3732 16.3774 77.6635 16.1987H79.0869V16.4164C78.886 16.6286 78.6459 16.8797 78.3668 17.17C78.0989 17.4491 77.8365 17.745 77.5798 18.0576C77.3341 18.359 77.1388 18.6325 76.9936 18.8781H74.5989Z" fill="#1E1E1E"/>
<path d="M84.4943 27.5025C84.7511 27.5025 85.0023 27.4802 85.2479 27.4355C85.5047 27.3797 85.7391 27.3183 85.9513 27.2513V28.8255C85.728 28.9371 85.4377 29.0264 85.0805 29.0934C84.7232 29.1604 84.3492 29.1939 83.9584 29.1939C83.4337 29.1939 82.9592 29.1102 82.535 28.9427C82.1219 28.7752 81.7926 28.4794 81.547 28.0551C81.3014 27.6309 81.1786 27.0336 81.1786 26.2633V21.5408H79.9561V20.6198L81.2958 19.8829L81.9656 17.9571H83.2886V19.9499H85.8675V21.5408H83.2886V26.2465C83.2886 26.6708 83.4002 26.989 83.6235 27.2011C83.858 27.402 84.1482 27.5025 84.4943 27.5025Z" fill="#1E1E1E"/>
<path d="M91.1747 19.7824C92.3916 19.7824 93.3517 20.1453 94.0551 20.871C94.7696 21.5966 95.1269 22.607 95.1269 23.902V24.9738H89.1317C89.154 25.8 89.3829 26.4419 89.8183 26.8996C90.2537 27.3462 90.8565 27.5695 91.6269 27.5695C92.2074 27.5695 92.7321 27.5137 93.201 27.402C93.6699 27.2792 94.15 27.1062 94.6412 26.8829V28.5743C94.1946 28.7864 93.7313 28.9427 93.2513 29.0432C92.7712 29.1436 92.1962 29.1939 91.5264 29.1939C90.6333 29.1939 89.8462 29.0264 89.1652 28.6915C88.4841 28.3454 87.9483 27.8319 87.5575 27.1508C87.1779 26.4587 86.9881 25.5934 86.9881 24.5552C86.9881 23.0033 87.3677 21.8199 88.1269 21.0049C88.8972 20.1899 89.9132 19.7824 91.1747 19.7824ZM91.1747 21.3399C90.6053 21.3399 90.142 21.5241 89.7848 21.8925C89.4387 22.2497 89.2377 22.7856 89.1819 23.5001H93.0838C93.0726 22.8749 92.9108 22.3614 92.5982 21.9595C92.2967 21.5464 91.8222 21.3399 91.1747 21.3399ZM89.8685 18.8781C89.7122 18.6325 89.5112 18.359 89.2656 18.0576C89.02 17.745 88.7633 17.4491 88.4953 17.17C88.2274 16.8797 87.9929 16.6286 87.792 16.4164V16.1987H89.1987C89.4889 16.3774 89.7959 16.5951 90.1197 16.8518C90.4435 17.0975 90.7505 17.371 91.0407 17.6724C91.331 17.371 91.6436 17.0975 91.9785 16.8518C92.3246 16.5951 92.6428 16.3774 92.9331 16.1987H94.3565V16.4164C94.1556 16.6286 93.9155 16.8797 93.6364 17.17C93.3685 17.4491 93.1061 17.745 92.8493 18.0576C92.6037 18.359 92.4084 18.6325 92.2632 18.8781H89.8685Z" fill="#1E1E1E"/>
<path d="M101.854 19.7824C102.87 19.7824 103.663 20.0448 104.232 20.5695C104.813 21.0942 105.103 21.9427 105.103 23.115V29.0264H102.993V23.5336C102.993 22.8526 102.859 22.3446 102.591 22.0097C102.323 21.6636 101.899 21.4906 101.318 21.4906C100.47 21.4906 99.8893 21.7585 99.5767 22.2944C99.2641 22.8303 99.1078 23.595 99.1078 24.5886V29.0264H96.9978V19.9499H98.6222L98.9236 21.1389H99.0408C99.3311 20.67 99.7274 20.3295 100.23 20.1174C100.743 19.8941 101.285 19.7824 101.854 19.7824Z" fill="#1E1E1E"/>
<path d="M109.596 29.0264H107.485V19.9499H109.596V29.0264ZM111.421 16.1987V16.3662C111.231 16.5671 110.969 16.8295 110.634 17.1533C110.299 17.477 109.947 17.7952 109.579 18.1078C109.21 18.4204 108.892 18.6772 108.624 18.8781H107.218V18.6604C107.396 18.4483 107.597 18.2027 107.82 17.9236C108.044 17.6333 108.261 17.3375 108.474 17.036C108.686 16.7234 108.864 16.4443 109.009 16.1987H111.421Z" fill="#1E1E1E"/>
<path d="M20.7993 51.3549H19.6271L15.3624 44.7345H15.3177C15.3326 44.995 15.3512 45.3187 15.3735 45.7058C15.3959 46.0928 15.407 46.491 15.407 46.9003V51.3549H14.4804V43.3836H15.6415L19.895 49.9817H19.9397C19.9323 49.8626 19.9211 49.684 19.9062 49.4458C19.8988 49.2076 19.8876 48.9508 19.8727 48.6755C19.8653 48.3926 19.8615 48.1284 19.8615 47.8828V43.3836H20.7993V51.3549Z" fill="#1E1E1E"/>
<path d="M24.8828 45.2592C25.3889 45.2592 25.8281 45.3708 26.2002 45.5941C26.5723 45.8174 26.8552 46.1337 27.0487 46.5431C27.2496 46.945 27.3501 47.4176 27.3501 47.9609V48.5526H23.2529C23.2677 49.2299 23.4389 49.7472 23.7664 50.1045C24.1013 50.4543 24.5665 50.6292 25.1619 50.6292C25.5415 50.6292 25.8764 50.5957 26.1667 50.5287C26.4644 50.4543 26.7696 50.3501 27.0822 50.2161V51.0758C26.777 51.2097 26.4756 51.3065 26.1779 51.366C25.8802 51.433 25.5266 51.4665 25.1173 51.4665C24.5442 51.4665 24.0418 51.3511 23.6101 51.1204C23.1784 50.8897 22.8398 50.5473 22.5942 50.0933C22.356 49.6393 22.2369 49.0774 22.2369 48.4075C22.2369 47.7525 22.3448 47.1906 22.5607 46.7217C22.784 46.2528 23.0928 45.8918 23.4873 45.6388C23.8892 45.3857 24.3544 45.2592 24.8828 45.2592ZM24.8717 46.063C24.4028 46.063 24.0306 46.2156 23.7552 46.5208C23.4873 46.8185 23.3273 47.2353 23.2752 47.7712H26.323C26.3156 47.265 26.1965 46.8557 25.9658 46.5431C25.735 46.223 25.3703 46.063 24.8717 46.063Z" fill="#1E1E1E"/>
<path d="M28.5386 43.752C28.5386 43.5362 28.5944 43.3799 28.7061 43.2831C28.8177 43.1789 28.9554 43.1268 29.1191 43.1268C29.268 43.1268 29.3982 43.1789 29.5099 43.2831C29.629 43.3799 29.6885 43.5362 29.6885 43.752C29.6885 43.9679 29.629 44.1279 29.5099 44.2321C29.3982 44.3288 29.268 44.3772 29.1191 44.3772C28.9554 44.3772 28.8177 44.3288 28.7061 44.2321C28.5944 44.1279 28.5386 43.9679 28.5386 43.752ZM27.9134 54.0343C27.7199 54.0343 27.5524 54.0194 27.411 53.9896C27.2696 53.9673 27.1505 53.9375 27.0537 53.9003V53.1077C27.1654 53.1449 27.2808 53.1709 27.3998 53.1858C27.5189 53.2081 27.6492 53.2193 27.7906 53.2193C28.0288 53.2193 28.226 53.1523 28.3823 53.0183C28.5386 52.8918 28.6167 52.6462 28.6167 52.2815V45.3708H29.5992V52.248C29.5992 52.8062 29.4652 53.2416 29.1973 53.5542C28.9293 53.8743 28.5014 54.0343 27.9134 54.0343Z" fill="#1E1E1E"/>
<path d="M32.5556 51.3549L30.2893 45.3708H31.3387L32.6114 48.8987C32.671 49.0625 32.7342 49.2448 32.8012 49.4458C32.8682 49.6467 32.9278 49.8403 32.9799 50.0263C33.032 50.2124 33.0692 50.365 33.0915 50.4841H33.1362C33.1585 50.365 33.1994 50.2124 33.259 50.0263C33.3185 49.8328 33.3818 49.6393 33.4488 49.4458C33.5157 49.2448 33.579 49.0625 33.6385 48.8987L34.9113 45.3708H35.9607L33.6832 51.3549H32.5556Z" fill="#1E1E1E"/>
<path d="M35.713 45.3708H36.7624L38.0575 48.7759C38.1691 49.0811 38.2696 49.3676 38.3589 49.6356C38.4482 49.9035 38.5152 50.1603 38.5599 50.4059H38.6045C38.6492 50.2198 38.7199 49.9779 38.8167 49.6802C38.9134 49.3751 39.0139 49.0699 39.1181 48.7648L40.335 45.3708H41.3956L38.8167 52.181C38.6008 52.7467 38.3291 53.197 38.0017 53.5319C37.6742 53.8668 37.2202 54.0343 36.6396 54.0343C36.461 54.0343 36.3047 54.0231 36.1707 54.0008C36.0368 53.9859 35.9214 53.9673 35.8246 53.945V53.1635C35.9065 53.1784 36.0033 53.1932 36.1149 53.2081C36.234 53.223 36.3568 53.2305 36.4833 53.2305C36.8257 53.2305 37.1011 53.1337 37.3095 52.9402C37.5179 52.7467 37.6853 52.4899 37.8119 52.1699L38.1245 51.3772L35.713 45.3708ZM40.1229 42.8031V42.9147C40.0261 43.0487 39.8847 43.2236 39.6986 43.4394C39.52 43.6478 39.3228 43.86 39.1069 44.0758C38.8985 44.2842 38.705 44.4554 38.5264 44.5893H37.8789V44.4554C37.9831 44.3214 38.1021 44.1577 38.2361 43.9641C38.3701 43.7632 38.5003 43.5622 38.6269 43.3613C38.7534 43.1529 38.8576 42.9668 38.9395 42.8031H40.1229Z" fill="#1E1E1E"/>
<path d="M43.0676 42.8701V45.3597C43.0676 45.6574 43.049 45.9365 43.0118 46.197H43.0788C43.2723 45.8918 43.5328 45.6611 43.8603 45.5048C44.1952 45.3485 44.5562 45.2704 44.9432 45.2704C45.6651 45.2704 46.2085 45.4453 46.5732 45.7951C46.9453 46.1375 47.1314 46.6919 47.1314 47.4586V51.3549H46.1601V47.5255C46.1601 46.5654 45.7135 46.0854 44.8204 46.0854C44.1505 46.0854 43.6891 46.2751 43.436 46.6547C43.1904 47.0269 43.0676 47.5628 43.0676 48.2624V51.3549H42.0852V42.8701H43.0676Z" fill="#1E1E1E"/>
<path d="M53.9322 48.3517C53.9322 49.3416 53.6792 50.1082 53.1731 50.6515C52.6744 51.1948 51.9971 51.4665 51.1412 51.4665C50.6127 51.4665 50.1401 51.3474 49.7233 51.1093C49.314 50.8636 48.9902 50.5101 48.752 50.0486C48.5139 49.5798 48.3948 49.0141 48.3948 48.3517C48.3948 47.3618 48.6404 46.5989 49.1316 46.063C49.6303 45.5271 50.3113 45.2592 51.1747 45.2592C51.7105 45.2592 52.1869 45.382 52.6037 45.6276C53.0205 45.8658 53.3442 46.2156 53.575 46.6771C53.8131 47.1311 53.9322 47.6893 53.9322 48.3517ZM49.4107 48.3517C49.4107 49.0588 49.5484 49.6207 49.8238 50.0375C50.1066 50.4468 50.5532 50.6515 51.1635 50.6515C51.7664 50.6515 52.2092 50.4468 52.492 50.0375C52.7749 49.6207 52.9163 49.0588 52.9163 48.3517C52.9163 47.6446 52.7749 47.0901 52.492 46.6882C52.2092 46.2863 51.7626 46.0854 51.1523 46.0854C50.542 46.0854 50.0992 46.2863 49.8238 46.6882C49.5484 47.0901 49.4107 47.6446 49.4107 48.3517Z" fill="#1E1E1E"/>
<path d="M57.3537 51.4665C56.6094 51.4665 56.014 51.2097 55.5674 50.6962C55.1209 50.1752 54.8976 49.4011 54.8976 48.374C54.8976 47.3469 55.1209 46.5729 55.5674 46.0519C56.0214 45.5234 56.6206 45.2592 57.3649 45.2592C57.8263 45.2592 58.2022 45.3448 58.4925 45.516C58.7902 45.6872 59.0321 45.8956 59.2181 46.1412H59.2851C59.2702 46.0444 59.2553 45.903 59.2405 45.7169C59.2256 45.5234 59.2181 45.3708 59.2181 45.2592V42.8701H60.2006V51.3549H59.4079L59.2628 50.551H59.2181C59.0395 50.8041 58.8013 51.0199 58.5036 51.1986C58.2059 51.3772 57.8226 51.4665 57.3537 51.4665ZM57.51 50.6515C58.1426 50.6515 58.5855 50.4803 58.8386 50.138C59.0991 49.7882 59.2293 49.2634 59.2293 48.5638V48.3852C59.2293 47.6409 59.1065 47.0715 58.8609 46.6771C58.6153 46.2751 58.1613 46.0742 57.4988 46.0742C56.9704 46.0742 56.5722 46.2863 56.3043 46.7105C56.0438 47.1273 55.9135 47.6893 55.9135 48.3963C55.9135 49.1109 56.0438 49.6653 56.3043 50.0598C56.5722 50.4543 56.9741 50.6515 57.51 50.6515Z" fill="#1E1E1E"/>
<path d="M64.7247 45.2592C65.4392 45.2592 65.9788 45.4341 66.3435 45.7839C66.7082 46.1337 66.8906 46.6919 66.8906 47.4586V51.3549H65.9193V47.5255C65.9193 46.5654 65.4727 46.0854 64.5796 46.0854C63.9172 46.0854 63.4594 46.2714 63.2064 46.6436C62.9533 47.0157 62.8268 47.5516 62.8268 48.2512V51.3549H61.8443V45.3708H62.637L62.7821 46.1858H62.838C63.0315 45.8732 63.2994 45.6425 63.6418 45.4936C63.9842 45.3373 64.3451 45.2592 64.7247 45.2592Z" fill="#1E1E1E"/>
<path d="M70.7999 45.2592C71.306 45.2592 71.7451 45.3708 72.1173 45.5941C72.4894 45.8174 72.7722 46.1337 72.9657 46.5431C73.1667 46.945 73.2672 47.4176 73.2672 47.9609V48.5526H69.1699C69.1848 49.2299 69.356 49.7472 69.6835 50.1045C70.0184 50.4543 70.4836 50.6292 71.079 50.6292C71.4586 50.6292 71.7935 50.5957 72.0838 50.5287C72.3815 50.4543 72.6866 50.3501 72.9992 50.2161V51.0758C72.6941 51.2097 72.3926 51.3065 72.0949 51.366C71.7972 51.433 71.4437 51.4665 71.0343 51.4665C70.4612 51.4665 69.9588 51.3511 69.5272 51.1204C69.0955 50.8897 68.7568 50.5473 68.5112 50.0933C68.273 49.6393 68.154 49.0774 68.154 48.4075C68.154 47.7525 68.2619 47.1906 68.4777 46.7217C68.701 46.2528 69.0099 45.8918 69.4044 45.6388C69.8063 45.3857 70.2714 45.2592 70.7999 45.2592ZM70.7887 46.063C70.3198 46.063 69.9477 46.2156 69.6723 46.5208C69.4044 46.8185 69.2443 47.2353 69.1922 47.7712H72.2401C72.2326 47.265 72.1135 46.8557 71.8828 46.5431C71.6521 46.223 71.2874 46.063 70.7887 46.063ZM70.2082 44.5893C70.1114 44.4256 69.9812 44.2433 69.8174 44.0423C69.6537 43.8413 69.4825 43.6441 69.3039 43.4506C69.1253 43.2571 68.969 43.0896 68.835 42.9482V42.8031H69.5048C69.6983 42.9296 69.8993 43.0822 70.1077 43.2608C70.3161 43.4394 70.5133 43.6292 70.6994 43.8302C70.9004 43.6292 71.105 43.4394 71.3134 43.2608C71.5218 43.0822 71.7228 42.9296 71.9163 42.8031H72.6085V42.9482C72.4671 43.0896 72.3033 43.2571 72.1173 43.4506C71.9386 43.6441 71.7637 43.8413 71.5925 44.0423C71.4288 44.2433 71.3023 44.4256 71.213 44.5893H70.2082Z" fill="#1E1E1E"/>
<path d="M74.4556 43.752C74.4556 43.5362 74.5115 43.3799 74.6231 43.2831C74.7347 43.1789 74.8724 43.1268 75.0362 43.1268C75.185 43.1268 75.3153 43.1789 75.4269 43.2831C75.546 43.3799 75.6056 43.5362 75.6056 43.752C75.6056 43.9679 75.546 44.1279 75.4269 44.2321C75.3153 44.3288 75.185 44.3772 75.0362 44.3772C74.8724 44.3772 74.7347 44.3288 74.6231 44.2321C74.5115 44.1279 74.4556 43.9679 74.4556 43.752ZM73.8304 54.0343C73.6369 54.0343 73.4695 54.0194 73.3281 53.9896C73.1866 53.9673 73.0676 53.9375 72.9708 53.9003V53.1077C73.0824 53.1449 73.1978 53.1709 73.3169 53.1858C73.436 53.2081 73.5662 53.2193 73.7076 53.2193C73.9458 53.2193 74.143 53.1523 74.2993 53.0183C74.4556 52.8918 74.5338 52.6462 74.5338 52.2815V45.3708H75.5162V52.248C75.5162 52.8062 75.3823 53.2416 75.1143 53.5542C74.8464 53.8743 74.4184 54.0343 73.8304 54.0343Z" fill="#1E1E1E"/>
<path d="M81.0516 49.7026C81.0516 50.2831 80.8358 50.7222 80.4041 51.0199C79.9724 51.3176 79.3919 51.4665 78.6625 51.4665C78.2457 51.4665 77.8847 51.433 77.5795 51.366C77.2818 51.299 77.0176 51.206 76.7869 51.0869V50.1938C77.025 50.3129 77.3116 50.4245 77.6465 50.5287C77.9889 50.6255 78.335 50.6738 78.6848 50.6738C79.1835 50.6738 79.5444 50.5957 79.7677 50.4394C79.991 50.2757 80.1026 50.0598 80.1026 49.7919C80.1026 49.643 80.0617 49.509 79.9798 49.39C79.898 49.2709 79.7491 49.1518 79.5333 49.0327C79.3249 48.9136 79.0234 48.7797 78.629 48.6308C78.2419 48.4819 77.9107 48.3331 77.6354 48.1842C77.36 48.0354 77.1479 47.8567 76.999 47.6483C76.8501 47.4399 76.7757 47.172 76.7757 46.8445C76.7757 46.3384 76.9804 45.9477 77.3897 45.6723C77.8065 45.3969 78.3499 45.2592 79.0197 45.2592C79.3844 45.2592 79.7231 45.2964 80.0357 45.3708C80.3557 45.4453 80.6534 45.542 80.9288 45.6611L80.5939 46.4426C80.3408 46.3384 80.0766 46.2491 79.8012 46.1747C79.5258 46.1002 79.243 46.063 78.9527 46.063C78.5508 46.063 78.2419 46.13 78.0261 46.264C77.8177 46.3905 77.7135 46.5654 77.7135 46.7887C77.7135 46.9599 77.7619 47.1013 77.8586 47.2129C77.9554 47.3246 78.1154 47.4362 78.3387 47.5479C78.5694 47.6595 78.8746 47.786 79.2542 47.9274C79.6338 48.0689 79.9575 48.214 80.2255 48.3629C80.4934 48.5117 80.6981 48.6941 80.8395 48.9099C80.9809 49.1183 81.0516 49.3825 81.0516 49.7026ZM78.3722 44.5893C78.2754 44.4256 78.1452 44.2433 77.9814 44.0423C77.8177 43.8413 77.6465 43.6441 77.4679 43.4506C77.2893 43.2571 77.133 43.0896 76.999 42.9482V42.8031H77.6688C77.8624 42.9296 78.0633 43.0822 78.2717 43.2608C78.4801 43.4394 78.6774 43.6292 78.8634 43.8302C79.0644 43.6292 79.2691 43.4394 79.4775 43.2608C79.6859 43.0822 79.8868 42.9296 80.0803 42.8031H80.7725V42.9482C80.6311 43.0896 80.4673 43.2571 80.2813 43.4506C80.1026 43.6441 79.9277 43.8413 79.7566 44.0423C79.5928 44.2433 79.4663 44.4256 79.377 44.5893H78.3722Z" fill="#1E1E1E"/>
<path d="M83.2232 51.3549H82.2408V45.3708H83.2232V51.3549ZM84.3062 42.8031V42.9147C84.2094 43.0487 84.068 43.2236 83.8819 43.4394C83.7033 43.6478 83.5061 43.86 83.2902 44.0758C83.0818 44.2842 82.8883 44.4554 82.7097 44.5893H82.0621V44.4554C82.1663 44.3214 82.2854 44.1577 82.4194 43.9641C82.5534 43.7632 82.6836 43.5622 82.8102 43.3613C82.9367 43.1529 83.0409 42.9668 83.1227 42.8031H84.3062Z" fill="#1E1E1E"/>
<path d="M90.3524 45.2592C91.0893 45.2592 91.681 45.516 92.1276 46.0295C92.5816 46.5431 92.8086 47.3171 92.8086 48.3517C92.8086 49.3714 92.5816 50.1454 92.1276 50.6738C91.681 51.2023 91.0856 51.4665 90.3413 51.4665C89.8798 51.4665 89.4965 51.3809 89.1914 51.2097C88.8937 51.0385 88.6592 50.8339 88.488 50.5957H88.421C88.4285 50.7222 88.4396 50.8822 88.4545 51.0758C88.4769 51.2693 88.488 51.4367 88.488 51.5782V54.0343H87.5056V45.3708H88.3094L88.4434 46.1858H88.488C88.6667 45.9253 88.9011 45.7058 89.1914 45.5271C89.4816 45.3485 89.8687 45.2592 90.3524 45.2592ZM90.1738 46.0854C89.5635 46.0854 89.1318 46.2565 88.8788 46.5989C88.6257 46.9413 88.4955 47.4623 88.488 48.1619V48.3517C88.488 49.0885 88.6071 49.6579 88.8453 50.0598C89.0909 50.4543 89.5412 50.6515 90.1962 50.6515C90.5534 50.6515 90.8511 50.5548 91.0893 50.3612C91.3275 50.1603 91.5024 49.8849 91.614 49.5351C91.7331 49.1853 91.7926 48.7871 91.7926 48.3405C91.7926 47.6558 91.6587 47.1087 91.3907 46.6994C91.1302 46.29 90.7246 46.0854 90.1738 46.0854Z" fill="#1E1E1E"/>
<path d="M99.3199 48.3517C99.3199 49.3416 99.0669 50.1082 98.5608 50.6515C98.0621 51.1948 97.3848 51.4665 96.5289 51.4665C96.0005 51.4665 95.5278 51.3474 95.111 51.1093C94.7017 50.8636 94.3779 50.5101 94.1397 50.0486C93.9016 49.5798 93.7825 49.0141 93.7825 48.3517C93.7825 47.3618 94.0281 46.5989 94.5193 46.063C95.018 45.5271 95.699 45.2592 96.5624 45.2592C97.0983 45.2592 97.5746 45.382 97.9914 45.6276C98.4082 45.8658 98.732 46.2156 98.9627 46.6771C99.2009 47.1311 99.3199 47.6893 99.3199 48.3517ZM94.7984 48.3517C94.7984 49.0588 94.9361 49.6207 95.2115 50.0375C95.4943 50.4468 95.9409 50.6515 96.5512 50.6515C97.1541 50.6515 97.5969 50.4468 97.8798 50.0375C98.1626 49.6207 98.304 49.0588 98.304 48.3517C98.304 47.6446 98.1626 47.0901 97.8798 46.6882C97.5969 46.2863 97.1504 46.0854 96.54 46.0854C95.9297 46.0854 95.4869 46.2863 95.2115 46.6882C94.9361 47.0901 94.7984 47.6446 94.7984 48.3517Z" fill="#1E1E1E"/>
<path d="M100.542 43.752C100.542 43.5362 100.598 43.3799 100.71 43.2831C100.821 43.1789 100.959 43.1268 101.123 43.1268C101.271 43.1268 101.402 43.1789 101.513 43.2831C101.632 43.3799 101.692 43.5362 101.692 43.752C101.692 43.9679 101.632 44.1279 101.513 44.2321C101.402 44.3288 101.271 44.3772 101.123 44.3772C100.959 44.3772 100.821 44.3288 100.71 44.2321C100.598 44.1279 100.542 43.9679 100.542 43.752ZM99.9169 54.0343C99.7234 54.0343 99.5559 54.0194 99.4145 53.9896C99.2731 53.9673 99.154 53.9375 99.0572 53.9003V53.1077C99.1689 53.1449 99.2842 53.1709 99.4033 53.1858C99.5224 53.2081 99.6527 53.2193 99.7941 53.2193C100.032 53.2193 100.229 53.1523 100.386 53.0183C100.542 52.8918 100.62 52.6462 100.62 52.2815V45.3708H101.603V52.248C101.603 52.8062 101.469 53.2416 101.201 53.5542C100.933 53.8743 100.505 54.0343 99.9169 54.0343Z" fill="#1E1E1E"/>
<path d="M103.744 43.1268C103.893 43.1268 104.023 43.1789 104.135 43.2831C104.254 43.3799 104.313 43.5362 104.313 43.752C104.313 43.9679 104.254 44.1279 104.135 44.2321C104.023 44.3288 103.893 44.3772 103.744 44.3772C103.58 44.3772 103.443 44.3288 103.331 44.2321C103.219 44.1279 103.164 43.9679 103.164 43.752C103.164 43.5362 103.219 43.3799 103.331 43.2831C103.443 43.1789 103.58 43.1268 103.744 43.1268ZM104.224 45.3708V51.3549H103.242V45.3708H104.224Z" fill="#1E1E1E"/>
<path d="M109.76 49.7026C109.76 50.2831 109.544 50.7222 109.112 51.0199C108.68 51.3176 108.1 51.4665 107.37 51.4665C106.954 51.4665 106.593 51.433 106.287 51.366C105.99 51.299 105.726 51.206 105.495 51.0869V50.1938C105.733 50.3129 106.02 50.4245 106.354 50.5287C106.697 50.6255 107.043 50.6738 107.393 50.6738C107.891 50.6738 108.252 50.5957 108.476 50.4394C108.699 50.2757 108.811 50.0598 108.811 49.7919C108.811 49.643 108.77 49.509 108.688 49.39C108.606 49.2709 108.457 49.1518 108.241 49.0327C108.033 48.9136 107.731 48.7797 107.337 48.6308C106.95 48.4819 106.619 48.3331 106.343 48.1842C106.068 48.0354 105.856 47.8567 105.707 47.6483C105.558 47.4399 105.484 47.172 105.484 46.8445C105.484 46.3384 105.688 45.9477 106.098 45.6723C106.514 45.3969 107.058 45.2592 107.728 45.2592C108.092 45.2592 108.431 45.2964 108.744 45.3708C109.064 45.4453 109.361 45.542 109.637 45.6611L109.302 46.4426C109.049 46.3384 108.785 46.2491 108.509 46.1747C108.234 46.1002 107.951 46.063 107.661 46.063C107.259 46.063 106.95 46.13 106.734 46.264C106.526 46.3905 106.421 46.5654 106.421 46.7887C106.421 46.9599 106.47 47.1013 106.567 47.2129C106.663 47.3246 106.823 47.4362 107.047 47.5479C107.277 47.6595 107.583 47.786 107.962 47.9274C108.342 48.0689 108.665 48.214 108.933 48.3629C109.201 48.5117 109.406 48.6941 109.547 48.9099C109.689 49.1183 109.76 49.3825 109.76 49.7026ZM107.08 44.5893C106.983 44.4256 106.853 44.2433 106.689 44.0423C106.526 43.8413 106.354 43.6441 106.176 43.4506C105.997 43.2571 105.841 43.0896 105.707 42.9482V42.8031H106.377C106.57 42.9296 106.771 43.0822 106.98 43.2608C107.188 43.4394 107.385 43.6292 107.571 43.8302C107.772 43.6292 107.977 43.4394 108.185 43.2608C108.394 43.0822 108.595 42.9296 108.788 42.8031H109.48V42.9482C109.339 43.0896 109.175 43.2571 108.989 43.4506C108.811 43.6441 108.636 43.8413 108.464 44.0423C108.301 44.2433 108.174 44.4256 108.085 44.5893H107.08Z" fill="#1E1E1E"/>
<path d="M112.947 50.6627C113.096 50.6627 113.249 50.6515 113.405 50.6292C113.561 50.6069 113.688 50.5771 113.784 50.5399V51.2879C113.68 51.34 113.531 51.3809 113.338 51.4107C113.144 51.4479 112.958 51.4665 112.78 51.4665C112.467 51.4665 112.177 51.4144 111.909 51.3102C111.648 51.1986 111.436 51.0088 111.272 50.7408C111.109 50.4729 111.027 50.097 111.027 49.6132V46.13H110.178V45.6611L111.038 45.2704L111.429 43.9976H112.009V45.3708H113.74V46.13H112.009V49.5909C112.009 49.9556 112.095 50.2273 112.266 50.4059C112.445 50.5771 112.672 50.6627 112.947 50.6627Z" fill="#1E1E1E"/>
<path d="M117.037 45.2592C117.543 45.2592 117.982 45.3708 118.354 45.5941C118.726 45.8174 119.009 46.1337 119.203 46.5431C119.404 46.945 119.504 47.4176 119.504 47.9609V48.5526H115.407C115.422 49.2299 115.593 49.7472 115.92 50.1045C116.255 50.4543 116.721 50.6292 117.316 50.6292C117.696 50.6292 118.03 50.5957 118.321 50.5287C118.618 50.4543 118.924 50.3501 119.236 50.2161V51.0758C118.931 51.2097 118.63 51.3065 118.332 51.366C118.034 51.433 117.681 51.4665 117.271 51.4665C116.698 51.4665 116.196 51.3511 115.764 51.1204C115.332 50.8897 114.994 50.5473 114.748 50.0933C114.51 49.6393 114.391 49.0774 114.391 48.4075C114.391 47.7525 114.499 47.1906 114.715 46.7217C114.938 46.2528 115.247 45.8918 115.641 45.6388C116.043 45.3857 116.508 45.2592 117.037 45.2592ZM117.026 46.063C116.557 46.063 116.185 46.2156 115.909 46.5208C115.641 46.8185 115.481 47.2353 115.429 47.7712H118.477C118.47 47.265 118.351 46.8557 118.12 46.5431C117.889 46.223 117.524 46.063 117.026 46.063ZM116.445 44.5893C116.348 44.4256 116.218 44.2433 116.054 44.0423C115.891 43.8413 115.719 43.6441 115.541 43.4506C115.362 43.2571 115.206 43.0896 115.072 42.9482V42.8031H115.742C115.935 42.9296 116.136 43.0822 116.345 43.2608C116.553 43.4394 116.75 43.6292 116.936 43.8302C117.137 43.6292 117.342 43.4394 117.55 43.2608C117.759 43.0822 117.96 42.9296 118.153 42.8031H118.845V42.9482C118.704 43.0896 118.54 43.2571 118.354 43.4506C118.176 43.6441 118.001 43.8413 117.83 44.0423C117.666 44.2433 117.539 44.4256 117.45 44.5893H116.445Z" fill="#1E1E1E"/>
<path d="M123.651 45.2592C124.366 45.2592 124.905 45.4341 125.27 45.7839C125.635 46.1337 125.817 46.6919 125.817 47.4586V51.3549H124.846V47.5255C124.846 46.5654 124.399 46.0854 123.506 46.0854C122.844 46.0854 122.386 46.2714 122.133 46.6436C121.88 47.0157 121.753 47.5516 121.753 48.2512V51.3549H120.771V45.3708H121.563L121.709 46.1858H121.764C121.958 45.8732 122.226 45.6425 122.568 45.4936C122.911 45.3373 123.272 45.2592 123.651 45.2592Z" fill="#1E1E1E"/>
<path d="M128.398 51.3549H127.415V45.3708H128.398V51.3549ZM129.481 42.8031V42.9147C129.384 43.0487 129.243 43.2236 129.056 43.4394C128.878 43.6478 128.681 43.86 128.465 44.0758C128.256 44.2842 128.063 44.4554 127.884 44.5893H127.237V44.4554C127.341 44.3214 127.46 44.1577 127.594 43.9641C127.728 43.7632 127.858 43.5622 127.985 43.3613C128.111 43.1529 128.215 42.9668 128.297 42.8031H129.481Z" fill="#1E1E1E"/>
<path d="M135.56 45.2592C136.275 45.2592 136.815 45.4341 137.179 45.7839C137.544 46.1337 137.726 46.6919 137.726 47.4586V51.3549H136.755V47.5255C136.755 46.5654 136.308 46.0854 135.415 46.0854C134.753 46.0854 134.295 46.2714 134.042 46.6436C133.789 47.0157 133.663 47.5516 133.663 48.2512V51.3549H132.68V45.3708H133.473L133.618 46.1858H133.674C133.867 45.8732 134.135 45.6425 134.478 45.4936C134.82 45.3373 135.181 45.2592 135.56 45.2592Z" fill="#1E1E1E"/>
<path d="M141.591 45.2704C142.32 45.2704 142.86 45.4304 143.21 45.7504C143.56 46.0705 143.735 46.5803 143.735 47.2799V51.3549H143.02L142.83 50.5064H142.786C142.525 50.8339 142.25 51.0758 141.959 51.2321C141.669 51.3884 141.275 51.4665 140.776 51.4665C140.233 51.4665 139.782 51.3251 139.425 51.0423C139.068 50.752 138.889 50.3017 138.889 49.6914C138.889 49.096 139.124 48.6382 139.593 48.3182C140.062 47.9907 140.783 47.8121 141.758 47.7823L142.774 47.7488V47.3916C142.774 46.8929 142.666 46.5468 142.451 46.3533C142.235 46.1598 141.93 46.063 141.535 46.063C141.223 46.063 140.925 46.1114 140.642 46.2082C140.359 46.2975 140.095 46.4017 139.849 46.5208L139.548 45.7839C139.808 45.6425 140.117 45.5234 140.475 45.4267C140.832 45.3225 141.204 45.2704 141.591 45.2704ZM142.763 48.4298L141.881 48.4633C141.137 48.4931 140.62 48.6122 140.329 48.8206C140.047 49.029 139.905 49.323 139.905 49.7026C139.905 50.0375 140.006 50.2831 140.207 50.4394C140.415 50.5957 140.679 50.6738 140.999 50.6738C141.498 50.6738 141.915 50.5362 142.25 50.2608C142.592 49.9779 142.763 49.5463 142.763 48.9657V48.4298Z" fill="#1E1E1E"/>
<path d="M16.3448 62.9433C16.4937 62.9433 16.6463 62.9322 16.8025 62.9098C16.9588 62.8875 17.0854 62.8577 17.1821 62.8205V63.5685C17.0779 63.6206 16.9291 63.6616 16.7356 63.6913C16.5421 63.7285 16.356 63.7472 16.1774 63.7472C15.8648 63.7472 15.5745 63.6951 15.3065 63.5909C15.046 63.4792 14.8339 63.2894 14.6702 63.0215C14.5064 62.7535 14.4246 62.3777 14.4246 61.8939V58.4107H13.5761V57.9418L14.4357 57.551L14.8265 56.2783H15.407V57.6515H17.1375V58.4107H15.407V61.8716C15.407 62.2363 15.4926 62.5079 15.6638 62.6866C15.8424 62.8577 16.0694 62.9433 16.3448 62.9433Z" fill="#1E1E1E"/>
<path d="M20.9146 57.5398C21.0263 57.5398 21.1454 57.5473 21.2719 57.5622C21.3984 57.5696 21.5138 57.5845 21.618 57.6068L21.4952 58.5111C21.3984 58.4888 21.2905 58.4702 21.1714 58.4553C21.0523 58.4404 20.9444 58.433 20.8477 58.433C20.5425 58.433 20.256 58.5186 19.988 58.6898C19.7201 58.8535 19.5042 59.0879 19.3405 59.3931C19.1842 59.6908 19.106 60.0406 19.106 60.4425V63.6355H18.1236V57.6515H18.9274L19.0391 58.7456H19.0837C19.2698 58.4181 19.5154 58.1353 19.8206 57.8971C20.1332 57.6589 20.4978 57.5398 20.9146 57.5398Z" fill="#1E1E1E"/>
<path d="M23.461 55.1507V57.6403C23.461 57.938 23.4424 58.2171 23.4052 58.4776H23.4722C23.6657 58.1725 23.9262 57.9418 24.2537 57.7855C24.5886 57.6292 24.9496 57.551 25.3366 57.551C26.0586 57.551 26.6019 57.7259 26.9666 58.0757C27.3388 58.4181 27.5248 58.9726 27.5248 59.7392V63.6355H26.5535V59.8062C26.5535 58.8461 26.107 58.366 25.2138 58.366C24.544 58.366 24.0825 58.5558 23.8295 58.9354C23.5839 59.3075 23.461 59.8434 23.461 60.543V63.6355H22.4786V55.1507H23.461Z" fill="#1E1E1E"/>
<path d="M34.1247 57.6515V63.6355H33.3209L33.1758 62.8428H33.1311C32.9376 63.1554 32.6696 63.3862 32.3273 63.535C31.9849 63.6764 31.6202 63.7472 31.2332 63.7472C30.5112 63.7472 29.9679 63.576 29.6032 63.2336C29.2385 62.8838 29.0562 62.3293 29.0562 61.5701V57.6515H30.0498V61.5031C30.0498 62.4558 30.4926 62.9322 31.3783 62.9322C32.0407 62.9322 32.4985 62.7461 32.7515 62.374C33.012 62.0018 33.1423 61.4659 33.1423 60.7663V57.6515H34.1247Z" fill="#1E1E1E"/>
<path d="M40.5322 63.7472C39.7879 63.7472 39.1925 63.4904 38.7459 62.9768C38.2993 62.4558 38.0761 61.6818 38.0761 60.6547C38.0761 59.6276 38.2993 58.8535 38.7459 58.3325C39.1999 57.8041 39.7991 57.5398 40.5434 57.5398C41.0048 57.5398 41.3807 57.6254 41.6709 57.7966C41.9687 57.9678 42.2105 58.1762 42.3966 58.4218H42.4636C42.4487 58.3251 42.4338 58.1837 42.4189 57.9976C42.4041 57.8041 42.3966 57.6515 42.3966 57.5398V55.1507H43.3791V63.6355H42.5864L42.4413 62.8317H42.3966C42.218 63.0847 41.9798 63.3006 41.6821 63.4792C41.3844 63.6578 41.0011 63.7472 40.5322 63.7472ZM40.6885 62.9322C41.3211 62.9322 41.764 62.761 42.017 62.4186C42.2775 62.0688 42.4078 61.5441 42.4078 60.8445V60.6658C42.4078 59.9215 42.285 59.3522 42.0394 58.9577C41.7938 58.5558 41.3397 58.3548 40.6773 58.3548C40.1489 58.3548 39.7507 58.567 39.4828 58.9912C39.2223 59.408 39.092 59.9699 39.092 60.677C39.092 61.3915 39.2223 61.946 39.4828 62.3405C39.7507 62.7349 40.1526 62.9322 40.6885 62.9322Z" fill="#1E1E1E"/>
<path d="M46.0053 63.6355H45.0228V57.6515H46.0053V63.6355ZM47.0882 55.0837V55.1954C46.9915 55.3293 46.85 55.5042 46.664 55.7201C46.4853 55.9285 46.2881 56.1406 46.0723 56.3564C45.8639 56.5648 45.6704 56.736 45.4917 56.87H44.8442V56.736C44.9484 56.6021 45.0675 56.4383 45.2015 56.2448C45.3354 56.0438 45.4657 55.8429 45.5922 55.6419C45.7187 55.4335 45.8229 55.2475 45.9048 55.0837H47.0882Z" fill="#1E1E1E"/>
<path d="M48.6156 55.1507V59.5829C48.6156 59.702 48.6082 59.8583 48.5933 60.0518C48.5858 60.2453 48.5784 60.4128 48.571 60.5542H48.6156C48.6603 60.4946 48.7273 60.409 48.8166 60.2974C48.9059 60.1858 48.9952 60.0741 49.0845 59.9625C49.1813 59.8434 49.2631 59.7466 49.3301 59.6722L51.2392 57.6515H52.3891L49.9665 60.2081L52.5566 63.6355H51.3732L49.2966 60.8445L48.6156 61.4362V63.6355H47.6443V55.1507H48.6156Z" fill="#1E1E1E"/>
<path d="M52.4135 57.6515H53.4629L54.7579 61.0566C54.8696 61.3617 54.9701 61.6483 55.0594 61.9162C55.1487 62.1842 55.2157 62.4409 55.2603 62.6866H55.305C55.3496 62.5005 55.4204 62.2586 55.5171 61.9609C55.6139 61.6557 55.7143 61.3506 55.8185 61.0454L57.0354 57.6515H58.096L55.5171 64.4617C55.3013 65.0273 55.0296 65.4776 54.7021 65.8125C54.3746 66.1475 53.9206 66.3149 53.3401 66.3149C53.1615 66.3149 53.0052 66.3038 52.8712 66.2814C52.7372 66.2665 52.6219 66.2479 52.5251 66.2256V65.4441C52.607 65.459 52.7037 65.4739 52.8154 65.4888C52.9345 65.5037 53.0573 65.5111 53.1838 65.5111C53.5262 65.5111 53.8015 65.4143 54.0099 65.2208C54.2183 65.0273 54.3858 64.7705 54.5123 64.4505L54.8249 63.6578L52.4135 57.6515Z" fill="#1E1E1E"/>
<path d="M64.3093 57.5398C65.0238 57.5398 65.5634 57.7147 65.9281 58.0646C66.2928 58.4144 66.4751 58.9726 66.4751 59.7392V63.6355H65.5039V59.8062C65.5039 58.8461 65.0573 58.366 64.1641 58.366C63.5017 58.366 63.044 58.5521 62.791 58.9242C62.5379 59.2963 62.4114 59.8322 62.4114 60.5319V63.6355H61.4289V57.6515H62.2216L62.3667 58.4665H62.4225C62.616 58.1539 62.884 57.9231 63.2264 57.7743C63.5687 57.618 63.9297 57.5398 64.3093 57.5398Z" fill="#1E1E1E"/>
<path d="M70.3398 57.551C71.0692 57.551 71.6088 57.711 71.9586 58.0311C72.3084 58.3511 72.4833 58.8609 72.4833 59.5606V63.6355H71.7688L71.579 62.787H71.5344C71.2739 63.1145 70.9985 63.3564 70.7082 63.5127C70.4179 63.669 70.0235 63.7472 69.5248 63.7472C68.9815 63.7472 68.5312 63.6057 68.1739 63.3229C67.8167 63.0326 67.6381 62.5824 67.6381 61.972C67.6381 61.3766 67.8725 60.9189 68.3414 60.5988C68.8103 60.2714 69.5322 60.0927 70.5073 60.063L71.5232 60.0295V59.6722C71.5232 59.1735 71.4153 58.8275 71.1994 58.6339C70.9836 58.4404 70.6784 58.3437 70.284 58.3437C69.9714 58.3437 69.6737 58.392 69.3908 58.4888C69.108 58.5781 68.8438 58.6823 68.5982 58.8014L68.2967 58.0646C68.5572 57.9231 68.8661 57.8041 69.2234 57.7073C69.5806 57.6031 69.9528 57.551 70.3398 57.551ZM71.512 60.7105L70.6301 60.744C69.8858 60.7737 69.3685 60.8928 69.0782 61.1012C68.7954 61.3096 68.654 61.6036 68.654 61.9832C68.654 62.3181 68.7545 62.5637 68.9554 62.72C69.1638 62.8763 69.4281 62.9545 69.7481 62.9545C70.2468 62.9545 70.6636 62.8168 70.9985 62.5414C71.3409 62.2586 71.512 61.8269 71.512 61.2464V60.7105Z" fill="#1E1E1E"/>
<path d="M77.9711 61.9832C77.9711 62.5637 77.7552 63.0029 77.3235 63.3006C76.8919 63.5983 76.3113 63.7472 75.5819 63.7472C75.1651 63.7472 74.8041 63.7137 74.499 63.6467C74.2013 63.5797 73.9371 63.4867 73.7063 63.3676V62.4744C73.9445 62.5935 74.2311 62.7052 74.566 62.8094C74.9083 62.9061 75.2544 62.9545 75.6043 62.9545C76.1029 62.9545 76.4639 62.8763 76.6872 62.72C76.9105 62.5563 77.0221 62.3405 77.0221 62.0725C77.0221 61.9237 76.9812 61.7897 76.8993 61.6706C76.8174 61.5515 76.6686 61.4324 76.4527 61.3134C76.2443 61.1943 75.9429 61.0603 75.5484 60.9114C75.1614 60.7626 74.8302 60.6137 74.5548 60.4649C74.2794 60.316 74.0673 60.1374 73.9185 59.929C73.7696 59.7206 73.6952 59.4526 73.6952 59.1252C73.6952 58.6191 73.8998 58.2283 74.3092 57.9529C74.726 57.6775 75.2693 57.5398 75.9392 57.5398C76.3039 57.5398 76.6425 57.5771 76.9551 57.6515C77.2752 57.7259 77.5729 57.8227 77.8483 57.9418L77.5133 58.7233C77.2603 58.6191 76.9961 58.5297 76.7207 58.4553C76.4453 58.3809 76.1625 58.3437 75.8722 58.3437C75.4703 58.3437 75.1614 58.4107 74.9456 58.5446C74.7372 58.6712 74.633 58.8461 74.633 59.0693C74.633 59.2405 74.6813 59.3819 74.7781 59.4936C74.8749 59.6052 75.0349 59.7169 75.2582 59.8285C75.4889 59.9402 75.794 60.0667 76.1736 60.2081C76.5532 60.3495 76.877 60.4946 77.1449 60.6435C77.4129 60.7924 77.6175 60.9747 77.7589 61.1905C77.9004 61.3989 77.9711 61.6632 77.9711 61.9832ZM75.2917 56.87C75.1949 56.7062 75.0646 56.5239 74.9009 56.3229C74.7372 56.122 74.566 55.9248 74.3874 55.7312C74.2087 55.5377 74.0524 55.3703 73.9185 55.2288V55.0837H74.5883C74.7818 55.2102 74.9828 55.3628 75.1912 55.5415C75.3996 55.7201 75.5968 55.9099 75.7829 56.1108C75.9838 55.9099 76.1885 55.7201 76.3969 55.5415C76.6053 55.3628 76.8063 55.2102 76.9998 55.0837H77.692V55.2288C77.5505 55.3703 77.3868 55.5377 77.2007 55.7312C77.0221 55.9248 76.8472 56.122 76.676 56.3229C76.5123 56.5239 76.3857 56.7062 76.2964 56.87H75.2917Z" fill="#1E1E1E"/>
<path d="M80.1427 63.6355H79.1602V57.6515H80.1427V63.6355ZM81.2256 55.0837V55.1954C81.1289 55.3293 80.9874 55.5042 80.8014 55.7201C80.6227 55.9285 80.4255 56.1406 80.2097 56.3564C80.0013 56.5648 79.8078 56.736 79.6291 56.87H78.9816V56.736C79.0858 56.6021 79.2049 56.4383 79.3389 56.2448C79.4728 56.0438 79.6031 55.8429 79.7296 55.6419C79.8561 55.4335 79.9603 55.2475 80.0422 55.0837H81.2256Z" fill="#1E1E1E"/>
<path d="M88.3213 61.9832C88.3213 62.5637 88.1055 63.0029 87.6738 63.3006C87.2421 63.5983 86.6616 63.7472 85.9322 63.7472C85.5154 63.7472 85.1544 63.7137 84.8493 63.6467C84.5516 63.5797 84.2873 63.4867 84.0566 63.3676V62.4744C84.2948 62.5935 84.5813 62.7052 84.9163 62.8094C85.2586 62.9061 85.6047 62.9545 85.9545 62.9545C86.4532 62.9545 86.8142 62.8763 87.0375 62.72C87.2607 62.5563 87.3724 62.3405 87.3724 62.0725C87.3724 61.9237 87.3315 61.7897 87.2496 61.6706C87.1677 61.5515 87.0189 61.4324 86.803 61.3134C86.5946 61.1943 86.2932 61.0603 85.8987 60.9114C85.5117 60.7626 85.1805 60.6137 84.9051 60.4649C84.6297 60.316 84.4176 60.1374 84.2687 59.929C84.1199 59.7206 84.0454 59.4526 84.0454 59.1252C84.0454 58.6191 84.2501 58.2283 84.6595 57.9529C85.0763 57.6775 85.6196 57.5398 86.2895 57.5398C86.6542 57.5398 86.9928 57.5771 87.3054 57.6515C87.6254 57.7259 87.9232 57.8227 88.1985 57.9418L87.8636 58.7233C87.6105 58.6191 87.3463 58.5297 87.0709 58.4553C86.7956 58.3809 86.5127 58.3437 86.2225 58.3437C85.8206 58.3437 85.5117 58.4107 85.2958 58.5446C85.0874 58.6712 84.9832 58.8461 84.9832 59.0693C84.9832 59.2405 85.0316 59.3819 85.1284 59.4936C85.2251 59.6052 85.3852 59.7169 85.6084 59.8285C85.8392 59.9402 86.1443 60.0667 86.5239 60.2081C86.9035 60.3495 87.2273 60.4946 87.4952 60.6435C87.7631 60.7924 87.9678 60.9747 88.1092 61.1905C88.2506 61.3989 88.3213 61.6632 88.3213 61.9832Z" fill="#1E1E1E"/>
<path d="M92.3574 57.5398C93.0942 57.5398 93.6859 57.7966 94.1325 58.3102C94.5865 58.8237 94.8135 59.5978 94.8135 60.6323C94.8135 61.652 94.5865 62.4261 94.1325 62.9545C93.6859 63.4829 93.0905 63.7472 92.3462 63.7472C91.8848 63.7472 91.5015 63.6616 91.1963 63.4904C90.8986 63.3192 90.6641 63.1145 90.493 62.8763H90.426C90.4334 63.0029 90.4446 63.1629 90.4595 63.3564C90.4818 63.5499 90.493 63.7174 90.493 63.8588V66.3149H89.5105V57.6515H90.3143L90.4483 58.4665H90.493C90.6716 58.206 90.906 57.9864 91.1963 57.8078C91.4866 57.6292 91.8736 57.5398 92.3574 57.5398ZM92.1788 58.366C91.5684 58.366 91.1368 58.5372 90.8837 58.8796C90.6307 59.2219 90.5004 59.7429 90.493 60.4425V60.6323C90.493 61.3692 90.6121 61.9385 90.8502 62.3405C91.0958 62.7349 91.5461 62.9322 92.2011 62.9322C92.5583 62.9322 92.8561 62.8354 93.0942 62.6419C93.3324 62.4409 93.5073 62.1656 93.6189 61.8157C93.738 61.4659 93.7976 61.0677 93.7976 60.6212C93.7976 59.9364 93.6636 59.3894 93.3957 58.98C93.1352 58.5707 92.7295 58.366 92.1788 58.366Z" fill="#1E1E1E"/>
<path d="M101.325 60.6323C101.325 61.6222 101.072 62.3888 100.566 62.9322C100.067 63.4755 99.3897 63.7472 98.5338 63.7472C98.0054 63.7472 97.5328 63.6281 97.116 63.3899C96.7066 63.1443 96.3828 62.7907 96.1447 62.3293C95.9065 61.8604 95.7874 61.2947 95.7874 60.6323C95.7874 59.6424 96.033 58.8796 96.5243 58.3437C97.0229 57.8078 97.7039 57.5398 98.5673 57.5398C99.1032 57.5398 99.5795 57.6627 99.9963 57.9083C100.413 58.1464 100.737 58.4962 100.968 58.9577C101.206 59.4117 101.325 59.9699 101.325 60.6323ZM96.8034 60.6323C96.8034 61.3394 96.9411 61.9013 97.2164 62.3181C97.4993 62.7275 97.9458 62.9322 98.5561 62.9322C99.159 62.9322 99.6019 62.7275 99.8847 62.3181C100.168 61.9013 100.309 61.3394 100.309 60.6323C100.309 59.9253 100.168 59.3708 99.8847 58.9689C99.6019 58.567 99.1553 58.366 98.545 58.366C97.9347 58.366 97.4918 58.567 97.2164 58.9689C96.9411 59.3708 96.8034 59.9253 96.8034 60.6323Z" fill="#1E1E1E"/>
<path d="M103.608 63.6355H102.625V55.1507H103.608V63.6355Z" fill="#1E1E1E"/>
<path d="M110.248 57.6515V63.6355H109.444L109.299 62.8428H109.255C109.061 63.1554 108.793 63.3862 108.451 63.535C108.108 63.6764 107.744 63.7472 107.357 63.7472C106.635 63.7472 106.091 63.576 105.727 63.2336C105.362 62.8838 105.18 62.3293 105.18 61.5701V57.6515H106.173V61.5031C106.173 62.4558 106.616 62.9322 107.502 62.9322C108.164 62.9322 108.622 62.7461 108.875 62.374C109.136 62.0018 109.266 61.4659 109.266 60.7663V57.6515H110.248Z" fill="#1E1E1E"/>
<path d="M114.738 57.5398C115.475 57.5398 116.067 57.7966 116.513 58.3102C116.967 58.8237 117.194 59.5978 117.194 60.6323C117.194 61.652 116.967 62.4261 116.513 62.9545C116.067 63.4829 115.471 63.7472 114.727 63.7472C114.265 63.7472 113.882 63.6616 113.577 63.4904C113.279 63.3192 113.045 63.1145 112.874 62.8763H112.807C112.814 63.0029 112.825 63.1629 112.84 63.3564C112.862 63.5499 112.874 63.7174 112.874 63.8588V66.3149H111.891V57.6515H112.695L112.829 58.4665H112.874C113.052 58.206 113.287 57.9864 113.577 57.8078C113.867 57.6292 114.254 57.5398 114.738 57.5398ZM114.559 58.366C113.949 58.366 113.517 58.5372 113.264 58.8796C113.011 59.2219 112.881 59.7429 112.874 60.4425V60.6323C112.874 61.3692 112.993 61.9385 113.231 62.3405C113.477 62.7349 113.927 62.9322 114.582 62.9322C114.939 62.9322 115.237 62.8354 115.475 62.6419C115.713 62.4409 115.888 62.1656 116 61.8157C116.119 61.4659 116.178 61.0677 116.178 60.6212C116.178 59.9364 116.044 59.3894 115.776 58.98C115.516 58.5707 115.11 58.366 114.559 58.366Z" fill="#1E1E1E"/>
<path d="M121.294 57.5398C121.406 57.5398 121.525 57.5473 121.651 57.5622C121.778 57.5696 121.893 57.5845 121.997 57.6068L121.875 58.5111C121.778 58.4888 121.67 58.4702 121.551 58.4553C121.432 58.4404 121.324 58.433 121.227 58.433C120.922 58.433 120.635 58.5186 120.367 58.6898C120.1 58.8535 119.884 59.0879 119.72 59.3931C119.564 59.6908 119.485 60.0406 119.485 60.4425V63.6355H118.503V57.6515H119.307L119.419 58.7456H119.463C119.649 58.4181 119.895 58.1353 120.2 57.8971C120.513 57.6589 120.877 57.5398 121.294 57.5398Z" fill="#1E1E1E"/>
<path d="M124.906 57.551C125.636 57.551 126.175 57.711 126.525 58.0311C126.875 58.3511 127.05 58.8609 127.05 59.5606V63.6355H126.335L126.146 62.787H126.101C125.84 63.1145 125.565 63.3564 125.275 63.5127C124.984 63.669 124.59 63.7472 124.091 63.7472C123.548 63.7472 123.098 63.6057 122.74 63.3229C122.383 63.0326 122.205 62.5824 122.205 61.972C122.205 61.3766 122.439 60.9189 122.908 60.5988C123.377 60.2714 124.099 60.0927 125.074 60.063L126.09 60.0295V59.6722C126.09 59.1735 125.982 58.8275 125.766 58.6339C125.55 58.4404 125.245 58.3437 124.851 58.3437C124.538 58.3437 124.24 58.392 123.957 58.4888C123.675 58.5781 123.41 58.6823 123.165 58.8014L122.863 58.0646C123.124 57.9231 123.433 57.8041 123.79 57.7073C124.147 57.6031 124.519 57.551 124.906 57.551ZM126.079 60.7105L125.197 60.744C124.452 60.7737 123.935 60.8928 123.645 61.1012C123.362 61.3096 123.221 61.6036 123.221 61.9832C123.221 62.3181 123.321 62.5637 123.522 62.72C123.73 62.8763 123.995 62.9545 124.315 62.9545C124.813 62.9545 125.23 62.8168 125.565 62.5414C125.907 62.2586 126.079 61.8269 126.079 61.2464V60.7105ZM126.402 55.0837V55.1954C126.306 55.3293 126.164 55.5042 125.978 55.7201C125.799 55.9285 125.602 56.1406 125.386 56.3564C125.178 56.5648 124.984 56.736 124.806 56.87H124.158V56.736C124.263 56.6021 124.382 56.4383 124.516 56.2448C124.65 56.0438 124.78 55.8429 124.906 55.6419C125.033 55.4335 125.137 55.2475 125.219 55.0837H126.402Z" fill="#1E1E1E"/>
<path d="M131.042 63.7472C130.506 63.7472 130.033 63.6392 129.624 63.4234C129.214 63.2075 128.891 62.8726 128.652 62.4186C128.422 61.9646 128.306 61.3841 128.306 60.677C128.306 59.9402 128.425 59.341 128.664 58.8796C128.909 58.4181 129.244 58.0794 129.668 57.8636C130.093 57.6478 130.573 57.5398 131.109 57.5398C131.406 57.5398 131.697 57.5733 131.979 57.6403C132.27 57.6999 132.504 57.7743 132.683 57.8636L132.381 58.6786C132.203 58.6116 131.994 58.5483 131.756 58.4888C131.518 58.4293 131.295 58.3995 131.086 58.3995C129.91 58.3995 129.322 59.1549 129.322 60.6658C129.322 61.3878 129.464 61.9423 129.747 62.3293C130.037 62.7089 130.465 62.8987 131.03 62.8987C131.35 62.8987 131.637 62.8652 131.89 62.7982C132.143 62.7312 132.374 62.6493 132.582 62.5526V63.4234C132.381 63.5276 132.158 63.6057 131.912 63.6578C131.674 63.7174 131.384 63.7472 131.042 63.7472Z" fill="#1E1E1E"/>
<path d="M134.251 55.4075C134.4 55.4075 134.53 55.4596 134.642 55.5638C134.761 55.6605 134.82 55.8168 134.82 56.0327C134.82 56.2485 134.761 56.4085 134.642 56.5127C134.53 56.6095 134.4 56.6579 134.251 56.6579C134.087 56.6579 133.95 56.6095 133.838 56.5127C133.726 56.4085 133.67 56.2485 133.67 56.0327C133.67 55.8168 133.726 55.6605 133.838 55.5638C133.95 55.4596 134.087 55.4075 134.251 55.4075ZM134.731 57.6515V63.6355H133.749V57.6515H134.731Z" fill="#1E1E1E"/>
<path d="M18.2427 74.2639C18.2427 74.8444 18.0269 75.2835 17.5952 75.5812C17.1635 75.8789 16.583 76.0278 15.8536 76.0278C15.4368 76.0278 15.0758 75.9943 14.7707 75.9273C14.4729 75.8603 14.2087 75.7673 13.978 75.6482V74.7551C14.2162 74.8742 14.5027 74.9858 14.8376 75.09C15.18 75.1868 15.5261 75.2351 15.8759 75.2351C16.3746 75.2351 16.7356 75.157 16.9588 75.0007C17.1821 74.8369 17.2938 74.6211 17.2938 74.3532C17.2938 74.2043 17.2528 74.0703 17.171 73.9512C17.0891 73.8322 16.9402 73.7131 16.7244 73.594C16.516 73.4749 16.2146 73.3409 15.8201 73.1921C15.4331 73.0432 15.1019 72.8944 14.8265 72.7455C14.5511 72.5967 14.339 72.418 14.1901 72.2096C14.0413 72.0012 13.9668 71.7333 13.9668 71.4058C13.9668 70.8997 14.1715 70.5089 14.5809 70.2336C14.9977 69.9582 15.541 69.8205 16.2108 69.8205C16.5755 69.8205 16.9142 69.8577 17.2268 69.9321C17.5468 70.0066 17.8445 70.1033 18.1199 70.2224L17.785 71.0039C17.5319 70.8997 17.2677 70.8104 16.9923 70.736C16.717 70.6615 16.4341 70.6243 16.1439 70.6243C15.7419 70.6243 15.4331 70.6913 15.2172 70.8253C15.0088 70.9518 14.9046 71.1267 14.9046 71.35C14.9046 71.5212 14.953 71.6626 15.0498 71.7742C15.1465 71.8859 15.3065 71.9975 15.5298 72.1092C15.7606 72.2208 16.0657 72.3473 16.4453 72.4887C16.8249 72.6302 17.1486 72.7753 17.4166 72.9241C17.6845 73.073 17.8892 73.2553 18.0306 73.4712C18.172 73.6796 18.2427 73.9438 18.2427 74.2639Z" fill="#1E1E1E"/>
<path d="M22.2092 67.9449H24.4867C25.4766 67.9449 26.2283 68.0938 26.7418 68.3915C27.2554 68.6892 27.5122 69.199 27.5122 69.921C27.5122 70.3899 27.3819 70.7806 27.1214 71.0932C26.8609 71.3984 26.4851 71.5956 25.9938 71.6849V71.7407C26.3288 71.8003 26.6302 71.9008 26.8981 72.0422C27.1735 72.1836 27.3894 72.3845 27.5457 72.645C27.702 72.9055 27.7801 73.2405 27.7801 73.6498C27.7801 74.3718 27.5308 74.93 27.0321 75.3244C26.5409 75.7189 25.8673 75.9162 25.0114 75.9162H22.2092V67.9449ZM23.214 71.3388H24.6876C25.3649 71.3388 25.8301 71.2309 26.0832 71.0151C26.3437 70.7918 26.4739 70.4643 26.4739 70.0326C26.4739 69.5935 26.3176 69.2809 26.005 69.0948C25.6999 68.9013 25.2086 68.8045 24.5313 68.8045H23.214V71.3388ZM23.214 72.1761V75.0677H24.8216C25.5287 75.0677 26.0199 74.93 26.2953 74.6546C26.5707 74.3792 26.7084 74.0182 26.7084 73.5717C26.7084 73.1549 26.5632 72.8199 26.273 72.5669C25.9901 72.3064 25.4803 72.1761 24.7435 72.1761H23.214Z" fill="#1E1E1E"/>
<path d="M31.8706 69.8205C31.9822 69.8205 32.1013 69.8279 32.2278 69.8428C32.3544 69.8503 32.4697 69.8651 32.5739 69.8875L32.4511 70.7918C32.3544 70.7694 32.2465 70.7508 32.1274 70.736C32.0083 70.7211 31.9004 70.7136 31.8036 70.7136C31.4984 70.7136 31.2119 70.7992 30.944 70.9704C30.676 71.1341 30.4602 71.3686 30.2964 71.6737C30.1401 71.9715 30.062 72.3213 30.062 72.7232V75.9162H29.0795V69.9321H29.8834L29.995 71.0262H30.0397C30.2257 70.6987 30.4713 70.4159 30.7765 70.1777C31.0891 69.9396 31.4538 69.8205 31.8706 69.8205Z" fill="#1E1E1E"/>
<path d="M38.419 72.913C38.419 73.9029 38.166 74.6695 37.6598 75.2128C37.1612 75.7561 36.4839 76.0278 35.628 76.0278C35.0995 76.0278 34.6269 75.9087 34.2101 75.6705C33.8007 75.4249 33.477 75.0714 33.2388 74.6099C33.0006 74.141 32.8816 73.5754 32.8816 72.913C32.8816 71.9231 33.1272 71.1602 33.6184 70.6243C34.1171 70.0884 34.7981 69.8205 35.6615 69.8205C36.1973 69.8205 36.6737 69.9433 37.0905 70.1889C37.5073 70.4271 37.831 70.7769 38.0618 71.2383C38.2999 71.6924 38.419 72.2506 38.419 72.913ZM33.8975 72.913C33.8975 73.62 34.0352 74.182 34.3106 74.5988C34.5934 75.0081 35.04 75.2128 35.6503 75.2128C36.2532 75.2128 36.696 75.0081 36.9788 74.5988C37.2617 74.182 37.4031 73.62 37.4031 72.913C37.4031 72.2059 37.2617 71.6514 36.9788 71.2495C36.696 70.8476 36.2494 70.6466 35.6391 70.6466C35.0288 70.6466 34.586 70.8476 34.3106 71.2495C34.0352 71.6514 33.8975 72.2059 33.8975 72.913Z" fill="#1E1E1E"/>
<path d="M40.6906 67.4313V71.8635C40.6906 71.9826 40.6831 72.1389 40.6683 72.3324C40.6608 72.5259 40.6534 72.6934 40.6459 72.8348H40.6906C40.7352 72.7753 40.8022 72.6897 40.8915 72.578C40.9809 72.4664 41.0702 72.3548 41.1595 72.2431C41.2562 72.124 41.3381 72.0273 41.4051 71.9529L43.3142 69.9321H44.4641L42.0415 72.4887L44.6316 75.9162H43.4481L41.3716 73.1251L40.6906 73.7168V75.9162H39.7193V67.4313H40.6906Z" fill="#1E1E1E"/>
<path d="M47.7372 69.8205C48.2433 69.8205 48.6825 69.9321 49.0546 70.1554C49.4267 70.3787 49.7096 70.695 49.9031 71.1044C50.104 71.5063 50.2045 71.9789 50.2045 72.5222V73.1139H46.1072C46.1221 73.7912 46.2933 74.3085 46.6208 74.6658C46.9557 75.0156 47.4209 75.1905 48.0163 75.1905C48.3959 75.1905 48.7308 75.157 49.0211 75.09C49.3188 75.0156 49.624 74.9114 49.9366 74.7774V75.6371C49.6314 75.771 49.33 75.8678 49.0323 75.9273C48.7346 75.9943 48.381 76.0278 47.9717 76.0278C47.3986 76.0278 46.8962 75.9124 46.4645 75.6817C46.0328 75.451 45.6942 75.1086 45.4486 74.6546C45.2104 74.2006 45.0913 73.6387 45.0913 72.9688C45.0913 72.3138 45.1992 71.7519 45.4151 71.283C45.6383 70.8141 45.9472 70.4531 46.3417 70.2001C46.7436 69.947 47.2088 69.8205 47.7372 69.8205ZM47.7261 70.6243C47.2572 70.6243 46.885 70.7769 46.6096 71.082C46.3417 71.3798 46.1817 71.7966 46.1296 72.3324H49.1774C49.17 71.8263 49.0509 71.417 48.8201 71.1044C48.5894 70.7843 48.2247 70.6243 47.7261 70.6243Z" fill="#1E1E1E"/>
<path d="M54.2622 69.8205C54.3738 69.8205 54.4929 69.8279 54.6194 69.8428C54.746 69.8503 54.8613 69.8651 54.9655 69.8875L54.8427 70.7918C54.746 70.7694 54.638 70.7508 54.519 70.736C54.3999 70.7211 54.292 70.7136 54.1952 70.7136C53.89 70.7136 53.6035 70.7992 53.3355 70.9704C53.0676 71.1341 52.8518 71.3686 52.688 71.6737C52.5317 71.9715 52.4536 72.3213 52.4536 72.7232V75.9162H51.4711V69.9321H52.2749L52.3866 71.0262H52.4312C52.6173 70.6987 52.8629 70.4159 53.1681 70.1777C53.4807 69.9396 53.8454 69.8205 54.2622 69.8205Z" fill="#1E1E1E"/>
<path d="M62.0197 68.7152C61.1637 68.7152 60.4902 69.0018 59.9989 69.5749C59.5077 70.148 59.2621 70.9332 59.2621 71.9305C59.2621 72.9204 59.4891 73.7056 59.9431 74.2862C60.4046 74.8593 61.093 75.1458 62.0085 75.1458C62.3509 75.1458 62.6783 75.1161 62.9909 75.0565C63.3035 74.997 63.6124 74.9225 63.9176 74.8332V75.704C63.6199 75.8157 63.311 75.8975 62.9909 75.9496C62.6783 76.0017 62.3025 76.0278 61.8634 76.0278C61.0521 76.0278 60.3748 75.8603 59.8315 75.5254C59.2881 75.1905 58.8788 74.7141 58.6034 74.0964C58.3355 73.4786 58.2015 72.753 58.2015 71.9194C58.2015 71.1155 58.3466 70.4085 58.6369 69.7982C58.9346 69.1804 59.37 68.7003 59.9431 68.358C60.5162 68.0082 61.2121 67.8333 62.0308 67.8333C62.8719 67.8333 63.605 67.9896 64.2302 68.3022L63.8283 69.1506C63.5827 69.039 63.3073 68.9385 63.0021 68.8492C62.7044 68.7599 62.3769 68.7152 62.0197 68.7152Z" fill="#1E1E1E"/>
<path d="M70.4691 72.913C70.4691 73.9029 70.2161 74.6695 69.71 75.2128C69.2113 75.7561 68.534 76.0278 67.6781 76.0278C67.1497 76.0278 66.677 75.9087 66.2602 75.6705C65.8509 75.4249 65.5271 75.0714 65.2889 74.6099C65.0508 74.141 64.9317 73.5754 64.9317 72.913C64.9317 71.9231 65.1773 71.1602 65.6685 70.6243C66.1672 70.0884 66.8482 69.8205 67.7116 69.8205C68.2475 69.8205 68.7238 69.9433 69.1406 70.1889C69.5574 70.4271 69.8812 70.7769 70.1119 71.2383C70.3501 71.6924 70.4691 72.2506 70.4691 72.913ZM65.9476 72.913C65.9476 73.62 66.0853 74.182 66.3607 74.5988C66.6435 75.0081 67.0901 75.2128 67.7004 75.2128C68.3033 75.2128 68.7461 75.0081 69.029 74.5988C69.3118 74.182 69.4532 73.62 69.4532 72.913C69.4532 72.2059 69.3118 71.6514 69.029 71.2495C68.7461 70.8476 68.2996 70.6466 67.6893 70.6466C67.0789 70.6466 66.6361 70.8476 66.3607 71.2495C66.0853 71.6514 65.9476 72.2059 65.9476 72.913Z" fill="#1E1E1E"/>
<path d="M74.6498 69.8205C75.3643 69.8205 75.9039 69.9954 76.2686 70.3452C76.6333 70.695 76.8157 71.2532 76.8157 72.0198V75.9162H75.8444V72.0868C75.8444 71.1267 75.3978 70.6466 74.5047 70.6466C73.8423 70.6466 73.3845 70.8327 73.1315 71.2049C72.8784 71.577 72.7519 72.1129 72.7519 72.8125V75.9162H71.7694V69.9321H72.5621L72.7072 70.7471H72.763C72.9566 70.4345 73.2245 70.2038 73.5669 70.0549C73.9092 69.8986 74.2702 69.8205 74.6498 69.8205Z" fill="#1E1E1E"/>
<path d="M82.3103 74.2639C82.3103 74.8444 82.0944 75.2835 81.6628 75.5812C81.2311 75.8789 80.6505 76.0278 79.9211 76.0278C79.5043 76.0278 79.1434 75.9943 78.8382 75.9273C78.5405 75.8603 78.2763 75.7673 78.0456 75.6482V74.7551C78.2837 74.8742 78.5703 74.9858 78.9052 75.09C79.2476 75.1868 79.5937 75.2351 79.9435 75.2351C80.4421 75.2351 80.8031 75.157 81.0264 75.0007C81.2497 74.8369 81.3613 74.6211 81.3613 74.3532C81.3613 74.2043 81.3204 74.0703 81.2385 73.9512C81.1567 73.8322 81.0078 73.7131 80.792 73.594C80.5835 73.4749 80.2821 73.3409 79.8876 73.1921C79.5006 73.0432 79.1694 72.8944 78.894 72.7455C78.6186 72.5967 78.4065 72.418 78.2577 72.2096C78.1088 72.0012 78.0344 71.7333 78.0344 71.4058C78.0344 70.8997 78.2391 70.5089 78.6484 70.2336C79.0652 69.9582 79.6085 69.8205 80.2784 69.8205C80.6431 69.8205 80.9817 69.8577 81.2943 69.9321C81.6144 70.0066 81.9121 70.1033 82.1875 70.2224L81.8526 71.0039C81.5995 70.8997 81.3353 70.8104 81.0599 70.736C80.7845 70.6615 80.5017 70.6243 80.2114 70.6243C79.8095 70.6243 79.5006 70.6913 79.2848 70.8253C79.0764 70.9518 78.9722 71.1267 78.9722 71.35C78.9722 71.5212 79.0206 71.6626 79.1173 71.7742C79.2141 71.8859 79.3741 71.9975 79.5974 72.1092C79.8281 72.2208 80.1333 72.3473 80.5128 72.4887C80.8924 72.6302 81.2162 72.7753 81.4841 72.9241C81.7521 73.073 81.9568 73.2553 82.0982 73.4712C82.2396 73.6796 82.3103 73.9438 82.3103 74.2639Z" fill="#1E1E1E"/>
<path d="M88.501 69.9321V75.9162H87.6972L87.5521 75.1235H87.5074C87.3139 75.4361 87.0459 75.6668 86.7036 75.8157C86.3612 75.9571 85.9965 76.0278 85.6095 76.0278C84.8875 76.0278 84.3442 75.8566 83.9795 75.5142C83.6148 75.1644 83.4325 74.6099 83.4325 73.8508V69.9321H84.4261V73.7838C84.4261 74.7365 84.8689 75.2128 85.7546 75.2128C86.417 75.2128 86.8748 75.0267 87.1278 74.6546C87.3883 74.2825 87.5186 73.7466 87.5186 73.047V69.9321H88.501Z" fill="#1E1E1E"/>
<path d="M91.1264 75.9162H90.144V67.4313H91.1264V75.9162Z" fill="#1E1E1E"/>
<path d="M94.7639 75.224C94.9128 75.224 95.0653 75.2128 95.2216 75.1905C95.3779 75.1682 95.5044 75.1384 95.6012 75.1012V75.8492C95.497 75.9013 95.3482 75.9422 95.1546 75.972C94.9611 76.0092 94.7751 76.0278 94.5964 76.0278C94.2838 76.0278 93.9936 75.9757 93.7256 75.8715C93.4651 75.7599 93.253 75.5701 93.0893 75.3021C92.9255 75.0342 92.8436 74.6583 92.8436 74.1745V70.6913H91.9952V70.2224L92.8548 69.8317L93.2456 68.5589H93.8261V69.9321H95.5565V70.6913H93.8261V74.1522C93.8261 74.5169 93.9117 74.7886 94.0829 74.9672C94.2615 75.1384 94.4885 75.224 94.7639 75.224Z" fill="#1E1E1E"/>
<path d="M97.0451 67.6881C97.1939 67.6881 97.3242 67.7402 97.4358 67.8444C97.5549 67.9412 97.6144 68.0975 97.6144 68.3133C97.6144 68.5292 97.5549 68.6892 97.4358 68.7934C97.3242 68.8901 97.1939 68.9385 97.0451 68.9385C96.8813 68.9385 96.7436 68.8901 96.632 68.7934C96.5203 68.6892 96.4645 68.5292 96.4645 68.3133C96.4645 68.0975 96.5203 67.9412 96.632 67.8444C96.7436 67.7402 96.8813 67.6881 97.0451 67.6881ZM97.5251 69.9321V75.9162H96.5427V69.9321H97.5251Z" fill="#1E1E1E"/>
<path d="M102.045 69.8205C102.759 69.8205 103.299 69.9954 103.663 70.3452C104.028 70.695 104.21 71.2532 104.21 72.0198V75.9162H103.239V72.0868C103.239 71.1267 102.793 70.6466 101.899 70.6466C101.237 70.6466 100.779 70.8327 100.526 71.2049C100.273 71.577 100.147 72.1129 100.147 72.8125V75.9162H99.1642V69.9321H99.9568L100.102 70.7471H100.158C100.351 70.4345 100.619 70.2038 100.962 70.0549C101.304 69.8986 101.665 69.8205 102.045 69.8205Z" fill="#1E1E1E"/>
<path d="M107.93 69.8205C108.324 69.8205 108.678 69.8949 108.991 70.0438C109.311 70.1926 109.582 70.4196 109.805 70.7248H109.861L109.995 69.9321H110.777V76.0166C110.777 76.8726 110.557 77.5164 110.118 77.948C109.686 78.3797 109.013 78.5956 108.097 78.5956C107.219 78.5956 106.501 78.469 105.943 78.216V77.3117C106.531 77.6243 107.267 77.7806 108.153 77.7806C108.667 77.7806 109.069 77.628 109.359 77.3228C109.657 77.0251 109.805 76.6158 109.805 76.0948V75.8603C109.805 75.771 109.809 75.6445 109.817 75.4808C109.824 75.3096 109.832 75.1905 109.839 75.1235H109.794C109.392 75.7264 108.775 76.0278 107.941 76.0278C107.167 76.0278 106.56 75.7561 106.121 75.2128C105.69 74.6695 105.474 73.9103 105.474 72.9353C105.474 71.9826 105.69 71.2272 106.121 70.669C106.56 70.1033 107.163 69.8205 107.93 69.8205ZM108.064 70.6466C107.565 70.6466 107.178 70.8476 106.903 71.2495C106.627 71.644 106.49 72.2096 106.49 72.9465C106.49 73.6833 106.624 74.249 106.892 74.6434C107.16 75.0305 107.558 75.224 108.086 75.224C108.689 75.224 109.128 75.0639 109.404 74.7439C109.679 74.4164 109.817 73.8917 109.817 73.1698V72.9353C109.817 72.124 109.675 71.5398 109.392 71.1825C109.11 70.8253 108.667 70.6466 108.064 70.6466Z" fill="#1E1E1E"/>
<path d="M112.275 75.3133C112.275 75.0379 112.342 74.8444 112.476 74.7327C112.61 74.6211 112.77 74.5653 112.956 74.5653C113.142 74.5653 113.306 74.6211 113.448 74.7327C113.589 74.8444 113.66 75.0379 113.66 75.3133C113.66 75.5812 113.589 75.7747 113.448 75.8938C113.306 76.0129 113.142 76.0725 112.956 76.0725C112.77 76.0725 112.61 76.0129 112.476 75.8938C112.342 75.7747 112.275 75.5812 112.275 75.3133Z" fill="#1E1E1E"/>
</svg>
