<svg width="149" height="127" viewBox="0 0 149 127" fill="none" xmlns="http://www.w3.org/2000/svg">
<rect width="149.003" height="126.238" rx="20" fill="#F2F2F2"/>
<path d="M12.0712 20.1128V20.3876C12.0712 20.6167 11.9874 20.8113 11.8197 20.9717C11.6521 21.132 11.4485 21.2122 11.209 21.2122C10.9694 21.2122 10.7658 21.132 10.5982 20.9717C10.4305 20.8113 10.3467 20.6167 10.3467 20.3876V16.4572C10.3467 16.3931 10.3515 16.3289 10.3611 16.2648C10.3706 16.2007 10.385 16.1411 10.4042 16.0862L11.482 13.159C11.5587 12.9391 11.6976 12.7604 11.8988 12.623C12.1 12.4856 12.3251 12.4169 12.5742 12.4169H18.4665C18.7156 12.4169 18.9408 12.4856 19.142 12.623C19.3432 12.7604 19.4821 12.9391 19.5588 13.159L20.6366 16.0862C20.6558 16.1411 20.6701 16.2007 20.6797 16.2648C20.6893 16.3289 20.6941 16.3931 20.6941 16.4572V20.3876C20.6941 20.6167 20.6103 20.8113 20.4426 20.9717C20.2749 21.132 20.0713 21.2122 19.8318 21.2122C19.5923 21.2122 19.3887 21.132 19.221 20.9717C19.0534 20.8113 18.9695 20.6167 18.9695 20.3876V20.1128H12.0712ZM11.9563 15.1654H19.0845L18.4809 13.5163H12.5599L11.9563 15.1654ZM12.9335 18.4636C13.1731 18.4636 13.3767 18.3835 13.5443 18.2231C13.712 18.0628 13.7958 17.8681 13.7958 17.6391C13.7958 17.41 13.712 17.2153 13.5443 17.055C13.3767 16.8947 13.1731 16.8145 12.9335 16.8145C12.694 16.8145 12.4904 16.8947 12.3227 17.055C12.1551 17.2153 12.0712 17.41 12.0712 17.6391C12.0712 17.8681 12.1551 18.0628 12.3227 18.2231C12.4904 18.3835 12.694 18.4636 12.9335 18.4636ZM18.1072 18.4636C18.3468 18.4636 18.5504 18.3835 18.718 18.2231C18.8857 18.0628 18.9695 17.8681 18.9695 17.6391C18.9695 17.41 18.8857 17.2153 18.718 17.055C18.5504 16.8947 18.3468 16.8145 18.1072 16.8145C17.8677 16.8145 17.6641 16.8947 17.4965 17.055C17.3288 17.2153 17.245 17.41 17.245 17.6391C17.245 17.8681 17.3288 18.0628 17.4965 18.2231C17.6641 18.3835 17.8677 18.4636 18.1072 18.4636Z" fill="#4498EC"/>
<line x1="10.3467" y1="52.7898" x2="138.655" y2="52.7898" stroke="#DDDDDD"/>
<rect x="7.7605" y="88.9878" width="133.482" height="25.8685" rx="12.9343" fill="url(#paint0_linear_5168_6666)"/>
<path d="M16.0192 66.5487C16.0192 67.1229 15.9234 67.6248 15.732 68.0542C15.5458 68.4785 15.2586 68.8096 14.8706 69.0476C14.4826 69.2856 13.9962 69.4046 13.4116 69.4046C12.8166 69.4046 12.3277 69.2856 11.9449 69.0476C11.562 68.8096 11.2749 68.4759 11.0834 68.0465C10.8972 67.617 10.8041 67.1152 10.8041 66.5409C10.8041 65.9718 10.8972 65.4751 11.0834 65.0509C11.2749 64.6215 11.562 64.2903 11.9449 64.0575C12.3329 63.8195 12.8244 63.7005 13.4194 63.7005C14.004 63.7005 14.4877 63.8195 14.8706 64.0575C15.2586 64.2903 15.5458 64.6215 15.732 65.0509C15.9234 65.4751 16.0192 65.9744 16.0192 66.5487ZM11.8517 66.5487C11.8517 67.1747 11.9759 67.6662 12.2242 68.0232C12.4778 68.3802 12.8735 68.5587 13.4116 68.5587C13.9652 68.5587 14.3636 68.3802 14.6067 68.0232C14.8499 67.6662 14.9715 67.1747 14.9715 66.5487C14.9715 65.9226 14.8499 65.4311 14.6067 65.0742C14.3636 64.7172 13.9678 64.5387 13.4194 64.5387C12.8761 64.5387 12.4778 64.7172 12.2242 65.0742C11.9759 65.4311 11.8517 65.9226 11.8517 66.5487Z" fill="#1E1E1E"/>
<path d="M19.8687 69.3269H16.6403V68.7294L18.7046 65.8657H16.7567V65.1207H19.8066V65.7804L17.7811 68.5742H19.8687V69.3269Z" fill="#1E1E1E"/>
<path d="M22.9221 65.0431C23.3929 65.0431 23.7602 65.1647 24.0241 65.4079C24.2931 65.651 24.4276 66.0442 24.4276 66.5875V69.3269H23.4498V66.7815C23.4498 66.4659 23.3877 66.2305 23.2635 66.0753C23.1394 65.9149 22.9428 65.8347 22.6737 65.8347C22.2805 65.8347 22.0115 65.9589 21.8666 66.2072C21.7218 66.4555 21.6493 66.8099 21.6493 67.2704V69.3269H20.6715V65.1207H21.4243L21.564 65.6717H21.6183C21.7528 65.4544 21.9365 65.2966 22.1693 65.1983C22.4073 65.0949 22.6582 65.0431 22.9221 65.0431Z" fill="#1E1E1E"/>
<path d="M27.2416 65.0431C27.7848 65.0431 28.1961 65.1621 28.4755 65.4001C28.7601 65.6381 28.9024 66.0054 28.9024 66.5021V69.3269H28.2117L28.0177 68.7449H27.9866C27.8055 68.9725 27.6141 69.1407 27.4123 69.2493C27.2106 69.3528 26.9363 69.4046 26.5897 69.4046C26.212 69.4046 25.899 69.2985 25.6507 69.0864C25.4023 68.8742 25.2782 68.5457 25.2782 68.1008C25.2782 67.6662 25.436 67.3402 25.7516 67.1229C26.0723 66.9057 26.5561 66.7841 27.2028 66.7582L27.9323 66.7349V66.5254C27.9323 66.2564 27.8676 66.0649 27.7383 65.9511C27.6089 65.8373 27.4278 65.7804 27.195 65.7804C26.9829 65.7804 26.7785 65.8114 26.5819 65.8735C26.3905 65.9304 26.1991 66.0028 26.0077 66.0908L25.6972 65.4079C25.9042 65.2992 26.1396 65.2113 26.4035 65.144C26.6725 65.0767 26.9519 65.0431 27.2416 65.0431ZM27.9323 67.3402L27.4201 67.3558C26.9907 67.3713 26.6932 67.4463 26.5276 67.5808C26.3621 67.7102 26.2793 67.8861 26.2793 68.1085C26.2793 68.3103 26.3362 68.4552 26.45 68.5431C26.569 68.6259 26.7242 68.6673 26.9157 68.6673C27.2002 68.6673 27.4408 68.5871 27.6374 68.4267C27.834 68.2612 27.9323 68.018 27.9323 67.6972V67.3402Z" fill="#1E1E1E"/>
<path d="M31.7419 69.4046C31.1417 69.4046 30.6657 69.2312 30.3139 68.8846C29.9673 68.538 29.794 67.9921 29.794 67.2471C29.794 66.7297 29.8793 66.3107 30.0501 65.9899C30.226 65.664 30.4666 65.426 30.7718 65.2759C31.0771 65.1207 31.4263 65.0431 31.8195 65.0431C32.0782 65.0431 32.311 65.069 32.5179 65.1207C32.73 65.1725 32.9085 65.2345 33.0534 65.307L32.7663 66.0753C32.6007 66.0132 32.4377 65.9615 32.2774 65.9201C32.117 65.8735 31.9643 65.8502 31.8195 65.8502C31.1365 65.8502 30.7951 66.3133 30.7951 67.2394C30.7951 67.6895 30.8804 68.0283 31.0512 68.256C31.2271 68.4836 31.478 68.5975 31.804 68.5975C32.0368 68.5975 32.2437 68.569 32.4248 68.5121C32.6111 68.4552 32.7844 68.3776 32.9448 68.2793V69.1252C32.7844 69.2235 32.6111 69.2933 32.4248 69.3347C32.2385 69.3813 32.0109 69.4046 31.7419 69.4046ZM31.0822 64.624C31.0098 64.5102 30.9167 64.3835 30.8028 64.2438C30.689 64.0989 30.57 63.9618 30.4459 63.8325C30.3217 63.698 30.213 63.5815 30.1199 63.4832V63.3824H30.7718C30.9063 63.4651 31.0486 63.566 31.1986 63.685C31.3487 63.7988 31.4909 63.9256 31.6255 64.0653C31.76 63.9256 31.9048 63.7988 32.0601 63.685C32.2204 63.566 32.3679 63.4651 32.5024 63.3824H33.1621V63.4832C33.0689 63.5815 32.9577 63.698 32.8284 63.8325C32.7042 63.9618 32.5826 64.0989 32.4636 64.2438C32.3498 64.3835 32.2592 64.5102 32.192 64.624H31.0822Z" fill="#1E1E1E"/>
<path d="M35.4745 68.6207C35.5935 68.6207 35.7099 68.6104 35.8237 68.5897C35.9427 68.5638 36.0514 68.5354 36.1497 68.5043V69.2338C36.0462 69.2856 35.9117 69.3269 35.7461 69.358C35.5806 69.389 35.4073 69.4046 35.2262 69.4046C34.983 69.4046 34.7631 69.3657 34.5665 69.2881C34.3751 69.2105 34.2225 69.0734 34.1087 68.8768C33.9948 68.6802 33.9379 68.4034 33.9379 68.0465V65.858H33.3714V65.4311L33.9923 65.0897L34.3027 64.1972H34.9158V65.1207H36.1109V65.858H34.9158V68.0387C34.9158 68.2353 34.9675 68.3827 35.071 68.481C35.1796 68.5742 35.3141 68.6207 35.4745 68.6207Z" fill="#1E1E1E"/>
<path d="M38.604 65.0431C39.1679 65.0431 39.6128 65.2113 39.9388 65.5476C40.2699 65.8838 40.4355 66.3521 40.4355 66.9522V67.4489H37.6572C37.6675 67.8317 37.7736 68.1292 37.9754 68.3414C38.1771 68.5483 38.4565 68.6518 38.8135 68.6518C39.0825 68.6518 39.3257 68.6259 39.543 68.5742C39.7603 68.5173 39.9828 68.4371 40.2104 68.3336V69.1174C40.0035 69.2157 39.7887 69.2881 39.5663 69.3347C39.3438 69.3813 39.0774 69.4046 38.7669 69.4046C38.353 69.4046 37.9883 69.3269 37.6727 69.1717C37.3571 69.0113 37.1088 68.7734 36.9277 68.4578C36.7518 68.137 36.6638 67.736 36.6638 67.2549C36.6638 66.5357 36.8397 65.9873 37.1915 65.6096C37.5485 65.232 38.0193 65.0431 38.604 65.0431ZM38.604 65.7649C38.3401 65.7649 38.1254 65.8502 37.9598 66.021C37.7995 66.1865 37.7063 66.4348 37.6805 66.766H39.4887C39.4835 66.4762 39.4085 66.2382 39.2636 66.052C39.1239 65.8606 38.904 65.7649 38.604 65.7649Z" fill="#1E1E1E"/>
<path d="M46.1303 68.1085C46.1303 68.5328 45.9777 68.8561 45.6724 69.0786C45.3724 69.2959 44.9404 69.4046 44.3764 69.4046C44.0815 69.4046 43.828 69.3839 43.6159 69.3425C43.4089 69.3011 43.2072 69.2364 43.0106 69.1485V68.3181C43.2175 68.4164 43.4452 68.4992 43.6935 68.5664C43.947 68.6337 44.185 68.6673 44.4075 68.6673C44.6765 68.6673 44.8705 68.6259 44.9895 68.5431C45.1085 68.4604 45.168 68.3491 45.168 68.2094C45.168 68.1266 45.1447 68.0542 45.0982 67.9921C45.0516 67.9249 44.9611 67.8524 44.8265 67.7748C44.692 67.6972 44.4877 67.6015 44.2135 67.4877C43.9444 67.379 43.7194 67.2704 43.5383 67.1617C43.3624 67.0531 43.2279 66.9238 43.1347 66.7737C43.0468 66.6237 43.0028 66.4297 43.0028 66.1917C43.0028 65.814 43.1528 65.5294 43.4529 65.338C43.753 65.1414 44.1488 65.0431 44.6403 65.0431C44.899 65.0431 45.1421 65.069 45.3698 65.1207C45.6026 65.1725 45.8354 65.2501 46.0682 65.3535L45.7578 66.0753C45.5612 65.9925 45.3698 65.9226 45.1835 65.8657C44.9973 65.8088 44.8058 65.7804 44.6092 65.7804C44.1798 65.7804 43.9651 65.902 43.9651 66.1451C43.9651 66.2331 43.991 66.3081 44.0427 66.3702C44.0996 66.4323 44.1953 66.4995 44.3299 66.5719C44.4696 66.6392 44.6662 66.722 44.9197 66.8203C45.168 66.9186 45.3827 67.0221 45.5638 67.1307C45.7449 67.2342 45.8846 67.3635 45.9829 67.5187C46.0812 67.6688 46.1303 67.8654 46.1303 68.1085ZM43.9962 64.624C43.9237 64.5102 43.8306 64.3835 43.7168 64.2438C43.603 64.0989 43.484 63.9618 43.3598 63.8325C43.2356 63.698 43.127 63.5815 43.0339 63.4832V63.3824H43.6857C43.8203 63.4651 43.9625 63.566 44.1126 63.685C44.2626 63.7988 44.4049 63.9256 44.5394 64.0653C44.6739 63.9256 44.8188 63.7988 44.974 63.685C45.1344 63.566 45.2818 63.4651 45.4163 63.3824H46.076V63.4832C45.9829 63.5815 45.8716 63.698 45.7423 63.8325C45.6181 63.9618 45.4965 64.0989 45.3775 64.2438C45.2637 64.3835 45.1732 64.5102 45.1059 64.624H43.9962Z" fill="#1E1E1E"/>
<path d="M47.4747 63.4988C47.6196 63.4988 47.7463 63.5376 47.855 63.6152C47.9636 63.6876 48.0179 63.8195 48.0179 64.011C48.0179 64.2024 47.9636 64.3369 47.855 64.4145C47.7463 64.4921 47.6196 64.5309 47.4747 64.5309C47.3247 64.5309 47.1953 64.4921 47.0867 64.4145C46.9832 64.3369 46.9315 64.2024 46.9315 64.011C46.9315 63.8195 46.9832 63.6876 47.0867 63.6152C47.1953 63.5376 47.3247 63.4988 47.4747 63.4988ZM47.9636 65.1207V69.3269H46.9858V65.1207H47.9636Z" fill="#1E1E1E"/>
<path d="M51.3403 65.0431C51.8318 65.0431 52.2276 65.2268 52.5277 65.5941C52.8278 65.9563 52.9778 66.4969 52.9778 67.2161C52.9778 67.9352 52.8226 68.481 52.5122 68.8536C52.2069 69.2209 51.8085 69.4046 51.317 69.4046C51.0066 69.4046 50.7557 69.3476 50.5643 69.2338C50.3728 69.12 50.2202 68.9881 50.1064 68.838H50.0443C50.0598 68.9363 50.0728 69.0424 50.0831 69.1562C50.0986 69.27 50.1064 69.3787 50.1064 69.4822V71.1895H49.1286V65.1207H49.9201L50.0598 65.6795H50.1064C50.2254 65.5036 50.3806 65.3535 50.572 65.2294C50.7635 65.1052 51.0195 65.0431 51.3403 65.0431ZM51.0609 65.8347C50.7143 65.8347 50.4685 65.9382 50.3237 66.1451C50.184 66.3521 50.1116 66.6651 50.1064 67.0841V67.2083C50.1064 67.6584 50.1736 68.0051 50.3082 68.2482C50.4479 68.4862 50.7039 68.6052 51.0765 68.6052C51.3817 68.6052 51.6068 68.481 51.7516 68.2327C51.9017 67.9792 51.9767 67.6351 51.9767 67.2006C51.9767 66.766 51.9017 66.4297 51.7516 66.1917C51.6068 65.9537 51.3765 65.8347 51.0609 65.8347Z" fill="#1E1E1E"/>
<path d="M54.8712 63.4289V66.2305C54.8712 66.3598 54.866 66.5021 54.8557 66.6573C54.8453 66.8074 54.835 66.9496 54.8246 67.0841H54.8479C54.9152 66.991 54.9928 66.885 55.0807 66.766C55.1687 66.647 55.2566 66.5409 55.3446 66.4478L56.5863 65.1207H57.696L56.012 66.9367L57.8047 69.3269H56.6639L55.3601 67.5265L54.8712 67.93V69.3269H53.9011V63.4289H54.8712Z" fill="#1E1E1E"/>
<path d="M62.1342 67.2161C62.1342 67.9145 61.9531 68.4552 61.591 68.838C61.2288 69.2157 60.7373 69.4046 60.1165 69.4046C59.7336 69.4046 59.3922 69.3192 59.0921 69.1485C58.792 68.9777 58.5566 68.7294 58.3859 68.4034C58.2151 68.0775 58.1298 67.6817 58.1298 67.2161C58.1298 66.5176 58.3083 65.9821 58.6653 65.6096C59.0274 65.232 59.5189 65.0431 60.1398 65.0431C60.5278 65.0431 60.8718 65.1285 61.1719 65.2992C61.472 65.4648 61.7074 65.7105 61.8781 66.0365C62.0489 66.3572 62.1342 66.7504 62.1342 67.2161ZM59.1309 67.2161C59.1309 67.661 59.2085 68.0051 59.3637 68.2482C59.5241 68.4914 59.7802 68.613 60.132 68.613C60.4786 68.613 60.7322 68.4914 60.8925 68.2482C61.0529 68.0051 61.1331 67.661 61.1331 67.2161C61.1331 66.7711 61.0529 66.4297 60.8925 66.1917C60.7322 65.9537 60.4761 65.8347 60.1242 65.8347C59.7724 65.8347 59.5189 65.9537 59.3637 66.1917C59.2085 66.4297 59.1309 66.7711 59.1309 67.2161Z" fill="#1E1E1E"/>
<path d="M66.7926 65.1207V69.3269H66.0243L65.8923 68.7837H65.8458C65.7113 69.001 65.525 69.1588 65.287 69.2571C65.049 69.3554 64.7981 69.4046 64.5342 69.4046C64.0634 69.4046 63.6935 69.283 63.4245 69.0398C63.1606 68.7966 63.0287 68.406 63.0287 67.868V65.1207H64.0065V67.674C64.0065 67.9895 64.0686 68.2249 64.1928 68.3802C64.3169 68.5354 64.5135 68.613 64.7826 68.613C65.1758 68.613 65.4448 68.4888 65.5897 68.2405C65.7397 67.9921 65.8147 67.6377 65.8147 67.1773V65.1207H66.7926Z" fill="#1E1E1E"/>
<path d="M70.8619 63.4289V64.8258C70.8619 64.9914 70.8568 65.1518 70.8464 65.307C70.8361 65.4622 70.8257 65.5838 70.8154 65.6717H70.8619C70.9758 65.4958 71.131 65.3484 71.3276 65.2294C71.5242 65.1052 71.7803 65.0431 72.0959 65.0431C72.5822 65.0431 72.9754 65.2268 73.2755 65.5941C73.5807 65.9614 73.7333 66.5021 73.7333 67.2161C73.7333 67.9404 73.5807 68.4862 73.2755 68.8536C72.9702 69.2209 72.5693 69.4046 72.0726 69.4046C71.757 69.4046 71.5035 69.3476 71.3121 69.2338C71.1258 69.12 70.9758 68.9881 70.8619 68.838H70.7921L70.6136 69.3269H69.8841V63.4289H70.8619ZM71.8165 65.8347C71.4647 65.8347 71.2189 65.9408 71.0792 66.1529C70.9395 66.365 70.8671 66.6909 70.8619 67.1307V67.2161C70.8619 67.6662 70.9292 68.0102 71.0637 68.2482C71.2034 68.4862 71.4595 68.6052 71.832 68.6052C72.1217 68.6052 72.3442 68.4862 72.4994 68.2482C72.6546 68.0051 72.7322 67.6584 72.7322 67.2083C72.7322 66.7479 72.6521 66.4038 72.4917 66.1762C72.3365 65.9485 72.1114 65.8347 71.8165 65.8347Z" fill="#1E1E1E"/>
<path d="M78.4128 67.2161C78.4128 67.9145 78.2317 68.4552 77.8695 68.838C77.5074 69.2157 77.0159 69.4046 76.395 69.4046C76.0122 69.4046 75.6707 69.3192 75.3706 69.1485C75.0706 68.9777 74.8352 68.7294 74.6644 68.4034C74.4937 68.0775 74.4083 67.6817 74.4083 67.2161C74.4083 66.5176 74.5868 65.9821 74.9438 65.6096C75.306 65.232 75.7975 65.0431 76.4183 65.0431C76.8064 65.0431 77.1504 65.1285 77.4505 65.2992C77.7506 65.4648 77.986 65.7105 78.1567 66.0365C78.3274 66.3572 78.4128 66.7504 78.4128 67.2161ZM75.4094 67.2161C75.4094 67.661 75.4871 68.0051 75.6423 68.2482C75.8027 68.4914 76.0588 68.613 76.4106 68.613C76.7572 68.613 77.0107 68.4914 77.1711 68.2482C77.3315 68.0051 77.4117 67.661 77.4117 67.2161C77.4117 66.7711 77.3315 66.4297 77.1711 66.1917C77.0107 65.9537 76.7546 65.8347 76.4028 65.8347C76.051 65.8347 75.7975 65.9537 75.6423 66.1917C75.4871 66.4297 75.4094 66.7711 75.4094 67.2161Z" fill="#1E1E1E"/>
<path d="M80.7274 69.4046C80.2411 69.4046 79.8453 69.2235 79.5401 68.8613C79.24 68.494 79.09 67.9507 79.09 67.2316C79.09 66.5073 79.2426 65.9614 79.5478 65.5941C79.8531 65.2268 80.254 65.0431 80.7507 65.0431C81.0611 65.0431 81.3147 65.1026 81.5113 65.2216C81.713 65.3406 81.8734 65.4855 81.9924 65.6562H82.039C82.0235 65.5838 82.0079 65.4751 81.9924 65.3303C81.9769 65.1802 81.9691 65.0379 81.9691 64.9034V63.4289H82.947V69.3269H82.1864L82.0079 68.7759H81.9691C81.8501 68.9519 81.6923 69.1019 81.4957 69.2261C81.2991 69.3451 81.043 69.4046 80.7274 69.4046ZM81.0223 68.613C81.3845 68.613 81.638 68.5095 81.7829 68.3026C81.9329 68.0956 82.0105 67.7826 82.0157 67.3635V67.2394C82.0157 66.7892 81.9433 66.4452 81.7984 66.2072C81.6587 65.964 81.3948 65.8425 81.0068 65.8425C80.7067 65.8425 80.4765 65.9666 80.3161 66.215C80.1609 66.4581 80.0833 66.8022 80.0833 67.2471C80.0833 67.6921 80.1635 68.0309 80.3239 68.2638C80.4843 68.4966 80.7171 68.613 81.0223 68.613Z" fill="#1E1E1E"/>
<path d="M83.4822 65.1207H84.5454L85.3836 67.4955C85.4405 67.6455 85.4871 67.7955 85.5233 67.9456C85.5595 68.0904 85.5854 68.2353 85.6009 68.3802H85.6319C85.6526 68.2456 85.6837 68.1034 85.7251 67.9533C85.7664 67.7981 85.813 67.6455 85.8647 67.4955L86.6718 65.1207H87.7273L85.9346 69.8857C85.7742 70.3048 85.5543 70.6255 85.2749 70.848C85.0007 71.0757 84.6619 71.1895 84.2583 71.1895C84.129 71.1895 84.0151 71.1817 83.9168 71.1662C83.8237 71.1559 83.7435 71.1429 83.6763 71.1274V70.3513C83.7332 70.3617 83.8004 70.372 83.878 70.3824C83.9608 70.3927 84.0462 70.3979 84.1341 70.3979C84.3721 70.3979 84.5636 70.3255 84.7084 70.1806C84.8533 70.0409 84.9645 69.865 85.0421 69.6529L85.1663 69.3114L83.4822 65.1207Z" fill="#1E1E1E"/>
<path d="M91.1702 69.3269L89.5715 65.1207H90.6037L91.4418 67.5498C91.4987 67.6998 91.5479 67.8654 91.5892 68.0465C91.6306 68.2275 91.6565 68.3802 91.6669 68.5043H91.6979C91.7134 68.3698 91.7445 68.2146 91.791 68.0387C91.8376 67.8628 91.8867 67.6998 91.9385 67.5498L92.7766 65.1207H93.8088L92.2101 69.3269H91.1702Z" fill="#1E1E1E"/>
<path d="M97.1993 69.3269H93.9709V68.7294L96.0353 65.8657H94.0874V65.1207H97.1373V65.7804L95.1118 68.5742H97.1993V69.3269Z" fill="#1E1E1E"/>
<path d="M99.6784 65.0431C100.222 65.0431 100.633 65.1621 100.912 65.4001C101.197 65.6381 101.339 66.0054 101.339 66.5021V69.3269H100.648L100.454 68.7449H100.423C100.242 68.9725 100.051 69.1407 99.8492 69.2493C99.6474 69.3528 99.3732 69.4046 99.0265 69.4046C98.6488 69.4046 98.3358 69.2985 98.0875 69.0864C97.8392 68.8742 97.715 68.5457 97.715 68.1008C97.715 67.6662 97.8728 67.3402 98.1884 67.1229C98.5092 66.9057 98.9929 66.7841 99.6396 66.7582L100.369 66.7349V66.5254C100.369 66.2564 100.304 66.0649 100.175 65.9511C100.046 65.8373 99.8647 65.7804 99.6319 65.7804C99.4197 65.7804 99.2154 65.8114 99.0188 65.8735C98.8273 65.9304 98.6359 66.0028 98.4445 66.0908L98.1341 65.4079C98.341 65.2992 98.5764 65.2113 98.8403 65.144C99.1093 65.0767 99.3887 65.0431 99.6784 65.0431ZM100.369 67.3402L99.8569 67.3558C99.4275 67.3713 99.13 67.4463 98.9644 67.5808C98.7989 67.7102 98.7161 67.8861 98.7161 68.1085C98.7161 68.3103 98.773 68.4552 98.8868 68.5431C99.0058 68.6259 99.161 68.6673 99.3525 68.6673C99.637 68.6673 99.8776 68.5871 100.074 68.4267C100.271 68.2612 100.369 68.018 100.369 67.6972V67.3402ZM100.99 63.3824V63.46C100.902 63.5531 100.78 63.6747 100.625 63.8247C100.47 63.9747 100.307 64.1222 100.136 64.2671C99.9656 64.4119 99.8181 64.5309 99.6939 64.624H99.0421V64.5232C99.1248 64.4249 99.218 64.311 99.3214 64.1817C99.4249 64.0472 99.5258 63.9101 99.6241 63.7704C99.7224 63.6255 99.8052 63.4962 99.8724 63.3824H100.99Z" fill="#1E1E1E"/>
<path d="M102.425 64.011C102.425 63.8195 102.477 63.6876 102.58 63.6152C102.689 63.5376 102.818 63.4988 102.968 63.4988C103.113 63.4988 103.24 63.5376 103.348 63.6152C103.457 63.6876 103.511 63.8195 103.511 64.011C103.511 64.2024 103.457 64.3369 103.348 64.4145C103.24 64.4921 103.113 64.5309 102.968 64.5309C102.818 64.5309 102.689 64.4921 102.58 64.4145C102.477 64.3369 102.425 64.2024 102.425 64.011ZM102.076 71.1895C101.946 71.1895 101.819 71.1791 101.695 71.1584C101.571 71.1429 101.465 71.1222 101.377 71.0964V70.3203C101.465 70.341 101.55 70.3591 101.633 70.3746C101.716 70.3901 101.809 70.3979 101.913 70.3979C102.073 70.3979 102.208 70.3539 102.316 70.266C102.425 70.178 102.479 70.0047 102.479 69.746V65.1207H103.457V69.8469C103.457 70.2349 103.348 70.5557 103.131 70.8092C102.919 71.0627 102.567 71.1895 102.076 71.1895Z" fill="#1E1E1E"/>
<path d="M106.314 65.0431C106.878 65.0431 107.323 65.2113 107.649 65.5476C107.98 65.8838 108.145 66.3521 108.145 66.9522V67.4489H105.367C105.377 67.8317 105.483 68.1292 105.685 68.3414C105.887 68.5483 106.166 68.6518 106.523 68.6518C106.792 68.6518 107.035 68.6259 107.253 68.5742C107.47 68.5173 107.692 68.4371 107.92 68.3336V69.1174C107.713 69.2157 107.498 69.2881 107.276 69.3347C107.054 69.3813 106.787 69.4046 106.477 69.4046C106.063 69.4046 105.698 69.3269 105.382 69.1717C105.067 69.0113 104.818 68.7734 104.637 68.4578C104.462 68.137 104.374 67.736 104.374 67.2549C104.374 66.5357 104.549 65.9873 104.901 65.6096C105.258 65.232 105.729 65.0431 106.314 65.0431ZM106.314 65.7649C106.05 65.7649 105.835 65.8502 105.67 66.021C105.509 66.1865 105.416 66.4348 105.39 66.766H107.198C107.193 66.4762 107.118 66.2382 106.973 66.052C106.834 65.8606 106.614 65.7649 106.314 65.7649Z" fill="#1E1E1E"/>
<path d="M113.865 65.0431C114.341 65.0431 114.698 65.1647 114.936 65.4079C115.179 65.651 115.301 66.0442 115.301 66.5875V69.3269H114.323V66.7737C114.323 66.1477 114.085 65.8347 113.609 65.8347C113.268 65.8347 113.024 65.9459 112.88 66.1684C112.735 66.3909 112.662 66.7142 112.662 67.1385V69.3269H111.684V66.7737C111.684 66.1477 111.444 65.8347 110.963 65.8347C110.606 65.8347 110.36 65.9589 110.225 66.2072C110.091 66.4555 110.024 66.8099 110.024 67.2704V69.3269H109.046V65.1207H109.799L109.938 65.6717H109.993C110.122 65.4544 110.298 65.2966 110.52 65.1983C110.743 65.0949 110.976 65.0431 111.219 65.0431C111.534 65.0431 111.798 65.0949 112.01 65.1983C112.228 65.3018 112.393 65.4674 112.507 65.695H112.585C112.714 65.4674 112.895 65.3018 113.128 65.1983C113.361 65.0949 113.606 65.0431 113.865 65.0431Z" fill="#1E1E1E"/>
<path d="M118.691 65.0431C119.162 65.0431 119.529 65.1647 119.793 65.4079C120.062 65.651 120.197 66.0442 120.197 66.5875V69.3269H119.219V66.7815C119.219 66.4659 119.157 66.2305 119.033 66.0753C118.908 65.9149 118.712 65.8347 118.443 65.8347C118.05 65.8347 117.781 65.9589 117.636 66.2072C117.491 66.4555 117.418 66.8099 117.418 67.2704V69.3269H116.441V65.1207H117.193L117.333 65.6717H117.387C117.522 65.4544 117.706 65.2966 117.938 65.1983C118.176 65.0949 118.427 65.0431 118.691 65.0431Z" fill="#1E1E1E"/>
<path d="M123.026 65.0431C123.59 65.0431 124.035 65.2113 124.361 65.5476C124.692 65.8838 124.858 66.3521 124.858 66.9522V67.4489H122.079C122.09 67.8317 122.196 68.1292 122.398 68.3414C122.599 68.5483 122.879 68.6518 123.236 68.6518C123.505 68.6518 123.748 68.6259 123.965 68.5742C124.183 68.5173 124.405 68.4371 124.633 68.3336V69.1174C124.426 69.2157 124.211 69.2881 123.989 69.3347C123.766 69.3813 123.5 69.4046 123.189 69.4046C122.775 69.4046 122.411 69.3269 122.095 69.1717C121.779 69.0113 121.531 68.7734 121.35 68.4578C121.174 68.137 121.086 67.736 121.086 67.2549C121.086 66.5357 121.262 65.9873 121.614 65.6096C121.971 65.232 122.442 65.0431 123.026 65.0431ZM123.026 65.7649C122.762 65.7649 122.548 65.8502 122.382 66.021C122.222 66.1865 122.129 66.4348 122.103 66.766H123.911C123.906 66.4762 123.831 66.2382 123.686 66.052C123.546 65.8606 123.326 65.7649 123.026 65.7649ZM124.307 63.3824V63.46C124.219 63.5531 124.097 63.6747 123.942 63.8247C123.787 63.9747 123.624 64.1222 123.453 64.2671C123.282 64.4119 123.135 64.5309 123.011 64.624H122.359V64.5232C122.442 64.4249 122.535 64.311 122.638 64.1817C122.742 64.0472 122.843 63.9101 122.941 63.7704C123.039 63.6255 123.122 63.4962 123.189 63.3824H124.307Z" fill="#1E1E1E"/>
<path d="M126.736 63.4289V64.8336C126.736 64.9991 126.728 65.1621 126.713 65.3225C126.703 65.4777 126.692 65.5941 126.682 65.6717H126.744C126.878 65.4596 127.054 65.3018 127.272 65.1983C127.489 65.0949 127.73 65.0431 127.993 65.0431C128.469 65.0431 128.842 65.1673 129.111 65.4156C129.38 65.6588 129.515 66.0494 129.515 66.5875V69.3269H128.537V66.7815C128.537 66.4659 128.475 66.2305 128.35 66.0753C128.226 65.9149 128.03 65.8347 127.761 65.8347C127.367 65.8347 127.098 65.9589 126.954 66.2072C126.809 66.4555 126.736 66.8099 126.736 67.2704V69.3269H125.758V63.4289H126.736Z" fill="#1E1E1E"/>
<path d="M134.408 67.2161C134.408 67.9145 134.227 68.4552 133.865 68.838C133.503 69.2157 133.011 69.4046 132.391 69.4046C132.008 69.4046 131.666 69.3192 131.366 69.1485C131.066 68.9777 130.831 68.7294 130.66 68.4034C130.489 68.0775 130.404 67.6817 130.404 67.2161C130.404 66.5176 130.582 65.9821 130.939 65.6096C131.302 65.232 131.793 65.0431 132.414 65.0431C132.802 65.0431 133.146 65.1285 133.446 65.2992C133.746 65.4648 133.981 65.7105 134.152 66.0365C134.323 66.3572 134.408 66.7504 134.408 67.2161ZM131.405 67.2161C131.405 67.661 131.483 68.0051 131.638 68.2482C131.798 68.4914 132.054 68.613 132.406 68.613C132.753 68.613 133.006 68.4914 133.167 68.2482C133.327 68.0051 133.407 67.661 133.407 67.2161C133.407 66.7711 133.327 66.4297 133.167 66.1917C133.006 65.9537 132.75 65.8347 132.398 65.8347C132.047 65.8347 131.793 65.9537 131.638 66.1917C131.483 66.4297 131.405 66.7711 131.405 67.2161Z" fill="#1E1E1E"/>
<path d="M13.8384 76.9038C13.8384 77.3281 13.6858 77.6514 13.3806 77.8739C13.0805 78.0912 12.6485 78.1999 12.0846 78.1999C11.7897 78.1999 11.5361 78.1792 11.324 78.1378C11.1171 78.0964 10.9153 78.0317 10.7187 77.9438V77.1134C10.9256 77.2117 11.1533 77.2945 11.4016 77.3617C11.6551 77.429 11.8931 77.4626 12.1156 77.4626C12.3846 77.4626 12.5786 77.4212 12.6976 77.3384C12.8166 77.2557 12.8761 77.1444 12.8761 77.0047C12.8761 76.9219 12.8529 76.8495 12.8063 76.7874C12.7597 76.7202 12.6692 76.6477 12.5347 76.5701C12.4002 76.4925 12.1958 76.3968 11.9216 76.283C11.6526 76.1743 11.4275 76.0657 11.2464 75.9571C11.0705 75.8484 10.936 75.7191 10.8429 75.569C10.7549 75.419 10.7109 75.225 10.7109 74.987C10.7109 74.6093 10.861 74.3247 11.161 74.1333C11.4611 73.9367 11.8569 73.8384 12.3484 73.8384C12.6071 73.8384 12.8503 73.8643 13.0779 73.916C13.3107 73.9678 13.5435 74.0454 13.7764 74.1488L13.4659 74.8706C13.2693 74.7878 13.0779 74.7179 12.8917 74.661C12.7054 74.6041 12.514 74.5757 12.3174 74.5757C11.888 74.5757 11.6732 74.6973 11.6732 74.9404C11.6732 75.0284 11.6991 75.1034 11.7509 75.1655C11.8078 75.2276 11.9035 75.2948 12.038 75.3672C12.1777 75.4345 12.3743 75.5173 12.6278 75.6156C12.8761 75.7139 13.0908 75.8174 13.2719 75.926C13.453 76.0295 13.5927 76.1588 13.691 76.314C13.7893 76.4641 13.8384 76.6607 13.8384 76.9038Z" fill="#1E1E1E"/>
<path d="M16.3236 77.416C16.4426 77.416 16.559 77.4057 16.6729 77.385C16.7919 77.3591 16.9005 77.3307 16.9988 77.2996V78.0291C16.8953 78.0809 16.7608 78.1222 16.5953 78.1533C16.4297 78.1843 16.2564 78.1999 16.0753 78.1999C15.8321 78.1999 15.6123 78.161 15.4157 78.0834C15.2242 78.0058 15.0716 77.8687 14.9578 77.6721C14.844 77.4755 14.7871 77.1987 14.7871 76.8418V74.6533H14.2205V74.2264L14.8414 73.885L15.1518 72.9925H15.7649V73.916H16.96V74.6533H15.7649V76.834C15.7649 77.0306 15.8166 77.178 15.9201 77.2763C16.0287 77.3695 16.1633 77.416 16.3236 77.416Z" fill="#1E1E1E"/>
<path d="M19.9653 73.8384C20.0325 73.8384 20.1076 73.8436 20.1903 73.8539C20.2731 73.8591 20.3404 73.8669 20.3921 73.8772L20.3067 74.7852C20.255 74.7749 20.1903 74.7671 20.1127 74.7619C20.0403 74.7516 19.9782 74.7464 19.9265 74.7464C19.7195 74.7464 19.5255 74.7904 19.3444 74.8783C19.1634 74.9611 19.0159 75.0905 18.9021 75.2664C18.7934 75.4423 18.7391 75.6673 18.7391 75.9415V78.1222H17.7613V73.916H18.5141L18.6537 74.6455H18.7003C18.8245 74.423 18.9952 74.2342 19.2125 74.079C19.4298 73.9186 19.6807 73.8384 19.9653 73.8384ZM18.5141 73.4193C18.4416 73.3055 18.3485 73.1788 18.2347 73.0391C18.1209 72.8942 18.0019 72.7571 17.8777 72.6278C17.7535 72.4933 17.6449 72.3769 17.5517 72.2785V72.1777H18.2036C18.3382 72.2604 18.4804 72.3613 18.6305 72.4803C18.7805 72.5941 18.9228 72.7209 19.0573 72.8606C19.1918 72.7209 19.3367 72.5941 19.4919 72.4803C19.6523 72.3613 19.7997 72.2604 19.9342 72.1777H20.5939V72.2785C20.5008 72.3769 20.3895 72.4933 20.2602 72.6278C20.136 72.7571 20.0144 72.8942 19.8954 73.0391C19.7816 73.1788 19.6911 73.3055 19.6238 73.4193H18.5141Z" fill="#1E1E1E"/>
<path d="M22.6265 73.8384C23.1905 73.8384 23.6354 74.0066 23.9614 74.3429C24.2925 74.6791 24.458 75.1474 24.458 75.7475V76.2442H21.6798C21.6901 76.627 21.7962 76.9245 21.9979 77.1367C22.1997 77.3436 22.4791 77.4471 22.8361 77.4471C23.1051 77.4471 23.3483 77.4212 23.5656 77.3695C23.7829 77.3126 24.0053 77.2324 24.233 77.1289V77.9127C24.026 78.011 23.8113 78.0834 23.5889 78.13C23.3664 78.1766 23.0999 78.1999 22.7895 78.1999C22.3756 78.1999 22.0109 78.1222 21.6953 77.967C21.3797 77.8066 21.1313 77.5687 20.9503 77.2531C20.7744 76.9323 20.6864 76.5313 20.6864 76.0502C20.6864 75.331 20.8623 74.7826 21.2141 74.4049C21.5711 74.0273 22.0419 73.8384 22.6265 73.8384ZM22.6265 74.5602C22.3627 74.5602 22.148 74.6455 21.9824 74.8162C21.822 74.9818 21.7289 75.2301 21.703 75.5613H23.5113C23.5061 75.2715 23.4311 75.0335 23.2862 74.8473C23.1465 74.6559 22.9266 74.5602 22.6265 74.5602Z" fill="#1E1E1E"/>
<path d="M26.9884 77.416C27.1074 77.416 27.2238 77.4057 27.3376 77.385C27.4566 77.3591 27.5653 77.3307 27.6636 77.2996V78.0291C27.5601 78.0809 27.4256 78.1222 27.26 78.1533C27.0945 78.1843 26.9212 78.1999 26.7401 78.1999C26.4969 78.1999 26.277 78.161 26.0804 78.0834C25.889 78.0058 25.7364 77.8687 25.6226 77.6721C25.5087 77.4755 25.4518 77.1987 25.4518 76.8418V74.6533H24.8853V74.2264L25.5061 73.885L25.8166 72.9925H26.4296V73.916H27.6248V74.6533H26.4296V76.834C26.4296 77.0306 26.4814 77.178 26.5849 77.2763C26.6935 77.3695 26.828 77.416 26.9884 77.416Z" fill="#1E1E1E"/>
<path d="M32.1589 73.916V78.1222H31.3906L31.2587 77.579H31.2121C31.0776 77.7963 30.8913 77.9541 30.6533 78.0524C30.4153 78.1507 30.1644 78.1999 29.9006 78.1999C29.4298 78.1999 29.0598 78.0783 28.7908 77.8351C28.5269 77.5919 28.395 77.2013 28.395 76.6633V73.916H29.3728V76.4692C29.3728 76.7848 29.4349 77.0202 29.5591 77.1755C29.6833 77.3307 29.8799 77.4083 30.1489 77.4083C30.5421 77.4083 30.8111 77.2841 30.956 77.0358C31.106 76.7874 31.181 76.433 31.181 75.9726V73.916H32.1589Z" fill="#1E1E1E"/>
<path d="M37.501 73.8384C37.9718 73.8384 38.3391 73.96 38.603 74.2032C38.872 74.4463 39.0065 74.8395 39.0065 75.3828V78.1222H38.0287V75.5768C38.0287 75.2612 37.9666 75.0258 37.8425 74.8706C37.7183 74.7102 37.5217 74.63 37.2527 74.63C36.8595 74.63 36.5904 74.7542 36.4456 75.0025C36.3007 75.2508 36.2283 75.6052 36.2283 76.0657V78.1222H35.2504V73.916H36.0032L36.1429 74.467H36.1972C36.3317 74.2497 36.5154 74.0919 36.7482 73.9936C36.9862 73.8902 37.2371 73.8384 37.501 73.8384Z" fill="#1E1E1E"/>
<path d="M41.8205 73.8384C42.3638 73.8384 42.7751 73.9574 43.0545 74.1954C43.339 74.4334 43.4813 74.8007 43.4813 75.2974V78.1222H42.7906L42.5966 77.5402H42.5655C42.3845 77.7679 42.193 77.936 41.9913 78.0446C41.7895 78.1481 41.5153 78.1999 41.1686 78.1999C40.791 78.1999 40.478 78.0938 40.2296 77.8817C39.9813 77.6695 39.8571 77.341 39.8571 76.8961C39.8571 76.4615 40.0149 76.1355 40.3305 75.9182C40.6513 75.701 41.135 75.5794 41.7817 75.5535L42.5112 75.5302V75.3207C42.5112 75.0517 42.4466 74.8602 42.3172 74.7464C42.1879 74.6326 42.0068 74.5757 41.774 74.5757C41.5618 74.5757 41.3575 74.6067 41.1609 74.6688C40.9695 74.7257 40.778 74.7981 40.5866 74.8861L40.2762 74.2032C40.4831 74.0945 40.7185 74.0066 40.9824 73.9393C41.2514 73.872 41.5308 73.8384 41.8205 73.8384ZM42.5112 76.1355L41.999 76.1511C41.5696 76.1666 41.2721 76.2416 41.1066 76.3761C40.941 76.5055 40.8582 76.6814 40.8582 76.9038C40.8582 77.1056 40.9151 77.2505 41.029 77.3384C41.148 77.4212 41.3032 77.4626 41.4946 77.4626C41.7791 77.4626 42.0197 77.3824 42.2163 77.222C42.4129 77.0565 42.5112 76.8133 42.5112 76.4925V76.1355Z" fill="#1E1E1E"/>
<path d="M47.5219 78.1222L45.9232 73.916H46.9554L47.7935 76.3451C47.8504 76.4951 47.8996 76.6607 47.9409 76.8418C47.9823 77.0228 48.0082 77.1755 48.0186 77.2996H48.0496C48.0651 77.1651 48.0962 77.0099 48.1427 76.834C48.1893 76.6581 48.2384 76.4951 48.2902 76.3451L49.1283 73.916H50.1605L48.5618 78.1222H47.5219Z" fill="#1E1E1E"/>
<path d="M54.459 76.0114C54.459 76.7098 54.278 77.2505 53.9158 77.6333C53.5536 78.011 53.0621 78.1999 52.4413 78.1999C52.0584 78.1999 51.717 78.1145 51.4169 77.9438C51.1168 77.773 50.8814 77.5247 50.7107 77.1987C50.5399 76.8728 50.4546 76.477 50.4546 76.0114C50.4546 75.3129 50.6331 74.7774 50.9901 74.4049C51.3522 74.0273 51.8437 73.8384 52.4646 73.8384C52.8526 73.8384 53.1966 73.9238 53.4967 74.0945C53.7968 74.2601 54.0322 74.5058 54.2029 74.8318C54.3737 75.1525 54.459 75.5457 54.459 76.0114ZM51.4557 76.0114C51.4557 76.4563 51.5333 76.8004 51.6885 77.0435C51.8489 77.2867 52.105 77.4083 52.4568 77.4083C52.8034 77.4083 53.057 77.2867 53.2173 77.0435C53.3777 76.8004 53.4579 76.4563 53.4579 76.0114C53.4579 75.5664 53.3777 75.225 53.2173 74.987C53.057 74.749 52.8009 74.63 52.449 74.63C52.0972 74.63 51.8437 74.749 51.6885 74.987C51.5333 75.225 51.4557 75.5664 51.4557 76.0114Z" fill="#1E1E1E"/>
<path d="M58.1569 78.1222H54.9285V77.5247L56.9928 74.661H55.0449V73.916H58.0948V74.5757L56.0693 77.3695H58.1569V78.1222Z" fill="#1E1E1E"/>
<path d="M59.4486 72.2941C59.5935 72.2941 59.7202 72.3329 59.8289 72.4105C59.9375 72.4829 59.9918 72.6148 59.9918 72.8063C59.9918 72.9977 59.9375 73.1322 59.8289 73.2098C59.7202 73.2874 59.5935 73.3262 59.4486 73.3262C59.2985 73.3262 59.1692 73.2874 59.0606 73.2098C58.9571 73.1322 58.9053 72.9977 58.9053 72.8063C58.9053 72.6148 58.9571 72.4829 59.0606 72.4105C59.1692 72.3329 59.2985 72.2941 59.4486 72.2941ZM59.9375 73.916V78.1222H58.9597V73.916H59.9375Z" fill="#1E1E1E"/>
<path d="M62.4916 78.1999C62.0052 78.1999 61.6095 78.0188 61.3042 77.6566C61.0041 77.2893 60.8541 76.746 60.8541 76.0269C60.8541 75.3026 61.0067 74.7568 61.312 74.3894C61.6172 74.0221 62.0182 73.8384 62.5149 73.8384C62.8253 73.8384 63.0788 73.8979 63.2754 74.0169C63.4772 74.1359 63.6376 74.2808 63.7565 74.4515H63.8031C63.7876 74.3791 63.7721 74.2704 63.7565 74.1256C63.741 73.9755 63.7333 73.8332 63.7333 73.6987V72.2242H64.7111V78.1222H63.9506L63.7721 77.5712H63.7333C63.6143 77.7472 63.4565 77.8972 63.2599 78.0214C63.0633 78.1404 62.8072 78.1999 62.4916 78.1999ZM62.7865 77.4083C63.1486 77.4083 63.4021 77.3048 63.547 77.0979C63.697 76.8909 63.7747 76.5779 63.7798 76.1588V76.0347C63.7798 75.5845 63.7074 75.2405 63.5625 75.0025C63.4228 74.7593 63.159 74.6378 62.771 74.6378C62.4709 74.6378 62.2407 74.7619 62.0803 75.0103C61.9251 75.2534 61.8474 75.5975 61.8474 76.0424C61.8474 76.4874 61.9276 76.8262 62.088 77.0591C62.2484 77.2919 62.4812 77.4083 62.7865 77.4083Z" fill="#1E1E1E"/>
<path d="M66.8528 78.1222H65.875V72.2242H66.8528V78.1222Z" fill="#1E1E1E"/>
<path d="M69.7096 73.8384C70.2735 73.8384 70.7184 74.0066 71.0444 74.3429C71.3755 74.6791 71.5411 75.1474 71.5411 75.7475V76.2442H68.7628C68.7731 76.627 68.8792 76.9245 69.081 77.1367C69.2827 77.3436 69.5621 77.4471 69.9191 77.4471C70.1881 77.4471 70.4313 77.4212 70.6486 77.3695C70.8659 77.3126 71.0884 77.2324 71.316 77.1289V77.9127C71.1091 78.011 70.8943 78.0834 70.6719 78.13C70.4494 78.1766 70.183 78.1999 69.8725 78.1999C69.4586 78.1999 69.0939 78.1222 68.7783 77.967C68.4627 77.8066 68.2144 77.5687 68.0333 77.2531C67.8574 76.9323 67.7694 76.5313 67.7694 76.0502C67.7694 75.331 67.9453 74.7826 68.2971 74.4049C68.6541 74.0273 69.1249 73.8384 69.7096 73.8384ZM69.7096 74.5602C69.4457 74.5602 69.231 74.6455 69.0654 74.8162C68.9051 74.9818 68.8119 75.2301 68.7861 75.5613H70.5943C70.5891 75.2715 70.5141 75.0335 70.3692 74.8473C70.2295 74.6559 70.0096 74.5602 69.7096 74.5602Z" fill="#1E1E1E"/>
<path d="M77.8878 78.1222L77.3834 76.6555H75.2958L74.7991 78.1222H73.7437L75.7769 72.5579H76.91L78.9432 78.1222H77.8878ZM77.1273 75.8018L76.6461 74.3739C76.6254 74.3066 76.5944 74.2109 76.553 74.0868C76.5116 73.9574 76.4728 73.8281 76.4366 73.6987C76.4004 73.5642 76.3693 73.453 76.3434 73.365C76.3176 73.4737 76.2839 73.5953 76.2426 73.7298C76.2063 73.8643 76.1701 73.991 76.1339 74.11C76.1029 74.229 76.077 74.317 76.0563 74.3739L75.5674 75.8018H77.1273Z" fill="#1E1E1E"/>
<path d="M31.8114 13.8441H33.6848L30.1051 20.2207H28.8122L27.5017 13.8441H29.3663L29.7797 16.298L29.9556 17.5118L30.5449 16.298L31.8114 13.8441Z" fill="#1E1E1E"/>
<path d="M35.4958 15.3393C36.8855 15.3393 37.8178 16.1837 37.8178 17.4942C37.8178 19.0597 36.5337 20.2647 34.9417 20.2647C33.552 20.2647 32.6197 19.4203 32.6197 18.1098C32.6197 16.5443 33.9039 15.3393 35.4958 15.3393ZM34.3612 18.1274C34.3612 18.62 34.6075 18.8838 35.0297 18.8838C35.6101 18.8838 36.0763 18.1802 36.0763 17.4766C36.0763 16.984 35.83 16.7202 35.4079 16.7202C34.8186 16.7202 34.3612 17.4238 34.3612 18.1274Z" fill="#1E1E1E"/>
<path d="M40.6775 16.7114H38.4347L38.6634 15.4361H43.0346L42.8587 16.4299L40.097 18.9014H42.4453L42.2167 20.1767H37.7399L37.9158 19.1917L40.6775 16.7114Z" fill="#1E1E1E"/>
<path d="M44.0783 13.6682H45.8198L45.5999 14.9171H43.8584L44.0783 13.6682ZM43.7705 15.4273H45.512L44.6764 20.1767H42.9349L43.7705 15.4273Z" fill="#1E1E1E"/>
<path d="M49.7322 13.6682H51.4649L50.3215 20.1767H48.668L48.712 19.9041C48.3953 20.1416 47.9907 20.2647 47.5598 20.2647C46.5043 20.2647 45.7304 19.4555 45.7304 18.1978C45.7304 16.5619 46.8737 15.3393 48.2986 15.3393C48.712 15.3393 49.0902 15.4273 49.3892 15.6208L49.7322 13.6682ZM47.5158 17.9955C47.5158 18.4792 47.7972 18.8398 48.3074 18.8398C48.5273 18.8398 48.6768 18.8135 48.8351 18.7607L49.1693 16.8609C49.0022 16.7905 48.8175 16.7642 48.6152 16.7642C47.9116 16.7642 47.5158 17.3183 47.5158 17.9955Z" fill="#1E1E1E"/>
<path d="M52.4037 13.6682H54.1452L53.0018 20.1767H51.2603L52.4037 13.6682Z" fill="#1E1E1E"/>
<path d="M56.9406 15.3393C58.3303 15.3393 59.2626 16.1837 59.2626 17.4942C59.2626 19.0597 57.9785 20.2647 56.3865 20.2647C54.9969 20.2647 54.0645 19.4203 54.0645 18.1098C54.0645 16.5443 55.3487 15.3393 56.9406 15.3393ZM55.806 18.1274C55.806 18.62 56.0523 18.8838 56.4745 18.8838C57.055 18.8838 57.5211 18.1802 57.5211 17.4766C57.5211 16.984 57.2748 16.7202 56.8527 16.7202C56.2634 16.7202 55.806 17.4238 55.806 18.1274Z" fill="#1E1E1E"/>
<path d="M65.3275 20.1767L65.1956 19.2708H63.331L62.8824 20.1767H61.009L64.5271 13.8265H65.8992L67.1921 20.1767H65.3275ZM64.7558 16.3332L63.9467 17.9603H65.0285L64.7558 16.3332Z" fill="#1E1E1E"/>
<path d="M54.7296 105.026H50.1737V104.26L53.296 99.6956H50.2616V98.7457H54.6417V99.5109L51.5281 104.076H54.7296V105.026Z" fill="#FAFAFA"/>
<path d="M57.3759 100.171C57.9916 100.171 58.4578 100.305 58.7744 100.575C59.0969 100.845 59.2581 101.261 59.2581 101.824V105.026H58.4754L58.2555 104.366H58.2203C58.0151 104.624 57.7981 104.814 57.5694 104.938C57.3408 105.055 57.03 105.113 56.6371 105.113C56.2091 105.113 55.8544 104.993 55.5729 104.753C55.2915 104.512 55.1507 104.14 55.1507 103.636C55.1507 103.143 55.3296 102.774 55.6873 102.528C56.0508 102.281 56.599 102.144 57.332 102.114L58.1587 102.088V101.85C58.1587 101.546 58.0854 101.329 57.9389 101.2C57.7923 101.071 57.587 101.006 57.3232 101.006C57.0828 101.006 56.8512 101.041 56.6283 101.112C56.4114 101.176 56.1944 101.258 55.9775 101.358L55.6257 100.584C55.8602 100.461 56.127 100.361 56.4261 100.285C56.731 100.209 57.0476 100.171 57.3759 100.171ZM58.1587 102.774L57.5782 102.792C57.0916 102.809 56.7544 102.894 56.5668 103.047C56.3792 103.193 56.2853 103.393 56.2853 103.645C56.2853 103.873 56.3498 104.038 56.4788 104.137C56.6137 104.231 56.7896 104.278 57.0065 104.278C57.329 104.278 57.6017 104.187 57.8245 104.005C58.0473 103.818 58.1587 103.542 58.1587 103.179V102.774Z" fill="#FAFAFA"/>
<path d="M62.3505 105.113C61.6704 105.113 61.1309 104.917 60.7322 104.524C60.3393 104.131 60.1429 103.513 60.1429 102.668C60.1429 102.082 60.2397 101.607 60.4332 101.244C60.6325 100.874 60.9052 100.604 61.2511 100.434C61.5971 100.258 61.9929 100.171 62.4385 100.171C62.7317 100.171 62.9955 100.2 63.2301 100.258C63.4705 100.317 63.6728 100.387 63.8369 100.47L63.5115 101.34C63.3239 101.27 63.1392 101.211 62.9574 101.164C62.7757 101.112 62.6027 101.085 62.4385 101.085C61.6645 101.085 61.2775 101.61 61.2775 102.66C61.2775 103.17 61.3743 103.554 61.5678 103.812C61.7671 104.07 62.0515 104.199 62.4209 104.199C62.6848 104.199 62.9193 104.167 63.1245 104.102C63.3356 104.038 63.532 103.95 63.7138 103.838V104.797C63.532 104.908 63.3356 104.987 63.1245 105.034C62.9134 105.087 62.6554 105.113 62.3505 105.113ZM61.6029 99.6956C61.5209 99.5666 61.4153 99.4229 61.2863 99.2646C61.1573 99.1004 61.0225 98.945 60.8817 98.7985C60.741 98.646 60.6179 98.5141 60.5123 98.4027V98.2883H61.2511C61.4036 98.3821 61.5648 98.4965 61.7349 98.6313C61.9049 98.7603 62.0662 98.904 62.2186 99.0623C62.3711 98.904 62.5352 98.7603 62.7112 98.6313C62.8929 98.4965 63.06 98.3821 63.2125 98.2883H63.9601V98.4027C63.8545 98.5141 63.7285 98.646 63.5819 98.7985C63.4412 98.945 63.3034 99.1004 63.1685 99.2646C63.0395 99.4229 62.9369 99.5666 62.8607 99.6956H61.6029Z" fill="#FAFAFA"/>
<path d="M65.7163 105.026H64.6081V100.258H65.7163V105.026ZM66.675 98.2883V98.3763C66.5754 98.4818 66.4376 98.6196 66.2617 98.7896C66.0858 98.9597 65.901 99.1268 65.7076 99.291C65.5141 99.4552 65.3469 99.59 65.2062 99.6956H64.4674V99.5812C64.5612 99.4698 64.6668 99.3408 64.784 99.1942C64.9013 99.0418 65.0157 98.8864 65.1271 98.7281C65.2385 98.5639 65.3323 98.4173 65.4085 98.2883H66.675Z" fill="#FAFAFA"/>
<path d="M68.7579 104.225C68.8928 104.225 69.0247 104.213 69.1537 104.19C69.2886 104.161 69.4117 104.128 69.5231 104.093V104.92C69.4058 104.979 69.2534 105.026 69.0657 105.061C68.8781 105.096 68.6817 105.113 68.4764 105.113C68.2009 105.113 67.9517 105.069 67.7288 104.982C67.5119 104.894 67.3389 104.738 67.2099 104.515C67.0809 104.293 67.0164 103.979 67.0164 103.574V101.094H66.3744V100.61L67.078 100.223L67.4298 99.2118H68.1246V100.258H69.4791V101.094H68.1246V103.565C68.1246 103.788 68.1833 103.955 68.3005 104.067C68.4237 104.172 68.5761 104.225 68.7579 104.225Z" fill="#FAFAFA"/>
<path d="M74.8744 100.171C75.408 100.171 75.8243 100.308 76.1233 100.584C76.4282 100.859 76.5807 101.305 76.5807 101.921V105.026H75.4725V102.141C75.4725 101.783 75.4021 101.516 75.2614 101.34C75.1207 101.159 74.8978 101.068 74.5929 101.068C74.1473 101.068 73.8424 101.208 73.6782 101.49C73.5141 101.771 73.432 102.173 73.432 102.695V105.026H72.3238V100.258H73.1769L73.3352 100.883H73.3968C73.5492 100.637 73.7574 100.458 74.0212 100.346C74.291 100.229 74.5754 100.171 74.8744 100.171Z" fill="#FAFAFA"/>
<path d="M79.6441 100.171C80.2598 100.171 80.726 100.305 81.0426 100.575C81.3651 100.845 81.5263 101.261 81.5263 101.824V105.026H80.7436L80.5237 104.366H80.4885C80.2833 104.624 80.0663 104.814 79.8376 104.938C79.609 105.055 79.2982 105.113 78.9053 105.113C78.4773 105.113 78.1226 104.993 77.8411 104.753C77.5597 104.512 77.4189 104.14 77.4189 103.636C77.4189 103.143 77.5978 102.774 77.9554 102.528C78.319 102.281 78.8672 102.144 79.6002 102.114L80.4269 102.088V101.85C80.4269 101.546 80.3536 101.329 80.207 101.2C80.0605 101.071 79.8552 101.006 79.5914 101.006C79.351 101.006 79.1194 101.041 78.8965 101.112C78.6796 101.176 78.4626 101.258 78.2457 101.358L77.8939 100.584C78.1284 100.461 78.3952 100.361 78.6943 100.285C78.9992 100.209 79.3158 100.171 79.6441 100.171ZM80.4269 102.774L79.8464 102.792C79.3598 102.809 79.0226 102.894 78.835 103.047C78.6474 103.193 78.5535 103.393 78.5535 103.645C78.5535 103.873 78.618 104.038 78.747 104.137C78.8819 104.231 79.0578 104.278 79.2747 104.278C79.5972 104.278 79.8699 104.187 80.0927 104.005C80.3155 103.818 80.4269 103.542 80.4269 103.179V102.774ZM81.1306 98.2883V98.3763C81.0309 98.4818 80.8931 98.6196 80.7172 98.7896C80.5413 98.9597 80.3566 99.1268 80.1631 99.291C79.9696 99.4552 79.8025 99.59 79.6617 99.6956H78.9229V99.5812C79.0168 99.4698 79.1223 99.3408 79.2396 99.1942C79.3568 99.0418 79.4712 98.8864 79.5826 98.7281C79.694 98.5639 79.7878 98.4173 79.864 98.2883H81.1306Z" fill="#FAFAFA"/>
<path d="M83.792 98.3411V101.516C83.792 101.663 83.7861 101.824 83.7744 102C83.7627 102.17 83.7509 102.331 83.7392 102.484H83.7656C83.8418 102.378 83.9298 102.258 84.0294 102.123C84.1291 101.988 84.2288 101.868 84.3285 101.762L85.7357 100.258H86.9935L85.0849 102.317L87.1166 105.026H85.8237L84.3461 102.985L83.792 103.442V105.026H82.6926V98.3411H83.792Z" fill="#FAFAFA"/>
<path d="M90.1386 100.171C90.2149 100.171 90.2999 100.176 90.3937 100.188C90.4875 100.194 90.5637 100.203 90.6224 100.214L90.5256 101.244C90.467 101.232 90.3937 101.223 90.3057 101.217C90.2237 101.205 90.1533 101.2 90.0947 101.2C89.8601 101.2 89.6402 101.249 89.435 101.349C89.2298 101.443 89.0627 101.589 88.9337 101.789C88.8105 101.988 88.749 102.243 88.749 102.554V105.026H87.6408V100.258H88.4939L88.6522 101.085H88.705C88.8457 100.833 89.0392 100.619 89.2855 100.443C89.5318 100.261 89.8161 100.171 90.1386 100.171Z" fill="#FAFAFA"/>
<path d="M93.029 100.171C93.6681 100.171 94.1724 100.361 94.5418 100.742C94.9171 101.123 95.1047 101.654 95.1047 102.334V102.897H91.956C91.9677 103.331 92.0879 103.668 92.3166 103.909C92.5453 104.143 92.8619 104.26 93.2665 104.26C93.5714 104.26 93.847 104.231 94.0932 104.172C94.3395 104.108 94.5917 104.017 94.8496 103.9V104.788C94.6151 104.899 94.3718 104.982 94.1196 105.034C93.8675 105.087 93.5655 105.113 93.2137 105.113C92.7446 105.113 92.3313 105.026 91.9736 104.85C91.6159 104.668 91.3345 104.398 91.1292 104.04C90.9299 103.677 90.8302 103.222 90.8302 102.677C90.8302 101.862 91.0296 101.241 91.4283 100.813C91.8329 100.385 92.3664 100.171 93.029 100.171ZM93.029 100.988C92.73 100.988 92.4866 101.085 92.299 101.279C92.1172 101.466 92.0117 101.748 91.9824 102.123H94.0317C94.0258 101.795 93.9408 101.525 93.7766 101.314C93.6183 101.097 93.3691 100.988 93.029 100.988Z" fill="#FAFAFA"/>
<path d="M99.2452 103.645C99.2452 104.125 99.0722 104.492 98.7263 104.744C98.3862 104.99 97.8966 105.113 97.2574 105.113C96.9232 105.113 96.6359 105.09 96.3955 105.043C96.161 104.996 95.9323 104.923 95.7095 104.823V103.882C95.944 103.994 96.202 104.087 96.4835 104.164C96.7708 104.24 97.0405 104.278 97.2926 104.278C97.5975 104.278 97.8174 104.231 97.9523 104.137C98.0871 104.043 98.1546 103.917 98.1546 103.759C98.1546 103.665 98.1282 103.583 98.0754 103.513C98.0226 103.437 97.92 103.354 97.7676 103.266C97.6151 103.179 97.3835 103.07 97.0727 102.941C96.7678 102.818 96.5128 102.695 96.3076 102.572C96.1082 102.449 95.9557 102.302 95.8502 102.132C95.7505 101.962 95.7007 101.742 95.7007 101.472C95.7007 101.044 95.8707 100.722 96.2108 100.505C96.5509 100.282 96.9995 100.171 97.5565 100.171C97.8497 100.171 98.1253 100.2 98.3833 100.258C98.6471 100.317 98.911 100.405 99.1748 100.522L98.823 101.34C98.6002 101.246 98.3832 101.167 98.1722 101.103C97.9611 101.038 97.7441 101.006 97.5213 101.006C97.0346 101.006 96.7913 101.144 96.7913 101.419C96.7913 101.519 96.8206 101.604 96.8792 101.675C96.9437 101.745 97.0522 101.821 97.2047 101.903C97.363 101.979 97.5858 102.073 97.8731 102.185C98.1546 102.296 98.3979 102.413 98.6031 102.536C98.8083 102.654 98.9667 102.8 99.0781 102.976C99.1895 103.146 99.2452 103.369 99.2452 103.645Z" fill="#FAFAFA"/>
<path d="M12.2698 31.413C12.8975 31.413 13.3549 31.5363 13.6418 31.7829C13.9288 32.0295 14.0723 32.377 14.0723 32.8254C14.0723 33.09 14.0118 33.3388 13.8907 33.572C13.7741 33.8007 13.5746 33.9867 13.2921 34.1302C13.0141 34.2737 12.6352 34.3454 12.1554 34.3454H11.6039V36.2152H10.9986V31.413H12.2698ZM12.216 31.9309H11.6039V33.8276H12.0882C12.5455 33.8276 12.8863 33.7536 13.1105 33.6056C13.3347 33.4576 13.4468 33.2065 13.4468 32.8523C13.4468 32.5429 13.3459 32.312 13.1441 32.1596C12.9468 32.0071 12.6375 31.9309 12.216 31.9309Z" fill="#1E1E1E"/>
<path d="M16.5976 32.5429C16.6649 32.5429 16.7366 32.5474 16.8129 32.5564C16.8891 32.5609 16.9586 32.5698 17.0214 32.5833L16.9474 33.1281C16.8891 33.1146 16.8241 33.1034 16.7523 33.0944C16.6806 33.0855 16.6156 33.081 16.5573 33.081C16.3734 33.081 16.2008 33.1326 16.0394 33.2357C15.878 33.3343 15.7479 33.4756 15.6493 33.6594C15.5551 33.8388 15.508 34.0495 15.508 34.2916V36.2152H14.9162V32.6102H15.4004L15.4677 33.2693H15.4946C15.6067 33.072 15.7547 32.9016 15.9385 32.7582C16.1268 32.6147 16.3465 32.5429 16.5976 32.5429ZM15.6493 32.1394C15.591 32.0407 15.5125 31.9309 15.4139 31.8098C15.3152 31.6887 15.2121 31.5699 15.1045 31.4533C14.9969 31.3368 14.9027 31.2359 14.822 31.1507V31.0632H15.2256C15.3421 31.1395 15.4632 31.2314 15.5888 31.339C15.7143 31.4466 15.8331 31.561 15.9452 31.682C16.0663 31.561 16.1896 31.4466 16.3151 31.339C16.4407 31.2314 16.5618 31.1395 16.6783 31.0632H17.0953V31.1507C17.0101 31.2359 16.9115 31.3368 16.7994 31.4533C16.6918 31.5699 16.5864 31.6887 16.4833 31.8098C16.3846 31.9309 16.3084 32.0407 16.2546 32.1394H15.6493Z" fill="#1E1E1E"/>
<path d="M17.9232 31.2583C18.0129 31.2583 18.0913 31.2897 18.1586 31.3525C18.2303 31.4107 18.2662 31.5049 18.2662 31.6349C18.2662 31.765 18.2303 31.8614 18.1586 31.9242C18.0913 31.9824 18.0129 32.0116 17.9232 32.0116C17.8245 32.0116 17.7416 31.9824 17.6743 31.9242C17.6071 31.8614 17.5735 31.765 17.5735 31.6349C17.5735 31.5049 17.6071 31.4107 17.6743 31.3525C17.7416 31.2897 17.8245 31.2583 17.9232 31.2583ZM18.2124 32.6102V36.2152H17.6205V32.6102H18.2124Z" fill="#1E1E1E"/>
<path d="M22.689 32.5429C23.1194 32.5429 23.4445 32.6483 23.6642 32.859C23.8839 33.0698 23.9938 33.4061 23.9938 33.8679V36.2152H23.4086V33.9083C23.4086 33.3298 23.1396 33.0406 22.6015 33.0406C22.2025 33.0406 21.9267 33.1527 21.7743 33.3769C21.6218 33.6011 21.5456 33.924 21.5456 34.3454V36.2152H20.9537V32.6102H21.4312L21.5187 33.1012H21.5523C21.6689 32.9128 21.8303 32.7738 22.0366 32.6842C22.2428 32.59 22.4603 32.5429 22.689 32.5429Z" fill="#1E1E1E"/>
<path d="M26.4027 32.5497C26.8421 32.5497 27.1672 32.6461 27.378 32.8389C27.5887 33.0317 27.6941 33.3388 27.6941 33.7603V36.2152H27.2636L27.1493 35.7041H27.1224C26.9654 35.9014 26.7995 36.0471 26.6247 36.1412C26.4498 36.2354 26.2122 36.2825 25.9117 36.2825C25.5844 36.2825 25.3131 36.1973 25.0979 36.0269C24.8827 35.852 24.7751 35.5808 24.7751 35.2131C24.7751 34.8544 24.9163 34.5786 25.1988 34.3858C25.4813 34.1885 25.9162 34.0809 26.5036 34.063L27.1157 34.0428V33.8276C27.1157 33.5271 27.0506 33.3186 26.9206 33.2021C26.7906 33.0855 26.6067 33.0272 26.3691 33.0272C26.1808 33.0272 26.0014 33.0563 25.831 33.1146C25.6606 33.1684 25.5015 33.2312 25.3535 33.3029L25.1719 32.859C25.3288 32.7738 25.5149 32.7021 25.7301 32.6438C25.9454 32.581 26.1696 32.5497 26.4027 32.5497ZM27.1089 34.4531L26.5776 34.4732C26.1292 34.4912 25.8176 34.5629 25.6427 34.6885C25.4723 34.814 25.3871 34.9911 25.3871 35.2198C25.3871 35.4216 25.4476 35.5695 25.5687 35.6637C25.6943 35.7579 25.8534 35.805 26.0462 35.805C26.3467 35.805 26.5978 35.722 26.7995 35.5561C27.0058 35.3857 27.1089 35.1256 27.1089 34.7759V34.4531ZM27.304 31.0632V31.1305C27.2457 31.2112 27.1605 31.3166 27.0484 31.4466C26.9408 31.5722 26.822 31.7 26.6919 31.83C26.5664 31.9555 26.4498 32.0587 26.3422 32.1394H25.9521V32.0587C26.0149 31.978 26.0866 31.8793 26.1673 31.7627C26.248 31.6417 26.3265 31.5206 26.4027 31.3995C26.4789 31.274 26.5417 31.1619 26.591 31.0632H27.304Z" fill="#1E1E1E"/>
<path d="M29.3187 31.1036V33.7738C29.3187 33.8455 29.3142 33.9397 29.3052 34.0562C29.3007 34.1728 29.2963 34.2737 29.2918 34.3589H29.3187C29.3456 34.323 29.3859 34.2715 29.4397 34.2042C29.4935 34.1369 29.5473 34.0697 29.6012 34.0024C29.6594 33.9307 29.7088 33.8724 29.7491 33.8276L30.8992 32.6102H31.592L30.1325 34.1504L31.6929 36.2152H30.9799L29.7289 34.5338L29.3187 34.8902V36.2152H28.7335V31.1036H29.3187Z" fill="#1E1E1E"/>
<path d="M33.9338 32.5429C34.0011 32.5429 34.0728 32.5474 34.149 32.5564C34.2252 32.5609 34.2947 32.5698 34.3575 32.5833L34.2835 33.1281C34.2252 33.1146 34.1602 33.1034 34.0885 33.0944C34.0167 33.0855 33.9517 33.081 33.8934 33.081C33.7096 33.081 33.537 33.1326 33.3756 33.2357C33.2141 33.3343 33.0841 33.4756 32.9855 33.6594C32.8913 33.8388 32.8442 34.0495 32.8442 34.2916V36.2152H32.2523V32.6102H32.7366L32.8039 33.2693H32.8308C32.9429 33.072 33.0908 32.9016 33.2747 32.7582C33.463 32.6147 33.6827 32.5429 33.9338 32.5429Z" fill="#1E1E1E"/>
<path d="M36.2176 32.5429C36.5225 32.5429 36.787 32.6102 37.0112 32.7447C37.2354 32.8792 37.4058 33.0698 37.5224 33.3164C37.6434 33.5585 37.704 33.8433 37.704 34.1706V34.527H35.2356C35.2446 34.9351 35.3477 35.2467 35.545 35.4619C35.7468 35.6727 36.027 35.778 36.3857 35.778C36.6144 35.778 36.8162 35.7579 36.991 35.7175C37.1704 35.6727 37.3542 35.6099 37.5426 35.5292V36.0471C37.3587 36.1278 37.1771 36.1861 36.9978 36.222C36.8184 36.2623 36.6054 36.2825 36.3588 36.2825C36.0136 36.2825 35.7109 36.213 35.4508 36.074C35.1908 35.935 34.9868 35.7287 34.8388 35.4552C34.6953 35.1817 34.6236 34.8432 34.6236 34.4396C34.6236 34.045 34.6886 33.7065 34.8186 33.424C34.9531 33.1415 35.1392 32.9241 35.3768 32.7716C35.619 32.6192 35.8992 32.5429 36.2176 32.5429ZM36.2108 33.0272C35.9284 33.0272 35.7042 33.1191 35.5383 33.3029C35.3768 33.4823 35.2804 33.7334 35.2491 34.0562H37.0852C37.0807 33.7513 37.009 33.5047 36.87 33.3164C36.731 33.1236 36.5113 33.0272 36.2108 33.0272Z" fill="#1E1E1E"/>
<path d="M40.8951 35.2198C40.8951 35.5695 40.765 35.8341 40.505 36.0135C40.2449 36.1928 39.8952 36.2825 39.4557 36.2825C39.2046 36.2825 38.9872 36.2623 38.8033 36.222C38.624 36.1816 38.4648 36.1255 38.3258 36.0538V35.5157C38.4693 35.5875 38.6419 35.6547 38.8437 35.7175C39.05 35.7758 39.2585 35.805 39.4692 35.805C39.7696 35.805 39.9871 35.7579 40.1216 35.6637C40.2561 35.5651 40.3234 35.435 40.3234 35.2736C40.3234 35.1839 40.2987 35.1032 40.2494 35.0315C40.2001 34.9597 40.1104 34.888 39.9804 34.8163C39.8548 34.7445 39.6732 34.6638 39.4356 34.5741C39.2024 34.4844 39.0029 34.3948 38.837 34.3051C38.6711 34.2154 38.5433 34.1078 38.4536 33.9823C38.3639 33.8567 38.3191 33.6953 38.3191 33.498C38.3191 33.1931 38.4424 32.9577 38.689 32.7918C38.9401 32.6259 39.2674 32.5429 39.671 32.5429C39.8907 32.5429 40.0947 32.5653 40.283 32.6102C40.4758 32.655 40.6552 32.7133 40.8211 32.7851L40.6193 33.2559C40.4669 33.1931 40.3077 33.1393 40.1418 33.0944C39.9759 33.0496 39.8055 33.0272 39.6306 33.0272C39.3885 33.0272 39.2024 33.0675 39.0724 33.1483C38.9468 33.2245 38.884 33.3298 38.884 33.4644C38.884 33.5675 38.9132 33.6527 38.9715 33.7199C39.0298 33.7872 39.1262 33.8545 39.2607 33.9217C39.3997 33.989 39.5835 34.0652 39.8122 34.1504C40.0409 34.2356 40.2359 34.323 40.3974 34.4127C40.5588 34.5024 40.6821 34.6122 40.7673 34.7423C40.8525 34.8678 40.8951 35.027 40.8951 35.2198Z" fill="#1E1E1E"/>
<path d="M44.7053 32.6102V36.2152H44.2211L44.1337 35.7377H44.1068C43.9902 35.926 43.8288 36.065 43.6225 36.1547C43.4162 36.2399 43.1965 36.2825 42.9634 36.2825C42.5284 36.2825 42.2011 36.1794 41.9814 35.9731C41.7617 35.7624 41.6518 35.4283 41.6518 34.9709V32.6102H42.2504V34.9306C42.2504 35.5045 42.5172 35.7915 43.0508 35.7915C43.4499 35.7915 43.7256 35.6794 43.8781 35.4552C44.035 35.231 44.1135 34.9082 44.1135 34.4867V32.6102H44.7053Z" fill="#1E1E1E"/>
<path d="M50.5832 34.406C50.5832 35.0023 50.4308 35.4642 50.1259 35.7915C49.8255 36.1188 49.4174 36.2825 48.9018 36.2825C48.5834 36.2825 48.2987 36.2107 48.0476 36.0673C47.801 35.9193 47.6059 35.7063 47.4625 35.4283C47.319 35.1458 47.2472 34.805 47.2472 34.406C47.2472 33.8096 47.3952 33.35 47.6911 33.0272C47.9916 32.7043 48.4018 32.5429 48.922 32.5429C49.2448 32.5429 49.5318 32.6169 49.7829 32.7649C50.034 32.9084 50.229 33.1191 50.368 33.3971C50.5115 33.6706 50.5832 34.0069 50.5832 34.406ZM47.8593 34.406C47.8593 34.8319 47.9422 35.1705 48.1081 35.4216C48.2785 35.6682 48.5476 35.7915 48.9152 35.7915C49.2784 35.7915 49.5452 35.6682 49.7156 35.4216C49.886 35.1705 49.9712 34.8319 49.9712 34.406C49.9712 33.98 49.886 33.646 49.7156 33.4038C49.5452 33.1617 49.2762 33.0406 48.9085 33.0406C48.5408 33.0406 48.274 33.1617 48.1081 33.4038C47.9422 33.646 47.8593 33.98 47.8593 34.406Z" fill="#1E1E1E"/>
<path d="M52.6512 35.7982C52.7409 35.7982 52.8328 35.7915 52.927 35.778C53.0211 35.7646 53.0974 35.7467 53.1557 35.7242V36.1749C53.0929 36.2063 53.0032 36.2309 52.8866 36.2489C52.77 36.2713 52.6579 36.2825 52.5503 36.2825C52.362 36.2825 52.1871 36.2511 52.0257 36.1883C51.8688 36.1211 51.741 36.0067 51.6423 35.8453C51.5437 35.6839 51.4944 35.4575 51.4944 35.166V33.0675H50.9832V32.7851L51.5011 32.5497L51.7365 31.7829H52.0863V32.6102H53.1288V33.0675H52.0863V35.1525C52.0863 35.3723 52.1378 35.5359 52.2409 35.6435C52.3486 35.7467 52.4853 35.7982 52.6512 35.7982Z" fill="#1E1E1E"/>
<path d="M56.9378 34.406C56.9378 35.0023 56.7853 35.4642 56.4804 35.7915C56.18 36.1188 55.772 36.2825 55.2563 36.2825C54.938 36.2825 54.6532 36.2107 54.4021 36.0673C54.1555 35.9193 53.9605 35.7063 53.817 35.4283C53.6735 35.1458 53.6018 34.805 53.6018 34.406C53.6018 33.8096 53.7497 33.35 54.0457 33.0272C54.3461 32.7043 54.7564 32.5429 55.2765 32.5429C55.5993 32.5429 55.8863 32.6169 56.1374 32.7649C56.3885 32.9084 56.5835 33.1191 56.7225 33.3971C56.866 33.6706 56.9378 34.0069 56.9378 34.406ZM54.2138 34.406C54.2138 34.8319 54.2968 35.1705 54.4627 35.4216C54.6331 35.6682 54.9021 35.7915 55.2698 35.7915C55.633 35.7915 55.8998 35.6682 56.0701 35.4216C56.2405 35.1705 56.3257 34.8319 56.3257 34.406C56.3257 33.98 56.2405 33.646 56.0701 33.4038C55.8998 33.1617 55.6307 33.0406 55.263 33.0406C54.8954 33.0406 54.6286 33.1617 54.4627 33.4038C54.2968 33.646 54.2138 33.98 54.2138 34.406Z" fill="#1E1E1E"/>
<path d="M59.2479 36.2825C58.925 36.2825 58.6403 36.2175 58.3937 36.0874C58.1471 35.9574 57.952 35.7556 57.8086 35.4821C57.6696 35.2086 57.6001 34.8589 57.6001 34.4329C57.6001 33.989 57.6718 33.628 57.8153 33.35C57.9633 33.072 58.165 32.868 58.4206 32.738C58.6762 32.6079 58.9654 32.5429 59.2882 32.5429C59.4676 32.5429 59.6425 32.5631 59.8129 32.6035C59.9877 32.6393 60.129 32.6842 60.2366 32.738L60.055 33.229C59.9474 33.1886 59.8218 33.1505 59.6783 33.1146C59.5349 33.0788 59.4003 33.0608 59.2748 33.0608C58.5663 33.0608 58.2121 33.5159 58.2121 34.4262C58.2121 34.8611 58.2973 35.1951 58.4677 35.4283C58.6426 35.657 58.9004 35.7713 59.2412 35.7713C59.434 35.7713 59.6066 35.7511 59.759 35.7108C59.9115 35.6704 60.0505 35.6211 60.176 35.5628V36.0874C60.055 36.1502 59.9205 36.1973 59.7725 36.2287C59.629 36.2645 59.4541 36.2825 59.2479 36.2825ZM58.8309 32.1394C58.7726 32.0407 58.6941 31.9309 58.5955 31.8098C58.4968 31.6887 58.3937 31.5699 58.2861 31.4533C58.1785 31.3368 58.0843 31.2359 58.0036 31.1507V31.0632H58.4072C58.5237 31.1395 58.6448 31.2314 58.7704 31.339C58.8959 31.4466 59.0147 31.561 59.1268 31.682C59.2479 31.561 59.3712 31.4466 59.4967 31.339C59.6223 31.2314 59.7434 31.1395 59.8599 31.0632H60.2769V31.1507C60.1917 31.2359 60.0931 31.3368 59.981 31.4533C59.8734 31.5699 59.768 31.6887 59.6649 31.8098C59.5662 31.9309 59.49 32.0407 59.4362 32.1394H58.8309Z" fill="#1E1E1E"/>
<path d="M62.1633 35.7982C62.253 35.7982 62.3449 35.7915 62.4391 35.778C62.5332 35.7646 62.6095 35.7467 62.6678 35.7242V36.1749C62.605 36.2063 62.5153 36.2309 62.3987 36.2489C62.2821 36.2713 62.17 36.2825 62.0624 36.2825C61.8741 36.2825 61.6992 36.2511 61.5378 36.1883C61.3809 36.1211 61.2531 36.0067 61.1544 35.8453C61.0558 35.6839 61.0065 35.4575 61.0065 35.166V33.0675H60.4953V32.7851L61.0132 32.5497L61.2486 31.7829H61.5983V32.6102H62.6408V33.0675H61.5983V35.1525C61.5983 35.3723 61.6499 35.5359 61.753 35.6435C61.8606 35.7467 61.9974 35.7982 62.1633 35.7982Z" fill="#1E1E1E"/>
<path d="M64.7079 32.5429C65.0128 32.5429 65.2773 32.6102 65.5015 32.7447C65.7257 32.8792 65.8961 33.0698 66.0127 33.3164C66.1338 33.5585 66.1943 33.8433 66.1943 34.1706V34.527H63.7259C63.7349 34.9351 63.838 35.2467 64.0353 35.4619C64.2371 35.6727 64.5173 35.778 64.876 35.778C65.1047 35.778 65.3065 35.7579 65.4813 35.7175C65.6607 35.6727 65.8445 35.6099 66.0329 35.5292V36.0471C65.849 36.1278 65.6674 36.1861 65.4881 36.222C65.3087 36.2623 65.0957 36.2825 64.8491 36.2825C64.5039 36.2825 64.2012 36.213 63.9411 36.074C63.6811 35.935 63.4771 35.7287 63.3291 35.4552C63.1856 35.1817 63.1139 34.8432 63.1139 34.4396C63.1139 34.045 63.1789 33.7065 63.3089 33.424C63.4434 33.1415 63.6295 32.9241 63.8672 32.7716C64.1093 32.6192 64.3895 32.5429 64.7079 32.5429ZM64.7012 33.0272C64.4187 33.0272 64.1945 33.1191 64.0286 33.3029C63.8672 33.4823 63.7708 33.7334 63.7394 34.0562H65.5755C65.571 33.7513 65.4993 33.5047 65.3603 33.3164C65.2213 33.1236 65.0016 33.0272 64.7012 33.0272Z" fill="#1E1E1E"/>
<path d="M69.9151 35.7982C70.0048 35.7982 70.0967 35.7915 70.1909 35.778C70.2851 35.7646 70.3613 35.7467 70.4196 35.7242V36.1749C70.3568 36.2063 70.2671 36.2309 70.1505 36.2489C70.034 36.2713 69.9219 36.2825 69.8142 36.2825C69.6259 36.2825 69.451 36.2511 69.2896 36.1883C69.1327 36.1211 69.0049 36.0067 68.9063 35.8453C68.8076 35.6839 68.7583 35.4575 68.7583 35.166V33.0675H68.2471V32.7851L68.765 32.5497L69.0004 31.7829H69.3502V32.6102H70.3927V33.0675H69.3502V35.1525C69.3502 35.3723 69.4017 35.5359 69.5049 35.6435C69.6125 35.7467 69.7492 35.7982 69.9151 35.7982Z" fill="#1E1E1E"/>
<path d="M72.4597 32.5429C72.7646 32.5429 73.0292 32.6102 73.2533 32.7447C73.4775 32.8792 73.6479 33.0698 73.7645 33.3164C73.8856 33.5585 73.9461 33.8433 73.9461 34.1706V34.527H71.4777C71.4867 34.9351 71.5898 35.2467 71.7871 35.4619C71.9889 35.6727 72.2691 35.778 72.6278 35.778C72.8565 35.778 73.0583 35.7579 73.2332 35.7175C73.4125 35.6727 73.5964 35.6099 73.7847 35.5292V36.0471C73.6008 36.1278 73.4193 36.1861 73.2399 36.222C73.0605 36.2623 72.8476 36.2825 72.6009 36.2825C72.2557 36.2825 71.953 36.213 71.693 36.074C71.4329 35.935 71.2289 35.7287 71.0809 35.4552C70.9374 35.1817 70.8657 34.8432 70.8657 34.4396C70.8657 34.045 70.9307 33.7065 71.0607 33.424C71.1952 33.1415 71.3813 32.9241 71.619 32.7716C71.8611 32.6192 72.1413 32.5429 72.4597 32.5429ZM72.453 33.0272C72.1705 33.0272 71.9463 33.1191 71.7804 33.3029C71.619 33.4823 71.5226 33.7334 71.4912 34.0562H73.3273C73.3228 33.7513 73.2511 33.5047 73.1121 33.3164C72.9731 33.1236 72.7534 33.0272 72.453 33.0272Z" fill="#1E1E1E"/>
<path d="M75.3818 36.2152H74.7899V31.1036H75.3818V36.2152Z" fill="#1E1E1E"/>
<path d="M77.8421 32.5429C78.147 32.5429 78.4116 32.6102 78.6358 32.7447C78.86 32.8792 79.0304 33.0698 79.1469 33.3164C79.268 33.5585 79.3285 33.8433 79.3285 34.1706V34.527H76.8602C76.8691 34.9351 76.9723 35.2467 77.1696 35.4619C77.3713 35.6727 77.6516 35.778 78.0103 35.778C78.239 35.778 78.4407 35.7579 78.6156 35.7175C78.795 35.6727 78.9788 35.6099 79.1671 35.5292V36.0471C78.9833 36.1278 78.8017 36.1861 78.6223 36.222C78.443 36.2623 78.23 36.2825 77.9834 36.2825C77.6381 36.2825 77.3355 36.213 77.0754 36.074C76.8153 35.935 76.6113 35.7287 76.4633 35.4552C76.3199 35.1817 76.2481 34.8432 76.2481 34.4396C76.2481 34.045 76.3131 33.7065 76.4432 33.424C76.5777 33.1415 76.7638 32.9241 77.0014 32.7716C77.2435 32.6192 77.5238 32.5429 77.8421 32.5429ZM77.8354 33.0272C77.5529 33.0272 77.3287 33.1191 77.1628 33.3029C77.0014 33.4823 76.905 33.7334 76.8736 34.0562H78.7098C78.7053 33.7513 78.6335 33.5047 78.4945 33.3164C78.3555 33.1236 78.1358 33.0272 77.8354 33.0272Z" fill="#1E1E1E"/>
<path d="M81.8336 33.0675H80.9256V36.2152H80.3337V33.0675H79.7015V32.7918L80.3337 32.59V32.3815C80.3337 31.9152 80.4346 31.5811 80.6364 31.3794C80.8427 31.1731 81.1319 31.07 81.504 31.07C81.643 31.07 81.7731 31.0834 81.8941 31.1103C82.0152 31.1327 82.1183 31.1597 82.2035 31.191L82.0488 31.6551C81.9771 31.6327 81.8941 31.6103 81.8 31.5879C81.7058 31.5654 81.6094 31.5542 81.5108 31.5542C81.3135 31.5542 81.1655 31.6215 81.0669 31.756C80.9727 31.886 80.9256 32.0923 80.9256 32.3748V32.6102H81.8336V33.0675Z" fill="#1E1E1E"/>
<path d="M85.5446 34.406C85.5446 35.0023 85.3921 35.4642 85.0872 35.7915C84.7868 36.1188 84.3788 36.2825 83.8631 36.2825C83.5448 36.2825 83.26 36.2107 83.0089 36.0673C82.7623 35.9193 82.5673 35.7063 82.4238 35.4283C82.2803 35.1458 82.2086 34.805 82.2086 34.406C82.2086 33.8096 82.3565 33.35 82.6525 33.0272C82.9529 32.7043 83.3632 32.5429 83.8833 32.5429C84.2061 32.5429 84.4931 32.6169 84.7442 32.7649C84.9953 32.9084 85.1903 33.1191 85.3293 33.3971C85.4728 33.6706 85.5446 34.0069 85.5446 34.406ZM82.8206 34.406C82.8206 34.8319 82.9036 35.1705 83.0695 35.4216C83.2399 35.6682 83.5089 35.7915 83.8766 35.7915C84.2398 35.7915 84.5066 35.6682 84.6769 35.4216C84.8473 35.1705 84.9325 34.8319 84.9325 34.406C84.9325 33.98 84.8473 33.646 84.6769 33.4038C84.5066 33.1617 84.2375 33.0406 83.8698 33.0406C83.5022 33.0406 83.2354 33.1617 83.0695 33.4038C82.9036 33.646 82.8206 33.98 82.8206 34.406Z" fill="#1E1E1E"/>
<path d="M88.1439 32.5429C88.5743 32.5429 88.8994 32.6483 89.1191 32.859C89.3389 33.0698 89.4487 33.4061 89.4487 33.8679V36.2152H88.8636V33.9083C88.8636 33.3298 88.5945 33.0406 88.0565 33.0406C87.6574 33.0406 87.3816 33.1527 87.2292 33.3769C87.0767 33.6011 87.0005 33.924 87.0005 34.3454V36.2152H86.4086V32.6102H86.8862L86.9736 33.1012H87.0072C87.1238 32.9128 87.2852 32.7738 87.4915 32.6842C87.6977 32.59 87.9152 32.5429 88.1439 32.5429Z" fill="#1E1E1E"/>
<path d="M93.4434 36.2825C92.995 36.2825 92.6363 36.1278 92.3672 35.8184C92.0982 35.5045 91.9637 35.0382 91.9637 34.4194C91.9637 33.8007 92.0982 33.3343 92.3672 33.0205C92.6407 32.7021 93.0017 32.5429 93.4501 32.5429C93.7281 32.5429 93.9545 32.5945 94.1294 32.6976C94.3087 32.8008 94.4545 32.9263 94.5666 33.0743H94.6069C94.598 33.016 94.589 32.9308 94.58 32.8187C94.5711 32.7021 94.5666 32.6102 94.5666 32.5429V31.1036H95.1584V36.2152H94.6809L94.5935 35.731H94.5666C94.459 35.8834 94.3155 36.0135 94.1361 36.1211C93.9568 36.2287 93.7258 36.2825 93.4434 36.2825ZM93.5375 35.7915C93.9186 35.7915 94.1854 35.6884 94.3379 35.4821C94.4948 35.2714 94.5733 34.9553 94.5733 34.5338V34.4262C94.5733 33.9778 94.4993 33.6348 94.3513 33.3971C94.2034 33.155 93.9299 33.0339 93.5308 33.0339C93.2124 33.0339 92.9725 33.1617 92.8111 33.4173C92.6542 33.6684 92.5757 34.0069 92.5757 34.4329C92.5757 34.8633 92.6542 35.1974 92.8111 35.435C92.9725 35.6727 93.2147 35.7915 93.5375 35.7915Z" fill="#1E1E1E"/>
<path d="M99.3637 34.406C99.3637 35.0023 99.2112 35.4642 98.9063 35.7915C98.6059 36.1188 98.1979 36.2825 97.6822 36.2825C97.3639 36.2825 97.0791 36.2107 96.828 36.0673C96.5814 35.9193 96.3864 35.7063 96.2429 35.4283C96.0994 35.1458 96.0276 34.805 96.0276 34.406C96.0276 33.8096 96.1756 33.35 96.4716 33.0272C96.772 32.7043 97.1823 32.5429 97.7024 32.5429C98.0252 32.5429 98.3122 32.6169 98.5633 32.7649C98.8144 32.9084 99.0094 33.1191 99.1484 33.3971C99.2919 33.6706 99.3637 34.0069 99.3637 34.406ZM96.6397 34.406C96.6397 34.8319 96.7226 35.1705 96.8886 35.4216C97.0589 35.6682 97.328 35.7915 97.6957 35.7915C98.0588 35.7915 98.3256 35.6682 98.496 35.4216C98.6664 35.1705 98.7516 34.8319 98.7516 34.406C98.7516 33.98 98.6664 33.646 98.496 33.4038C98.3256 33.1617 98.0566 33.0406 97.6889 33.0406C97.3213 33.0406 97.0545 33.1617 96.8886 33.4038C96.7226 33.646 96.6397 33.98 96.6397 34.406Z" fill="#1E1E1E"/>
<path d="M102.493 31.1036V32.6035C102.493 32.7828 102.482 32.951 102.459 33.1079H102.499C102.616 32.9241 102.773 32.7851 102.97 32.6909C103.172 32.5967 103.39 32.5497 103.623 32.5497C104.058 32.5497 104.385 32.655 104.605 32.8658C104.829 33.072 104.941 33.4061 104.941 33.8679V36.2152H104.356V33.9083C104.356 33.3298 104.087 33.0406 103.549 33.0406C103.145 33.0406 102.867 33.155 102.715 33.3837C102.567 33.6078 102.493 33.9307 102.493 34.3522V36.2152H101.901V31.1036H102.493Z" fill="#1E1E1E"/>
<path d="M109.119 34.406C109.119 35.0023 108.966 35.4642 108.661 35.7915C108.361 36.1188 107.953 36.2825 107.437 36.2825C107.119 36.2825 106.834 36.2107 106.583 36.0673C106.337 35.9193 106.141 35.7063 105.998 35.4283C105.855 35.1458 105.783 34.805 105.783 34.406C105.783 33.8096 105.931 33.35 106.227 33.0272C106.527 32.7043 106.937 32.5429 107.457 32.5429C107.78 32.5429 108.067 32.6169 108.318 32.7649C108.569 32.9084 108.765 33.1191 108.904 33.3971C109.047 33.6706 109.119 34.0069 109.119 34.406ZM106.395 34.406C106.395 34.8319 106.478 35.1705 106.644 35.4216C106.814 35.6682 107.083 35.7915 107.451 35.7915C107.814 35.7915 108.081 35.6682 108.251 35.4216C108.422 35.1705 108.507 34.8319 108.507 34.406C108.507 33.98 108.422 33.646 108.251 33.4038C108.081 33.1617 107.812 33.0406 107.444 33.0406C107.076 33.0406 106.81 33.1617 106.644 33.4038C106.478 33.646 106.395 33.98 106.395 34.406Z" fill="#1E1E1E"/>
<path d="M111.664 32.5429C111.732 32.5429 111.803 32.5474 111.88 32.5564C111.956 32.5609 112.025 32.5698 112.088 32.5833L112.014 33.1281C111.956 33.1146 111.891 33.1034 111.819 33.0944C111.747 33.0855 111.682 33.081 111.624 33.081C111.44 33.081 111.267 33.1326 111.106 33.2357C110.945 33.3343 110.815 33.4756 110.716 33.6594C110.622 33.8388 110.575 34.0495 110.575 34.2916V36.2152H109.983V32.6102H110.467L110.534 33.2693H110.561C110.673 33.072 110.821 32.9016 111.005 32.7582C111.193 32.6147 111.413 32.5429 111.664 32.5429Z" fill="#1E1E1E"/>
<path d="M112.99 31.2583C113.08 31.2583 113.158 31.2897 113.225 31.3525C113.297 31.4107 113.333 31.5049 113.333 31.6349C113.333 31.765 113.297 31.8614 113.225 31.9242C113.158 31.9824 113.08 32.0116 112.99 32.0116C112.891 32.0116 112.808 31.9824 112.741 31.9242C112.674 31.8614 112.64 31.765 112.64 31.6349C112.64 31.5049 112.674 31.4107 112.741 31.3525C112.808 31.2897 112.891 31.2583 112.99 31.2583ZM113.279 32.6102V36.2152H112.687V32.6102H113.279Z" fill="#1E1E1E"/>
<path d="M116.674 36.2152H114.038V35.8251L115.975 33.0675H114.152V32.6102H116.627V33.0541L114.717 35.7579H116.674V36.2152Z" fill="#1E1E1E"/>
<path d="M120.567 34.406C120.567 35.0023 120.414 35.4642 120.109 35.7915C119.809 36.1188 119.401 36.2825 118.885 36.2825C118.567 36.2825 118.282 36.2107 118.031 36.0673C117.785 35.9193 117.589 35.7063 117.446 35.4283C117.302 35.1458 117.231 34.805 117.231 34.406C117.231 33.8096 117.379 33.35 117.675 33.0272C117.975 32.7043 118.385 32.5429 118.905 32.5429C119.228 32.5429 119.515 32.6169 119.766 32.7649C120.017 32.9084 120.213 33.1191 120.352 33.3971C120.495 33.6706 120.567 34.0069 120.567 34.406ZM117.843 34.406C117.843 34.8319 117.926 35.1705 118.092 35.4216C118.262 35.6682 118.531 35.7915 118.899 35.7915C119.262 35.7915 119.529 35.6682 119.699 35.4216C119.87 35.1705 119.955 34.8319 119.955 34.406C119.955 33.98 119.87 33.646 119.699 33.4038C119.529 33.1617 119.26 33.0406 118.892 33.0406C118.524 33.0406 118.258 33.1617 118.092 33.4038C117.926 33.646 117.843 33.98 117.843 34.406Z" fill="#1E1E1E"/>
<path d="M123.166 32.5429C123.597 32.5429 123.922 32.6483 124.141 32.859C124.361 33.0698 124.471 33.4061 124.471 33.8679V36.2152H123.886V33.9083C123.886 33.3298 123.617 33.0406 123.079 33.0406C122.68 33.0406 122.404 33.1527 122.251 33.3769C122.099 33.6011 122.023 33.924 122.023 34.3454V36.2152H121.431V32.6102H121.908L121.996 33.1012H122.029C122.146 32.9128 122.307 32.7738 122.514 32.6842C122.72 32.59 122.937 32.5429 123.166 32.5429Z" fill="#1E1E1E"/>
<path d="M126.718 35.7982C126.808 35.7982 126.9 35.7915 126.994 35.778C127.088 35.7646 127.165 35.7467 127.223 35.7242V36.1749C127.16 36.2063 127.07 36.2309 126.954 36.2489C126.837 36.2713 126.725 36.2825 126.618 36.2825C126.429 36.2825 126.254 36.2511 126.093 36.1883C125.936 36.1211 125.808 36.0067 125.71 35.8453C125.611 35.6839 125.562 35.4575 125.562 35.166V33.0675H125.05V32.7851L125.568 32.5497L125.804 31.7829H126.153V32.6102H127.196V33.0675H126.153V35.1525C126.153 35.3723 126.205 35.5359 126.308 35.6435C126.416 35.7467 126.552 35.7982 126.718 35.7982Z" fill="#1E1E1E"/>
<path d="M129.236 32.5497C129.675 32.5497 130.001 32.6461 130.211 32.8389C130.422 33.0317 130.527 33.3388 130.527 33.7603V36.2152H130.097L129.983 35.7041H129.956C129.799 35.9014 129.633 36.0471 129.458 36.1412C129.283 36.2354 129.045 36.2825 128.745 36.2825C128.418 36.2825 128.146 36.1973 127.931 36.0269C127.716 35.852 127.608 35.5808 127.608 35.2131C127.608 34.8544 127.75 34.5786 128.032 34.3858C128.315 34.1885 128.75 34.0809 129.337 34.063L129.949 34.0428V33.8276C129.949 33.5271 129.884 33.3186 129.754 33.2021C129.624 33.0855 129.44 33.0272 129.202 33.0272C129.014 33.0272 128.835 33.0563 128.664 33.1146C128.494 33.1684 128.335 33.2312 128.187 33.3029L128.005 32.859C128.162 32.7738 128.348 32.7021 128.563 32.6438C128.779 32.581 129.003 32.5497 129.236 32.5497ZM129.942 34.4531L129.411 34.4732C128.963 34.4912 128.651 34.5629 128.476 34.6885C128.306 34.814 128.22 34.9911 128.22 35.2198C128.22 35.4216 128.281 35.5695 128.402 35.6637C128.528 35.7579 128.687 35.805 128.88 35.805C129.18 35.805 129.431 35.722 129.633 35.5561C129.839 35.3857 129.942 35.1256 129.942 34.7759V34.4531ZM130.137 31.0632V31.1305C130.079 31.2112 129.994 31.3166 129.882 31.4466C129.774 31.5722 129.655 31.7 129.525 31.83C129.4 31.9555 129.283 32.0587 129.176 32.1394H128.785V32.0587C128.848 31.978 128.92 31.8793 129.001 31.7627C129.081 31.6417 129.16 31.5206 129.236 31.3995C129.312 31.274 129.375 31.1619 129.424 31.0632H130.137Z" fill="#1E1E1E"/>
<path d="M132.159 36.2152H131.567V31.1036H132.159V36.2152Z" fill="#1E1E1E"/>
<path d="M134.962 32.5429C135.393 32.5429 135.718 32.6483 135.937 32.859C136.157 33.0698 136.267 33.4061 136.267 33.8679V36.2152H135.682V33.9083C135.682 33.3298 135.413 33.0406 134.875 33.0406C134.476 33.0406 134.2 33.1527 134.047 33.3769C133.895 33.6011 133.819 33.924 133.819 34.3454V36.2152H133.227V32.6102H133.704L133.792 33.1012H133.825C133.942 32.9128 134.103 32.7738 134.31 32.6842C134.516 32.59 134.733 32.5429 134.962 32.5429Z" fill="#1E1E1E"/>
<path d="M137.902 36.2152H137.311V32.6102H137.902V36.2152ZM138.555 31.0632V31.1305C138.497 31.2112 138.411 31.3166 138.299 31.4466C138.192 31.5722 138.073 31.7 137.943 31.83C137.817 31.9555 137.701 32.0587 137.593 32.1394H137.203V32.0587C137.266 31.978 137.337 31.8793 137.418 31.7627C137.499 31.6417 137.577 31.5206 137.654 31.3995C137.73 31.274 137.793 31.1619 137.842 31.0632H138.555Z" fill="#1E1E1E"/>
<path d="M12.633 39.7861C13.0769 39.7861 13.4333 39.9408 13.7024 40.2502C13.9759 40.5596 14.1126 41.0259 14.1126 41.6492C14.1126 42.2635 13.9759 42.7298 13.7024 43.0481C13.4333 43.3665 13.0746 43.5257 12.6262 43.5257C12.3482 43.5257 12.1173 43.4741 11.9335 43.371C11.7541 43.2678 11.6129 43.1445 11.5098 43.0011H11.4694C11.4739 43.0773 11.4806 43.1737 11.4896 43.2903C11.503 43.4069 11.5098 43.5077 11.5098 43.5929V45.0726H10.9179V39.8534H11.4021L11.4829 40.3444H11.5098C11.6174 40.1874 11.7586 40.0551 11.9335 39.9475C12.1084 39.8399 12.3415 39.7861 12.633 39.7861ZM12.5254 40.2838C12.1577 40.2838 11.8976 40.387 11.7452 40.5932C11.5927 40.7995 11.5142 41.1133 11.5098 41.5348V41.6492C11.5098 42.0931 11.5815 42.4361 11.725 42.6782C11.873 42.9159 12.1442 43.0347 12.5388 43.0347C12.754 43.0347 12.9334 42.9764 13.0769 42.8598C13.2204 42.7388 13.3257 42.5728 13.393 42.3621C13.4647 42.1514 13.5006 41.9115 13.5006 41.6424C13.5006 41.2299 13.4199 40.9004 13.2585 40.6537C13.1015 40.4071 12.8572 40.2838 12.5254 40.2838Z" fill="#1E1E1E"/>
<path d="M18.1161 41.6492C18.1161 42.2455 17.9636 42.7074 17.6587 43.0347C17.3583 43.362 16.9503 43.5257 16.4346 43.5257C16.1163 43.5257 15.8316 43.4539 15.5805 43.3104C15.3338 43.1625 15.1388 42.9495 14.9953 42.6715C14.8518 42.389 14.7801 42.0482 14.7801 41.6492C14.7801 41.0528 14.9281 40.5932 15.224 40.2704C15.5244 39.9475 15.9347 39.7861 16.4548 39.7861C16.7776 39.7861 17.0646 39.8601 17.3157 40.0081C17.5668 40.1516 17.7619 40.3623 17.9009 40.6403C18.0443 40.9138 18.1161 41.2501 18.1161 41.6492ZM15.3921 41.6492C15.3921 42.0751 15.4751 42.4137 15.641 42.6648C15.8114 42.9114 16.0804 43.0347 16.4481 43.0347C16.8113 43.0347 17.0781 42.9114 17.2485 42.6648C17.4188 42.4137 17.504 42.0751 17.504 41.6492C17.504 41.2232 17.4188 40.8892 17.2485 40.647C17.0781 40.4049 16.809 40.2838 16.4414 40.2838C16.0737 40.2838 15.8069 40.4049 15.641 40.647C15.4751 40.8892 15.3921 41.2232 15.3921 41.6492Z" fill="#1E1E1E"/>
<path d="M19.572 43.4584H18.9801V38.3468H19.572V43.4584Z" fill="#1E1E1E"/>
<path d="M23.7744 41.6492C23.7744 42.2455 23.6219 42.7074 23.317 43.0347C23.0166 43.362 22.6086 43.5257 22.0929 43.5257C21.7746 43.5257 21.4899 43.4539 21.2388 43.3104C20.9921 43.1625 20.7971 42.9495 20.6536 42.6715C20.5101 42.389 20.4384 42.0482 20.4384 41.6492C20.4384 41.0528 20.5864 40.5932 20.8823 40.2704C21.1827 39.9475 21.593 39.7861 22.1131 39.7861C22.436 39.7861 22.7229 39.8601 22.974 40.0081C23.2251 40.1516 23.4202 40.3623 23.5592 40.6403C23.7027 40.9138 23.7744 41.2501 23.7744 41.6492ZM21.0504 41.6492C21.0504 42.0751 21.1334 42.4137 21.2993 42.6648C21.4697 42.9114 21.7387 43.0347 22.1064 43.0347C22.4696 43.0347 22.7364 42.9114 22.9068 42.6648C23.0771 42.4137 23.1623 42.0751 23.1623 41.6492C23.1623 41.2232 23.0771 40.8892 22.9068 40.647C22.7364 40.4049 22.4673 40.2838 22.0997 40.2838C21.732 40.2838 21.4652 40.4049 21.2993 40.647C21.1334 40.8892 21.0504 41.2232 21.0504 41.6492Z" fill="#1E1E1E"/>
<path d="M25.2303 38.3468V39.8466C25.2303 40.026 25.2191 40.1942 25.1967 40.3511H25.237C25.3536 40.1672 25.5106 40.0282 25.7079 39.9341C25.9096 39.8399 26.1271 39.7928 26.3603 39.7928C26.7952 39.7928 27.1225 39.8982 27.3422 40.109C27.5664 40.3152 27.6785 40.6493 27.6785 41.1111V43.4584H27.0934V41.1515C27.0934 40.573 26.8243 40.2838 26.2863 40.2838C25.8827 40.2838 25.6047 40.3982 25.4523 40.6268C25.3043 40.851 25.2303 41.1739 25.2303 41.5954V43.4584H24.6384V38.3468H25.2303Z" fill="#1E1E1E"/>
<path d="M28.1572 39.8534H28.7894L29.5696 41.9048C29.6368 42.0886 29.6974 42.2612 29.7512 42.4226C29.805 42.5841 29.8453 42.7388 29.8722 42.8867H29.8991C29.926 42.7746 29.9686 42.6289 30.0269 42.4495C30.0852 42.2657 30.1458 42.0819 30.2085 41.898L30.9416 39.8534H31.5806L30.0269 43.9561C29.8969 44.2969 29.7332 44.5682 29.5359 44.7699C29.3387 44.9717 29.0651 45.0726 28.7154 45.0726C28.6078 45.0726 28.5136 45.0659 28.4329 45.0524C28.3522 45.0435 28.2827 45.0323 28.2244 45.0188V44.548C28.2737 44.557 28.332 44.5659 28.3993 44.5749C28.471 44.5839 28.545 44.5884 28.6212 44.5884C28.8275 44.5884 28.9934 44.5301 29.1189 44.4135C29.2445 44.2969 29.3454 44.1422 29.4216 43.9494L29.6099 43.4719L28.1572 39.8534Z" fill="#1E1E1E"/>
<path d="M31.72 43.0952C31.72 42.9293 31.7604 42.8127 31.8411 42.7455C31.9218 42.6782 32.0182 42.6446 32.1303 42.6446C32.2424 42.6446 32.341 42.6782 32.4262 42.7455C32.5114 42.8127 32.554 42.9293 32.554 43.0952C32.554 43.2566 32.5114 43.3732 32.4262 43.445C32.341 43.5167 32.2424 43.5526 32.1303 43.5526C32.0182 43.5526 31.9218 43.5167 31.8411 43.445C31.7604 43.3732 31.72 43.2566 31.72 43.0952Z" fill="#1E1E1E"/>
<defs>
<linearGradient id="paint0_linear_5168_6666" x1="7.7605" y1="97.4495" x2="28.4259" y2="150.877" gradientUnits="userSpaceOnUse">
<stop stop-color="#C40127"/>
<stop offset="1" stop-color="#ED3C19"/>
</linearGradient>
</defs>
</svg>
