<svg width="181" height="151" viewBox="0 0 181 151" fill="none" xmlns="http://www.w3.org/2000/svg">
<path d="M0 23C0 14.9493 0 10.9239 1.5743 7.8489C2.9591 5.14407 5.16876 2.94497 7.88658 1.56678C10.9763 0 15.021 0 23.1104 0H157.44C165.529 0 169.574 0 172.664 1.56678C175.382 2.94497 177.591 5.14407 178.976 7.8489C180.55 10.9239 180.55 14.9493 180.55 23V127.459C180.55 135.509 180.55 139.535 178.976 142.61C177.591 145.315 175.382 147.514 172.664 148.892C169.574 150.459 165.529 150.459 157.44 150.459H23.1104C15.021 150.459 10.9763 150.459 7.88658 148.892C5.16876 147.514 2.9591 145.315 1.5743 142.61C0 139.535 0 135.509 0 127.459V23Z" fill="#F2F2F2"/>
<path d="M9.62938 125.063C9.62938 121.486 9.62938 119.698 10.2969 118.319C10.9595 116.95 12.0695 115.845 13.4453 115.185C14.8314 114.521 16.6282 114.521 20.2217 114.521H160.329C163.922 114.521 165.719 114.521 167.105 115.185C168.481 115.845 169.591 116.95 170.253 118.319C170.921 119.698 170.921 121.486 170.921 125.063C170.921 128.639 170.921 130.427 170.253 131.807C169.591 133.176 168.481 134.281 167.105 134.94C165.719 135.604 163.922 135.604 160.329 135.604H20.2217C16.6282 135.604 14.8314 135.604 13.4453 134.94C12.0695 134.281 10.9595 133.176 10.2969 131.807C9.62938 130.427 9.62938 128.639 9.62938 125.063Z" fill="#0FC26C"/>
<path d="M60.3105 122.122C61.069 122.122 61.6201 122.279 61.9639 122.594C62.3131 122.904 62.4877 123.338 62.4877 123.897C62.4877 124.229 62.4168 124.538 62.2749 124.826C62.133 125.114 61.893 125.347 61.5546 125.527C61.2218 125.706 60.7689 125.795 60.1959 125.795H59.6148V127.938H58.5671V122.122H60.3105ZM60.245 122.985H59.6148V124.932H60.0895C60.5152 124.932 60.8425 124.856 61.0717 124.704C61.3064 124.546 61.4237 124.291 61.4237 123.938C61.4237 123.618 61.3282 123.379 61.1372 123.221C60.9462 123.064 60.6488 122.985 60.245 122.985Z" fill="#FAFAFA"/>
<path d="M65.654 123.441C65.725 123.441 65.8041 123.447 65.8914 123.458C65.9787 123.463 66.0496 123.471 66.1042 123.482L66.0142 124.435C65.9596 124.424 65.8914 124.416 65.8096 124.411C65.7332 124.4 65.6677 124.394 65.6131 124.394C65.3949 124.394 65.1902 124.44 64.9992 124.533C64.8083 124.62 64.6528 124.755 64.5327 124.94C64.4181 125.125 64.3608 125.361 64.3608 125.649V127.938H63.3295V123.523H64.1235L64.2708 124.288H64.3199C64.4509 124.055 64.6309 123.857 64.8601 123.694C65.0893 123.525 65.3539 123.441 65.654 123.441ZM64.1235 123.001C64.0471 122.882 63.9488 122.749 63.8288 122.602C63.7088 122.45 63.5833 122.306 63.4523 122.17C63.3213 122.029 63.2067 121.907 63.1085 121.804V121.698H63.7961C63.9379 121.785 64.088 121.891 64.2462 122.016C64.4045 122.135 64.5545 122.268 64.6964 122.415C64.8383 122.268 64.9911 122.135 65.1548 122.016C65.3239 121.891 65.4794 121.785 65.6213 121.698H66.317V121.804C66.2188 121.907 66.1015 122.029 65.9651 122.17C65.8341 122.306 65.7059 122.45 65.5804 122.602C65.4603 122.749 65.3648 122.882 65.2939 123.001H64.1235Z" fill="#FAFAFA"/>
<path d="M67.235 121.82C67.3878 121.82 67.5215 121.861 67.6361 121.942C67.7507 122.018 67.808 122.157 67.808 122.358C67.808 122.559 67.7507 122.7 67.6361 122.781C67.5215 122.863 67.3878 122.904 67.235 122.904C67.0768 122.904 66.9404 122.863 66.8258 122.781C66.7167 122.7 66.6621 122.559 66.6621 122.358C66.6621 122.157 66.7167 122.018 66.8258 121.942C66.9404 121.861 67.0768 121.82 67.235 121.82ZM67.7507 123.523V127.938H66.7194V123.523H67.7507Z" fill="#FAFAFA"/>
<path d="M70.3274 128.019C69.8145 128.019 69.3971 127.829 69.0751 127.449C68.7587 127.063 68.6004 126.493 68.6004 125.738C68.6004 124.978 68.7614 124.405 69.0833 124.02C69.4053 123.634 69.8281 123.441 70.352 123.441C70.6794 123.441 70.9468 123.504 71.1541 123.629C71.3669 123.753 71.5361 123.906 71.6616 124.085H71.7107C71.6943 124.009 71.6779 123.895 71.6616 123.743C71.6452 123.585 71.637 123.436 71.637 123.295V121.747H72.6683V127.938H71.8662L71.678 127.359H71.637C71.5115 127.544 71.3451 127.701 71.1377 127.832C70.9304 127.957 70.6603 128.019 70.3274 128.019ZM70.6385 127.188C71.0204 127.188 71.2878 127.08 71.4406 126.862C71.5988 126.645 71.6807 126.317 71.6861 125.877V125.746C71.6861 125.274 71.6097 124.913 71.457 124.663C71.3096 124.408 71.0313 124.28 70.6221 124.28C70.3056 124.28 70.0628 124.411 69.8936 124.671C69.7299 124.926 69.6481 125.288 69.6481 125.755C69.6481 126.222 69.7327 126.577 69.9018 126.822C70.071 127.066 70.3165 127.188 70.6385 127.188Z" fill="#FAFAFA"/>
<path d="M75.5468 123.441C76.1198 123.441 76.5536 123.566 76.8482 123.816C77.1484 124.066 77.2984 124.451 77.2984 124.973V127.938H76.57L76.3653 127.327H76.3326C76.1416 127.566 75.9397 127.742 75.7269 127.856C75.5141 127.965 75.2249 128.019 74.8593 128.019C74.461 128.019 74.1308 127.908 73.8689 127.685C73.607 127.463 73.476 127.118 73.476 126.651C73.476 126.195 73.6425 125.852 73.9753 125.624C74.3136 125.396 74.8238 125.269 75.5059 125.241L76.2753 125.217V124.997C76.2753 124.715 76.2071 124.514 76.0707 124.394C75.9343 124.275 75.7433 124.215 75.4977 124.215C75.274 124.215 75.0585 124.248 74.8511 124.313C74.6492 124.373 74.4473 124.449 74.2454 124.541L73.918 123.824C74.1363 123.71 74.3846 123.618 74.6629 123.547C74.9466 123.477 75.2413 123.441 75.5468 123.441ZM76.2753 125.852L75.7351 125.869C75.2822 125.885 74.9684 125.964 74.7938 126.105C74.6192 126.241 74.5319 126.425 74.5319 126.659C74.5319 126.871 74.5919 127.023 74.712 127.115C74.8375 127.202 75.0012 127.245 75.2031 127.245C75.5032 127.245 75.7569 127.161 75.9643 126.993C76.1716 126.819 76.2753 126.564 76.2753 126.227V125.852Z" fill="#FAFAFA"/>
<path d="M80.1025 127.196C80.2281 127.196 80.3508 127.186 80.4709 127.164C80.5964 127.137 80.711 127.107 80.8146 127.074V127.84C80.7055 127.894 80.5636 127.938 80.389 127.97C80.2144 128.003 80.0316 128.019 79.8406 128.019C79.5842 128.019 79.3523 127.978 79.1449 127.897C78.943 127.816 78.782 127.672 78.662 127.465C78.5419 127.259 78.4819 126.968 78.4819 126.594V124.297H77.8844V123.849L78.5392 123.49L78.8666 122.553H79.5132V123.523H80.7737V124.297H79.5132V126.586C79.5132 126.792 79.5678 126.947 79.6769 127.05C79.7915 127.148 79.9334 127.196 80.1025 127.196Z" fill="#FAFAFA"/>
<path d="M84.8861 128.019C84.3731 128.019 83.9557 127.829 83.6338 127.449C83.3173 127.063 83.159 126.493 83.159 125.738C83.159 124.978 83.32 124.405 83.6419 124.02C83.9639 123.634 84.3868 123.441 84.9106 123.441C85.238 123.441 85.5054 123.504 85.7127 123.629C85.9255 123.753 86.0947 123.906 86.2202 124.085H86.2693C86.2529 124.009 86.2366 123.895 86.2202 123.743C86.2038 123.585 86.1956 123.436 86.1956 123.295V121.747H87.2269V127.938H86.4248L86.2366 127.359H86.1956C86.0701 127.544 85.9037 127.701 85.6964 127.832C85.489 127.957 85.2189 128.019 84.8861 128.019ZM85.1971 127.188C85.579 127.188 85.8464 127.08 85.9992 126.862C86.1574 126.645 86.2393 126.317 86.2448 125.877V125.746C86.2448 125.274 86.1684 124.913 86.0156 124.663C85.8682 124.408 85.59 124.28 85.1807 124.28C84.8642 124.28 84.6214 124.411 84.4522 124.671C84.2886 124.926 84.2067 125.288 84.2067 125.755C84.2067 126.222 84.2913 126.577 84.4604 126.822C84.6296 127.066 84.8751 127.188 85.1971 127.188Z" fill="#FAFAFA"/>
<path d="M92.299 125.722C92.299 126.455 92.108 127.023 91.7261 127.425C91.3441 127.821 90.8257 128.019 90.1709 128.019C89.7671 128.019 89.407 127.93 89.0905 127.75C88.774 127.571 88.5258 127.31 88.3457 126.968C88.1656 126.626 88.0756 126.211 88.0756 125.722C88.0756 124.989 88.2638 124.427 88.6404 124.036C89.0223 123.639 89.5407 123.441 90.1955 123.441C90.6047 123.441 90.9676 123.531 91.2841 123.71C91.6006 123.884 91.8489 124.142 92.0289 124.484C92.209 124.821 92.299 125.233 92.299 125.722ZM89.1314 125.722C89.1314 126.189 89.2133 126.55 89.377 126.805C89.5462 127.061 89.8163 127.188 90.1873 127.188C90.5529 127.188 90.8203 127.061 90.9894 126.805C91.1586 126.55 91.2432 126.189 91.2432 125.722C91.2432 125.255 91.1586 124.897 90.9894 124.647C90.8203 124.397 90.5502 124.272 90.1791 124.272C89.8081 124.272 89.5407 124.397 89.377 124.647C89.2133 124.897 89.1314 125.255 89.1314 125.722Z" fill="#FAFAFA"/>
<path d="M94.1813 121.747V124.688C94.1813 124.823 94.1758 124.973 94.1649 125.136C94.154 125.293 94.1431 125.442 94.1321 125.584H94.1567C94.2276 125.486 94.3095 125.375 94.4023 125.25C94.495 125.125 94.5878 125.013 94.6805 124.916L95.9901 123.523H97.1606L95.3844 125.429L97.2752 127.938H96.072L94.6969 126.048L94.1813 126.471V127.938H93.1581V121.747H94.1813Z" fill="#FAFAFA"/>
<path d="M101.7 123.523V127.938H100.89L100.75 127.368H100.701C100.559 127.596 100.363 127.761 100.112 127.864C99.861 127.968 99.5964 128.019 99.3181 128.019C98.8215 128.019 98.4314 127.892 98.1477 127.636C97.8694 127.381 97.7302 126.971 97.7302 126.406V123.523H98.7615V126.203C98.7615 126.534 98.827 126.781 98.958 126.944C99.0889 127.107 99.2963 127.188 99.58 127.188C99.9947 127.188 100.278 127.058 100.431 126.797C100.59 126.537 100.669 126.165 100.669 125.681V123.523H101.7Z" fill="#FAFAFA"/>
<path d="M107.89 123.441C108.392 123.441 108.769 123.569 109.02 123.824C109.276 124.079 109.404 124.492 109.404 125.062V127.938H108.373V125.258C108.373 124.601 108.122 124.272 107.62 124.272C107.26 124.272 107.004 124.389 106.851 124.622C106.698 124.856 106.622 125.195 106.622 125.641V127.938H105.59V125.258C105.59 124.601 105.337 124.272 104.829 124.272C104.453 124.272 104.193 124.402 104.052 124.663C103.91 124.924 103.839 125.296 103.839 125.779V127.938H102.807V123.523H103.601L103.749 124.101H103.806C103.942 123.873 104.128 123.707 104.363 123.604C104.597 123.496 104.843 123.441 105.099 123.441C105.432 123.441 105.71 123.496 105.934 123.604C106.163 123.713 106.338 123.887 106.458 124.125H106.54C106.676 123.887 106.867 123.713 107.113 123.604C107.358 123.496 107.617 123.441 107.89 123.441Z" fill="#FAFAFA"/>
<path d="M112.274 123.441C112.869 123.441 113.338 123.618 113.682 123.971C114.031 124.324 114.206 124.815 114.206 125.445V125.966H111.275C111.286 126.368 111.398 126.681 111.611 126.903C111.824 127.12 112.118 127.229 112.495 127.229C112.779 127.229 113.035 127.202 113.264 127.148C113.493 127.088 113.728 127.004 113.968 126.895V127.718C113.75 127.821 113.523 127.897 113.289 127.946C113.054 127.995 112.773 128.019 112.446 128.019C112.009 128.019 111.625 127.938 111.292 127.775C110.959 127.606 110.697 127.357 110.506 127.025C110.32 126.689 110.228 126.268 110.228 125.763C110.228 125.008 110.413 124.432 110.784 124.036C111.161 123.639 111.657 123.441 112.274 123.441ZM112.274 124.199C111.996 124.199 111.769 124.288 111.595 124.468C111.425 124.641 111.327 124.902 111.3 125.25H113.207C113.202 124.945 113.122 124.696 112.97 124.5C112.822 124.299 112.59 124.199 112.274 124.199Z" fill="#FAFAFA"/>
<path d="M117.412 123.441C117.909 123.441 118.296 123.569 118.574 123.824C118.858 124.079 119 124.492 119 125.062V127.938H117.969V125.266C117.969 124.935 117.903 124.688 117.772 124.525C117.641 124.356 117.434 124.272 117.15 124.272C116.735 124.272 116.452 124.402 116.299 124.663C116.146 124.924 116.07 125.296 116.07 125.779V127.938H115.038V123.523H115.832L115.98 124.101H116.037C116.179 123.873 116.373 123.707 116.618 123.604C116.869 123.496 117.134 123.441 117.412 123.441Z" fill="#FAFAFA"/>
<path d="M121.802 127.196C121.927 127.196 122.05 127.186 122.17 127.164C122.296 127.137 122.41 127.107 122.514 127.074V127.84C122.405 127.894 122.263 127.938 122.088 127.97C121.914 128.003 121.731 128.019 121.54 128.019C121.283 128.019 121.051 127.978 120.844 127.897C120.642 127.816 120.481 127.672 120.361 127.465C120.241 127.259 120.181 126.968 120.181 126.594V124.297H119.584V123.849L120.238 123.49L120.566 122.553H121.212V123.523H122.473V124.297H121.212V126.586C121.212 126.792 121.267 126.947 121.376 127.05C121.491 127.148 121.633 127.196 121.802 127.196Z" fill="#FAFAFA"/>
<path d="M9.41495 51.7501C9.41495 49.0736 9.41495 47.7353 9.7932 46.6595C10.4707 44.7325 11.993 43.2175 13.9292 42.5432C15.0102 42.1667 16.3549 42.1667 19.0443 42.1667C21.7337 42.1667 23.0784 42.1667 24.1594 42.5432C26.0956 43.2175 27.6179 44.7325 28.2954 46.6595C28.6736 47.7353 28.6736 49.0736 28.6736 51.7501C28.6736 54.4266 28.6736 55.7649 28.2954 56.8407C27.6179 58.7677 26.0956 60.2827 24.1594 60.957C23.0784 61.3334 21.7337 61.3334 19.0443 61.3334C16.3549 61.3334 15.0102 61.3334 13.9292 60.957C11.993 60.2827 10.4707 58.7677 9.7932 56.8407C9.41495 55.7649 9.41495 54.4266 9.41495 51.7501Z" fill="white"/>
<path d="M13.7482 46.4792H24.3404V57.0209H13.7482V46.4792Z" fill="#D9D9D9"/>
<path d="M19.044 53.5072C19.5957 53.5072 20.0646 53.315 20.4508 52.9307C20.8369 52.5464 21.03 52.0797 21.03 51.5306C21.03 50.9816 20.8369 50.5149 20.4508 50.1306C20.0646 49.7462 19.5957 49.5541 19.044 49.5541C18.4923 49.5541 18.0234 49.7462 17.6372 50.1306C17.251 50.5149 17.0579 50.9816 17.0579 51.5306C17.0579 52.0797 17.251 52.5464 17.6372 52.9307C18.0234 53.315 18.4923 53.5072 19.044 53.5072ZM19.044 52.7166C18.713 52.7166 18.4316 52.6013 18.1999 52.3707C17.9682 52.1401 17.8524 51.8601 17.8524 51.5306C17.8524 51.2012 17.9682 50.9212 18.1999 50.6906C18.4316 50.46 18.713 50.3447 19.044 50.3447C19.375 50.3447 19.6563 50.46 19.8881 50.6906C20.1198 50.9212 20.2356 51.2012 20.2356 51.5306C20.2356 51.8601 20.1198 52.1401 19.8881 52.3707C19.6563 52.6013 19.375 52.7166 19.044 52.7166ZM19.044 54.8249C17.97 54.8249 16.9917 54.5266 16.109 53.93C15.2263 53.3333 14.5864 52.5336 14.1892 51.5306C14.5864 50.5277 15.2263 49.7279 16.109 49.1313C16.9917 48.5347 17.97 48.2364 19.044 48.2364C20.1179 48.2364 21.0962 48.5347 21.9789 49.1313C22.8616 49.7279 23.5016 50.5277 23.8988 51.5306C23.5016 52.5336 22.8616 53.3333 21.9789 53.93C21.0962 54.5266 20.1179 54.8249 19.044 54.8249Z" fill="#1C1B1F"/>
<path d="M9.41495 87.6877C9.41495 85.0111 9.41495 83.6729 9.7932 82.597C10.4707 80.6701 11.993 79.155 13.9292 78.4808C15.0102 78.1043 16.3549 78.1043 19.0443 78.1043C21.7337 78.1043 23.0784 78.1043 24.1594 78.4808C26.0956 79.155 27.6179 80.6701 28.2954 82.597C28.6736 83.6729 28.6736 85.0111 28.6736 87.6877C28.6736 90.3642 28.6736 91.7024 28.2954 92.7783C27.6179 94.7052 26.0956 96.2203 24.1594 96.8946C23.0784 97.271 21.7337 97.271 19.0443 97.271C16.3549 97.271 15.0102 97.271 13.9292 96.8946C11.993 96.2203 10.4707 94.7052 9.7932 92.7783C9.41495 91.7024 9.41495 90.3642 9.41495 87.6877Z" fill="white"/>
<path d="M13.7482 82.4168H24.3404V92.9585H13.7482V82.4168Z" fill="#D9D9D9"/>
<path d="M19.044 89.4448C19.5957 89.4448 20.0646 89.2526 20.4508 88.8683C20.8369 88.4839 21.03 88.0172 21.03 87.4682C21.03 86.9191 20.8369 86.4525 20.4508 86.0681C20.0646 85.6838 19.5957 85.4916 19.044 85.4916C18.4923 85.4916 18.0234 85.6838 17.6372 86.0681C17.251 86.4525 17.0579 86.9191 17.0579 87.4682C17.0579 88.0172 17.251 88.4839 17.6372 88.8683C18.0234 89.2526 18.4923 89.4448 19.044 89.4448ZM19.044 88.6541C18.713 88.6541 18.4316 88.5388 18.1999 88.3082C17.9682 88.0776 17.8524 87.7976 17.8524 87.4682C17.8524 87.1388 17.9682 86.8587 18.1999 86.6281C18.4316 86.3975 18.713 86.2822 19.044 86.2822C19.375 86.2822 19.6563 86.3975 19.8881 86.6281C20.1198 86.8587 20.2356 87.1388 20.2356 87.4682C20.2356 87.7976 20.1198 88.0776 19.8881 88.3082C19.6563 88.5388 19.375 88.6541 19.044 88.6541ZM19.044 90.7625C17.97 90.7625 16.9917 90.4641 16.109 89.8675C15.2263 89.2709 14.5864 88.4711 14.1892 87.4682C14.5864 86.4653 15.2263 85.6655 16.109 85.0689C16.9917 84.4722 17.97 84.1739 19.044 84.1739C20.1179 84.1739 21.0962 84.4722 21.9789 85.0689C22.8616 85.6655 23.5016 86.4653 23.8988 87.4682C23.5016 88.4711 22.8616 89.2709 21.9789 89.8675C21.0962 90.4641 20.1179 90.7625 19.044 90.7625Z" fill="#1C1B1F"/>
<path d="M59.7174 42.1006C60.4868 42.1006 61.0543 42.2418 61.4198 42.5242C61.7909 42.8066 61.9764 43.2356 61.9764 43.8112C61.9764 44.0936 61.9219 44.3353 61.8127 44.5362C61.709 44.7372 61.5699 44.9055 61.3953 45.0413C61.2261 45.1716 61.0461 45.2775 60.8551 45.359L62.533 47.9167H61.3544L59.9547 45.6196H59.1035V47.9167H58.0558V42.1006H59.7174ZM59.6519 42.9722H59.1035V44.7643H59.6846C60.1212 44.7643 60.4349 44.6883 60.6259 44.5362C60.8169 44.3787 60.9124 44.1479 60.9124 43.8438C60.9124 43.5289 60.8087 43.3062 60.6014 43.1759C60.3995 43.0401 60.083 42.9722 59.6519 42.9722ZM59.3982 41.5793C59.3218 41.4598 59.2236 41.3268 59.1035 41.1801C58.9835 41.0281 58.858 40.8842 58.727 40.7484C58.596 40.6072 58.4815 40.485 58.3832 40.3818V40.2759H59.0708C59.2126 40.3628 59.3627 40.4687 59.5209 40.5936C59.6792 40.7131 59.8292 40.8462 59.9711 40.9928C60.113 40.8462 60.2658 40.7131 60.4295 40.5936C60.5986 40.4687 60.7541 40.3628 60.896 40.2759H61.5917V40.3818C61.4935 40.485 61.3762 40.6072 61.2398 40.7484C61.1088 40.8842 60.9806 41.0281 60.8551 41.1801C60.735 41.3268 60.6395 41.4598 60.5686 41.5793H59.3982Z" fill="#1E1E1E"/>
<path d="M63.654 41.7992C63.8068 41.7992 63.9404 41.8399 64.055 41.9214C64.1696 41.9974 64.2269 42.1359 64.2269 42.3368C64.2269 42.5378 64.1696 42.679 64.055 42.7604C63.9404 42.8419 63.8068 42.8826 63.654 42.8826C63.4957 42.8826 63.3593 42.8419 63.2447 42.7604C63.1356 42.679 63.081 42.5378 63.081 42.3368C63.081 42.1359 63.1356 41.9974 63.2447 41.9214C63.3593 41.8399 63.4957 41.7992 63.654 41.7992ZM64.1696 43.5017V47.9167H63.1383V43.5017H64.1696Z" fill="#1E1E1E"/>
<path d="M66.8427 47.9982C66.3297 47.9982 65.9123 47.8081 65.5904 47.428C65.2739 47.0424 65.1156 46.4722 65.1156 45.7174C65.1156 44.9571 65.2766 44.3842 65.5986 43.9986C65.9205 43.613 66.3434 43.4202 66.8672 43.4202C67.1946 43.4202 67.462 43.4827 67.6693 43.6076C67.8821 43.7325 68.0513 43.8846 68.1768 44.0638H68.2259C68.2095 43.9877 68.1932 43.8737 68.1768 43.7216C68.1604 43.5642 68.1523 43.4148 68.1523 43.2736V41.7259H69.1836V47.9167H68.3814L68.1932 47.3384H68.1523C68.0267 47.523 67.8603 47.6805 67.653 47.8109C67.4456 47.9358 67.1755 47.9982 66.8427 47.9982ZM67.1537 47.1673C67.5357 47.1673 67.803 47.0587 67.9558 46.8415C68.1141 46.6243 68.1959 46.2957 68.2014 45.8559V45.7255C68.2014 45.2531 68.125 44.8919 67.9722 44.6421C67.8249 44.3869 67.5466 44.2593 67.1373 44.2593C66.8208 44.2593 66.578 44.3896 66.4089 44.6503C66.2452 44.9055 66.1633 45.2666 66.1633 45.7337C66.1633 46.2007 66.2479 46.5564 66.417 46.8008C66.5862 47.0451 66.8317 47.1673 67.1537 47.1673Z" fill="#1E1E1E"/>
<path d="M70.9061 41.7992C71.0588 41.7992 71.1925 41.8399 71.3071 41.9214C71.4217 41.9974 71.479 42.1359 71.479 42.3368C71.479 42.5378 71.4217 42.679 71.3071 42.7604C71.1925 42.8419 71.0588 42.8826 70.9061 42.8826C70.7478 42.8826 70.6114 42.8419 70.4968 42.7604C70.3877 42.679 70.3331 42.5378 70.3331 42.3368C70.3331 42.1359 70.3877 41.9974 70.4968 41.9214C70.6114 41.8399 70.7478 41.7992 70.9061 41.7992ZM71.4217 43.5017V47.9167H70.3904V43.5017H71.4217Z" fill="#1E1E1E"/>
<path d="M74.4221 47.9982C73.7892 47.9982 73.2872 47.8163 72.9161 47.4524C72.5505 47.0886 72.3677 46.5157 72.3677 45.7337C72.3677 45.1906 72.4578 44.7507 72.6378 44.414C72.8233 44.0719 73.0771 43.8221 73.399 43.6646C73.721 43.5017 74.0893 43.4202 74.504 43.4202C74.7768 43.4202 75.0224 43.4474 75.2406 43.5017C75.4644 43.556 75.6526 43.6212 75.8054 43.6972L75.5026 44.5036C75.3279 44.4385 75.1561 44.3842 74.9869 44.3407C74.8177 44.2918 74.6568 44.2674 74.504 44.2674C73.7837 44.2674 73.4236 44.7534 73.4236 45.7255C73.4236 46.198 73.5136 46.5537 73.6937 46.7926C73.8792 47.0316 74.1439 47.151 74.4876 47.151C74.7332 47.151 74.9514 47.1212 75.1424 47.0614C75.3389 47.0017 75.5217 46.9202 75.6908 46.8171V47.705C75.5217 47.8081 75.3389 47.8815 75.1424 47.9249C74.946 47.9738 74.7059 47.9982 74.4221 47.9982ZM73.7264 42.9804C73.65 42.8609 73.5518 42.7278 73.4318 42.5812C73.3117 42.4292 73.1862 42.2853 73.0553 42.1495C72.9243 42.0083 72.8097 41.8861 72.7115 41.7829V41.677H73.399C73.5409 41.7639 73.691 41.8698 73.8492 41.9947C74.0074 42.1142 74.1575 42.2472 74.2994 42.3939C74.4412 42.2472 74.594 42.1142 74.7577 41.9947C74.9269 41.8698 75.0824 41.7639 75.2243 41.677H75.92V41.7829C75.8218 41.8861 75.7045 42.0083 75.568 42.1495C75.4371 42.2853 75.3088 42.4292 75.1833 42.5812C75.0633 42.7278 74.9678 42.8609 74.8969 42.9804H73.7264Z" fill="#1E1E1E"/>
<path d="M79.6396 46.6379C79.6396 47.0832 79.4786 47.4226 79.1567 47.6561C78.8402 47.8842 78.3846 47.9982 77.7898 47.9982C77.4788 47.9982 77.2114 47.9765 76.9877 47.933C76.7694 47.8896 76.5566 47.8217 76.3493 47.7294V46.8578C76.5675 46.961 76.8076 47.0479 77.0695 47.1185C77.3369 47.1891 77.5879 47.2244 77.8226 47.2244C78.1063 47.2244 78.3109 47.1809 78.4364 47.094C78.5619 47.0071 78.6247 46.8904 78.6247 46.7437C78.6247 46.6569 78.6001 46.5808 78.551 46.5157C78.5019 46.4451 78.4064 46.369 78.2645 46.2876C78.1227 46.2061 77.9071 46.1057 77.6179 45.9862C77.3342 45.8721 77.0968 45.7581 76.9058 45.6441C76.7203 45.53 76.5784 45.3942 76.4802 45.2368C76.3875 45.0793 76.3411 44.8756 76.3411 44.6258C76.3411 44.2294 76.4993 43.9307 76.8158 43.7298C77.1323 43.5234 77.5497 43.4202 78.0681 43.4202C78.3409 43.4202 78.5974 43.4474 78.8375 43.5017C79.083 43.556 79.3286 43.6375 79.5741 43.7461L79.2467 44.5036C79.0394 44.4167 78.8375 44.3434 78.6411 44.2837C78.4446 44.224 78.2427 44.1941 78.0354 44.1941C77.5825 44.1941 77.356 44.3217 77.356 44.577C77.356 44.6693 77.3833 44.748 77.4379 44.8132C77.4979 44.8783 77.5988 44.9489 77.7407 45.025C77.888 45.0956 78.0954 45.1825 78.3628 45.2856C78.6247 45.3888 78.8511 45.4974 79.0421 45.6115C79.2331 45.7201 79.3804 45.8559 79.4841 46.0188C79.5878 46.1763 79.6396 46.3826 79.6396 46.6379Z" fill="#1E1E1E"/>
<path d="M81.5443 41.7259V44.6666C81.5443 44.8023 81.5388 44.9517 81.5279 45.1146C81.517 45.2721 81.5061 45.4214 81.4952 45.5626H81.5197C81.5907 45.4648 81.6725 45.3535 81.7653 45.2286C81.858 45.1037 81.9508 44.9924 82.0436 44.8946L83.3532 43.5017H84.5236L82.7475 45.4078L84.6382 47.9167H83.435L82.0599 46.0269L81.5443 46.4505V47.9167H80.5212V41.7259H81.5443Z" fill="#1E1E1E"/>
<path d="M84.5593 43.5017H85.6806L86.5646 45.9943C86.6246 46.1518 86.6738 46.3093 86.712 46.4668C86.7501 46.6188 86.7774 46.7709 86.7938 46.923H86.8265C86.8484 46.7818 86.8811 46.6324 86.9248 46.4749C86.9684 46.312 87.0175 46.1518 87.0721 45.9943L87.9233 43.5017H89.0365L87.1458 48.5033C86.9766 48.9431 86.7447 49.2798 86.45 49.5133C86.1608 49.7523 85.8034 49.8718 85.3778 49.8718C85.2414 49.8718 85.1213 49.8636 85.0177 49.8473C84.9194 49.8365 84.8349 49.8229 84.7639 49.8066V48.992C84.824 49.0029 84.8949 49.0137 84.9767 49.0246C85.064 49.0354 85.1541 49.0409 85.2468 49.0409C85.4978 49.0409 85.6998 48.9649 85.8525 48.8128C86.0053 48.6662 86.1226 48.4815 86.2045 48.2589L86.3354 47.9005L84.5593 43.5017ZM88.2098 41.677V41.7585C88.117 41.8562 87.9888 41.9839 87.8251 42.1413C87.6614 42.2988 87.4895 42.4536 87.3095 42.6057C87.1294 42.7577 86.9739 42.8826 86.8429 42.9804H86.1554V42.8745C86.2427 42.7713 86.3409 42.6518 86.45 42.5161C86.5592 42.3749 86.6656 42.2309 86.7692 42.0843C86.8729 41.9323 86.9602 41.7965 87.0312 41.677H88.2098Z" fill="#1E1E1E"/>
<path d="M93.9358 43.4202C94.4542 43.4202 94.8717 43.613 95.1881 43.9986C95.5046 44.3787 95.6629 44.9462 95.6629 45.7011C95.6629 46.4559 95.4992 47.0289 95.1718 47.4198C94.8498 47.8054 94.4297 47.9982 93.9113 47.9982C93.5839 47.9982 93.3192 47.9385 93.1173 47.819C92.9155 47.6995 92.7545 47.561 92.6344 47.4036H92.569C92.5853 47.5067 92.599 47.6181 92.6099 47.7375C92.6262 47.857 92.6344 47.9711 92.6344 48.0797V49.8718H91.6031V43.5017H92.438L92.5853 44.0882H92.6344C92.7599 43.9036 92.9236 43.7461 93.1255 43.6157C93.3274 43.4854 93.5975 43.4202 93.9358 43.4202ZM93.6412 44.2511C93.2756 44.2511 93.0164 44.3597 92.8636 44.577C92.7163 44.7942 92.6399 45.1227 92.6344 45.5626V45.6929C92.6344 46.1654 92.7054 46.5292 92.8472 46.7845C92.9946 47.0343 93.2647 47.1592 93.6576 47.1592C93.9795 47.1592 94.2169 47.0289 94.3696 46.7682C94.5279 46.5021 94.607 46.141 94.607 45.6848C94.607 45.2286 94.5279 44.8756 94.3696 44.6258C94.2169 44.376 93.974 44.2511 93.6412 44.2511Z" fill="#1E1E1E"/>
<path d="M98.9405 43.4202C99.0114 43.4202 99.0906 43.4257 99.1779 43.4365C99.2652 43.442 99.3361 43.4501 99.3907 43.461L99.3006 44.414C99.2461 44.4032 99.1779 44.395 99.096 44.3896C99.0196 44.3787 98.9541 44.3733 98.8996 44.3733C98.6813 44.3733 98.4767 44.4195 98.2857 44.5118C98.0947 44.5987 97.9392 44.7344 97.8192 44.9191C97.7046 45.1037 97.6473 45.3399 97.6473 45.6278V47.9167H96.616V43.5017H97.4099L97.5572 44.2674H97.6064C97.7373 44.0339 97.9174 43.8357 98.1466 43.6728C98.3757 43.5044 98.6404 43.4202 98.9405 43.4202Z" fill="#1E1E1E"/>
<path d="M104.039 43.5017V47.9167H103.229L103.09 47.3465H103.041C102.899 47.5746 102.702 47.7403 102.451 47.8434C102.2 47.9466 101.936 47.9982 101.657 47.9982C101.161 47.9982 100.771 47.8706 100.487 47.6154C100.209 47.3601 100.069 46.9501 100.069 46.3853V43.5017H101.101V46.1817C101.101 46.5129 101.166 46.76 101.297 46.923C101.428 47.0859 101.635 47.1673 101.919 47.1673C102.334 47.1673 102.618 47.037 102.77 46.7763C102.929 46.5157 103.008 46.1437 103.008 45.6604V43.5017H104.039ZM102.075 42.9885C101.791 42.9885 101.562 42.9071 101.387 42.7441C101.213 42.5812 101.125 42.3559 101.125 42.068C101.125 41.7856 101.213 41.5657 101.387 41.4082C101.562 41.2453 101.791 41.1638 102.075 41.1638C102.348 41.1638 102.579 41.2453 102.77 41.4082C102.961 41.5657 103.057 41.7829 103.057 42.0599C103.057 42.3531 102.961 42.5812 102.77 42.7441C102.585 42.9071 102.353 42.9885 102.075 42.9885ZM102.075 42.4835C102.195 42.4835 102.293 42.4482 102.369 42.3776C102.451 42.3015 102.492 42.1984 102.492 42.068C102.492 41.9431 102.451 41.8454 102.369 41.7748C102.293 41.6988 102.195 41.6607 102.075 41.6607C101.96 41.6607 101.862 41.6988 101.78 41.7748C101.704 41.8454 101.665 41.9431 101.665 42.068C101.665 42.345 101.802 42.4835 102.075 42.4835Z" fill="#1E1E1E"/>
<path d="M106.266 41.7259V44.6666C106.266 44.8023 106.261 44.9517 106.25 45.1146C106.239 45.2721 106.228 45.4214 106.217 45.5626H106.241C106.312 45.4648 106.394 45.3535 106.487 45.2286C106.58 45.1037 106.673 44.9924 106.765 44.8946L108.075 43.5017H109.245L107.469 45.4078L109.36 47.9167H108.157L106.782 46.0269L106.266 46.4505V47.9167H105.243V41.7259H106.266Z" fill="#1E1E1E"/>
<path d="M111.712 43.4202C112.285 43.4202 112.719 43.5451 113.013 43.795C113.313 44.0448 113.464 44.4303 113.464 44.9517V47.9167H112.735L112.53 47.3058H112.498C112.307 47.5448 112.105 47.7212 111.892 47.8353C111.679 47.9439 111.39 47.9982 111.024 47.9982C110.626 47.9982 110.296 47.8869 110.034 47.6642C109.772 47.4416 109.641 47.0967 109.641 46.6297C109.641 46.1735 109.808 45.8314 110.14 45.6033C110.479 45.3752 110.989 45.2476 111.671 45.2205L112.44 45.196V44.9761C112.44 44.6937 112.372 44.4928 112.236 44.3733C112.099 44.2538 111.908 44.1941 111.663 44.1941C111.439 44.1941 111.224 44.2267 111.016 44.2918C110.814 44.3516 110.612 44.4276 110.411 44.5199L110.083 43.8031C110.301 43.6891 110.55 43.5967 110.828 43.5261C111.112 43.4555 111.406 43.4202 111.712 43.4202ZM112.44 45.8314L111.9 45.8477C111.447 45.864 111.134 45.9427 110.959 46.0839C110.784 46.2197 110.697 46.4043 110.697 46.6379C110.697 46.8496 110.757 47.0017 110.877 47.094C111.003 47.1809 111.166 47.2244 111.368 47.2244C111.668 47.2244 111.922 47.1402 112.129 46.9718C112.337 46.7981 112.44 46.5428 112.44 46.2061V45.8314Z" fill="#1E1E1E"/>
<path d="M117.649 47.9167H114.244V47.2895L116.421 44.2837H114.367V43.5017H117.584V44.1941L115.447 47.1266H117.649V47.9167Z" fill="#1E1E1E"/>
<path d="M38.4962 48.3959H37.8896L35.6825 44.9862H35.6594C35.6671 45.1203 35.6767 45.2871 35.6883 45.4864C35.6999 45.6857 35.7056 45.8908 35.7056 46.1017V48.3959H35.2261V44.2904H35.827L38.0282 47.6887H38.0513C38.0475 47.6273 38.0417 47.5353 38.034 47.4127C38.0302 47.29 38.0244 47.1577 38.0167 47.0159C38.0128 46.8702 38.0109 46.7342 38.0109 46.6077V44.2904H38.4962V48.3959Z" fill="#1E1E1E"/>
<path d="M40.6557 45.2622C41.0332 45.2622 41.3124 45.3446 41.4934 45.5094C41.6745 45.6742 41.765 45.9368 41.765 46.2972V48.3959H41.3952L41.297 47.9589H41.2739C41.1391 48.1276 40.9966 48.2522 40.8464 48.3327C40.6961 48.4132 40.492 48.4534 40.2339 48.4534C39.9527 48.4534 39.7197 48.3806 39.5348 48.2349C39.3499 48.0854 39.2575 47.8535 39.2575 47.5392C39.2575 47.2325 39.3788 46.9967 39.6215 46.8319C39.8642 46.6632 40.2378 46.5712 40.7424 46.5559L41.2681 46.5387V46.3547C41.2681 46.0978 41.2123 45.9196 41.1006 45.8199C40.9889 45.7202 40.8309 45.6704 40.6268 45.6704C40.465 45.6704 40.311 45.6953 40.1646 45.7452C40.0182 45.7912 39.8815 45.8448 39.7544 45.9062L39.5984 45.5267C39.7332 45.4538 39.893 45.3925 40.0779 45.3427C40.2628 45.289 40.4554 45.2622 40.6557 45.2622ZM41.2623 46.8894L40.8059 46.9067C40.4207 46.922 40.153 46.9833 40.0028 47.0907C39.8565 47.198 39.7833 47.3494 39.7833 47.5449C39.7833 47.7174 39.8353 47.8439 39.9393 47.9244C40.0471 48.0049 40.1839 48.0452 40.3495 48.0452C40.6075 48.0452 40.8232 47.9742 40.9966 47.8324C41.1737 47.6867 41.2623 47.4644 41.2623 47.1654V46.8894ZM41.4299 43.9914V44.0489C41.3798 44.1179 41.3066 44.208 41.2103 44.3192C41.1179 44.4265 41.0158 44.5357 40.9041 44.6469C40.7963 44.7542 40.6961 44.8424 40.6037 44.9114H40.2686V44.8424C40.3225 44.7734 40.3841 44.6891 40.4535 44.5894C40.5228 44.4859 40.5902 44.3824 40.6557 44.2789C40.7212 44.1716 40.7751 44.0757 40.8175 43.9914H41.4299Z" fill="#1E1E1E"/>
<path d="M44.657 48.3959H42.3921V48.0624L44.0561 45.7049H42.4903V45.3139H44.6165V45.6934L42.9757 48.0049H44.657V48.3959Z" fill="#1E1E1E"/>
<path d="M46.5042 45.2564C46.7661 45.2564 46.9934 45.3139 47.186 45.4289C47.3786 45.5439 47.5249 45.7068 47.6251 45.9177C47.7291 46.1247 47.7811 46.3681 47.7811 46.6479V46.9527H45.6607C45.6684 47.3015 45.757 47.5679 45.9264 47.7519C46.0998 47.9321 46.3405 48.0222 46.6486 48.0222C46.8451 48.0222 47.0184 48.0049 47.1686 47.9704C47.3227 47.9321 47.4806 47.8784 47.6424 47.8094V48.2522C47.4845 48.3212 47.3285 48.371 47.1744 48.4017C47.0203 48.4362 46.8374 48.4534 46.6255 48.4534C46.329 48.4534 46.069 48.394 45.8456 48.2752C45.6222 48.1563 45.4469 47.98 45.3198 47.7462C45.1965 47.5123 45.1349 47.2229 45.1349 46.8779C45.1349 46.5406 45.1908 46.2512 45.3025 46.0097C45.418 45.7682 45.5779 45.5822 45.782 45.4519C45.99 45.3216 46.2307 45.2564 46.5042 45.2564ZM46.4984 45.6704C46.2558 45.6704 46.0632 45.749 45.9207 45.9062C45.782 46.0595 45.6992 46.2742 45.6722 46.5502H47.2495C47.2457 46.2895 47.184 46.0787 47.0646 45.9177C46.9452 45.7528 46.7565 45.6704 46.4984 45.6704Z" fill="#1E1E1E"/>
<path d="M49.0748 48.3959L47.9019 45.3139H48.445L49.1037 47.1309C49.1345 47.2152 49.1672 47.3092 49.2019 47.4127C49.2366 47.5162 49.2674 47.6158 49.2943 47.7117C49.3213 47.8075 49.3406 47.8861 49.3521 47.9474H49.3752C49.3868 47.8861 49.408 47.8075 49.4388 47.7117C49.4696 47.612 49.5023 47.5123 49.537 47.4127C49.5717 47.3092 49.6044 47.2152 49.6352 47.1309L50.2939 45.3139H50.837L49.6583 48.3959H49.0748Z" fill="#1E1E1E"/>
<path d="M51.1883 45.6244C51.1883 45.4787 51.223 45.3772 51.2923 45.3197C51.3616 45.2622 51.4445 45.2334 51.5407 45.2334C51.637 45.2334 51.7218 45.2622 51.795 45.3197C51.8681 45.3772 51.9047 45.4787 51.9047 45.6244C51.9047 45.7624 51.8681 45.8621 51.795 45.9234C51.7218 45.9847 51.637 46.0154 51.5407 46.0154C51.4445 46.0154 51.3616 45.9847 51.2923 45.9234C51.223 45.8621 51.1883 45.7624 51.1883 45.6244ZM51.1883 48.0854C51.1883 47.9436 51.223 47.8439 51.2923 47.7864C51.3616 47.7289 51.4445 47.7002 51.5407 47.7002C51.637 47.7002 51.7218 47.7289 51.795 47.7864C51.8681 47.8439 51.9047 47.9436 51.9047 48.0854C51.9047 48.2234 51.8681 48.3231 51.795 48.3844C51.7218 48.4457 51.637 48.4764 51.5407 48.4764C51.4445 48.4764 51.3616 48.4457 51.2923 48.3844C51.223 48.3231 51.1883 48.2234 51.1883 48.0854Z" fill="#1E1E1E"/>
<path d="M63.2778 80.9381C63.2778 81.5409 63.1769 82.0677 62.975 82.5184C62.7786 82.9637 62.4757 83.3113 62.0665 83.5611C61.6572 83.8109 61.1443 83.9358 60.5277 83.9358C59.9002 83.9358 59.3845 83.8109 58.9807 83.5611C58.5769 83.3113 58.2741 82.961 58.0722 82.5102C57.8758 82.0595 57.7775 81.5327 57.7775 80.93C57.7775 80.3326 57.8758 79.8113 58.0722 79.3659C58.2741 78.9152 58.5769 78.5677 58.9807 78.3233C59.39 78.0735 59.9084 77.9486 60.5359 77.9486C61.1525 77.9486 61.6627 78.0735 62.0665 78.3233C62.4757 78.5677 62.7786 78.9152 62.975 79.3659C63.1769 79.8113 63.2778 80.3353 63.2778 80.9381ZM58.8825 80.9381C58.8825 81.5952 59.0135 82.1111 59.2754 82.4858C59.5428 82.8605 59.9602 83.0479 60.5277 83.0479C61.1115 83.0479 61.5317 82.8605 61.7882 82.4858C62.0446 82.1111 62.1729 81.5952 62.1729 80.9381C62.1729 80.281 62.0446 79.7651 61.7882 79.3904C61.5317 79.0157 61.1143 78.8283 60.5359 78.8283C59.9629 78.8283 59.5428 79.0157 59.2754 79.3904C59.0135 79.7651 58.8825 80.281 58.8825 80.9381Z" fill="#1E1E1E"/>
<path d="M65.3446 77.6635V79.1297C65.3446 79.3035 65.3392 79.4718 65.3282 79.6348C65.3173 79.7977 65.3064 79.9253 65.2955 80.0176H65.3446C65.4647 79.833 65.6284 79.6782 65.8357 79.5533C66.0431 79.423 66.3132 79.3578 66.646 79.3578C67.1589 79.3578 67.5736 79.5506 67.8901 79.9362C68.2121 80.3217 68.373 80.8892 68.373 81.6386C68.373 82.3989 68.2121 82.9718 67.8901 83.3574C67.5682 83.743 67.1453 83.9358 66.6215 83.9358C66.2886 83.9358 66.0212 83.876 65.8193 83.7566C65.6229 83.6371 65.4647 83.4986 65.3446 83.3411H65.2709L65.0827 83.8543H64.3133V77.6635H65.3446ZM66.3514 80.1887C65.9803 80.1887 65.7211 80.3 65.5738 80.5227C65.4265 80.7453 65.3501 81.0874 65.3446 81.549V81.6386C65.3446 82.1111 65.4156 82.4722 65.5574 82.722C65.7048 82.9718 65.9749 83.0967 66.3677 83.0967C66.6733 83.0967 66.9079 82.9718 67.0716 82.722C67.2353 82.4668 67.3172 82.103 67.3172 81.6305C67.3172 81.1472 67.2326 80.786 67.0634 80.5471C66.8997 80.3082 66.6624 80.1887 66.3514 80.1887Z" fill="#1E1E1E"/>
<path d="M71.1187 83.9358C70.4857 83.9358 69.9837 83.7538 69.6126 83.39C69.247 83.0262 69.0642 82.4532 69.0642 81.6712C69.0642 81.1282 69.1543 80.6883 69.3343 80.3516C69.5199 80.0095 69.7736 79.7597 70.0955 79.6022C70.4175 79.4393 70.7858 79.3578 71.2005 79.3578C71.4733 79.3578 71.7189 79.385 71.9371 79.4393C72.1609 79.4936 72.3491 79.5587 72.5019 79.6348L72.1991 80.4412C72.0245 80.376 71.8526 80.3217 71.6834 80.2783C71.5143 80.2294 71.3533 80.205 71.2005 80.205C70.4802 80.205 70.1201 80.691 70.1201 81.6631C70.1201 82.1355 70.2101 82.4912 70.3902 82.7302C70.5757 82.9691 70.8404 83.0886 71.1841 83.0886C71.4297 83.0886 71.6479 83.0587 71.8389 82.999C72.0354 82.9393 72.2182 82.8578 72.3873 82.7546V83.6425C72.2182 83.7457 72.0354 83.819 71.8389 83.8625C71.6425 83.9113 71.4024 83.9358 71.1187 83.9358ZM70.4229 78.9179C70.3465 78.7985 70.2483 78.6654 70.1283 78.5188C70.0082 78.3667 69.8827 78.2228 69.7518 78.0871C69.6208 77.9459 69.5062 77.8237 69.408 77.7205V77.6146H70.0955C70.2374 77.7015 70.3875 77.8074 70.5457 77.9323C70.7039 78.0518 70.854 78.1848 70.9959 78.3314C71.1378 78.1848 71.2905 78.0518 71.4542 77.9323C71.6234 77.8074 71.7789 77.7015 71.9208 77.6146H72.6165V77.7205C72.5183 77.8237 72.401 77.9459 72.2645 78.0871C72.1336 78.2228 72.0054 78.3667 71.8799 78.5188C71.7598 78.6654 71.6643 78.7985 71.5934 78.9179H70.4229Z" fill="#1E1E1E"/>
<path d="M75.0838 79.3578C75.6568 79.3578 76.0906 79.4827 76.3852 79.7325C76.6853 79.9823 76.8354 80.3679 76.8354 80.8892V83.8543H76.1069L75.9023 83.2434H75.8696C75.6786 83.4823 75.4767 83.6588 75.2639 83.7729C75.0511 83.8815 74.7619 83.9358 74.3963 83.9358C73.998 83.9358 73.6678 83.8244 73.4059 83.6018C73.144 83.3791 73.013 83.0343 73.013 82.5673C73.013 82.1111 73.1795 81.769 73.5123 81.5409C73.8506 81.3128 74.3608 81.1852 75.0429 81.158L75.8123 81.1336V80.9137C75.8123 80.6313 75.7441 80.4303 75.6077 80.3109C75.4713 80.1914 75.2803 80.1317 75.0347 80.1317C74.811 80.1317 74.5955 80.1642 74.3881 80.2294C74.1862 80.2891 73.9843 80.3652 73.7824 80.4575L73.455 79.7407C73.6733 79.6266 73.9216 79.5343 74.1999 79.4637C74.4836 79.3931 74.7783 79.3578 75.0838 79.3578ZM75.8123 81.769L75.2721 81.7853C74.8192 81.8016 74.5054 81.8803 74.3308 82.0215C74.1562 82.1573 74.0689 82.3419 74.0689 82.5754C74.0689 82.7872 74.1289 82.9393 74.249 83.0316C74.3745 83.1185 74.5382 83.1619 74.7401 83.1619C75.0402 83.1619 75.2939 83.0777 75.5013 82.9094C75.7086 82.7356 75.8123 82.4804 75.8123 82.1437V81.769Z" fill="#1E1E1E"/>
<path d="M80.3906 79.3578C80.8872 79.3578 81.2746 79.4854 81.5529 79.7407C81.8366 79.9959 81.9785 80.4086 81.9785 80.9788V83.8543H80.9472V81.1825C80.9472 80.8512 80.8817 80.6041 80.7508 80.4412C80.6198 80.2729 80.4125 80.1887 80.1287 80.1887C79.714 80.1887 79.4303 80.319 79.2775 80.5797C79.1247 80.8403 79.0483 81.2123 79.0483 81.6957V83.8543H78.017V79.4393H78.8109L78.9583 80.0176H79.0156C79.1574 79.7895 79.3512 79.6239 79.5967 79.5207C79.8477 79.4121 80.1124 79.3578 80.3906 79.3578Z" fill="#1E1E1E"/>
<path d="M86.178 82.5754C86.178 83.0207 86.017 83.3601 85.6951 83.5936C85.3786 83.8217 84.923 83.9358 84.3282 83.9358C84.0172 83.9358 83.7498 83.914 83.5261 83.8706C83.3078 83.8272 83.095 83.7593 82.8876 83.667V82.7953C83.1059 82.8985 83.346 82.9854 83.6079 83.056C83.8753 83.1266 84.1263 83.1619 84.3609 83.1619C84.6447 83.1619 84.8493 83.1185 84.9748 83.0316C85.1003 82.9447 85.163 82.8279 85.163 82.6813C85.163 82.5944 85.1385 82.5184 85.0894 82.4532C85.0403 82.3826 84.9448 82.3066 84.8029 82.2251C84.661 82.1437 84.4455 82.0432 84.1563 81.9237C83.8726 81.8097 83.6352 81.6957 83.4442 81.5816C83.2587 81.4676 83.1168 81.3318 83.0186 81.1743C82.9258 81.0168 82.8794 80.8132 82.8794 80.5634C82.8794 80.167 83.0377 79.8683 83.3542 79.6673C83.6707 79.461 84.0881 79.3578 84.6065 79.3578C84.8793 79.3578 85.1358 79.385 85.3759 79.4393C85.6214 79.4936 85.867 79.575 86.1125 79.6836L85.7851 80.4412C85.5778 80.3543 85.3759 80.281 85.1794 80.2213C84.983 80.1615 84.7811 80.1317 84.5737 80.1317C84.1208 80.1317 83.8944 80.2593 83.8944 80.5145C83.8944 80.6068 83.9217 80.6856 83.9762 80.7507C84.0363 80.8159 84.1372 80.8865 84.2791 80.9625C84.4264 81.0331 84.6338 81.12 84.9011 81.2232C85.163 81.3264 85.3895 81.435 85.5805 81.549C85.7715 81.6576 85.9188 81.7934 86.0225 81.9563C86.1261 82.1138 86.178 82.3202 86.178 82.5754Z" fill="#1E1E1E"/>
<path d="M88.0827 77.6635V80.6041C88.0827 80.7399 88.0772 80.8892 88.0663 81.0521C88.0554 81.2096 88.0445 81.359 88.0336 81.5002H88.0581C88.129 81.4024 88.2109 81.2911 88.3036 81.1662C88.3964 81.0413 88.4892 80.9299 88.5819 80.8322L89.8915 79.4393H91.062L89.2859 81.3454L91.1766 83.8543H89.9734L88.5983 81.9645L88.0827 82.3881V83.8543H87.0595V77.6635H88.0827Z" fill="#1E1E1E"/>
<path d="M91.0977 79.4393H92.219L93.103 81.9319C93.163 82.0894 93.2121 82.2469 93.2503 82.4044C93.2885 82.5564 93.3158 82.7085 93.3322 82.8605H93.3649C93.3867 82.7193 93.4195 82.57 93.4631 82.4125C93.5068 82.2496 93.5559 82.0894 93.6105 81.9319L94.4617 79.4393H95.5748L93.6841 84.4408C93.515 84.8807 93.2831 85.2174 92.9884 85.4509C92.6992 85.6898 92.3418 85.8093 91.9162 85.8093C91.7798 85.8093 91.6597 85.8012 91.556 85.7849C91.4578 85.774 91.3732 85.7604 91.3023 85.7441V84.9296C91.3623 84.9404 91.4333 84.9513 91.5151 84.9621C91.6024 84.973 91.6925 84.9784 91.7852 84.9784C92.0362 84.9784 92.2381 84.9024 92.3909 84.7504C92.5437 84.6037 92.661 84.4191 92.7429 84.1964L92.8738 83.838L91.0977 79.4393ZM94.7482 77.6146V77.696C94.6554 77.7938 94.5272 77.9214 94.3635 78.0789C94.1998 78.2364 94.0279 78.3912 93.8478 78.5432C93.6678 78.6953 93.5122 78.8202 93.3813 78.9179H92.6937V78.812C92.7811 78.7089 92.8793 78.5894 92.9884 78.4536C93.0975 78.3124 93.2039 78.1685 93.3076 78.0219C93.4113 77.8698 93.4986 77.7341 93.5695 77.6146H94.7482Z" fill="#1E1E1E"/>
<path d="M100.474 79.3578C100.993 79.3578 101.41 79.5506 101.727 79.9362C102.043 80.3163 102.201 80.8838 102.201 81.6386C102.201 82.3935 102.038 82.9664 101.71 83.3574C101.388 83.743 100.968 83.9358 100.45 83.9358C100.122 83.9358 99.8576 83.876 99.6557 83.7566C99.4538 83.6371 99.2928 83.4986 99.1728 83.3411H99.1073C99.1237 83.4443 99.1373 83.5556 99.1482 83.6751C99.1646 83.7946 99.1728 83.9086 99.1728 84.0172V85.8093H98.1415V79.4393H98.9764L99.1237 80.0258H99.1728C99.2983 79.8411 99.462 79.6836 99.6639 79.5533C99.8658 79.423 100.136 79.3578 100.474 79.3578ZM100.18 80.1887C99.8139 80.1887 99.5548 80.2973 99.402 80.5145C99.2546 80.7317 99.1783 81.0603 99.1728 81.5002V81.6305C99.1728 82.103 99.2437 82.4668 99.3856 82.722C99.5329 82.9718 99.803 83.0967 100.196 83.0967C100.518 83.0967 100.755 82.9664 100.908 82.7057C101.066 82.4396 101.145 82.0785 101.145 81.6223C101.145 81.1662 101.066 80.8132 100.908 80.5634C100.755 80.3136 100.512 80.1887 100.18 80.1887Z" fill="#1E1E1E"/>
<path d="M105.479 79.3578C105.55 79.3578 105.629 79.3632 105.716 79.3741C105.804 79.3795 105.874 79.3877 105.929 79.3985L105.839 80.3516C105.784 80.3407 105.716 80.3326 105.634 80.3272C105.558 80.3163 105.493 80.3109 105.438 80.3109C105.22 80.3109 105.015 80.357 104.824 80.4493C104.633 80.5362 104.478 80.672 104.358 80.8566C104.243 81.0413 104.186 81.2775 104.186 81.5653V83.8543H103.154V79.4393H103.948L104.096 80.205H104.145C104.276 79.9715 104.456 79.7732 104.685 79.6103C104.914 79.442 105.179 79.3578 105.479 79.3578Z" fill="#1E1E1E"/>
<path d="M110.577 79.4393V83.8543H109.767L109.628 83.2841H109.579C109.437 83.5122 109.241 83.6778 108.99 83.781C108.739 83.8842 108.474 83.9358 108.196 83.9358C107.699 83.9358 107.309 83.8082 107.025 83.5529C106.747 83.2977 106.608 82.8877 106.608 82.3229V79.4393H107.639V82.1192C107.639 82.4505 107.705 82.6976 107.836 82.8605C107.966 83.0234 108.174 83.1049 108.458 83.1049C108.872 83.1049 109.156 82.9746 109.309 82.7139C109.467 82.4532 109.546 82.0812 109.546 81.5979V79.4393H110.577ZM108.613 78.9261C108.329 78.9261 108.1 78.8446 107.926 78.6817C107.751 78.5188 107.664 78.2934 107.664 78.0056C107.664 77.7232 107.751 77.5033 107.926 77.3458C108.1 77.1829 108.329 77.1014 108.613 77.1014C108.886 77.1014 109.118 77.1829 109.309 77.3458C109.5 77.5033 109.595 77.7205 109.595 77.9974C109.595 78.2907 109.5 78.5188 109.309 78.6817C109.123 78.8446 108.891 78.9261 108.613 78.9261ZM108.613 78.421C108.733 78.421 108.831 78.3857 108.908 78.3151C108.99 78.2391 109.031 78.1359 109.031 78.0056C109.031 77.8807 108.99 77.7829 108.908 77.7123C108.831 77.6363 108.733 77.5983 108.613 77.5983C108.498 77.5983 108.4 77.6363 108.318 77.7123C108.242 77.7829 108.204 77.8807 108.204 78.0056C108.204 78.2826 108.34 78.421 108.613 78.421Z" fill="#1E1E1E"/>
<path d="M112.804 77.6635V80.6041C112.804 80.7399 112.799 80.8892 112.788 81.0521C112.777 81.2096 112.766 81.359 112.755 81.5002H112.78C112.851 81.4024 112.933 81.2911 113.025 81.1662C113.118 81.0413 113.211 80.9299 113.304 80.8322L114.613 79.4393H115.784L114.008 81.3454L115.898 83.8543H114.695L113.32 81.9645L112.804 82.3881V83.8543H111.781V77.6635H112.804Z" fill="#1E1E1E"/>
<path d="M118.25 79.3578C118.823 79.3578 119.257 79.4827 119.552 79.7325C119.852 79.9823 120.002 80.3679 120.002 80.8892V83.8543H119.273L119.069 83.2434H119.036C118.845 83.4823 118.643 83.6588 118.43 83.7729C118.218 83.8815 117.928 83.9358 117.563 83.9358C117.164 83.9358 116.834 83.8244 116.572 83.6018C116.31 83.3791 116.18 83.0343 116.18 82.5673C116.18 82.1111 116.346 81.769 116.679 81.5409C117.017 81.3128 117.527 81.1852 118.209 81.158L118.979 81.1336V80.9137C118.979 80.6313 118.911 80.4303 118.774 80.3109C118.638 80.1914 118.447 80.1317 118.201 80.1317C117.977 80.1317 117.762 80.1642 117.555 80.2294C117.353 80.2891 117.151 80.3652 116.949 80.4575L116.622 79.7407C116.84 79.6266 117.088 79.5343 117.366 79.4637C117.65 79.3931 117.945 79.3578 118.25 79.3578ZM118.979 81.769L118.439 81.7853C117.986 81.8016 117.672 81.8803 117.497 82.0215C117.323 82.1573 117.235 82.3419 117.235 82.5754C117.235 82.7872 117.295 82.9393 117.415 83.0316C117.541 83.1185 117.705 83.1619 117.907 83.1619C118.207 83.1619 118.46 83.0777 118.668 82.9094C118.875 82.7356 118.979 82.4804 118.979 82.1437V81.769Z" fill="#1E1E1E"/>
<path d="M124.187 83.8543H120.782V83.2271L122.96 80.2213H120.905V79.4393H124.122V80.1317L121.986 83.0642H124.187V83.8543Z" fill="#1E1E1E"/>
<path d="M38.4962 84.3335H37.8896L35.6825 80.9237H35.6594C35.6671 81.0579 35.6767 81.2246 35.6883 81.424C35.6999 81.6233 35.7056 81.8284 35.7056 82.0392V84.3335H35.2261V80.228H35.827L38.0282 83.6262H38.0513C38.0475 83.5649 38.0417 83.4729 38.034 83.3502C38.0302 83.2276 38.0244 83.0953 38.0167 82.9535C38.0128 82.8078 38.0109 82.6717 38.0109 82.5452V80.228H38.4962V84.3335Z" fill="#1E1E1E"/>
<path d="M40.6557 81.1997C41.0332 81.1997 41.3124 81.2821 41.4934 81.447C41.6745 81.6118 41.765 81.8744 41.765 82.2347V84.3335H41.3952L41.297 83.8965H41.2739C41.1391 84.0651 40.9966 84.1897 40.8464 84.2702C40.6961 84.3507 40.492 84.391 40.2339 84.391C39.9527 84.391 39.7197 84.3181 39.5348 84.1725C39.3499 84.023 39.2575 83.7911 39.2575 83.4767C39.2575 83.1701 39.3788 82.9343 39.6215 82.7695C39.8642 82.6008 40.2378 82.5088 40.7424 82.4935L41.2681 82.4762V82.2922C41.2681 82.0354 41.2123 81.8571 41.1006 81.7575C40.9889 81.6578 40.8309 81.608 40.6268 81.608C40.465 81.608 40.311 81.6329 40.1646 81.6827C40.0182 81.7287 39.8815 81.7824 39.7544 81.8437L39.5984 81.4642C39.7332 81.3914 39.893 81.3301 40.0779 81.2802C40.2628 81.2266 40.4554 81.1997 40.6557 81.1997ZM41.2623 82.827L40.8059 82.8442C40.4207 82.8596 40.153 82.9209 40.0028 83.0282C39.8565 83.1356 39.7833 83.287 39.7833 83.4825C39.7833 83.655 39.8353 83.7815 39.9393 83.862C40.0471 83.9425 40.1839 83.9827 40.3495 83.9827C40.6075 83.9827 40.8232 83.9118 40.9966 83.77C41.1737 83.6243 41.2623 83.402 41.2623 83.103V82.827ZM41.4299 79.929V79.9865C41.3798 80.0555 41.3066 80.1456 41.2103 80.2567C41.1179 80.3641 41.0158 80.4733 40.9041 80.5845C40.7963 80.6918 40.6961 80.78 40.6037 80.849H40.2686V80.78C40.3225 80.711 40.3841 80.6266 40.4535 80.527C40.5228 80.4235 40.5902 80.32 40.6557 80.2165C40.7212 80.1091 40.7751 80.0133 40.8175 79.929H41.4299Z" fill="#1E1E1E"/>
<path d="M44.657 84.3335H42.3921V84L44.0561 81.6425H42.4903V81.2515H44.6165V81.631L42.9757 83.9425H44.657V84.3335Z" fill="#1E1E1E"/>
<path d="M46.5042 81.194C46.7661 81.194 46.9934 81.2515 47.186 81.3665C47.3786 81.4815 47.5249 81.6444 47.6251 81.8552C47.7291 82.0622 47.7811 82.3056 47.7811 82.5855V82.8902H45.6607C45.6684 83.2391 45.757 83.5055 45.9264 83.6895C46.0998 83.8696 46.3405 83.9597 46.6486 83.9597C46.8451 83.9597 47.0184 83.9425 47.1686 83.908C47.3227 83.8696 47.4806 83.816 47.6424 83.747V84.1897C47.4845 84.2587 47.3285 84.3086 47.1744 84.3392C47.0203 84.3737 46.8374 84.391 46.6255 84.391C46.329 84.391 46.069 84.3316 45.8456 84.2127C45.6222 84.0939 45.4469 83.9176 45.3198 83.6837C45.1965 83.4499 45.1349 83.1605 45.1349 82.8155C45.1349 82.4781 45.1908 82.1887 45.3025 81.9472C45.418 81.7057 45.5779 81.5198 45.782 81.3895C45.99 81.2591 46.2307 81.194 46.5042 81.194ZM46.4984 81.608C46.2558 81.608 46.0632 81.6866 45.9207 81.8437C45.782 81.9971 45.6992 82.2117 45.6722 82.4877H47.2495C47.2457 82.2271 47.184 82.0162 47.0646 81.8552C46.9452 81.6904 46.7565 81.608 46.4984 81.608Z" fill="#1E1E1E"/>
<path d="M49.0748 84.3335L47.9019 81.2515H48.445L49.1037 83.0685C49.1345 83.1528 49.1672 83.2467 49.2019 83.3502C49.2366 83.4537 49.2674 83.5534 49.2943 83.6492C49.3213 83.7451 49.3406 83.8236 49.3521 83.885H49.3752C49.3868 83.8236 49.408 83.7451 49.4388 83.6492C49.4696 83.5496 49.5023 83.4499 49.537 83.3502C49.5717 83.2467 49.6044 83.1528 49.6352 83.0685L50.2939 81.2515H50.837L49.6583 84.3335H49.0748Z" fill="#1E1E1E"/>
<path d="M51.1883 81.562C51.1883 81.4163 51.223 81.3147 51.2923 81.2572C51.3616 81.1997 51.4445 81.171 51.5407 81.171C51.637 81.171 51.7218 81.1997 51.795 81.2572C51.8681 81.3147 51.9047 81.4163 51.9047 81.562C51.9047 81.7 51.8681 81.7996 51.795 81.861C51.7218 81.9223 51.637 81.953 51.5407 81.953C51.4445 81.953 51.3616 81.9223 51.2923 81.861C51.223 81.7996 51.1883 81.7 51.1883 81.562ZM51.1883 84.023C51.1883 83.8811 51.223 83.7815 51.2923 83.724C51.3616 83.6665 51.4445 83.6377 51.5407 83.6377C51.637 83.6377 51.7218 83.6665 51.795 83.724C51.8681 83.7815 51.9047 83.8811 51.9047 84.023C51.9047 84.161 51.8681 84.2606 51.795 84.322C51.7218 84.3833 51.637 84.414 51.5407 84.414C51.4445 84.414 51.3616 84.3833 51.2923 84.322C51.223 84.2606 51.1883 84.161 51.1883 84.023Z" fill="#1E1E1E"/>
<path d="M77.7243 58.9376V58.4029L78.7758 57.3448C78.9838 57.134 79.1533 56.9538 79.2842 56.8043C79.419 56.6548 79.5173 56.5149 79.5789 56.3846C79.6444 56.2504 79.6771 56.1067 79.6771 55.9533C79.6771 55.7655 79.6232 55.6256 79.5153 55.5336C79.4075 55.4378 79.265 55.3898 79.0878 55.3898C78.9145 55.3898 78.7527 55.4263 78.6025 55.4991C78.4522 55.5681 78.2962 55.6678 78.1345 55.7981L77.7358 55.3208C77.9053 55.1752 78.0979 55.0487 78.3136 54.9413C78.5293 54.8302 78.8008 54.7746 79.1282 54.7746C79.394 54.7746 79.6232 54.8225 79.8158 54.9183C80.0083 55.0103 80.1566 55.1407 80.2606 55.3093C80.3646 55.4742 80.4166 55.6639 80.4166 55.8786C80.4166 56.1009 80.3723 56.306 80.2837 56.4938C80.1952 56.6778 80.0661 56.8638 79.8966 57.0516C79.731 57.2356 79.5327 57.4349 79.3016 57.6496L78.6429 58.2764V58.3109H80.5495V58.9376H77.7243Z" fill="#1E1E1E"/>
<path d="M82.5686 58.9376V58.0578H80.7314V57.5173L82.586 54.8206H83.2851V57.4656H83.8224V58.0578H83.2851V58.9376H82.5686ZM82.5686 57.4656V56.3673C82.5686 56.2102 82.5706 56.076 82.5744 55.9648C82.5821 55.8537 82.5879 55.7578 82.5918 55.6773H82.5686C82.534 55.7463 82.4916 55.8211 82.4415 55.9016C82.3953 55.9783 82.3491 56.0511 82.3029 56.1201L81.3958 57.4656H82.5686Z" fill="#1E1E1E"/>
<path d="M84.215 58.5696C84.215 58.4086 84.2574 58.2955 84.3421 58.2304C84.4307 58.1614 84.5347 58.1269 84.6541 58.1269C84.7735 58.1269 84.8775 58.1614 84.9661 58.2304C85.0547 58.2955 85.099 58.4086 85.099 58.5696C85.099 58.7268 85.0547 58.8399 84.9661 58.9089C84.8775 58.9779 84.7735 59.0124 84.6541 59.0124C84.5347 59.0124 84.4307 58.9779 84.3421 58.9089C84.2574 58.8399 84.215 58.7268 84.215 58.5696Z" fill="#1E1E1E"/>
<path d="M87.9631 58.9376V56.3788C87.9631 56.2562 87.965 56.1258 87.9689 55.9878C87.9766 55.8498 87.9824 55.7214 87.9862 55.6026C87.9516 55.6409 87.9053 55.6869 87.8476 55.7406C87.7898 55.7943 87.7282 55.846 87.6627 55.8958L87.2063 56.2638L86.8423 55.8153L88.0902 54.8321H88.6969V58.9376H87.9631Z" fill="#1E1E1E"/>
<path d="M89.6624 58.9376V58.4029L90.7139 57.3448C90.9219 57.134 91.0914 56.9538 91.2224 56.8043C91.3572 56.6548 91.4554 56.5149 91.517 56.3846C91.5825 56.2504 91.6152 56.1067 91.6152 55.9533C91.6152 55.7655 91.5613 55.6256 91.4535 55.5336C91.3456 55.4378 91.2031 55.3898 91.0259 55.3898C90.8526 55.3898 90.6908 55.4263 90.5406 55.4991C90.3904 55.5681 90.2344 55.6678 90.0726 55.7981L89.674 55.3208C89.8434 55.1752 90.036 55.0487 90.2517 54.9413C90.4674 54.8302 90.739 54.7746 91.0664 54.7746C91.3321 54.7746 91.5613 54.8225 91.7539 54.9183C91.9465 55.0103 92.0948 55.1407 92.1988 55.3093C92.3028 55.4742 92.3548 55.6639 92.3548 55.8786C92.3548 56.1009 92.3105 56.306 92.2219 56.4938C92.1333 56.6778 92.0043 56.8638 91.8348 57.0516C91.6692 57.2356 91.4708 57.4349 91.2397 57.6496L90.581 58.2764V58.3109H92.4876V58.9376H89.6624Z" fill="#1E1E1E"/>
<path d="M92.9237 58.5696C92.9237 58.4086 92.9661 58.2955 93.0508 58.2304C93.1394 58.1614 93.2434 58.1269 93.3628 58.1269C93.4822 58.1269 93.5862 58.1614 93.6748 58.2304C93.7634 58.2955 93.8077 58.4086 93.8077 58.5696C93.8077 58.7268 93.7634 58.8399 93.6748 58.9089C93.5862 58.9779 93.4822 59.0124 93.3628 59.0124C93.2434 59.0124 93.1394 58.9779 93.0508 58.9089C92.9661 58.8399 92.9237 58.7268 92.9237 58.5696Z" fill="#1E1E1E"/>
<path d="M95.6607 58.9376V58.4029L96.7123 57.3448C96.9203 57.134 97.0897 56.9538 97.2207 56.8043C97.3555 56.6548 97.4537 56.5149 97.5154 56.3846C97.5808 56.2504 97.6136 56.1067 97.6136 55.9533C97.6136 55.7655 97.5596 55.6256 97.4518 55.5336C97.3439 55.4378 97.2014 55.3898 97.0242 55.3898C96.8509 55.3898 96.6891 55.4263 96.5389 55.4991C96.3887 55.5681 96.2327 55.6678 96.0709 55.7981L95.6723 55.3208C95.8418 55.1752 96.0343 55.0487 96.25 54.9413C96.4657 54.8302 96.7373 54.7746 97.0647 54.7746C97.3305 54.7746 97.5596 54.8225 97.7522 54.9183C97.9448 55.0103 98.0931 55.1407 98.1971 55.3093C98.3011 55.4742 98.3531 55.6639 98.3531 55.8786C98.3531 56.1009 98.3088 56.306 98.2202 56.4938C98.1316 56.6778 98.0026 56.8638 97.8331 57.0516C97.6675 57.2356 97.4691 57.4349 97.238 57.6496L96.5794 58.2764V58.3109H98.486V58.9376H95.6607Z" fill="#1E1E1E"/>
<path d="M101.695 56.8848C101.695 57.3257 101.649 57.7033 101.557 58.0176C101.464 58.3319 101.314 58.5734 101.106 58.7421C100.898 58.9108 100.623 58.9951 100.28 58.9951C99.7945 58.9951 99.4382 58.8092 99.2109 58.4374C98.9837 58.0655 98.87 57.548 98.87 56.8848C98.87 56.444 98.9143 56.0664 99.0029 55.7521C99.0954 55.4339 99.2437 55.1905 99.4478 55.0218C99.6558 54.8532 99.9331 54.7688 100.28 54.7688C100.761 54.7688 101.118 54.9548 101.349 55.3266C101.58 55.6984 101.695 56.2178 101.695 56.8848ZM99.598 56.8848C99.598 57.387 99.6481 57.7646 99.7482 58.0176C99.8484 58.2706 100.026 58.3971 100.28 58.3971C100.53 58.3971 100.705 58.2725 100.806 58.0233C100.91 57.7704 100.962 57.3909 100.962 56.8848C100.962 56.3827 100.91 56.0051 100.806 55.7521C100.705 55.4953 100.53 55.3668 100.28 55.3668C100.026 55.3668 99.8484 55.4953 99.7482 55.7521C99.6481 56.0051 99.598 56.3827 99.598 56.8848Z" fill="#1E1E1E"/>
<path d="M102.103 58.9376V58.4029L103.154 57.3448C103.362 57.134 103.532 56.9538 103.663 56.8043C103.797 56.6548 103.896 56.5149 103.957 56.3846C104.023 56.2504 104.056 56.1067 104.056 55.9533C104.056 55.7655 104.002 55.6256 103.894 55.5336C103.786 55.4378 103.643 55.3898 103.466 55.3898C103.293 55.3898 103.131 55.4263 102.981 55.4991C102.831 55.5681 102.675 55.6678 102.513 55.7981L102.114 55.3208C102.284 55.1752 102.476 55.0487 102.692 54.9413C102.908 54.8302 103.179 54.7746 103.507 54.7746C103.772 54.7746 104.002 54.8225 104.194 54.9183C104.387 55.0103 104.535 55.1407 104.639 55.3093C104.743 55.4742 104.795 55.6639 104.795 55.8786C104.795 56.1009 104.751 56.306 104.662 56.4938C104.574 56.6778 104.445 56.8638 104.275 57.0516C104.109 57.2356 103.911 57.4349 103.68 57.6496L103.021 58.2764V58.3109H104.928V58.9376H102.103Z" fill="#1E1E1E"/>
<path d="M106.681 56.3558C106.943 56.3558 107.174 56.4038 107.375 56.4996C107.575 56.5954 107.731 56.7353 107.843 56.9193C107.958 57.0995 108.016 57.3218 108.016 57.5863C108.016 58.0272 107.879 58.3722 107.606 58.6213C107.332 58.8705 106.934 58.9951 106.41 58.9951C106.194 58.9951 105.992 58.9759 105.803 58.9376C105.614 58.8993 105.453 58.8437 105.318 58.7709V58.1269C105.46 58.2035 105.632 58.2668 105.832 58.3166C106.032 58.3664 106.221 58.3913 106.398 58.3913C106.672 58.3913 106.885 58.3319 107.04 58.2131C107.197 58.0943 107.276 57.9083 107.276 57.6553C107.276 57.4292 107.201 57.2567 107.051 57.1379C106.905 57.0152 106.677 56.9538 106.369 56.9538C106.261 56.9538 106.146 56.9634 106.023 56.9826C105.899 57.0018 105.797 57.0209 105.716 57.0401L105.404 56.8676L105.56 54.8321H107.733V55.4646H106.202L106.115 56.4133C106.181 56.4018 106.258 56.3903 106.346 56.3788C106.435 56.3635 106.546 56.3558 106.681 56.3558Z" fill="#1E1E1E"/>
<path d="M38.5309 57.3238C38.5309 58.0176 38.3402 58.5408 37.9589 58.8935C37.5814 59.2424 37.0537 59.4168 36.3758 59.4168H35.2261V55.3113H36.4972C36.9093 55.3113 37.2675 55.3879 37.5718 55.5413C37.8799 55.6946 38.1168 55.9208 38.2824 56.2198C38.4481 56.5188 38.5309 56.8868 38.5309 57.3238ZM37.982 57.341C37.982 56.7928 37.8453 56.3923 37.5718 56.1393C37.3022 55.8824 36.9189 55.754 36.4221 55.754H35.7461V58.974H36.3065C37.4235 58.974 37.982 58.4297 37.982 57.341Z" fill="#1E1E1E"/>
<path d="M40.4864 56.283C40.8639 56.283 41.1431 56.3654 41.3242 56.5303C41.5052 56.6951 41.5957 56.9577 41.5957 57.318V59.4168H41.226L41.1277 58.9798H41.1046C40.9698 59.1484 40.8273 59.273 40.6771 59.3535C40.5269 59.434 40.3227 59.4743 40.0647 59.4743C39.7835 59.4743 39.5504 59.4014 39.3656 59.2558C39.1807 59.1063 39.0882 58.8744 39.0882 58.56C39.0882 58.2533 39.2096 58.0176 39.4522 57.8528C39.6949 57.6841 40.0685 57.5921 40.5731 57.5768L41.0989 57.5595V57.3755C41.0989 57.1187 41.043 56.9404 40.9313 56.8408C40.8196 56.7411 40.6617 56.6913 40.4575 56.6913C40.2958 56.6913 40.1417 56.7162 39.9953 56.766C39.849 56.812 39.7122 56.8657 39.5851 56.927L39.4291 56.5475C39.5639 56.4747 39.7238 56.4133 39.9087 56.3635C40.0935 56.3098 40.2861 56.283 40.4864 56.283ZM41.0931 57.9103L40.6366 57.9275C40.2515 57.9428 39.9838 58.0042 39.8336 58.1115C39.6872 58.2188 39.614 58.3703 39.614 58.5658C39.614 58.7383 39.666 58.8648 39.77 58.9453C39.8778 59.0258 40.0146 59.066 40.1802 59.066C40.4383 59.066 40.654 58.9951 40.8273 58.8533C41.0045 58.7076 41.0931 58.4853 41.0931 58.1863V57.9103Z" fill="#1E1E1E"/>
<path d="M43.5228 59.0603C43.5999 59.0603 43.6788 59.0545 43.7597 59.043C43.8406 59.0315 43.9061 59.0162 43.9562 58.997V59.3823C43.9022 59.4091 43.8252 59.4302 43.725 59.4455C43.6249 59.4647 43.5286 59.4743 43.4362 59.4743C43.2744 59.4743 43.1242 59.4474 42.9855 59.3938C42.8507 59.3363 42.7409 59.2385 42.6562 59.1005C42.5714 58.9625 42.5291 58.7689 42.5291 58.5198V56.7258H42.09V56.4843L42.5349 56.283L42.7371 55.6275H43.0375V56.3348H43.933V56.7258H43.0375V58.5083C43.0375 58.6961 43.0818 58.836 43.1704 58.928C43.2628 59.0162 43.3803 59.0603 43.5228 59.0603Z" fill="#1E1E1E"/>
<path d="M47.1011 56.3348V59.4168H46.6851L46.61 59.0085H46.5869C46.4867 59.1695 46.348 59.2884 46.1709 59.365C45.9937 59.4379 45.805 59.4743 45.6047 59.4743C45.231 59.4743 44.9499 59.3861 44.7611 59.2098C44.5724 59.0296 44.478 58.744 44.478 58.353V56.3348H44.9922V58.3185C44.9922 58.8092 45.2214 59.0545 45.6798 59.0545C46.0226 59.0545 46.2595 58.9587 46.3904 58.767C46.5252 58.5753 46.5926 58.2994 46.5926 57.939V56.3348H47.1011Z" fill="#1E1E1E"/>
<path d="M51.4179 56.2773C51.7684 56.2773 52.0303 56.3673 52.2036 56.5475C52.377 56.7277 52.4636 57.0152 52.4636 57.41V59.4168H51.961V57.433C51.961 56.9462 51.7511 56.7028 51.3312 56.7028C51.0308 56.7028 50.8151 56.789 50.6841 56.9615C50.557 57.134 50.4935 57.3851 50.4935 57.7148V59.4168H49.9908V57.433C49.9908 56.9462 49.779 56.7028 49.3553 56.7028C49.0433 56.7028 48.8276 56.7986 48.7082 56.9903C48.5888 57.1819 48.5291 57.4579 48.5291 57.8183V59.4168H48.0206V56.3348H48.4309L48.506 56.7545H48.5349C48.6312 56.5935 48.7602 56.4747 48.922 56.398C49.0876 56.3175 49.2628 56.2773 49.4477 56.2773C49.933 56.2773 50.2489 56.4498 50.3953 56.7948H50.4241C50.5281 56.6184 50.6687 56.4881 50.8459 56.4038C51.0231 56.3194 51.2137 56.2773 51.4179 56.2773Z" fill="#1E1E1E"/>
<path d="M56.2672 56.2773C56.6486 56.2773 56.9548 56.4095 57.1859 56.674C57.4208 56.9385 57.5383 57.3372 57.5383 57.87C57.5383 58.3952 57.4208 58.7938 57.1859 59.066C56.9548 59.3382 56.6466 59.4743 56.2615 59.4743C56.0227 59.4743 55.8243 59.4302 55.6664 59.342C55.5123 59.2539 55.391 59.1484 55.3024 59.0258H55.2677C55.2716 59.0909 55.2773 59.1734 55.285 59.273C55.2966 59.3727 55.3024 59.4589 55.3024 59.5318V60.7968H54.7939V56.3348H55.2099L55.2793 56.7545H55.3024C55.3948 56.6203 55.5162 56.5073 55.6664 56.4153C55.8166 56.3233 56.0169 56.2773 56.2672 56.2773ZM56.1748 56.7028C55.859 56.7028 55.6356 56.7909 55.5046 56.9673C55.3736 57.1436 55.3062 57.4119 55.3024 57.7723V57.87C55.3024 58.2495 55.364 58.5428 55.4873 58.7498C55.6144 58.9529 55.8474 59.0545 56.1864 59.0545C56.3712 59.0545 56.5253 59.0047 56.6486 58.905C56.7718 58.8015 56.8623 58.6597 56.9201 58.4795C56.9817 58.2994 57.0126 58.0943 57.0126 57.8643C57.0126 57.5116 56.9432 57.2299 56.8046 57.019C56.6698 56.8082 56.4598 56.7028 56.1748 56.7028Z" fill="#1E1E1E"/>
<path d="M59.7294 56.2773C59.7872 56.2773 59.8488 56.2811 59.9143 56.2888C59.9798 56.2926 60.0394 56.3003 60.0934 56.3118L60.0298 56.7775C59.9797 56.766 59.9239 56.7564 59.8623 56.7488C59.8006 56.7411 59.7448 56.7373 59.6947 56.7373C59.5368 56.7373 59.3885 56.7813 59.2498 56.8695C59.1112 56.9538 58.9995 57.0746 58.9147 57.2318C58.8339 57.3851 58.7934 57.5653 58.7934 57.7723V59.4168H58.285V56.3348H58.701L58.7587 56.8983H58.7819C58.8782 56.7296 59.0053 56.5839 59.1632 56.4613C59.325 56.3386 59.5137 56.2773 59.7294 56.2773ZM58.9147 55.9323C58.8647 55.8479 58.7973 55.754 58.7125 55.6505C58.6278 55.547 58.5392 55.4454 58.4468 55.3458C58.3543 55.2461 58.2734 55.1598 58.2041 55.087V55.0123H58.5508C58.6509 55.0774 58.7549 55.156 58.8627 55.248C58.9706 55.34 59.0727 55.4378 59.169 55.5413C59.273 55.4378 59.3789 55.34 59.4867 55.248C59.5946 55.156 59.6986 55.0774 59.7987 55.0123H60.1569V55.087C60.0837 55.1598 59.999 55.2461 59.9027 55.3458C59.8103 55.4454 59.7198 55.547 59.6312 55.6505C59.5464 55.754 59.4809 55.8479 59.4347 55.9323H58.9147Z" fill="#1E1E1E"/>
<path d="M60.8681 55.179C60.9451 55.179 61.0125 55.2058 61.0703 55.2595C61.1319 55.3093 61.1627 55.3898 61.1627 55.501C61.1627 55.6122 61.1319 55.6946 61.0703 55.7483C61.0125 55.7981 60.9451 55.823 60.8681 55.823C60.7833 55.823 60.7121 55.7981 60.6543 55.7483C60.5965 55.6946 60.5676 55.6122 60.5676 55.501C60.5676 55.3898 60.5965 55.3093 60.6543 55.2595C60.7121 55.2058 60.7833 55.179 60.8681 55.179ZM61.1165 56.3348V59.4168H60.6081V56.3348H61.1165Z" fill="#1E1E1E"/>
<path d="M63.1318 59.4743C62.7466 59.4743 62.4385 59.342 62.2074 59.0775C61.9763 58.8092 61.8607 58.4105 61.8607 57.8815C61.8607 57.3525 61.9763 56.9538 62.2074 56.6855C62.4423 56.4133 62.7524 56.2773 63.1376 56.2773C63.3764 56.2773 63.5709 56.3213 63.7211 56.4095C63.8752 56.4977 64.0004 56.605 64.0967 56.7315H64.1313C64.1236 56.6817 64.1159 56.6088 64.1082 56.513C64.1005 56.4133 64.0967 56.3348 64.0967 56.2773V55.0468H64.6051V59.4168H64.1949L64.1198 59.0028H64.0967C64.0042 59.1331 63.881 59.2443 63.7269 59.3363C63.5728 59.4283 63.3745 59.4743 63.1318 59.4743ZM63.2127 59.0545C63.5401 59.0545 63.7693 58.9664 63.9002 58.79C64.035 58.6099 64.1025 58.3396 64.1025 57.9793V57.8873C64.1025 57.5039 64.0389 57.2107 63.9118 57.0075C63.7847 56.8005 63.5497 56.697 63.2069 56.697C62.9334 56.697 62.7274 56.8063 62.5887 57.0248C62.4539 57.2394 62.3865 57.5289 62.3865 57.893C62.3865 58.261 62.4539 58.5466 62.5887 58.7498C62.7274 58.9529 62.9354 59.0545 63.2127 59.0545Z" fill="#1E1E1E"/>
<path d="M66.698 56.283C67.0754 56.283 67.3547 56.3654 67.5357 56.5303C67.7167 56.6951 67.8073 56.9577 67.8073 57.318V59.4168H67.4375L67.3393 58.9798H67.3162C67.1813 59.1484 67.0388 59.273 66.8886 59.3535C66.7384 59.434 66.5342 59.4743 66.2762 59.4743C65.995 59.4743 65.762 59.4014 65.5771 59.2558C65.3922 59.1063 65.2998 58.8744 65.2998 58.56C65.2998 58.2533 65.4211 58.0176 65.6638 57.8528C65.9064 57.6841 66.28 57.5921 66.7846 57.5768L67.3104 57.5595V57.3755C67.3104 57.1187 67.2545 56.9404 67.1428 56.8408C67.0311 56.7411 66.8732 56.6913 66.6691 56.6913C66.5073 56.6913 66.3532 56.7162 66.2069 56.766C66.0605 56.812 65.9238 56.8657 65.7966 56.927L65.6406 56.5475C65.7755 56.4747 65.9353 56.4133 66.1202 56.3635C66.3051 56.3098 66.4977 56.283 66.698 56.283ZM67.3046 57.9103L66.8482 57.9275C66.463 57.9428 66.1953 58.0042 66.0451 58.1115C65.8987 58.2188 65.8255 58.3703 65.8255 58.5658C65.8255 58.7383 65.8775 58.8648 65.9815 58.9453C66.0894 59.0258 66.2261 59.066 66.3917 59.066C66.6498 59.066 66.8655 58.9951 67.0388 58.8533C67.216 58.7076 67.3046 58.4853 67.3046 58.1863V57.9103ZM67.4722 55.0123V55.0698C67.4221 55.1388 67.3489 55.2288 67.2526 55.34C67.1602 55.4473 67.0581 55.5566 66.9464 55.6678C66.8385 55.7751 66.7384 55.8633 66.646 55.9323H66.3109V55.8633C66.3648 55.7943 66.4264 55.7099 66.4957 55.6103C66.5651 55.5068 66.6325 55.4033 66.698 55.2998C66.7634 55.1924 66.8174 55.0966 66.8597 55.0123H67.4722Z" fill="#1E1E1E"/>
<path d="M70.1908 56.2773C70.5606 56.2773 70.8398 56.3673 71.0285 56.5475C71.2173 56.7277 71.3116 57.0152 71.3116 57.41V59.4168H70.809V57.4445C70.809 56.95 70.5779 56.7028 70.1157 56.7028C69.7729 56.7028 69.536 56.7986 69.405 56.9903C69.2741 57.1819 69.2086 57.4579 69.2086 57.8183V59.4168H68.7002V56.3348H69.1104L69.1855 56.7545H69.2144C69.3145 56.5935 69.4532 56.4747 69.6304 56.398C69.8075 56.3175 69.9943 56.2773 70.1908 56.2773Z" fill="#1E1E1E"/>
<path d="M72.7166 59.4168H72.2081V56.3348H72.7166V59.4168ZM73.277 55.0123V55.0698C73.2269 55.1388 73.1537 55.2288 73.0574 55.34C72.965 55.4473 72.8629 55.5566 72.7512 55.6678C72.6434 55.7751 72.5432 55.8633 72.4508 55.9323H72.1157V55.8633C72.1696 55.7943 72.2312 55.7099 72.3006 55.6103C72.3699 55.5068 72.4373 55.4033 72.5028 55.2998C72.5683 55.1924 72.6222 55.0966 72.6646 55.0123H73.277Z" fill="#1E1E1E"/>
<path d="M73.559 56.6453C73.559 56.4996 73.5937 56.398 73.663 56.3405C73.7323 56.283 73.8151 56.2543 73.9114 56.2543C74.0077 56.2543 74.0925 56.283 74.1656 56.3405C74.2388 56.398 74.2754 56.4996 74.2754 56.6453C74.2754 56.7833 74.2388 56.8829 74.1656 56.9443C74.0925 57.0056 74.0077 57.0363 73.9114 57.0363C73.8151 57.0363 73.7323 57.0056 73.663 56.9443C73.5937 56.8829 73.559 56.7833 73.559 56.6453ZM73.559 59.1063C73.559 58.9644 73.5937 58.8648 73.663 58.8073C73.7323 58.7498 73.8151 58.721 73.9114 58.721C74.0077 58.721 74.0925 58.7498 74.1656 58.8073C74.2388 58.8648 74.2754 58.9644 74.2754 59.1063C74.2754 59.2443 74.2388 59.3439 74.1656 59.4053C74.0925 59.4666 74.0077 59.4973 73.9114 59.4973C73.8151 59.4973 73.7323 59.4666 73.663 59.4053C73.5937 59.3439 73.559 59.2443 73.559 59.1063Z" fill="#1E1E1E"/>
<path d="M77.7243 94.8752V94.3404L78.7758 93.2824C78.9838 93.0716 79.1533 92.8914 79.2842 92.7419C79.419 92.5924 79.5173 92.4525 79.5789 92.3222C79.6444 92.188 79.6771 92.0442 79.6771 91.8909C79.6771 91.7031 79.6232 91.5632 79.5153 91.4712C79.4075 91.3753 79.265 91.3274 79.0878 91.3274C78.9145 91.3274 78.7527 91.3638 78.6025 91.4367C78.4522 91.5057 78.2962 91.6053 78.1345 91.7357L77.7358 91.2584C77.9053 91.1127 78.0979 90.9862 78.3136 90.8789C78.5293 90.7677 78.8008 90.7122 79.1282 90.7122C79.394 90.7122 79.6232 90.7601 79.8158 90.8559C80.0083 90.9479 80.1566 91.0782 80.2606 91.2469C80.3646 91.4117 80.4166 91.6015 80.4166 91.8162C80.4166 92.0385 80.3723 92.2436 80.2837 92.4314C80.1952 92.6154 80.0661 92.8013 79.8966 92.9892C79.731 93.1732 79.5327 93.3725 79.3016 93.5872L78.6429 94.2139V94.2484H80.5495V94.8752H77.7243Z" fill="#1E1E1E"/>
<path d="M82.5686 94.8752V93.9954H80.7314V93.4549L82.586 90.7582H83.2851V93.4032H83.8224V93.9954H83.2851V94.8752H82.5686ZM82.5686 93.4032V92.3049C82.5686 92.1477 82.5706 92.0136 82.5744 91.9024C82.5821 91.7912 82.5879 91.6954 82.5918 91.6149H82.5686C82.534 91.6839 82.4916 91.7587 82.4415 91.8392C82.3953 91.9158 82.3491 91.9887 82.3029 92.0577L81.3958 93.4032H82.5686Z" fill="#1E1E1E"/>
<path d="M84.215 94.5072C84.215 94.3462 84.2574 94.2331 84.3421 94.1679C84.4307 94.0989 84.5347 94.0644 84.6541 94.0644C84.7735 94.0644 84.8775 94.0989 84.9661 94.1679C85.0547 94.2331 85.099 94.3462 85.099 94.5072C85.099 94.6643 85.0547 94.7774 84.9661 94.8464C84.8775 94.9154 84.7735 94.9499 84.6541 94.9499C84.5347 94.9499 84.4307 94.9154 84.3421 94.8464C84.2574 94.7774 84.215 94.6643 84.215 94.5072Z" fill="#1E1E1E"/>
<path d="M87.9631 94.8752V92.3164C87.9631 92.1937 87.965 92.0634 87.9689 91.9254C87.9766 91.7874 87.9824 91.659 87.9862 91.5402C87.9516 91.5785 87.9053 91.6245 87.8476 91.6782C87.7898 91.7318 87.7282 91.7836 87.6627 91.8334L87.2063 92.2014L86.8423 91.7529L88.0902 90.7697H88.6969V94.8752H87.9631Z" fill="#1E1E1E"/>
<path d="M89.6624 94.8752V94.3404L90.7139 93.2824C90.9219 93.0716 91.0914 92.8914 91.2224 92.7419C91.3572 92.5924 91.4554 92.4525 91.517 92.3222C91.5825 92.188 91.6152 92.0442 91.6152 91.8909C91.6152 91.7031 91.5613 91.5632 91.4535 91.4712C91.3456 91.3753 91.2031 91.3274 91.0259 91.3274C90.8526 91.3274 90.6908 91.3638 90.5406 91.4367C90.3904 91.5057 90.2344 91.6053 90.0726 91.7357L89.674 91.2584C89.8434 91.1127 90.036 90.9862 90.2517 90.8789C90.4674 90.7677 90.739 90.7122 91.0664 90.7122C91.3321 90.7122 91.5613 90.7601 91.7539 90.8559C91.9465 90.9479 92.0948 91.0782 92.1988 91.2469C92.3028 91.4117 92.3548 91.6015 92.3548 91.8162C92.3548 92.0385 92.3105 92.2436 92.2219 92.4314C92.1333 92.6154 92.0043 92.8013 91.8348 92.9892C91.6692 93.1732 91.4708 93.3725 91.2397 93.5872L90.581 94.2139V94.2484H92.4876V94.8752H89.6624Z" fill="#1E1E1E"/>
<path d="M92.9237 94.5072C92.9237 94.3462 92.9661 94.2331 93.0508 94.1679C93.1394 94.0989 93.2434 94.0644 93.3628 94.0644C93.4822 94.0644 93.5862 94.0989 93.6748 94.1679C93.7634 94.2331 93.8077 94.3462 93.8077 94.5072C93.8077 94.6643 93.7634 94.7774 93.6748 94.8464C93.5862 94.9154 93.4822 94.9499 93.3628 94.9499C93.2434 94.9499 93.1394 94.9154 93.0508 94.8464C92.9661 94.7774 92.9237 94.6643 92.9237 94.5072Z" fill="#1E1E1E"/>
<path d="M95.6607 94.8752V94.3404L96.7123 93.2824C96.9203 93.0716 97.0897 92.8914 97.2207 92.7419C97.3555 92.5924 97.4537 92.4525 97.5154 92.3222C97.5808 92.188 97.6136 92.0442 97.6136 91.8909C97.6136 91.7031 97.5596 91.5632 97.4518 91.4712C97.3439 91.3753 97.2014 91.3274 97.0242 91.3274C96.8509 91.3274 96.6891 91.3638 96.5389 91.4367C96.3887 91.5057 96.2327 91.6053 96.0709 91.7357L95.6723 91.2584C95.8418 91.1127 96.0343 90.9862 96.25 90.8789C96.4657 90.7677 96.7373 90.7122 97.0647 90.7122C97.3305 90.7122 97.5596 90.7601 97.7522 90.8559C97.9448 90.9479 98.0931 91.0782 98.1971 91.2469C98.3011 91.4117 98.3531 91.6015 98.3531 91.8162C98.3531 92.0385 98.3088 92.2436 98.2202 92.4314C98.1316 92.6154 98.0026 92.8013 97.8331 92.9892C97.6675 93.1732 97.4691 93.3725 97.238 93.5872L96.5794 94.2139V94.2484H98.486V94.8752H95.6607Z" fill="#1E1E1E"/>
<path d="M101.695 92.8224C101.695 93.2632 101.649 93.6408 101.557 93.9552C101.464 94.2695 101.314 94.511 101.106 94.6797C100.898 94.8483 100.623 94.9327 100.28 94.9327C99.7945 94.9327 99.4382 94.7467 99.2109 94.3749C98.9837 94.0031 98.87 93.4856 98.87 92.8224C98.87 92.3816 98.9143 92.004 99.0029 91.6897C99.0954 91.3715 99.2437 91.1281 99.4478 90.9594C99.6558 90.7907 99.9331 90.7064 100.28 90.7064C100.761 90.7064 101.118 90.8923 101.349 91.2642C101.58 91.636 101.695 92.1554 101.695 92.8224ZM99.598 92.8224C99.598 93.3246 99.6481 93.7022 99.7482 93.9552C99.8484 94.2082 100.026 94.3347 100.28 94.3347C100.53 94.3347 100.705 94.2101 100.806 93.9609C100.91 93.7079 100.962 93.3284 100.962 92.8224C100.962 92.3202 100.91 91.9427 100.806 91.6897C100.705 91.4328 100.53 91.3044 100.28 91.3044C100.026 91.3044 99.8484 91.4328 99.7482 91.6897C99.6481 91.9427 99.598 92.3202 99.598 92.8224Z" fill="#1E1E1E"/>
<path d="M102.103 94.8752V94.3404L103.154 93.2824C103.362 93.0716 103.532 92.8914 103.663 92.7419C103.797 92.5924 103.896 92.4525 103.957 92.3222C104.023 92.188 104.056 92.0442 104.056 91.8909C104.056 91.7031 104.002 91.5632 103.894 91.4712C103.786 91.3753 103.643 91.3274 103.466 91.3274C103.293 91.3274 103.131 91.3638 102.981 91.4367C102.831 91.5057 102.675 91.6053 102.513 91.7357L102.114 91.2584C102.284 91.1127 102.476 90.9862 102.692 90.8789C102.908 90.7677 103.179 90.7122 103.507 90.7122C103.772 90.7122 104.002 90.7601 104.194 90.8559C104.387 90.9479 104.535 91.0782 104.639 91.2469C104.743 91.4117 104.795 91.6015 104.795 91.8162C104.795 92.0385 104.751 92.2436 104.662 92.4314C104.574 92.6154 104.445 92.8013 104.275 92.9892C104.109 93.1732 103.911 93.3725 103.68 93.5872L103.021 94.2139V94.2484H104.928V94.8752H102.103Z" fill="#1E1E1E"/>
<path d="M106.681 92.2934C106.943 92.2934 107.174 92.3413 107.375 92.4372C107.575 92.533 107.731 92.6729 107.843 92.8569C107.958 93.0371 108.016 93.2594 108.016 93.5239C108.016 93.9647 107.879 94.3097 107.606 94.5589C107.332 94.8081 106.934 94.9327 106.41 94.9327C106.194 94.9327 105.992 94.9135 105.803 94.8752C105.614 94.8368 105.453 94.7812 105.318 94.7084V94.0644C105.46 94.1411 105.632 94.2043 105.832 94.2542C106.032 94.304 106.221 94.3289 106.398 94.3289C106.672 94.3289 106.885 94.2695 107.04 94.1507C107.197 94.0318 107.276 93.8459 107.276 93.5929C107.276 93.3667 107.201 93.1942 107.051 93.0754C106.905 92.9527 106.677 92.8914 106.369 92.8914C106.261 92.8914 106.146 92.901 106.023 92.9202C105.899 92.9393 105.797 92.9585 105.716 92.9777L105.404 92.8052L105.56 90.7697H107.733V91.4022H106.202L106.115 92.3509C106.181 92.3394 106.258 92.3279 106.346 92.3164C106.435 92.3011 106.546 92.2934 106.681 92.2934Z" fill="#1E1E1E"/>
<path d="M38.5309 93.2613C38.5309 93.9552 38.3402 94.4784 37.9589 94.8311C37.5814 95.1799 37.0537 95.3543 36.3758 95.3543H35.2261V91.2488H36.4972C36.9093 91.2488 37.2675 91.3255 37.5718 91.4788C37.8799 91.6322 38.1168 91.8583 38.2824 92.1573C38.4481 92.4563 38.5309 92.8243 38.5309 93.2613ZM37.982 93.2786C37.982 92.7304 37.8453 92.3298 37.5718 92.0768C37.3022 91.82 36.9189 91.6916 36.4221 91.6916H35.7461V94.9116H36.3065C37.4235 94.9116 37.982 94.3672 37.982 93.2786Z" fill="#1E1E1E"/>
<path d="M40.4864 92.2206C40.8639 92.2206 41.1431 92.303 41.3242 92.4678C41.5052 92.6327 41.5957 92.8952 41.5957 93.2556V95.3543H41.226L41.1277 94.9173H41.1046C40.9698 95.086 40.8273 95.2106 40.6771 95.2911C40.5269 95.3716 40.3227 95.4118 40.0647 95.4118C39.7835 95.4118 39.5504 95.339 39.3656 95.1933C39.1807 95.0438 39.0882 94.8119 39.0882 94.4976C39.0882 94.1909 39.2096 93.9552 39.4522 93.7903C39.6949 93.6217 40.0685 93.5297 40.5731 93.5143L41.0989 93.4971V93.3131C41.0989 93.0562 41.043 92.878 40.9313 92.7783C40.8196 92.6787 40.6617 92.6288 40.4575 92.6288C40.2958 92.6288 40.1417 92.6537 39.9953 92.7036C39.849 92.7496 39.7122 92.8032 39.5851 92.8646L39.4291 92.4851C39.5639 92.4122 39.7238 92.3509 39.9087 92.3011C40.0935 92.2474 40.2861 92.2206 40.4864 92.2206ZM41.0931 93.8478L40.6366 93.8651C40.2515 93.8804 39.9838 93.9417 39.8336 94.0491C39.6872 94.1564 39.614 94.3078 39.614 94.5033C39.614 94.6758 39.666 94.8023 39.77 94.8828C39.8778 94.9633 40.0146 95.0036 40.1802 95.0036C40.4383 95.0036 40.654 94.9327 40.8273 94.7908C41.0045 94.6452 41.0931 94.4228 41.0931 94.1238V93.8478Z" fill="#1E1E1E"/>
<path d="M43.5228 94.9978C43.5999 94.9978 43.6788 94.9921 43.7597 94.9806C43.8406 94.9691 43.9061 94.9537 43.9562 94.9346V95.3198C43.9022 95.3467 43.8252 95.3677 43.725 95.3831C43.6249 95.4022 43.5286 95.4118 43.4362 95.4118C43.2744 95.4118 43.1242 95.385 42.9855 95.3313C42.8507 95.2738 42.7409 95.1761 42.6562 95.0381C42.5714 94.9001 42.5291 94.7065 42.5291 94.4573V92.6633H42.09V92.4218L42.5349 92.2206L42.7371 91.5651H43.0375V92.2723H43.933V92.6633H43.0375V94.4458C43.0375 94.6337 43.0818 94.7736 43.1704 94.8656C43.2628 94.9537 43.3803 94.9978 43.5228 94.9978Z" fill="#1E1E1E"/>
<path d="M47.1011 92.2723V95.3543H46.6851L46.61 94.9461H46.5869C46.4867 95.1071 46.348 95.2259 46.1709 95.3026C45.9937 95.3754 45.805 95.4118 45.6047 95.4118C45.231 95.4118 44.9499 95.3237 44.7611 95.1473C44.5724 94.9672 44.478 94.6816 44.478 94.2906V92.2723H44.9922V94.2561C44.9922 94.7467 45.2214 94.9921 45.6798 94.9921C46.0226 94.9921 46.2595 94.8962 46.3904 94.7046C46.5252 94.5129 46.5926 94.2369 46.5926 93.8766V92.2723H47.1011Z" fill="#1E1E1E"/>
<path d="M51.4179 92.2148C51.7684 92.2148 52.0303 92.3049 52.2036 92.4851C52.377 92.6652 52.4636 92.9527 52.4636 93.3476V95.3543H51.961V93.3706C51.961 92.8837 51.7511 92.6403 51.3312 92.6403C51.0308 92.6403 50.8151 92.7266 50.6841 92.8991C50.557 93.0716 50.4935 93.3227 50.4935 93.6523V95.3543H49.9908V93.3706C49.9908 92.8837 49.779 92.6403 49.3553 92.6403C49.0433 92.6403 48.8276 92.7362 48.7082 92.9278C48.5888 93.1195 48.5291 93.3955 48.5291 93.7558V95.3543H48.0206V92.2723H48.4309L48.506 92.6921H48.5349C48.6312 92.5311 48.7602 92.4122 48.922 92.3356C49.0876 92.2551 49.2628 92.2148 49.4477 92.2148C49.933 92.2148 50.2489 92.3873 50.3953 92.7323H50.4241C50.5281 92.556 50.6687 92.4257 50.8459 92.3413C51.0231 92.257 51.2137 92.2148 51.4179 92.2148Z" fill="#1E1E1E"/>
<path d="M56.2672 92.2148C56.6486 92.2148 56.9548 92.3471 57.1859 92.6116C57.4208 92.8761 57.5383 93.2747 57.5383 93.8076C57.5383 94.3327 57.4208 94.7314 57.1859 95.0036C56.9548 95.2757 56.6466 95.4118 56.2615 95.4118C56.0227 95.4118 55.8243 95.3677 55.6664 95.2796C55.5123 95.1914 55.391 95.086 55.3024 94.9633H55.2677C55.2716 95.0285 55.2773 95.1109 55.285 95.2106C55.2966 95.3102 55.3024 95.3965 55.3024 95.4693V96.7343H54.7939V92.2723H55.2099L55.2793 92.6921H55.3024C55.3948 92.5579 55.5162 92.4448 55.6664 92.3528C55.8166 92.2608 56.0169 92.2148 56.2672 92.2148ZM56.1748 92.6403C55.859 92.6403 55.6356 92.7285 55.5046 92.9048C55.3736 93.0812 55.3062 93.3495 55.3024 93.7098V93.8076C55.3024 94.1871 55.364 94.4803 55.4873 94.6873C55.6144 94.8905 55.8474 94.9921 56.1864 94.9921C56.3712 94.9921 56.5253 94.9423 56.6486 94.8426C56.7718 94.7391 56.8623 94.5973 56.9201 94.4171C56.9817 94.2369 57.0126 94.0318 57.0126 93.8018C57.0126 93.4492 56.9432 93.1674 56.8046 92.9566C56.6698 92.7457 56.4598 92.6403 56.1748 92.6403Z" fill="#1E1E1E"/>
<path d="M59.7294 92.2148C59.7872 92.2148 59.8488 92.2187 59.9143 92.2263C59.9798 92.2302 60.0394 92.2378 60.0934 92.2493L60.0298 92.7151C59.9797 92.7036 59.9239 92.694 59.8623 92.6863C59.8006 92.6787 59.7448 92.6748 59.6947 92.6748C59.5368 92.6748 59.3885 92.7189 59.2498 92.8071C59.1112 92.8914 58.9995 93.0122 58.9147 93.1693C58.8339 93.3227 58.7934 93.5028 58.7934 93.7098V95.3543H58.285V92.2723H58.701L58.7587 92.8358H58.7819C58.8782 92.6672 59.0053 92.5215 59.1632 92.3988C59.325 92.2762 59.5137 92.2148 59.7294 92.2148ZM58.9147 91.8698C58.8647 91.7855 58.7973 91.6916 58.7125 91.5881C58.6278 91.4846 58.5392 91.383 58.4468 91.2833C58.3543 91.1837 58.2734 91.0974 58.2041 91.0246V90.9498H58.5508C58.6509 91.015 58.7549 91.0936 58.8627 91.1856C58.9706 91.2776 59.0727 91.3753 59.169 91.4788C59.273 91.3753 59.3789 91.2776 59.4867 91.1856C59.5946 91.0936 59.6986 91.015 59.7987 90.9498H60.1569V91.0246C60.0837 91.0974 59.999 91.1837 59.9027 91.2833C59.8103 91.383 59.7198 91.4846 59.6312 91.5881C59.5464 91.6916 59.4809 91.7855 59.4347 91.8698H58.9147Z" fill="#1E1E1E"/>
<path d="M60.8681 91.1166C60.9451 91.1166 61.0125 91.1434 61.0703 91.1971C61.1319 91.2469 61.1627 91.3274 61.1627 91.4386C61.1627 91.5497 61.1319 91.6322 61.0703 91.6858C61.0125 91.7357 60.9451 91.7606 60.8681 91.7606C60.7833 91.7606 60.7121 91.7357 60.6543 91.6858C60.5965 91.6322 60.5676 91.5497 60.5676 91.4386C60.5676 91.3274 60.5965 91.2469 60.6543 91.1971C60.7121 91.1434 60.7833 91.1166 60.8681 91.1166ZM61.1165 92.2723V95.3543H60.6081V92.2723H61.1165Z" fill="#1E1E1E"/>
<path d="M63.1318 95.4118C62.7466 95.4118 62.4385 95.2796 62.2074 95.0151C61.9763 94.7467 61.8607 94.3481 61.8607 93.8191C61.8607 93.2901 61.9763 92.8914 62.2074 92.6231C62.4423 92.3509 62.7524 92.2148 63.1376 92.2148C63.3764 92.2148 63.5709 92.2589 63.7211 92.3471C63.8752 92.4352 64.0004 92.5426 64.0967 92.6691H64.1313C64.1236 92.6192 64.1159 92.5464 64.1082 92.4506C64.1005 92.3509 64.0967 92.2723 64.0967 92.2148V90.9843H64.6051V95.3543H64.1949L64.1198 94.9403H64.0967C64.0042 95.0707 63.881 95.1818 63.7269 95.2738C63.5728 95.3658 63.3745 95.4118 63.1318 95.4118ZM63.2127 94.9921C63.5401 94.9921 63.7693 94.9039 63.9002 94.7276C64.035 94.5474 64.1025 94.2772 64.1025 93.9168V93.8248C64.1025 93.4415 64.0389 93.1482 63.9118 92.9451C63.7847 92.7381 63.5497 92.6346 63.2069 92.6346C62.9334 92.6346 62.7274 92.7438 62.5887 92.9623C62.4539 93.177 62.3865 93.4664 62.3865 93.8306C62.3865 94.1986 62.4539 94.4842 62.5887 94.6873C62.7274 94.8905 62.9354 94.9921 63.2127 94.9921Z" fill="#1E1E1E"/>
<path d="M66.698 92.2206C67.0754 92.2206 67.3547 92.303 67.5357 92.4678C67.7167 92.6327 67.8073 92.8952 67.8073 93.2556V95.3543H67.4375L67.3393 94.9173H67.3162C67.1813 95.086 67.0388 95.2106 66.8886 95.2911C66.7384 95.3716 66.5342 95.4118 66.2762 95.4118C65.995 95.4118 65.762 95.339 65.5771 95.1933C65.3922 95.0438 65.2998 94.8119 65.2998 94.4976C65.2998 94.1909 65.4211 93.9552 65.6638 93.7903C65.9064 93.6217 66.28 93.5297 66.7846 93.5143L67.3104 93.4971V93.3131C67.3104 93.0562 67.2545 92.878 67.1428 92.7783C67.0311 92.6787 66.8732 92.6288 66.6691 92.6288C66.5073 92.6288 66.3532 92.6537 66.2069 92.7036C66.0605 92.7496 65.9238 92.8032 65.7966 92.8646L65.6406 92.4851C65.7755 92.4122 65.9353 92.3509 66.1202 92.3011C66.3051 92.2474 66.4977 92.2206 66.698 92.2206ZM67.3046 93.8478L66.8482 93.8651C66.463 93.8804 66.1953 93.9417 66.0451 94.0491C65.8987 94.1564 65.8255 94.3078 65.8255 94.5033C65.8255 94.6758 65.8775 94.8023 65.9815 94.8828C66.0894 94.9633 66.2261 95.0036 66.3917 95.0036C66.6498 95.0036 66.8655 94.9327 67.0388 94.7908C67.216 94.6452 67.3046 94.4228 67.3046 94.1238V93.8478ZM67.4722 90.9498V91.0073C67.4221 91.0763 67.3489 91.1664 67.2526 91.2776C67.1602 91.3849 67.0581 91.4942 66.9464 91.6053C66.8385 91.7127 66.7384 91.8008 66.646 91.8698H66.3109V91.8008C66.3648 91.7318 66.4264 91.6475 66.4957 91.5478C66.5651 91.4443 66.6325 91.3408 66.698 91.2373C66.7634 91.13 66.8174 91.0342 66.8597 90.9498H67.4722Z" fill="#1E1E1E"/>
<path d="M70.1908 92.2148C70.5606 92.2148 70.8398 92.3049 71.0285 92.4851C71.2173 92.6652 71.3116 92.9527 71.3116 93.3476V95.3543H70.809V93.3821C70.809 92.8876 70.5779 92.6403 70.1157 92.6403C69.7729 92.6403 69.536 92.7362 69.405 92.9278C69.2741 93.1195 69.2086 93.3955 69.2086 93.7558V95.3543H68.7002V92.2723H69.1104L69.1855 92.6921H69.2144C69.3145 92.5311 69.4532 92.4122 69.6304 92.3356C69.8075 92.2551 69.9943 92.2148 70.1908 92.2148Z" fill="#1E1E1E"/>
<path d="M72.7166 95.3543H72.2081V92.2723H72.7166V95.3543ZM73.277 90.9498V91.0073C73.2269 91.0763 73.1537 91.1664 73.0574 91.2776C72.965 91.3849 72.8629 91.4942 72.7512 91.6053C72.6434 91.7127 72.5432 91.8008 72.4508 91.8698H72.1157V91.8008C72.1696 91.7318 72.2312 91.6475 72.3006 91.5478C72.3699 91.4443 72.4373 91.3408 72.5028 91.2373C72.5683 91.13 72.6222 91.0342 72.6646 90.9498H73.277Z" fill="#1E1E1E"/>
<path d="M73.559 92.5828C73.559 92.4372 73.5937 92.3356 73.663 92.2781C73.7323 92.2206 73.8151 92.1918 73.9114 92.1918C74.0077 92.1918 74.0925 92.2206 74.1656 92.2781C74.2388 92.3356 74.2754 92.4372 74.2754 92.5828C74.2754 92.7208 74.2388 92.8205 74.1656 92.8818C74.0925 92.9432 74.0077 92.9738 73.9114 92.9738C73.8151 92.9738 73.7323 92.9432 73.663 92.8818C73.5937 92.8205 73.559 92.7208 73.559 92.5828ZM73.559 95.0438C73.559 94.902 73.5937 94.8023 73.663 94.7448C73.7323 94.6873 73.8151 94.6586 73.9114 94.6586C74.0077 94.6586 74.0925 94.6873 74.1656 94.7448C74.2388 94.8023 74.2754 94.902 74.2754 95.0438C74.2754 95.1818 74.2388 95.2815 74.1656 95.3428C74.0925 95.4042 74.0077 95.4348 73.9114 95.4348C73.8151 95.4348 73.7323 95.4042 73.663 95.3428C73.5937 95.2815 73.559 95.1818 73.559 95.0438Z" fill="#1E1E1E"/>
<path d="M30.8139 20.6042C30.8139 24.1805 30.8139 25.9687 30.1464 27.3482C29.4838 28.7174 28.3738 29.8222 26.998 30.4816C25.6119 31.1459 23.8151 31.1459 20.2216 31.1459C16.6282 31.1459 14.8314 31.1459 13.4453 30.4816C12.0695 29.8222 10.9594 28.7174 10.2969 27.3482C9.62935 25.9687 9.62935 24.1805 9.62935 20.6042C9.62935 17.0279 9.62935 15.2397 10.2969 13.8602C10.9594 12.491 12.0695 11.3862 13.4453 10.7269C14.8314 10.0625 16.6282 10.0625 20.2216 10.0625C23.8151 10.0625 25.6119 10.0625 26.998 10.7269C28.3738 11.3862 29.4839 12.491 30.1464 13.8602C30.8139 15.2397 30.8139 17.0279 30.8139 20.6042Z" fill="url(#paint0_linear_5168_6767)"/>
<path d="M16.2825 24.4375C16.0177 24.4375 15.791 24.3437 15.6024 24.156C15.4139 23.9684 15.3196 23.7428 15.3196 23.4792V17.7292C15.3196 17.4657 15.4139 17.24 15.6024 17.0524C15.791 16.8647 16.0177 16.7709 16.2825 16.7709H19.1713L20.1342 17.7292H23.986C24.2508 17.7292 24.4775 17.823 24.6661 18.0107C24.8546 18.1984 24.9489 18.424 24.9489 18.6875V23.4792C24.9489 23.7428 24.8546 23.9684 24.6661 24.156C24.4775 24.3437 24.2508 24.4375 23.986 24.4375H16.2825Z" fill="#1C1B1F"/>
<path d="M42.1706 16.9779C44.4123 16.9779 46.0185 18.5879 46.0185 20.7384C46.0185 23.5904 43.9039 25.5339 41.1538 25.5339C38.9121 25.5339 37.3059 24.0504 37.3059 21.7734C37.3059 18.9214 39.4205 16.9779 42.1706 16.9779ZM39.6631 21.6929C39.6631 22.7394 40.2987 23.4754 41.2924 23.4754C42.6328 23.4754 43.6612 22.3714 43.6612 20.8189C43.6612 19.7724 43.0257 19.0364 42.032 19.0364C40.6916 19.0364 39.6631 20.1404 39.6631 21.6929Z" fill="#1E1E1E"/>
<path d="M50.4018 16.9779C51.5805 16.9779 53.048 17.2309 54.0186 17.5644L53.048 19.4504C52.2391 19.1859 51.1645 18.9559 50.4018 18.9559C49.6507 18.9559 49.3619 19.1054 49.3619 19.3929C49.3619 19.6804 49.5698 19.8989 50.7138 20.2784C52.5742 20.8879 53.3946 21.6929 53.3946 22.8429C53.3946 24.3379 52.216 25.5339 49.6045 25.5339C48.345 25.5339 47.0161 25.3154 45.8837 24.9244L46.8428 23.0269C47.6863 23.3029 48.7263 23.5559 49.7201 23.5559C50.5636 23.5559 50.8756 23.3374 50.8756 23.0384C50.8756 22.7509 50.5752 22.5439 49.4543 22.1989C47.6055 21.6239 46.8775 20.8189 46.8775 19.6689C46.8775 18.1279 48.0677 16.9779 50.4018 16.9779Z" fill="#1E1E1E"/>
<path d="M59.1424 16.9779C61.3841 16.9779 62.9902 18.5879 62.9902 20.7384C62.9902 23.5904 60.8756 25.5339 58.1255 25.5339C55.8838 25.5339 54.2776 24.0504 54.2776 21.7734C54.2776 18.9214 56.3922 16.9779 59.1424 16.9779ZM56.6349 21.6929C56.6349 22.7394 57.2704 23.4754 58.2642 23.4754C59.6046 23.4754 60.633 22.3714 60.633 20.8189C60.633 19.7724 59.9974 19.0364 59.0037 19.0364C57.6633 19.0364 56.6349 20.1404 56.6349 21.6929Z" fill="#1E1E1E"/>
<path d="M69.3148 21.1064C70.297 21.2904 70.8286 22.0724 70.8286 22.8429C70.8286 24.3264 69.5113 25.3959 66.9576 25.3959H63.3523L64.8198 17.1159H68.1478C70.2161 17.1159 71.1637 17.9209 71.1637 19.0364C71.1637 19.9794 70.5397 20.7269 69.3148 21.0834V21.1064ZM67.3158 20.4049C68.402 20.4049 68.8064 19.9909 68.8064 19.5194C68.8064 19.0939 68.5291 18.8294 67.6047 18.8294H66.7842L66.5069 20.4049H67.3158ZM67.0731 23.6824C68.2286 23.6824 68.5753 23.2569 68.5753 22.7279C68.5753 22.3024 68.2517 21.9804 67.3736 21.9804H66.218L65.9176 23.6824H67.0731Z" fill="#1E1E1E"/>
<path d="M78.3753 17.1159H80.6055L79.1379 25.4074H77.2544L75.1976 22.3254L74.435 21.2099L74.2501 22.3714L73.7185 25.3959H71.4884L72.9559 17.0929H74.7007L76.9309 20.5544L77.5895 21.6239L77.7744 20.5199L78.3753 17.1159Z" fill="#1E1E1E"/>
<path d="M81.9821 15.4829L84.6629 14.3674L85.2984 15.6324L82.6176 16.7479L81.9821 15.4829ZM82.0398 17.1159H84.3509L82.8834 25.3959H80.5723L82.0398 17.1159Z" fill="#1E1E1E"/>
<path d="M88.6412 17.1159H91.5416C94.2686 17.1159 96.0481 18.6339 96.0481 20.8419C96.0481 23.5789 93.7717 25.3959 90.5478 25.3959H87.1737L88.6412 17.1159ZM90.6171 23.4409C92.6278 23.4409 93.6908 22.4174 93.6908 20.9799C93.6908 19.9104 92.9282 19.0709 91.3105 19.0709H90.6056L89.8314 23.4409H90.6171Z" fill="#1E1E1E"/>
<path d="M101.662 16.9779C103.904 16.9779 105.51 18.5879 105.51 20.7384C105.51 23.5904 103.395 25.5339 100.645 25.5339C98.4034 25.5339 96.7972 24.0504 96.7972 21.7734C96.7972 18.9214 98.9118 16.9779 101.662 16.9779ZM99.1545 21.6929C99.1545 22.7394 99.79 23.4754 100.784 23.4754C102.124 23.4754 103.153 22.3714 103.153 20.8189C103.153 19.7724 102.517 19.0364 101.523 19.0364C100.183 19.0364 99.1545 20.1404 99.1545 21.6929Z" fill="#1E1E1E"/>
<path d="M114.827 17.1159L111.13 20.9339L113.545 25.3959H110.979L109.281 22.3484L108.599 23.0154L108.183 25.3959H105.872L107.339 17.1159H109.65L109.084 20.2899L112.17 17.1159H114.827Z" fill="#1E1E1E"/>
<path d="M115.746 17.1159H118.057L116.937 23.4409H120.553L120.207 25.3959H114.279L115.746 17.1159Z" fill="#1E1E1E"/>
<path d="M126.198 25.3959L126.025 24.2114H123.575L122.986 25.3959H120.525L125.147 17.0929H126.95L128.648 25.3959H126.198ZM125.447 20.3704L124.384 22.4979H125.806L125.447 20.3704Z" fill="#1E1E1E"/>
<path d="M130.834 17.1159H133.734C136.461 17.1159 138.24 18.6339 138.24 20.8419C138.24 23.5789 135.964 25.3959 132.74 25.3959H129.366L130.834 17.1159ZM132.81 23.4409C134.82 23.4409 135.883 22.4174 135.883 20.9799C135.883 19.9104 135.121 19.0709 133.503 19.0709H132.798L132.024 23.4409H132.81Z" fill="#1E1E1E"/>
<path d="M144.323 17.1159H146.807L142.936 22.3369L142.393 25.3959H140.082L140.625 22.3369L138.592 17.1159H141.041L141.816 19.2089L142.162 20.2554L142.844 19.2089L144.323 17.1159Z" fill="#1E1E1E"/>
<path d="M161.773 49.8334H169.477V53.6668H161.773V49.8334Z" fill="#1E1E1E"/>
<path d="M163.217 52.4688C163.418 52.4688 163.589 52.399 163.729 52.2592C163.869 52.1194 163.94 51.9497 163.94 51.7501C163.94 51.5504 163.869 51.3807 163.729 51.241C163.589 51.1012 163.418 51.0313 163.217 51.0313C163.017 51.0313 162.846 51.1012 162.706 51.241C162.566 51.3807 162.495 51.5504 162.495 51.7501C162.495 51.9497 162.566 52.1194 162.706 52.2592C162.846 52.399 163.017 52.4688 163.217 52.4688ZM165.625 52.4688C165.825 52.4688 165.996 52.399 166.136 52.2592C166.277 52.1194 166.347 51.9497 166.347 51.7501C166.347 51.5504 166.277 51.3807 166.136 51.241C165.996 51.1012 165.825 51.0313 165.625 51.0313C165.424 51.0313 165.254 51.1012 165.113 51.241C164.973 51.3807 164.903 51.5504 164.903 51.7501C164.903 51.9497 164.973 52.1194 165.113 52.2592C165.254 52.399 165.424 52.4688 165.625 52.4688ZM168.032 52.4688C168.233 52.4688 168.403 52.399 168.544 52.2592C168.684 52.1194 168.754 51.9497 168.754 51.7501C168.754 51.5504 168.684 51.3807 168.544 51.241C168.403 51.1012 168.233 51.0313 168.032 51.0313C167.832 51.0313 167.661 51.1012 167.521 51.241C167.38 51.3807 167.31 51.5504 167.31 51.7501C167.31 51.9497 167.38 52.1194 167.521 52.2592C167.661 52.399 167.832 52.4688 168.032 52.4688ZM165.625 56.5418C164.959 56.5418 164.333 56.416 163.747 56.1644C163.161 55.9129 162.652 55.5714 162.218 55.1402C161.785 54.7089 161.442 54.2018 161.189 53.6188C160.937 53.0359 160.81 52.4129 160.81 51.7501C160.81 51.0872 160.937 50.4643 161.189 49.8813C161.442 49.2983 161.785 48.7912 162.218 48.36C162.652 47.9287 163.161 47.5873 163.747 47.3358C164.333 47.0842 164.959 46.9584 165.625 46.9584C166.291 46.9584 166.917 47.0842 167.503 47.3358C168.088 47.5873 168.598 47.9287 169.031 48.36C169.465 48.7912 169.808 49.2983 170.06 49.8813C170.313 50.4643 170.439 51.0872 170.439 51.7501C170.439 52.4129 170.313 53.0359 170.06 53.6188C169.808 54.2018 169.465 54.7089 169.031 55.1402C168.598 55.5714 168.088 55.9129 167.503 56.1644C166.917 56.416 166.291 56.5418 165.625 56.5418Z" fill="white"/>
<path d="M161.773 85.771H169.477V89.6043H161.773V85.771Z" fill="#1E1E1E"/>
<path d="M163.217 88.4064C163.418 88.4064 163.589 88.3365 163.729 88.1968C163.869 88.057 163.94 87.8873 163.94 87.6877C163.94 87.488 163.869 87.3183 163.729 87.1785C163.589 87.0388 163.418 86.9689 163.217 86.9689C163.017 86.9689 162.846 87.0388 162.706 87.1785C162.566 87.3183 162.495 87.488 162.495 87.6877C162.495 87.8873 162.566 88.057 162.706 88.1968C162.846 88.3365 163.017 88.4064 163.217 88.4064ZM165.625 88.4064C165.825 88.4064 165.996 88.3365 166.136 88.1968C166.277 88.057 166.347 87.8873 166.347 87.6877C166.347 87.488 166.277 87.3183 166.136 87.1785C165.996 87.0388 165.825 86.9689 165.625 86.9689C165.424 86.9689 165.254 87.0388 165.113 87.1785C164.973 87.3183 164.903 87.488 164.903 87.6877C164.903 87.8873 164.973 88.057 165.113 88.1968C165.254 88.3365 165.424 88.4064 165.625 88.4064ZM168.032 88.4064C168.233 88.4064 168.403 88.3365 168.544 88.1968C168.684 88.057 168.754 87.8873 168.754 87.6877C168.754 87.488 168.684 87.3183 168.544 87.1785C168.403 87.0388 168.233 86.9689 168.032 86.9689C167.832 86.9689 167.661 87.0388 167.521 87.1785C167.38 87.3183 167.31 87.488 167.31 87.6877C167.31 87.8873 167.38 88.057 167.521 88.1968C167.661 88.3365 167.832 88.4064 168.032 88.4064ZM165.625 92.4793C164.959 92.4793 164.333 92.3535 163.747 92.102C163.161 91.8504 162.652 91.509 162.218 91.0778C161.785 90.6465 161.442 90.1394 161.189 89.5564C160.937 88.9734 160.81 88.3505 160.81 87.6877C160.81 87.0248 160.937 86.4019 161.189 85.8189C161.442 85.2359 161.785 84.7288 162.218 84.2975C162.652 83.8663 163.161 83.5249 163.747 83.2733C164.333 83.0218 164.959 82.896 165.625 82.896C166.291 82.896 166.917 83.0218 167.503 83.2733C168.088 83.5249 168.598 83.8663 169.031 84.2975C169.465 84.7288 169.808 85.2359 170.06 85.8189C170.313 86.4019 170.439 87.0248 170.439 87.6877C170.439 88.3505 170.313 88.9734 170.06 89.5564C169.808 90.1394 169.465 90.6465 169.031 91.0778C168.598 91.509 168.088 91.8504 167.503 92.102C166.917 92.3535 166.291 92.4793 165.625 92.4793Z" fill="white"/>
<defs>
<linearGradient id="paint0_linear_5168_6767" x1="-1.16922e-06" y1="49.2154" x2="157.761" y2="144.069" gradientUnits="userSpaceOnUse">
<stop stop-color="#FFD592"/>
<stop offset="1" stop-color="#FFEC9A"/>
</linearGradient>
</defs>
</svg>
