<svg width="194" height="93" viewBox="0 0 194 93" fill="none" xmlns="http://www.w3.org/2000/svg">
<path d="M193.491 69.7387C193.491 77.5794 193.491 81.4998 191.965 84.4945C190.623 87.1288 188.481 89.2705 185.847 90.6128C182.852 92.1387 178.932 92.1387 171.091 92.1387L22.3999 92.1387C14.5592 92.1387 10.6388 92.1387 7.64407 90.6127C5.0098 89.2705 2.86807 87.1288 1.52585 84.4945C-6.02911e-05 81.4998 -6.00169e-05 77.5794 -5.94685e-05 69.7387L-5.61578e-05 22.4C-5.56094e-05 14.5592 -5.53352e-05 10.6389 1.52585 7.64411C2.86808 5.00984 5.0098 2.86811 7.64408 1.52589C10.6388 -1.99818e-05 14.5592 -1.95534e-05 22.3999 -1.86966e-05L171.091 -2.44784e-06C178.932 -1.59101e-06 182.852 -1.1626e-06 185.847 1.52591C188.481 2.86813 190.623 5.00986 191.965 7.64413C193.491 10.6389 193.491 14.5593 193.491 22.4L193.491 69.7387Z" fill="#F2F2F2"/>
<rect x="142.413" y="42.5259" width="33.3836" height="33.3836" rx="14" transform="rotate(-180 142.413 42.5259)" fill="url(#paint0_linear_5168_6681)"/>
<rect x="142.413" y="84.2546" width="33.3836" height="33.3836" rx="14" transform="rotate(-180 142.413 84.2546)" fill="url(#paint1_linear_5168_6681)"/>
<mask id="mask0_5168_6681" style="mask-type:alpha" maskUnits="userSpaceOnUse" x="116" y="58" width="19" height="19">
<rect x="116.507" y="58.3501" width="18.4277" height="18.4277" fill="#D9D9D9"/>
</mask>
<g mask="url(#mask0_5168_6681)">
<path d="M121.115 74.4746V60.6538H126.49C127.77 60.6538 128.858 61.1017 129.753 61.9975C130.649 62.8933 131.097 63.981 131.097 65.2607C131.097 66.5404 130.649 67.6282 129.753 68.524C128.858 69.4198 127.77 69.8677 126.49 69.8677H124.187V74.4746H121.115ZM124.187 66.7964H126.644C127.066 66.7964 127.428 66.646 127.728 66.3453C128.029 66.0446 128.179 65.683 128.179 65.2607C128.179 64.8384 128.029 64.4769 127.728 64.1762C127.428 63.8755 127.066 63.7251 126.644 63.7251H124.187V66.7964Z" fill="#1C1B1F"/>
</g>
<path d="M124.954 27.9353L129.08 23.9271L128.039 22.9162L124.954 25.9135L123.42 24.4237L122.379 25.4346L124.954 27.9353ZM125.72 32.5109C124.029 32.0971 122.632 31.1542 121.53 29.6822C120.429 28.2102 119.878 26.5756 119.878 24.7784V20.4511L125.72 18.3229L131.562 20.4511V24.7784C131.562 26.5756 131.012 28.2102 129.91 29.6822C128.809 31.1542 127.412 32.0971 125.72 32.5109Z" fill="#1E1E1E"/>
<rect x="184.141" y="42.5259" width="33.3836" height="33.3836" rx="14" transform="rotate(-180 184.141 42.5259)" fill="url(#paint2_linear_5168_6681)"/>
<rect x="184.141" y="84.2546" width="33.3836" height="33.3836" rx="14" transform="rotate(-180 184.141 84.2546)" fill="url(#paint3_linear_5168_6681)"/>
<mask id="mask1_5168_6681" style="mask-type:alpha" maskUnits="userSpaceOnUse" x="158" y="57" width="19" height="19">
<rect x="158.271" y="57.1145" width="18.4277" height="18.4277" fill="#D9D9D9"/>
</mask>
<g mask="url(#mask1_5168_6681)">
<path d="M167.484 61.9902L165.315 59.8403L166.389 58.7461L167.484 59.8403L170.209 57.1145L171.284 58.1895L167.484 61.9902ZM161.341 75.5422C161.124 75.5422 160.941 75.4687 160.794 75.3215C160.647 75.1743 160.573 74.992 160.573 74.7744V68.6318L162.186 64.0249C162.262 63.7946 162.4 63.609 162.598 63.4682C162.797 63.3275 163.017 63.2571 163.261 63.2571H171.707C171.95 63.2571 172.171 63.3275 172.369 63.4682C172.567 63.609 172.705 63.7946 172.782 64.0249L174.394 68.6318V74.7744C174.394 74.992 174.32 75.1743 174.173 75.3215C174.026 75.4687 173.844 75.5422 173.626 75.5422H172.858C172.641 75.5422 172.458 75.4687 172.311 75.3215C172.164 75.1743 172.091 74.992 172.091 74.7744V74.0066H162.877V74.7744C162.877 74.992 162.803 75.1743 162.656 75.3215C162.509 75.4687 162.326 75.5422 162.109 75.5422H161.341ZM162.723 67.0962H172.244L171.438 64.7927H163.529L162.723 67.0962ZM164.028 71.7031C164.348 71.7031 164.62 71.5912 164.844 71.3672C165.068 71.1433 165.18 70.8713 165.18 70.5514C165.18 70.2315 165.068 69.9595 164.844 69.7356C164.62 69.5116 164.348 69.3997 164.028 69.3997C163.709 69.3997 163.437 69.5116 163.213 69.7356C162.989 69.9595 162.877 70.2315 162.877 70.5514C162.877 70.8713 162.989 71.1433 163.213 71.3672C163.437 71.5912 163.709 71.7031 164.028 71.7031ZM170.939 71.7031C171.259 71.7031 171.531 71.5912 171.755 71.3672C171.979 71.1433 172.091 70.8713 172.091 70.5514C172.091 70.2315 171.979 69.9595 171.755 69.7356C171.531 69.5116 171.259 69.3997 170.939 69.3997C170.619 69.3997 170.347 69.5116 170.123 69.7356C169.899 69.9595 169.787 70.2315 169.787 70.5514C169.787 70.8713 169.899 71.1433 170.123 71.3672C170.347 71.5912 170.619 71.7031 170.939 71.7031Z" fill="#1C1B1F"/>
</g>
<mask id="mask2_5168_6681" style="mask-type:alpha" maskUnits="userSpaceOnUse" x="158" y="16" width="19" height="20">
<rect x="158.271" y="16.6528" width="18.361" height="18.361" fill="#D9D9D9"/>
</mask>
<g mask="url(#mask2_5168_6681)">
<path d="M161.329 27.3633V24.8578C161.074 24.9088 160.819 24.963 160.564 25.0204C160.309 25.0778 160.054 25.1383 159.799 25.2021V23.6146C161.061 23.3086 162.327 23.0918 163.595 22.9643C164.864 22.8368 166.149 22.7731 167.449 22.7731C168.75 22.7731 170.034 22.8368 171.303 22.9643C172.572 23.0918 173.837 23.3086 175.1 23.6146V25.2021C174.845 25.1383 174.59 25.0809 174.335 25.0299L173.57 24.8769V27.3633H172.039V24.6092C171.274 24.5072 170.509 24.4307 169.744 24.3797C168.979 24.3287 168.214 24.3032 167.449 24.3032C166.684 24.3032 165.919 24.3255 165.154 24.3701C164.389 24.4147 163.624 24.488 162.859 24.59V27.3633H161.329ZM164.752 21.3386L165.154 18.9479H169.744L170.146 21.3386C169.7 21.3131 169.25 21.2876 168.798 21.2621C168.345 21.2366 167.896 21.2239 167.449 21.2239C167.003 21.2239 166.553 21.2334 166.101 21.2526C165.648 21.2717 165.199 21.3004 164.752 21.3386ZM162.859 32.7186L163.968 26.0054C164.415 25.9544 164.867 25.9129 165.326 25.8811C165.785 25.8492 166.238 25.8205 166.684 25.795V28.1284H168.214V25.795C168.661 25.8205 169.113 25.8524 169.572 25.8906C170.031 25.9289 170.484 25.9735 170.93 26.0245L172.039 32.7186H168.214V29.6584H166.684V32.7186H162.859Z" fill="#1C1B1F"/>
</g>
<path d="M16.9851 76.2927C16.9851 77.4045 16.6749 78.243 16.0545 78.8081C15.4341 79.367 14.568 79.6465 13.4562 79.6465H11.6042V73.0678H13.6497C14.3315 73.0678 14.9212 73.1907 15.4187 73.4364C15.9163 73.6821 16.3002 74.0445 16.5705 74.5236C16.8469 75.0027 16.9851 75.5924 16.9851 76.2927ZM15.7504 76.3295C15.7504 75.5433 15.5692 74.9659 15.2068 74.5973C14.8444 74.2288 14.3254 74.0445 13.6497 74.0445H12.7836V78.6607H13.493C14.998 78.6607 15.7504 77.8836 15.7504 76.3295Z" fill="#5F5F5F"/>
<path d="M20.1101 74.5605C20.7796 74.5605 21.3079 74.7601 21.6949 75.1594C22.088 75.5586 22.2846 76.1145 22.2846 76.8271V77.4168H18.986C18.9983 77.8713 19.1242 78.2245 19.3638 78.4764C19.6033 78.7221 19.935 78.8449 20.3589 78.8449C20.6783 78.8449 20.967 78.8142 21.225 78.7528C21.483 78.6852 21.7471 78.59 22.0174 78.4672V79.3978C21.7717 79.5145 21.5167 79.6005 21.2526 79.6557C20.9885 79.711 20.6721 79.7387 20.3036 79.7387C19.8122 79.7387 19.3791 79.6465 19.0044 79.4623C18.6297 79.2718 18.3349 78.9893 18.1199 78.6146C17.9111 78.2337 17.8066 77.7577 17.8066 77.1864C17.8066 76.3326 18.0155 75.6815 18.4332 75.2331C18.857 74.7847 19.416 74.5605 20.1101 74.5605ZM20.1101 75.4174C19.7968 75.4174 19.5419 75.5187 19.3453 75.7214C19.1549 75.918 19.0444 76.2128 19.0136 76.606H21.1605C21.1543 76.262 21.0653 75.9794 20.8933 75.7583C20.7274 75.531 20.4664 75.4174 20.1101 75.4174Z" fill="#5F5F5F"/>
<path d="M25.2688 74.5605C25.9138 74.5605 26.4021 74.7018 26.7338 74.9843C27.0717 75.2669 27.2406 75.703 27.2406 76.2927V79.6465H26.4206L26.1902 78.9555H26.1534C25.9384 79.2258 25.7111 79.4254 25.4715 79.5544C25.232 79.6772 24.9064 79.7387 24.4949 79.7387C24.0465 79.7387 23.6748 79.6127 23.38 79.3609C23.0851 79.1091 22.9377 78.719 22.9377 78.1907C22.9377 77.6748 23.1251 77.2878 23.4998 77.0298C23.8806 76.7718 24.4549 76.6275 25.2228 76.5967L26.0889 76.5691V76.3203C26.0889 76.0009 26.0121 75.7736 25.8585 75.6385C25.705 75.5034 25.49 75.4358 25.2135 75.4358C24.9617 75.4358 24.7191 75.4726 24.4856 75.5464C24.2584 75.6139 24.0311 75.6999 23.8038 75.8044L23.4353 74.9935C23.681 74.8645 23.9605 74.7601 24.2737 74.6803C24.5931 74.6004 24.9248 74.5605 25.2688 74.5605ZM26.0889 77.2878L25.4807 77.3062C24.9709 77.3246 24.6177 77.4137 24.4212 77.5734C24.2246 77.727 24.1263 77.9358 24.1263 78.2C24.1263 78.4395 24.1939 78.6115 24.329 78.7159C24.4703 78.8142 24.6546 78.8634 24.8818 78.8634C25.2197 78.8634 25.5053 78.7681 25.7387 78.5777C25.9722 78.3812 26.0889 78.0925 26.0889 77.7116V77.2878Z" fill="#5F5F5F"/>
<path d="M30.4537 78.8081C30.595 78.8081 30.7332 78.7958 30.8683 78.7712C31.0096 78.7405 31.1386 78.7067 31.2553 78.6699V79.536C31.1324 79.5974 30.9727 79.6465 30.7762 79.6834C30.5796 79.7202 30.3738 79.7387 30.1588 79.7387C29.8701 79.7387 29.6091 79.6926 29.3757 79.6005C29.1484 79.5083 28.9672 79.3455 28.8321 79.1121C28.6969 78.8787 28.6293 78.5501 28.6293 78.1262V75.5279H27.9567V75.0212L28.6938 74.6158L29.0624 73.5562H29.7903V74.6526H31.2092V75.5279H29.7903V78.117C29.7903 78.3504 29.8517 78.5255 29.9746 78.6422C30.1036 78.7528 30.2633 78.8081 30.4537 78.8081Z" fill="#5F5F5F"/>
<path d="M32.6658 72.7269C32.8378 72.7269 32.9883 72.773 33.1173 72.8651C33.2463 72.9511 33.3108 73.1078 33.3108 73.335C33.3108 73.5623 33.2463 73.722 33.1173 73.8142C32.9883 73.9063 32.8378 73.9524 32.6658 73.9524C32.4877 73.9524 32.3341 73.9063 32.2051 73.8142C32.0822 73.722 32.0208 73.5623 32.0208 73.335C32.0208 73.1078 32.0822 72.9511 32.2051 72.8651C32.3341 72.773 32.4877 72.7269 32.6658 72.7269ZM33.2463 74.6526V79.6465H32.0853V74.6526H33.2463Z" fill="#5F5F5F"/>
<path d="M35.7151 79.6465H34.5541V72.644H35.7151V79.6465Z" fill="#5F5F5F"/>
<path d="M41.2299 74.5605C41.8749 74.5605 42.3632 74.7018 42.6949 74.9843C43.0328 75.2669 43.2017 75.703 43.2017 76.2927V79.6465H42.3817L42.1513 78.9555H42.1145C41.8995 79.2258 41.6722 79.4254 41.4326 79.5544C41.1931 79.6772 40.8675 79.7387 40.456 79.7387C40.0076 79.7387 39.6359 79.6127 39.3411 79.3609C39.0462 79.1091 38.8988 78.719 38.8988 78.1907C38.8988 77.6748 39.0862 77.2878 39.4609 77.0298C39.8417 76.7718 40.416 76.6275 41.1839 76.5967L42.05 76.5691V76.3203C42.05 76.0009 41.9732 75.7736 41.8196 75.6385C41.6661 75.5034 41.4511 75.4358 41.1747 75.4358C40.9228 75.4358 40.6802 75.4726 40.4468 75.5464C40.2195 75.6139 39.9922 75.6999 39.7649 75.8044L39.3964 74.9935C39.6421 74.8645 39.9216 74.7601 40.2348 74.6803C40.5543 74.6004 40.886 74.5605 41.2299 74.5605ZM42.05 77.2878L41.4419 77.3062C40.932 77.3246 40.5788 77.4137 40.3823 77.5734C40.1857 77.727 40.0874 77.9358 40.0874 78.2C40.0874 78.4395 40.155 78.6115 40.2901 78.7159C40.4314 78.8142 40.6157 78.8634 40.843 78.8634C41.1808 78.8634 41.4664 78.7681 41.6998 78.5777C41.9333 78.3812 42.05 78.0925 42.05 77.7116V77.2878Z" fill="#5F5F5F"/>
<path d="M48.9118 74.6526V79.6465H47.9996L47.843 79.0016H47.7877C47.628 79.2596 47.4068 79.4469 47.1243 79.5636C46.8417 79.6803 46.5438 79.7387 46.2305 79.7387C45.6716 79.7387 45.2324 79.5943 44.9129 79.3056C44.5997 79.0169 44.443 78.5532 44.443 77.9143V74.6526H45.604V77.684C45.604 78.0587 45.6777 78.3382 45.8251 78.5224C45.9725 78.7067 46.206 78.7989 46.5254 78.7989C46.9922 78.7989 47.3116 78.6514 47.4836 78.3566C47.6617 78.0617 47.7508 77.641 47.7508 77.0943V74.6526H48.9118Z" fill="#5F5F5F"/>
<path d="M52.1498 78.8081C52.2911 78.8081 52.4293 78.7958 52.5645 78.7712C52.7057 78.7405 52.8347 78.7067 52.9514 78.6699V79.536C52.8286 79.5974 52.6689 79.6465 52.4723 79.6834C52.2758 79.7202 52.07 79.7387 51.855 79.7387C51.5663 79.7387 51.3052 79.6926 51.0718 79.6005C50.8445 79.5083 50.6633 79.3455 50.5282 79.1121C50.3931 78.8787 50.3255 78.5501 50.3255 78.1262V75.5279H49.6529V75.0212L50.39 74.6158L50.7585 73.5562H51.4864V74.6526H52.9054V75.5279H51.4864V78.117C51.4864 78.3504 51.5479 78.5255 51.6707 78.6422C51.7997 78.7528 51.9594 78.8081 52.1498 78.8081Z" fill="#5F5F5F"/>
<path d="M55.7717 74.5605C56.4166 74.5605 56.905 74.7018 57.2367 74.9843C57.5745 75.2669 57.7434 75.703 57.7434 76.2927V79.6465H56.9234L56.693 78.9555H56.6562C56.4412 79.2258 56.2139 79.4254 55.9744 79.5544C55.7348 79.6772 55.4092 79.7387 54.9977 79.7387C54.5493 79.7387 54.1777 79.6127 53.8828 79.3609C53.588 79.1091 53.4405 78.719 53.4405 78.1907C53.4405 77.6748 53.6279 77.2878 54.0026 77.0298C54.3834 76.7718 54.9578 76.6275 55.7256 76.5967L56.5917 76.5691V76.3203C56.5917 76.0009 56.5149 75.7736 56.3613 75.6385C56.2078 75.5034 55.9928 75.4358 55.7164 75.4358C55.4645 75.4358 55.2219 75.4726 54.9885 75.5464C54.7612 75.6139 54.5339 75.6999 54.3067 75.8044L53.9381 74.9935C54.1838 74.8645 54.4633 74.7601 54.7766 74.6803C55.096 74.6004 55.4277 74.5605 55.7717 74.5605ZM56.5917 77.2878L55.9836 77.3062C55.4737 77.3246 55.1205 77.4137 54.924 77.5734C54.7274 77.727 54.6291 77.9358 54.6291 78.2C54.6291 78.4395 54.6967 78.6115 54.8318 78.7159C54.9731 78.8142 55.1574 78.8634 55.3847 78.8634C55.7225 78.8634 56.0081 78.7681 56.2416 78.5777C56.475 78.3812 56.5917 78.0925 56.5917 77.7116V77.2878Z" fill="#5F5F5F"/>
<path d="M10.7473 80.7983H58.4529V81.259H10.7473V80.7983Z" fill="#5F5F5F"/>
<path d="M38.0971 16.7427C38.0971 17.4721 37.8323 18.048 37.3025 18.4703C36.7727 18.8926 36.0394 19.1037 35.1026 19.1037C34.1966 19.1037 33.4288 18.9502 32.7992 18.643V17.261C33.1447 17.4145 33.5248 17.5566 33.9394 17.6871C34.3617 17.81 34.784 17.8714 35.2063 17.8714C35.7054 17.8714 36.0663 17.7754 36.2889 17.5834C36.5193 17.3838 36.6344 17.1304 36.6344 16.8233C36.6344 16.4855 36.4886 16.2167 36.1968 16.0171C35.905 15.8098 35.4789 15.5871 34.9184 15.3491C34.5805 15.2109 34.2542 15.042 33.9394 14.8423C33.6323 14.635 33.3789 14.3778 33.1792 14.0707C32.9873 13.7559 32.8913 13.3643 32.8913 12.8959C32.8913 12.1972 33.137 11.6482 33.6284 11.2489C34.1275 10.8496 34.7917 10.65 35.6209 10.65C36.0509 10.65 36.4578 10.6961 36.8418 10.7882C37.2334 10.8804 37.6173 11.0109 37.9935 11.1798L37.5213 12.3661C37.1758 12.2202 36.8456 12.105 36.5308 12.0206C36.2237 11.9361 35.905 11.8939 35.5749 11.8939C35.1756 11.8939 34.8723 11.9822 34.665 12.1588C34.4577 12.3354 34.354 12.5696 34.354 12.8613C34.354 13.084 34.4116 13.276 34.5268 13.4372C34.6419 13.5908 34.8185 13.7328 35.0566 13.8633C35.3023 13.9939 35.6171 14.1436 36.001 14.3125C36.4463 14.5045 36.8226 14.708 37.1297 14.9229C37.4445 15.1303 37.6825 15.3798 37.8438 15.6716C38.0127 15.9557 38.0971 16.3127 38.0971 16.7427ZM34.7111 10.0281C34.6036 9.85916 34.4653 9.67104 34.2964 9.46373C34.1275 9.24874 33.9509 9.04526 33.7666 8.85331C33.5824 8.65367 33.4211 8.48091 33.2829 8.33503V8.1853H34.2504C34.45 8.30815 34.6611 8.45788 34.8838 8.63448C35.1065 8.8034 35.3176 8.99152 35.5173 9.19883C35.7169 8.99152 35.9319 8.8034 36.1622 8.63448C36.4003 8.45788 36.6191 8.30815 36.8187 8.1853H37.7977V8.33503C37.6595 8.48091 37.4944 8.65367 37.3025 8.85331C37.1182 9.04526 36.9377 9.24874 36.7611 9.46373C36.5922 9.67104 36.4578 9.85916 36.358 10.0281H34.7111Z" fill="#1E1E1E"/>
<path d="M40.7746 10.2354V14.3931C40.7746 14.5851 40.7669 14.7963 40.7516 15.0266C40.7362 15.2493 40.7209 15.4604 40.7055 15.6601H40.7401C40.8399 15.5218 40.955 15.3644 41.0856 15.1878C41.2161 15.0112 41.3466 14.8538 41.4772 14.7156L43.3199 12.7462H44.9669L42.4677 15.4412L45.1282 18.9886H43.4351L41.5002 16.3165L40.7746 16.9154V18.9886H39.3349V10.2354H40.7746Z" fill="#1E1E1E"/>
<path d="M51.5037 15.8558C51.5037 16.8924 51.2349 17.6948 50.6974 18.263C50.16 18.8235 49.4305 19.1037 48.5092 19.1037C47.941 19.1037 47.4342 18.977 46.9889 18.7237C46.5435 18.4703 46.1942 18.1017 45.9408 17.618C45.6874 17.1343 45.5607 16.5469 45.5607 15.8558C45.5607 14.8193 45.8256 14.0246 46.3554 13.4718C46.8929 12.9112 47.6223 12.631 48.5437 12.631C49.1196 12.631 49.6302 12.7577 50.0755 13.0111C50.5208 13.2568 50.8702 13.6215 51.1236 14.1052C51.377 14.5813 51.5037 15.1648 51.5037 15.8558ZM47.0465 15.8558C47.0465 16.5162 47.1616 17.0268 47.392 17.3877C47.63 17.7485 48.0101 17.929 48.5322 17.929C49.0466 17.929 49.4229 17.7485 49.6609 17.3877C49.8989 17.0268 50.0179 16.5162 50.0179 15.8558C50.0179 15.1955 49.8989 14.6888 49.6609 14.3356C49.4229 13.9824 49.0428 13.8058 48.5207 13.8058C47.9986 13.8058 47.6223 13.9824 47.392 14.3356C47.1616 14.6888 47.0465 15.1955 47.0465 15.8558Z" fill="#1E1E1E"/>
<path d="M54.8889 19.1037C54.1671 19.1037 53.5798 18.835 53.1267 18.2975C52.6814 17.7524 52.4587 16.9462 52.4587 15.8789C52.4587 14.8039 52.6852 13.9939 53.1383 13.4487C53.5913 12.9036 54.1863 12.631 54.9234 12.631C55.3841 12.631 55.7604 12.7193 56.0521 12.8959C56.3516 13.0725 56.5896 13.2875 56.7662 13.5409H56.8353C56.8123 13.4334 56.7892 13.2721 56.7662 13.0571C56.7432 12.8345 56.7317 12.6233 56.7317 12.4237V10.2354H58.1828V18.9886H57.0541L56.7892 18.1708H56.7317C56.5551 18.4319 56.3209 18.6546 56.0291 18.8388C55.7373 19.0154 55.3573 19.1037 54.8889 19.1037ZM55.3265 17.929C55.864 17.929 56.2403 17.7754 56.4552 17.4683C56.6779 17.1611 56.7931 16.6966 56.8008 16.0747V15.8904C56.8008 15.2224 56.6933 14.7118 56.4783 14.3586C56.271 13.9977 55.8794 13.8173 55.3035 13.8173C54.8582 13.8173 54.5165 14.0016 54.2785 14.3701C54.0481 14.731 53.9329 15.2416 53.9329 15.9019C53.9329 16.5622 54.052 17.0652 54.29 17.4107C54.528 17.7562 54.8735 17.929 55.3265 17.929Z" fill="#1E1E1E"/>
<path d="M62.348 12.631C63.1542 12.631 63.7646 12.8076 64.1793 13.1608C64.6016 13.514 64.8127 14.0591 64.8127 14.7963V18.9886H63.7877L63.4997 18.1248H63.4537C63.1849 18.4626 62.9008 18.7121 62.6014 18.8734C62.3019 19.027 61.895 19.1037 61.3806 19.1037C60.82 19.1037 60.3555 18.9463 59.987 18.6315C59.6184 18.3167 59.4341 17.8292 59.4341 17.1688C59.4341 16.5239 59.6683 16.0401 60.1367 15.7176C60.6127 15.3952 61.3306 15.2147 62.2904 15.1763L63.3731 15.1418V14.8308C63.3731 14.4315 63.2771 14.1474 63.0851 13.9785C62.8932 13.8096 62.6244 13.7251 62.2789 13.7251C61.9641 13.7251 61.6608 13.7712 61.369 13.8633C61.0849 13.9478 60.8008 14.0553 60.5168 14.1858L60.0561 13.1723C60.3632 13.0111 60.7126 12.8805 61.1041 12.7807C61.5034 12.6809 61.918 12.631 62.348 12.631ZM63.3731 16.0401L62.6129 16.0632C61.9756 16.0862 61.5341 16.1975 61.2884 16.3972C61.0427 16.5891 60.9199 16.8502 60.9199 17.1803C60.9199 17.4798 61.0043 17.6948 61.1732 17.8253C61.3498 17.9482 61.5802 18.0096 61.8643 18.0096C62.2866 18.0096 62.6436 17.8906 62.9354 17.6526C63.2272 17.4068 63.3731 17.046 63.3731 16.5699V16.0401Z" fill="#1E1E1E"/>
<path d="M70.8592 18.9886H69.408V10.7652H74.0725V11.9975H70.8592V14.4162H73.8537V15.6485H70.8592V18.9886Z" fill="#1E1E1E"/>
<path d="M77.7783 12.631C78.5845 12.631 79.1949 12.8076 79.6095 13.1608C80.0318 13.514 80.243 14.0591 80.243 14.7963V18.9886H79.2179L78.93 18.1248H78.8839C78.6152 18.4626 78.3311 18.7121 78.0317 18.8734C77.7322 19.027 77.3253 19.1037 76.8108 19.1037C76.2503 19.1037 75.7858 18.9463 75.4172 18.6315C75.0487 18.3167 74.8644 17.8292 74.8644 17.1688C74.8644 16.5239 75.0986 16.0401 75.5669 15.7176C76.043 15.3952 76.7609 15.2147 77.7207 15.1763L78.8033 15.1418V14.8308C78.8033 14.4315 78.7073 14.1474 78.5154 13.9785C78.3234 13.8096 78.0547 13.7251 77.7092 13.7251C77.3944 13.7251 77.0911 13.7712 76.7993 13.8633C76.5152 13.9478 76.2311 14.0553 75.947 14.1858L75.4863 13.1723C75.7935 13.0111 76.1428 12.8805 76.5344 12.7807C76.9337 12.6809 77.3483 12.631 77.7783 12.631ZM78.8033 16.0401L78.0432 16.0632C77.4059 16.0862 76.9644 16.1975 76.7187 16.3972C76.473 16.5891 76.3501 16.8502 76.3501 17.1803C76.3501 17.4798 76.4346 17.6948 76.6035 17.8253C76.7801 17.9482 77.0105 18.0096 77.2945 18.0096C77.7168 18.0096 78.0739 17.8906 78.3657 17.6526C78.6574 17.4068 78.8033 17.046 78.8033 16.5699V16.0401Z" fill="#1E1E1E"/>
<path d="M83.3361 10.2354V12.3085C83.3361 12.5542 83.3284 12.7922 83.313 13.0226C83.2977 13.2529 83.2823 13.4334 83.2669 13.5639H83.3361C83.505 13.3028 83.7353 13.084 84.0271 12.9074C84.3189 12.7231 84.6989 12.631 85.1673 12.631C85.8891 12.631 86.4726 12.9036 86.9179 13.4487C87.371 13.9939 87.5975 14.7963 87.5975 15.8558C87.5975 16.9308 87.371 17.7409 86.9179 18.286C86.4649 18.8312 85.8699 19.1037 85.1328 19.1037C84.6644 19.1037 84.2881 19.0193 84.0041 18.8504C83.7276 18.6814 83.505 18.4856 83.3361 18.263H83.2324L82.9675 18.9886H81.8849V10.2354H83.3361ZM84.7527 13.8058C84.2306 13.8058 83.8658 13.9632 83.6585 14.278C83.4512 14.5928 83.3437 15.0765 83.3361 15.7292V15.8558C83.3361 16.5239 83.4359 17.0345 83.6355 17.3877C83.8428 17.7409 84.2229 17.9175 84.7757 17.9175C85.2057 17.9175 85.5359 17.7409 85.7662 17.3877C85.9966 17.0268 86.1117 16.5123 86.1117 15.8443C86.1117 15.161 85.9927 14.6504 85.7547 14.3125C85.5243 13.9747 85.1903 13.8058 84.7527 13.8058Z" fill="#1E1E1E"/>
<path d="M89.6434 10.339C89.8584 10.339 90.0465 10.3966 90.2078 10.5118C90.369 10.6193 90.4497 10.8151 90.4497 11.0992C90.4497 11.3833 90.369 11.5829 90.2078 11.6981C90.0465 11.8133 89.8584 11.8708 89.6434 11.8708C89.4208 11.8708 89.2288 11.8133 89.0676 11.6981C88.914 11.5829 88.8372 11.3833 88.8372 11.0992C88.8372 10.8151 88.914 10.6193 89.0676 10.5118C89.2288 10.3966 89.4208 10.339 89.6434 10.339ZM90.369 12.7462V18.9886H88.9178V12.7462H90.369Z" fill="#1E1E1E"/>
<path d="M94.5357 12.631C95.3419 12.631 95.9524 12.8076 96.367 13.1608C96.7893 13.514 97.0004 14.0591 97.0004 14.7963V18.9886H95.9754L95.6875 18.1248H95.6414C95.3727 18.4626 95.0886 18.7121 94.7891 18.8734C94.4897 19.027 94.0827 19.1037 93.5683 19.1037C93.0078 19.1037 92.5432 18.9463 92.1747 18.6315C91.8061 18.3167 91.6218 17.8292 91.6218 17.1688C91.6218 16.5239 91.856 16.0401 92.3244 15.7176C92.8004 15.3952 93.5184 15.2147 94.4781 15.1763L95.5608 15.1418V14.8308C95.5608 14.4315 95.4648 14.1474 95.2728 13.9785C95.0809 13.8096 94.8121 13.7251 94.4666 13.7251C94.1518 13.7251 93.8485 13.7712 93.5568 13.8633C93.2727 13.9478 92.9886 14.0553 92.7045 14.1858L92.2438 13.1723C92.5509 13.0111 92.9003 12.8805 93.2919 12.7807C93.6911 12.6809 94.1057 12.631 94.5357 12.631ZM95.5608 16.0401L94.8006 16.0632C94.1633 16.0862 93.7218 16.1975 93.4761 16.3972C93.2304 16.5891 93.1076 16.8502 93.1076 17.1803C93.1076 17.4798 93.192 17.6948 93.361 17.8253C93.5376 17.9482 93.7679 18.0096 94.052 18.0096C94.4743 18.0096 94.8313 17.8906 95.1231 17.6526C95.4149 17.4068 95.5608 17.046 95.5608 16.5699V16.0401Z" fill="#1E1E1E"/>
<path d="M34.1905 32.8094V28.7092C34.1905 28.5126 34.1935 28.3038 34.1997 28.0827C34.212 27.8615 34.2212 27.6557 34.2273 27.4653C34.172 27.5267 34.0983 27.6005 34.0062 27.6865C33.9141 27.7725 33.8158 27.8554 33.7113 27.9352L32.9835 28.5249L32.403 27.8062L34.3932 26.2307H35.3606V32.8094H34.1905Z" fill="#1E1E1E"/>
<path d="M41.4889 32.8094L40.89 31.0679H38.4115L37.8218 32.8094H36.5687L38.9827 26.203H40.328L42.742 32.8094H41.4889ZM40.5859 30.0544L40.0147 28.3591C39.9901 28.2792 39.9533 28.1656 39.9041 28.0182C39.855 27.8646 39.8089 27.711 39.7659 27.5575C39.7229 27.3978 39.6861 27.2657 39.6553 27.1613C39.6246 27.2903 39.5847 27.4346 39.5356 27.5943C39.4926 27.754 39.4496 27.9045 39.4066 28.0458C39.3697 28.1871 39.339 28.2915 39.3144 28.3591L38.734 30.0544H40.5859Z" fill="#1E1E1E"/>
<path d="M43.4306 26.2307H45.4115C46.2654 26.2307 46.9103 26.3535 47.3465 26.5992C47.7887 26.8449 48.0099 27.2718 48.0099 27.8799C48.0099 28.2608 47.9146 28.5802 47.7242 28.8382C47.5338 29.09 47.2605 29.2497 46.9042 29.3173V29.3634C47.1438 29.4125 47.3587 29.4924 47.5492 29.6029C47.7457 29.7135 47.9024 29.8763 48.0191 30.0913C48.1358 30.3001 48.1941 30.5765 48.1941 30.9205C48.1941 31.5164 47.9822 31.9801 47.5584 32.3118C47.1345 32.6435 46.5602 32.8094 45.8354 32.8094H43.4306V26.2307ZM44.6099 28.9119H45.5682C46.035 28.9119 46.3544 28.8382 46.5264 28.6908C46.7046 28.5372 46.7936 28.3191 46.7936 28.0366C46.7936 27.7417 46.6861 27.5298 46.4711 27.4008C46.2623 27.2718 45.9306 27.2073 45.476 27.2073H44.6099V28.9119ZM44.6099 29.8609V31.8235H45.6787C46.1579 31.8235 46.4896 31.7313 46.6738 31.5471C46.8643 31.3566 46.9595 31.1109 46.9595 30.81C46.9595 30.5213 46.8612 30.2909 46.6646 30.1189C46.4742 29.9469 46.1272 29.8609 45.6235 29.8609H44.6099Z" fill="#1E1E1E"/>
<path d="M52.6766 32.8094V28.7092C52.6766 28.5126 52.6797 28.3038 52.6858 28.0827C52.6981 27.8615 52.7073 27.6557 52.7135 27.4653C52.6582 27.5267 52.5845 27.6005 52.4924 27.6865C52.4002 27.7725 52.3019 27.8554 52.1975 27.9352L51.4696 28.5249L50.8891 27.8062L52.8793 26.2307H53.8468V32.8094H52.6766Z" fill="#1E1E1E"/>
<path d="M55.3866 32.8094V31.9525L57.0635 30.2571C57.3952 29.9193 57.6655 29.6306 57.8743 29.391C58.0893 29.1515 58.2459 28.9273 58.3442 28.7184C58.4486 28.5034 58.5009 28.2731 58.5009 28.0274C58.5009 27.7264 58.4149 27.5022 58.2429 27.3548C58.0709 27.2012 57.8436 27.1244 57.561 27.1244C57.2846 27.1244 57.0266 27.1828 56.7871 27.2995C56.5475 27.41 56.2987 27.5697 56.0408 27.7786L55.405 27.0138C55.6753 26.7804 55.9824 26.5777 56.3264 26.4057C56.6704 26.2276 57.1034 26.1385 57.6255 26.1385C58.0494 26.1385 58.4149 26.2153 58.722 26.3689C59.0291 26.5163 59.2656 26.7251 59.4315 26.9954C59.5973 27.2595 59.6802 27.5636 59.6802 27.9076C59.6802 28.2639 59.6096 28.5925 59.4683 28.8935C59.327 29.1883 59.1213 29.4862 58.851 29.7872C58.5869 30.0821 58.2705 30.4015 57.902 30.7455L56.8516 31.7498V31.8051H59.8922V32.8094H55.3866Z" fill="#1E1E1E"/>
<path d="M64.6509 27.7325C64.6509 28.1809 64.5188 28.5403 64.2547 28.8105C63.9967 29.0747 63.6619 29.2528 63.2504 29.345V29.3726C63.7786 29.4402 64.1779 29.606 64.4482 29.8701C64.7184 30.1343 64.8536 30.4813 64.8536 30.9113C64.8536 31.2921 64.7614 31.6331 64.5772 31.934C64.3929 32.235 64.1073 32.4715 63.7203 32.6435C63.3394 32.8155 62.848 32.9015 62.2461 32.9015C61.8836 32.9015 61.5489 32.8708 61.2417 32.8094C60.9408 32.7541 60.6551 32.665 60.3849 32.5422V31.5194C60.6613 31.6607 60.9561 31.7682 61.2694 31.8419C61.5827 31.9156 61.8775 31.9525 62.1539 31.9525C62.6883 31.9525 63.0661 31.8573 63.2872 31.6668C63.5084 31.4703 63.6189 31.2 63.6189 30.856C63.6189 30.5305 63.4899 30.2878 63.2319 30.1281C62.9739 29.9684 62.544 29.8886 61.942 29.8886H61.3892V28.958H61.9512C62.5348 28.958 62.9371 28.8628 63.1582 28.6723C63.3794 28.4819 63.4899 28.2362 63.4899 27.9352C63.4899 27.6711 63.4039 27.4653 63.2319 27.3179C63.0599 27.1705 62.802 27.0968 62.458 27.0968C62.1263 27.0968 61.8406 27.1521 61.6011 27.2626C61.3615 27.367 61.1465 27.4807 60.9561 27.6035L60.4033 26.8019C60.6551 26.6176 60.953 26.461 61.297 26.332C61.641 26.203 62.0464 26.1385 62.5133 26.1385C63.1951 26.1385 63.7203 26.2829 64.0888 26.5716C64.4635 26.8603 64.6509 27.2473 64.6509 27.7325Z" fill="#1E1E1E"/>
<path d="M68.2083 32.8094V31.3996H65.2783V30.5335L68.236 26.2122H69.3509V30.4506H70.2077V31.3996H69.3509V32.8094H68.2083ZM68.2083 30.4506V28.6908C68.2083 28.4389 68.2114 28.2239 68.2176 28.0458C68.2298 27.8677 68.2391 27.7141 68.2452 27.5851H68.2083C68.1531 27.6957 68.0855 27.8155 68.0056 27.9444C67.9319 28.0673 67.8582 28.184 67.7845 28.2946L66.3379 30.4506H68.2083Z" fill="#1E1E1E"/>
<path d="M12.7948 20.716V21.0519C12.7948 21.3319 12.6953 21.5698 12.4962 21.7658C12.2972 21.9617 12.0555 22.0597 11.7711 22.0597C11.4867 22.0597 11.245 21.9617 11.0459 21.7658C10.8468 21.5698 10.7473 21.3319 10.7473 21.0519V16.2482C10.7473 16.1699 10.753 16.0915 10.7644 16.0131C10.7758 15.9347 10.7928 15.8619 10.8156 15.7947L12.0953 12.2172C12.1863 11.9484 12.3512 11.7301 12.5901 11.5621C12.829 11.3942 13.0963 11.3102 13.392 11.3102H20.3878C20.6835 11.3102 20.9508 11.3942 21.1897 11.5621C21.4286 11.7301 21.5935 11.9484 21.6845 12.2172L22.9642 15.7947C22.987 15.8619 23.004 15.9347 23.0154 16.0131C23.0268 16.0915 23.0325 16.1699 23.0325 16.2482V21.0519C23.0325 21.3319 22.9329 21.5698 22.7339 21.7658C22.5348 21.9617 22.2931 22.0597 22.0087 22.0597C21.7243 22.0597 21.4826 21.9617 21.2835 21.7658C21.0845 21.5698 20.9849 21.3319 20.9849 21.0519V20.716H12.7948ZM12.6583 14.6694H21.1214L20.4048 12.6539H13.375L12.6583 14.6694ZM13.8186 18.7005C14.103 18.7005 14.3447 18.6025 14.5438 18.4065C14.7428 18.2106 14.8424 17.9726 14.8424 17.6927C14.8424 17.4128 14.7428 17.1748 14.5438 16.9789C14.3447 16.7829 14.103 16.6849 13.8186 16.6849C13.5342 16.6849 13.2925 16.7829 13.0934 16.9789C12.8944 17.1748 12.7948 17.4128 12.7948 17.6927C12.7948 17.9726 12.8944 18.2106 13.0934 18.4065C13.2925 18.6025 13.5342 18.7005 13.8186 18.7005ZM19.9612 18.7005C20.2456 18.7005 20.4873 18.6025 20.6863 18.4065C20.8854 18.2106 20.9849 17.9726 20.9849 17.6927C20.9849 17.4128 20.8854 17.1748 20.6863 16.9789C20.4873 16.7829 20.2456 16.6849 19.9612 16.6849C19.6768 16.6849 19.4351 16.7829 19.236 16.9789C19.037 17.1748 18.9374 17.4128 18.9374 17.6927C18.9374 17.9726 19.037 18.2106 19.236 18.4065C19.4351 18.6025 19.6768 18.7005 19.9612 18.7005Z" fill="#0FC26C"/>
<circle cx="138.658" cy="12.063" r="4.59024" fill="#FFA865"/>
<circle cx="181.22" cy="12.063" r="4.59024" fill="url(#paint4_linear_5168_6681)"/>
<defs>
<linearGradient id="paint0_linear_5168_6681" x1="142.413" y1="53.4457" x2="174.158" y2="69.3514" gradientUnits="userSpaceOnUse">
<stop stop-color="#B1F7AD"/>
<stop offset="1" stop-color="#9EF2CA"/>
</linearGradient>
<linearGradient id="paint1_linear_5168_6681" x1="142.413" y1="95.1745" x2="174.158" y2="111.08" gradientUnits="userSpaceOnUse">
<stop stop-color="#C3C9FF"/>
<stop offset="1" stop-color="#ADD3FF"/>
</linearGradient>
<linearGradient id="paint2_linear_5168_6681" x1="184.141" y1="53.4457" x2="215.886" y2="69.3514" gradientUnits="userSpaceOnUse">
<stop stop-color="#FFB38B"/>
<stop offset="1" stop-color="#FFD19A"/>
</linearGradient>
<linearGradient id="paint3_linear_5168_6681" x1="184.141" y1="95.1745" x2="215.886" y2="111.08" gradientUnits="userSpaceOnUse">
<stop stop-color="#FFA1B3"/>
<stop offset="1" stop-color="#FFAD9F"/>
</linearGradient>
<linearGradient id="paint4_linear_5168_6681" x1="176.63" y1="10.4757" x2="185.36" y2="14.8498" gradientUnits="userSpaceOnUse">
<stop stop-color="#C40127"/>
<stop offset="1" stop-color="#ED3C19"/>
</linearGradient>
</defs>
</svg>
